G75*
G70*
%OFA0B0*%
%FSLAX24Y24*%
%IPPOS*%
%LPD*%
%AMOC8*
5,1,8,0,0,1.08239X$1,22.5*
%
%ADD10C,0.0050*%
%ADD11C,0.0000*%
%ADD12C,0.0080*%
%ADD13C,0.0090*%
%ADD14C,0.0040*%
%ADD15C,0.0070*%
%ADD16C,0.0060*%
D10*
X012906Y009970D02*
X012906Y013470D01*
X012906Y013471D02*
X012907Y013535D01*
X012903Y013600D01*
X012896Y013664D01*
X012885Y013728D01*
X012870Y013791D01*
X012852Y013853D01*
X012830Y013914D01*
X012805Y013974D01*
X012776Y014032D01*
X012744Y014088D01*
X012709Y014142D01*
X012670Y014194D01*
X012629Y014244D01*
X012585Y014291D01*
X012538Y014336D01*
X012488Y014378D01*
X012437Y014417D01*
X012383Y014453D01*
X012327Y014485D01*
X012269Y014515D01*
X012210Y014540D01*
X012149Y014563D01*
X012087Y014582D01*
X012024Y014597D01*
X011960Y014608D01*
X011896Y014616D01*
X011831Y014620D01*
X011031Y014620D01*
X010964Y014622D01*
X010897Y014628D01*
X010831Y014637D01*
X010766Y014651D01*
X010701Y014668D01*
X010638Y014689D01*
X010576Y014714D01*
X010515Y014742D01*
X010456Y014774D01*
X010399Y014809D01*
X010344Y014848D01*
X010292Y014889D01*
X010242Y014934D01*
X010195Y014981D01*
X010150Y015031D01*
X010109Y015083D01*
X010070Y015138D01*
X010035Y015195D01*
X010003Y015254D01*
X009975Y015315D01*
X009950Y015377D01*
X009929Y015440D01*
X009912Y015505D01*
X009898Y015570D01*
X009889Y015636D01*
X009883Y015703D01*
X009881Y015770D01*
X009881Y019545D01*
X009883Y019587D01*
X009889Y019628D01*
X009898Y019668D01*
X009911Y019708D01*
X009928Y019746D01*
X009948Y019782D01*
X009972Y019816D01*
X009998Y019848D01*
X010028Y019878D01*
X010060Y019904D01*
X010094Y019928D01*
X010130Y019948D01*
X010168Y019965D01*
X010208Y019978D01*
X010248Y019987D01*
X010289Y019993D01*
X010331Y019995D01*
X013256Y019995D01*
X013286Y019993D01*
X013316Y019988D01*
X013345Y019979D01*
X013372Y019966D01*
X013398Y019951D01*
X013422Y019932D01*
X013443Y019911D01*
X013462Y019887D01*
X013477Y019861D01*
X013490Y019834D01*
X013499Y019805D01*
X013504Y019775D01*
X013506Y019745D01*
X013506Y019520D01*
X013508Y019494D01*
X013513Y019468D01*
X013521Y019443D01*
X013533Y019420D01*
X013547Y019398D01*
X013565Y019379D01*
X013584Y019361D01*
X013606Y019347D01*
X013629Y019335D01*
X013654Y019327D01*
X013680Y019322D01*
X013706Y019320D01*
X013956Y019320D01*
X013982Y019322D01*
X014008Y019327D01*
X014033Y019335D01*
X014056Y019347D01*
X014078Y019361D01*
X014097Y019379D01*
X014115Y019398D01*
X014129Y019420D01*
X014141Y019443D01*
X014149Y019468D01*
X014154Y019494D01*
X014156Y019520D01*
X014156Y019745D01*
X014158Y019775D01*
X014163Y019805D01*
X014172Y019834D01*
X014185Y019861D01*
X014200Y019887D01*
X014219Y019911D01*
X014240Y019932D01*
X014264Y019951D01*
X014290Y019966D01*
X014317Y019979D01*
X014346Y019988D01*
X014376Y019993D01*
X014406Y019995D01*
X017556Y019995D01*
X017598Y019993D01*
X017639Y019987D01*
X017679Y019978D01*
X017719Y019965D01*
X017757Y019948D01*
X017793Y019928D01*
X017827Y019904D01*
X017859Y019878D01*
X017889Y019848D01*
X017915Y019816D01*
X017939Y019782D01*
X017959Y019746D01*
X017976Y019708D01*
X017989Y019668D01*
X017998Y019628D01*
X018004Y019587D01*
X018006Y019545D01*
X018006Y016295D01*
X021156Y013120D01*
X021156Y001995D01*
X021154Y001953D01*
X021148Y001912D01*
X021139Y001872D01*
X021126Y001832D01*
X021109Y001794D01*
X021089Y001758D01*
X021065Y001724D01*
X021039Y001692D01*
X021009Y001662D01*
X020977Y001636D01*
X020943Y001612D01*
X020907Y001592D01*
X020869Y001575D01*
X020829Y001562D01*
X020789Y001553D01*
X020748Y001547D01*
X020706Y001545D01*
X015181Y001545D01*
X015139Y001547D01*
X015098Y001553D01*
X015058Y001562D01*
X015018Y001575D01*
X014980Y001592D01*
X014944Y001612D01*
X014910Y001636D01*
X014878Y001662D01*
X014848Y001692D01*
X014822Y001724D01*
X014798Y001758D01*
X014778Y001794D01*
X014761Y001832D01*
X014748Y001872D01*
X014739Y001912D01*
X014733Y001953D01*
X014731Y001995D01*
X014731Y009020D01*
X014729Y009064D01*
X014723Y009107D01*
X014714Y009149D01*
X014701Y009191D01*
X014684Y009231D01*
X014664Y009270D01*
X014641Y009307D01*
X014614Y009341D01*
X014585Y009374D01*
X014552Y009403D01*
X014518Y009430D01*
X014481Y009453D01*
X014442Y009473D01*
X014402Y009490D01*
X014360Y009503D01*
X014318Y009512D01*
X014275Y009518D01*
X014231Y009520D01*
X013356Y009520D01*
X013314Y009522D01*
X013273Y009528D01*
X013233Y009537D01*
X013193Y009550D01*
X013155Y009567D01*
X013119Y009587D01*
X013085Y009611D01*
X013053Y009637D01*
X013023Y009667D01*
X012997Y009699D01*
X012973Y009733D01*
X012953Y009769D01*
X012936Y009807D01*
X012923Y009847D01*
X012914Y009887D01*
X012908Y009928D01*
X012906Y009970D01*
D11*
X016740Y009277D02*
X016742Y009321D01*
X016748Y009365D01*
X016758Y009408D01*
X016771Y009450D01*
X016788Y009491D01*
X016809Y009530D01*
X016833Y009567D01*
X016860Y009602D01*
X016890Y009634D01*
X016923Y009664D01*
X016959Y009690D01*
X016996Y009714D01*
X017036Y009733D01*
X017077Y009750D01*
X017120Y009762D01*
X017163Y009771D01*
X017207Y009776D01*
X017251Y009777D01*
X017295Y009774D01*
X017339Y009767D01*
X017382Y009756D01*
X017424Y009742D01*
X017464Y009724D01*
X017503Y009702D01*
X017539Y009678D01*
X017573Y009650D01*
X017605Y009619D01*
X017634Y009585D01*
X017660Y009549D01*
X017682Y009511D01*
X017701Y009471D01*
X017716Y009429D01*
X017728Y009387D01*
X017736Y009343D01*
X017740Y009299D01*
X017740Y009255D01*
X017736Y009211D01*
X017728Y009167D01*
X017716Y009125D01*
X017701Y009083D01*
X017682Y009043D01*
X017660Y009005D01*
X017634Y008969D01*
X017605Y008935D01*
X017573Y008904D01*
X017539Y008876D01*
X017503Y008852D01*
X017464Y008830D01*
X017424Y008812D01*
X017382Y008798D01*
X017339Y008787D01*
X017295Y008780D01*
X017251Y008777D01*
X017207Y008778D01*
X017163Y008783D01*
X017120Y008792D01*
X017077Y008804D01*
X017036Y008821D01*
X016996Y008840D01*
X016959Y008864D01*
X016923Y008890D01*
X016890Y008920D01*
X016860Y008952D01*
X016833Y008987D01*
X016809Y009024D01*
X016788Y009063D01*
X016771Y009104D01*
X016758Y009146D01*
X016748Y009189D01*
X016742Y009233D01*
X016740Y009277D01*
X016421Y003664D02*
X016423Y003689D01*
X016429Y003714D01*
X016438Y003737D01*
X016451Y003759D01*
X016467Y003778D01*
X016486Y003795D01*
X016507Y003809D01*
X016530Y003819D01*
X016555Y003826D01*
X016580Y003829D01*
X016605Y003828D01*
X016630Y003823D01*
X016653Y003815D01*
X016676Y003802D01*
X016696Y003787D01*
X016713Y003769D01*
X016728Y003748D01*
X016739Y003726D01*
X016747Y003702D01*
X016751Y003677D01*
X016751Y003651D01*
X016747Y003626D01*
X016739Y003602D01*
X016728Y003580D01*
X016713Y003559D01*
X016696Y003541D01*
X016676Y003526D01*
X016653Y003513D01*
X016630Y003505D01*
X016605Y003500D01*
X016580Y003499D01*
X016555Y003502D01*
X016530Y003509D01*
X016507Y003519D01*
X016486Y003533D01*
X016467Y003550D01*
X016451Y003569D01*
X016438Y003591D01*
X016429Y003614D01*
X016423Y003639D01*
X016421Y003664D01*
X019137Y003664D02*
X019139Y003689D01*
X019145Y003714D01*
X019154Y003737D01*
X019167Y003759D01*
X019183Y003778D01*
X019202Y003795D01*
X019223Y003809D01*
X019246Y003819D01*
X019271Y003826D01*
X019296Y003829D01*
X019321Y003828D01*
X019346Y003823D01*
X019369Y003815D01*
X019392Y003802D01*
X019412Y003787D01*
X019429Y003769D01*
X019444Y003748D01*
X019455Y003726D01*
X019463Y003702D01*
X019467Y003677D01*
X019467Y003651D01*
X019463Y003626D01*
X019455Y003602D01*
X019444Y003580D01*
X019429Y003559D01*
X019412Y003541D01*
X019392Y003526D01*
X019369Y003513D01*
X019346Y003505D01*
X019321Y003500D01*
X019296Y003499D01*
X019271Y003502D01*
X019246Y003509D01*
X019223Y003519D01*
X019202Y003533D01*
X019183Y003550D01*
X019167Y003569D01*
X019154Y003591D01*
X019145Y003614D01*
X019139Y003639D01*
X019137Y003664D01*
D12*
X019759Y003349D02*
X019759Y002649D01*
X019399Y005260D02*
X017864Y005260D01*
X017864Y007229D02*
X019399Y007229D01*
X016129Y003349D02*
X016129Y002649D01*
D13*
X017179Y007032D02*
X017181Y007045D01*
X017186Y007056D01*
X017195Y007066D01*
X017205Y007073D01*
X017218Y007077D01*
X017230Y007077D01*
X017243Y007073D01*
X017253Y007066D01*
X017262Y007056D01*
X017267Y007045D01*
X017269Y007032D01*
X017267Y007019D01*
X017262Y007008D01*
X017253Y006998D01*
X017243Y006991D01*
X017230Y006987D01*
X017218Y006987D01*
X017205Y006991D01*
X017195Y006998D01*
X017186Y007008D01*
X017181Y007019D01*
X017179Y007032D01*
D14*
X016726Y006990D02*
X016726Y006673D01*
X015937Y006673D01*
X015937Y006990D01*
X016726Y006990D01*
X016726Y007373D02*
X016726Y007690D01*
X015937Y007690D01*
X015937Y007373D01*
X016726Y007373D01*
X016726Y006591D02*
X015937Y006591D01*
X015937Y006273D01*
X016726Y006273D01*
X016726Y006591D01*
X016726Y006191D02*
X016726Y005873D01*
X015937Y005873D01*
X015937Y006191D01*
X016726Y006191D01*
X016726Y005790D02*
X016726Y005473D01*
X015937Y005473D01*
X015937Y005790D01*
X016726Y005790D01*
D15*
X017895Y002049D02*
X017895Y001970D01*
X017993Y001970D01*
X017895Y001970D02*
X017895Y001892D01*
D16*
X017472Y001725D02*
X017472Y002216D01*
X018416Y002216D01*
X018416Y001725D01*
X017472Y001725D01*
X018416Y001675D02*
X018416Y002266D01*
M02*
