%
M48
M72
T01C0.0120
T02C0.0157
T03C0.0300
T04C0.0330
T05C0.0354
T06C0.0500
T07C0.1000
%
T01
X16158Y7160
X16555Y7170
X16158Y7870
X17581Y7270
X16781Y6032
X16781Y5632
X16331Y5170
X16581Y4920
X16831Y4670
X17331Y5070
X18531Y3620
X18831Y2270
X17081Y2270
X20731Y2070
X20731Y2820
X20731Y3570
X20731Y4320
X20731Y5070
X20731Y5820
X20031Y5851
X20031Y5457
X20031Y6244
X20031Y6638
X20031Y7032
X20731Y7320
X20731Y6570
T02
X19759Y3885
X19759Y2113
X16129Y2113
X16129Y3885
T03
X16757Y17010
X11626Y17010
T04
X16586Y3664
X19302Y3664
T05
X14571Y12100
X14571Y13100
X16461Y12699
X16461Y11912
X18691Y11670
X18691Y12670
X18691Y13670
T06
X15495Y17252
X12925Y17262
T07
X17240Y9277
M30
