G75*
G70*
%OFA0B0*%
%FSLAX24Y24*%
%IPPOS*%
%LPD*%
%AMOC8*
5,1,8,0,0,1.08239X$1,22.5*
%
%ADD10C,0.0050*%
%ADD11R,0.0118X0.0450*%
%ADD12R,0.0236X0.0450*%
%ADD13C,0.0000*%
%ADD14C,0.0330*%
%ADD15C,0.0004*%
%ADD16R,0.0413X0.0169*%
%ADD17R,0.0906X0.1260*%
%ADD18R,0.0220X0.0197*%
%ADD19C,0.0850*%
%ADD20C,0.0669*%
%ADD21C,0.0551*%
%ADD22C,0.1000*%
D10*
X012906Y009970D02*
X012906Y013470D01*
X012906Y013471D02*
X012907Y013535D01*
X012903Y013600D01*
X012896Y013664D01*
X012885Y013728D01*
X012870Y013791D01*
X012852Y013853D01*
X012830Y013914D01*
X012805Y013974D01*
X012776Y014032D01*
X012744Y014088D01*
X012709Y014142D01*
X012670Y014194D01*
X012629Y014244D01*
X012585Y014291D01*
X012538Y014336D01*
X012488Y014378D01*
X012437Y014417D01*
X012383Y014453D01*
X012327Y014485D01*
X012269Y014515D01*
X012210Y014540D01*
X012149Y014563D01*
X012087Y014582D01*
X012024Y014597D01*
X011960Y014608D01*
X011896Y014616D01*
X011831Y014620D01*
X011031Y014620D01*
X010964Y014622D01*
X010897Y014628D01*
X010831Y014637D01*
X010766Y014651D01*
X010701Y014668D01*
X010638Y014689D01*
X010576Y014714D01*
X010515Y014742D01*
X010456Y014774D01*
X010399Y014809D01*
X010344Y014848D01*
X010292Y014889D01*
X010242Y014934D01*
X010195Y014981D01*
X010150Y015031D01*
X010109Y015083D01*
X010070Y015138D01*
X010035Y015195D01*
X010003Y015254D01*
X009975Y015315D01*
X009950Y015377D01*
X009929Y015440D01*
X009912Y015505D01*
X009898Y015570D01*
X009889Y015636D01*
X009883Y015703D01*
X009881Y015770D01*
X009881Y019545D01*
X009883Y019587D01*
X009889Y019628D01*
X009898Y019668D01*
X009911Y019708D01*
X009928Y019746D01*
X009948Y019782D01*
X009972Y019816D01*
X009998Y019848D01*
X010028Y019878D01*
X010060Y019904D01*
X010094Y019928D01*
X010130Y019948D01*
X010168Y019965D01*
X010208Y019978D01*
X010248Y019987D01*
X010289Y019993D01*
X010331Y019995D01*
X013256Y019995D01*
X013286Y019993D01*
X013316Y019988D01*
X013345Y019979D01*
X013372Y019966D01*
X013398Y019951D01*
X013422Y019932D01*
X013443Y019911D01*
X013462Y019887D01*
X013477Y019861D01*
X013490Y019834D01*
X013499Y019805D01*
X013504Y019775D01*
X013506Y019745D01*
X013506Y019520D01*
X013508Y019494D01*
X013513Y019468D01*
X013521Y019443D01*
X013533Y019420D01*
X013547Y019398D01*
X013565Y019379D01*
X013584Y019361D01*
X013606Y019347D01*
X013629Y019335D01*
X013654Y019327D01*
X013680Y019322D01*
X013706Y019320D01*
X013956Y019320D01*
X013982Y019322D01*
X014008Y019327D01*
X014033Y019335D01*
X014056Y019347D01*
X014078Y019361D01*
X014097Y019379D01*
X014115Y019398D01*
X014129Y019420D01*
X014141Y019443D01*
X014149Y019468D01*
X014154Y019494D01*
X014156Y019520D01*
X014156Y019745D01*
X014158Y019775D01*
X014163Y019805D01*
X014172Y019834D01*
X014185Y019861D01*
X014200Y019887D01*
X014219Y019911D01*
X014240Y019932D01*
X014264Y019951D01*
X014290Y019966D01*
X014317Y019979D01*
X014346Y019988D01*
X014376Y019993D01*
X014406Y019995D01*
X017556Y019995D01*
X017598Y019993D01*
X017639Y019987D01*
X017679Y019978D01*
X017719Y019965D01*
X017757Y019948D01*
X017793Y019928D01*
X017827Y019904D01*
X017859Y019878D01*
X017889Y019848D01*
X017915Y019816D01*
X017939Y019782D01*
X017959Y019746D01*
X017976Y019708D01*
X017989Y019668D01*
X017998Y019628D01*
X018004Y019587D01*
X018006Y019545D01*
X018006Y016295D01*
X021156Y013120D01*
X021156Y001995D01*
X021154Y001953D01*
X021148Y001912D01*
X021139Y001872D01*
X021126Y001832D01*
X021109Y001794D01*
X021089Y001758D01*
X021065Y001724D01*
X021039Y001692D01*
X021009Y001662D01*
X020977Y001636D01*
X020943Y001612D01*
X020907Y001592D01*
X020869Y001575D01*
X020829Y001562D01*
X020789Y001553D01*
X020748Y001547D01*
X020706Y001545D01*
X015181Y001545D01*
X015139Y001547D01*
X015098Y001553D01*
X015058Y001562D01*
X015018Y001575D01*
X014980Y001592D01*
X014944Y001612D01*
X014910Y001636D01*
X014878Y001662D01*
X014848Y001692D01*
X014822Y001724D01*
X014798Y001758D01*
X014778Y001794D01*
X014761Y001832D01*
X014748Y001872D01*
X014739Y001912D01*
X014733Y001953D01*
X014731Y001995D01*
X014731Y009020D01*
X014729Y009064D01*
X014723Y009107D01*
X014714Y009149D01*
X014701Y009191D01*
X014684Y009231D01*
X014664Y009270D01*
X014641Y009307D01*
X014614Y009341D01*
X014585Y009374D01*
X014552Y009403D01*
X014518Y009430D01*
X014481Y009453D01*
X014442Y009473D01*
X014402Y009490D01*
X014360Y009503D01*
X014318Y009512D01*
X014275Y009518D01*
X014231Y009520D01*
X013356Y009520D01*
X013314Y009522D01*
X013273Y009528D01*
X013233Y009537D01*
X013193Y009550D01*
X013155Y009567D01*
X013119Y009587D01*
X013085Y009611D01*
X013053Y009637D01*
X013023Y009667D01*
X012997Y009699D01*
X012973Y009733D01*
X012953Y009769D01*
X012936Y009807D01*
X012923Y009847D01*
X012914Y009887D01*
X012908Y009928D01*
X012906Y009970D01*
D11*
X017255Y004110D03*
X017452Y004110D03*
X017649Y004110D03*
X017846Y004110D03*
X018042Y004110D03*
X018239Y004110D03*
X018436Y004110D03*
X018633Y004110D03*
D12*
X018909Y004110D03*
X019214Y004110D03*
X016979Y004110D03*
X016674Y004110D03*
D13*
X016421Y003664D02*
X016423Y003689D01*
X016429Y003714D01*
X016438Y003737D01*
X016451Y003759D01*
X016467Y003778D01*
X016486Y003795D01*
X016507Y003809D01*
X016530Y003819D01*
X016555Y003826D01*
X016580Y003829D01*
X016605Y003828D01*
X016630Y003823D01*
X016653Y003815D01*
X016676Y003802D01*
X016696Y003787D01*
X016713Y003769D01*
X016728Y003748D01*
X016739Y003726D01*
X016747Y003702D01*
X016751Y003677D01*
X016751Y003651D01*
X016747Y003626D01*
X016739Y003602D01*
X016728Y003580D01*
X016713Y003559D01*
X016696Y003541D01*
X016676Y003526D01*
X016653Y003513D01*
X016630Y003505D01*
X016605Y003500D01*
X016580Y003499D01*
X016555Y003502D01*
X016530Y003509D01*
X016507Y003519D01*
X016486Y003533D01*
X016467Y003550D01*
X016451Y003569D01*
X016438Y003591D01*
X016429Y003614D01*
X016423Y003639D01*
X016421Y003664D01*
X019137Y003664D02*
X019139Y003689D01*
X019145Y003714D01*
X019154Y003737D01*
X019167Y003759D01*
X019183Y003778D01*
X019202Y003795D01*
X019223Y003809D01*
X019246Y003819D01*
X019271Y003826D01*
X019296Y003829D01*
X019321Y003828D01*
X019346Y003823D01*
X019369Y003815D01*
X019392Y003802D01*
X019412Y003787D01*
X019429Y003769D01*
X019444Y003748D01*
X019455Y003726D01*
X019463Y003702D01*
X019467Y003677D01*
X019467Y003651D01*
X019463Y003626D01*
X019455Y003602D01*
X019444Y003580D01*
X019429Y003559D01*
X019412Y003541D01*
X019392Y003526D01*
X019369Y003513D01*
X019346Y003505D01*
X019321Y003500D01*
X019296Y003499D01*
X019271Y003502D01*
X019246Y003509D01*
X019223Y003519D01*
X019202Y003533D01*
X019183Y003550D01*
X019167Y003569D01*
X019154Y003591D01*
X019145Y003614D01*
X019139Y003639D01*
X019137Y003664D01*
X016740Y009277D02*
X016742Y009321D01*
X016748Y009365D01*
X016758Y009408D01*
X016771Y009450D01*
X016788Y009491D01*
X016809Y009530D01*
X016833Y009567D01*
X016860Y009602D01*
X016890Y009634D01*
X016923Y009664D01*
X016959Y009690D01*
X016996Y009714D01*
X017036Y009733D01*
X017077Y009750D01*
X017120Y009762D01*
X017163Y009771D01*
X017207Y009776D01*
X017251Y009777D01*
X017295Y009774D01*
X017339Y009767D01*
X017382Y009756D01*
X017424Y009742D01*
X017464Y009724D01*
X017503Y009702D01*
X017539Y009678D01*
X017573Y009650D01*
X017605Y009619D01*
X017634Y009585D01*
X017660Y009549D01*
X017682Y009511D01*
X017701Y009471D01*
X017716Y009429D01*
X017728Y009387D01*
X017736Y009343D01*
X017740Y009299D01*
X017740Y009255D01*
X017736Y009211D01*
X017728Y009167D01*
X017716Y009125D01*
X017701Y009083D01*
X017682Y009043D01*
X017660Y009005D01*
X017634Y008969D01*
X017605Y008935D01*
X017573Y008904D01*
X017539Y008876D01*
X017503Y008852D01*
X017464Y008830D01*
X017424Y008812D01*
X017382Y008798D01*
X017339Y008787D01*
X017295Y008780D01*
X017251Y008777D01*
X017207Y008778D01*
X017163Y008783D01*
X017120Y008792D01*
X017077Y008804D01*
X017036Y008821D01*
X016996Y008840D01*
X016959Y008864D01*
X016923Y008890D01*
X016890Y008920D01*
X016860Y008952D01*
X016833Y008987D01*
X016809Y009024D01*
X016788Y009063D01*
X016771Y009104D01*
X016758Y009146D01*
X016748Y009189D01*
X016742Y009233D01*
X016740Y009277D01*
D14*
X016586Y003664D03*
X019302Y003664D03*
D15*
X019524Y003665D02*
X019996Y003665D01*
X019996Y003663D02*
X019524Y003663D01*
X019524Y003660D02*
X019996Y003660D01*
X019996Y003658D02*
X019524Y003658D01*
X019524Y003656D02*
X019996Y003656D01*
X019996Y003653D02*
X019524Y003653D01*
X019524Y003651D02*
X019996Y003651D01*
X019996Y003648D02*
X019524Y003648D01*
X019524Y003647D02*
X019532Y003597D01*
X019988Y003597D01*
X019969Y003550D01*
X019940Y003508D01*
X019903Y003475D01*
X019616Y003475D01*
X019617Y003475D02*
X019579Y003508D01*
X019551Y003550D01*
X019532Y003597D01*
X019532Y003595D02*
X019987Y003595D01*
X019988Y003597D02*
X019996Y003647D01*
X019996Y004119D01*
X019988Y004169D01*
X019970Y004217D01*
X019941Y004259D01*
X019903Y004294D01*
X019902Y004294D02*
X019619Y004294D01*
X019622Y004297D02*
X019898Y004297D01*
X019894Y004299D02*
X019625Y004299D01*
X019628Y004301D02*
X019890Y004301D01*
X019886Y004304D02*
X019631Y004304D01*
X019632Y004304D02*
X019672Y004324D01*
X019715Y004335D01*
X019760Y004338D01*
X019811Y004334D01*
X019859Y004319D01*
X019903Y004294D01*
X019905Y004292D02*
X019615Y004292D01*
X019612Y004289D02*
X019908Y004289D01*
X019911Y004287D02*
X019609Y004287D01*
X019606Y004284D02*
X019913Y004284D01*
X019916Y004282D02*
X019602Y004282D01*
X019599Y004279D02*
X019919Y004279D01*
X019921Y004277D02*
X019596Y004277D01*
X019632Y004304D01*
X019636Y004306D02*
X019881Y004306D01*
X019877Y004309D02*
X019641Y004309D01*
X019646Y004311D02*
X019873Y004311D01*
X019869Y004314D02*
X019651Y004314D01*
X019656Y004316D02*
X019864Y004316D01*
X019860Y004318D02*
X019661Y004318D01*
X019666Y004321D02*
X019853Y004321D01*
X019845Y004323D02*
X019671Y004323D01*
X019680Y004326D02*
X019837Y004326D01*
X019829Y004328D02*
X019689Y004328D01*
X019699Y004331D02*
X019821Y004331D01*
X019813Y004333D02*
X019708Y004333D01*
X019724Y004336D02*
X019788Y004336D01*
X019924Y004275D02*
X019594Y004275D01*
X019596Y004277D02*
X019567Y004244D01*
X019544Y004205D01*
X019530Y004163D01*
X019524Y004119D01*
X019524Y003647D01*
X019524Y003646D02*
X019996Y003646D01*
X019995Y003643D02*
X019524Y003643D01*
X019524Y003641D02*
X019995Y003641D01*
X019995Y003638D02*
X019525Y003638D01*
X019525Y003636D02*
X019994Y003636D01*
X019994Y003634D02*
X019526Y003634D01*
X019526Y003631D02*
X019993Y003631D01*
X019993Y003629D02*
X019526Y003629D01*
X019527Y003626D02*
X019993Y003626D01*
X019992Y003624D02*
X019527Y003624D01*
X019528Y003621D02*
X019992Y003621D01*
X019991Y003619D02*
X019528Y003619D01*
X019528Y003617D02*
X019991Y003617D01*
X019991Y003614D02*
X019529Y003614D01*
X019529Y003612D02*
X019990Y003612D01*
X019990Y003609D02*
X019530Y003609D01*
X019530Y003607D02*
X019990Y003607D01*
X019989Y003604D02*
X019530Y003604D01*
X019531Y003602D02*
X019989Y003602D01*
X019988Y003599D02*
X019531Y003599D01*
X019533Y003592D02*
X019986Y003592D01*
X019985Y003590D02*
X019534Y003590D01*
X019535Y003587D02*
X019984Y003587D01*
X019983Y003585D02*
X019536Y003585D01*
X019537Y003582D02*
X019982Y003582D01*
X019981Y003580D02*
X019538Y003580D01*
X019539Y003578D02*
X019980Y003578D01*
X019979Y003575D02*
X019540Y003575D01*
X019541Y003573D02*
X019978Y003573D01*
X019977Y003570D02*
X019542Y003570D01*
X019543Y003568D02*
X019976Y003568D01*
X019975Y003565D02*
X019544Y003565D01*
X019545Y003563D02*
X019974Y003563D01*
X019973Y003560D02*
X019546Y003560D01*
X019547Y003558D02*
X019972Y003558D01*
X019971Y003556D02*
X019548Y003556D01*
X019549Y003553D02*
X019970Y003553D01*
X019969Y003551D02*
X019550Y003551D01*
X019552Y003548D02*
X019968Y003548D01*
X019966Y003546D02*
X019553Y003546D01*
X019555Y003543D02*
X019964Y003543D01*
X019963Y003541D02*
X019557Y003541D01*
X019559Y003539D02*
X019961Y003539D01*
X019959Y003536D02*
X019560Y003536D01*
X019562Y003534D02*
X019958Y003534D01*
X019956Y003531D02*
X019564Y003531D01*
X019565Y003529D02*
X019954Y003529D01*
X019952Y003526D02*
X019567Y003526D01*
X019569Y003524D02*
X019951Y003524D01*
X019949Y003521D02*
X019570Y003521D01*
X019572Y003519D02*
X019947Y003519D01*
X019946Y003517D02*
X019574Y003517D01*
X019576Y003514D02*
X019944Y003514D01*
X019942Y003512D02*
X019577Y003512D01*
X019579Y003509D02*
X019941Y003509D01*
X019938Y003507D02*
X019581Y003507D01*
X019584Y003504D02*
X019936Y003504D01*
X019933Y003502D02*
X019587Y003502D01*
X019589Y003500D02*
X019930Y003500D01*
X019927Y003497D02*
X019592Y003497D01*
X019595Y003495D02*
X019925Y003495D01*
X019922Y003492D02*
X019597Y003492D01*
X019600Y003490D02*
X019919Y003490D01*
X019917Y003487D02*
X019603Y003487D01*
X019605Y003485D02*
X019914Y003485D01*
X019911Y003482D02*
X019608Y003482D01*
X019611Y003480D02*
X019909Y003480D01*
X019906Y003478D02*
X019613Y003478D01*
X019617Y003475D02*
X019661Y003450D01*
X019709Y003435D01*
X019760Y003432D01*
X019810Y003435D01*
X019859Y003450D01*
X019903Y003475D01*
X019899Y003473D02*
X019620Y003473D01*
X019624Y003470D02*
X019895Y003470D01*
X019891Y003468D02*
X019629Y003468D01*
X019633Y003465D02*
X019886Y003465D01*
X019882Y003463D02*
X019637Y003463D01*
X019642Y003461D02*
X019878Y003461D01*
X019873Y003458D02*
X019646Y003458D01*
X019650Y003456D02*
X019869Y003456D01*
X019865Y003453D02*
X019655Y003453D01*
X019659Y003451D02*
X019861Y003451D01*
X019854Y003448D02*
X019665Y003448D01*
X019674Y003446D02*
X019846Y003446D01*
X019838Y003443D02*
X019682Y003443D01*
X019690Y003441D02*
X019829Y003441D01*
X019821Y003439D02*
X019698Y003439D01*
X019707Y003436D02*
X019813Y003436D01*
X019785Y003434D02*
X019734Y003434D01*
X019524Y003668D02*
X019996Y003668D01*
X019996Y003670D02*
X019524Y003670D01*
X019524Y003673D02*
X019996Y003673D01*
X019996Y003675D02*
X019524Y003675D01*
X019524Y003677D02*
X019996Y003677D01*
X019996Y003680D02*
X019524Y003680D01*
X019524Y003682D02*
X019996Y003682D01*
X019996Y003685D02*
X019524Y003685D01*
X019524Y003687D02*
X019996Y003687D01*
X019996Y003690D02*
X019524Y003690D01*
X019524Y003692D02*
X019996Y003692D01*
X019996Y003695D02*
X019524Y003695D01*
X019524Y003697D02*
X019996Y003697D01*
X019996Y003699D02*
X019524Y003699D01*
X019524Y003702D02*
X019996Y003702D01*
X019996Y003704D02*
X019524Y003704D01*
X019524Y003707D02*
X019996Y003707D01*
X019996Y003709D02*
X019524Y003709D01*
X019524Y003712D02*
X019996Y003712D01*
X019996Y003714D02*
X019524Y003714D01*
X019524Y003716D02*
X019996Y003716D01*
X019996Y003719D02*
X019524Y003719D01*
X019524Y003721D02*
X019996Y003721D01*
X019996Y003724D02*
X019524Y003724D01*
X019524Y003726D02*
X019996Y003726D01*
X019996Y003729D02*
X019524Y003729D01*
X019524Y003731D02*
X019996Y003731D01*
X019996Y003733D02*
X019524Y003733D01*
X019524Y003736D02*
X019996Y003736D01*
X019996Y003738D02*
X019524Y003738D01*
X019524Y003741D02*
X019996Y003741D01*
X019996Y003743D02*
X019524Y003743D01*
X019524Y003746D02*
X019996Y003746D01*
X019996Y003748D02*
X019524Y003748D01*
X019524Y003751D02*
X019996Y003751D01*
X019996Y003753D02*
X019524Y003753D01*
X019524Y003755D02*
X019996Y003755D01*
X019996Y003758D02*
X019524Y003758D01*
X019524Y003760D02*
X019996Y003760D01*
X019996Y003763D02*
X019524Y003763D01*
X019524Y003765D02*
X019996Y003765D01*
X019996Y003768D02*
X019524Y003768D01*
X019524Y003770D02*
X019996Y003770D01*
X019996Y003772D02*
X019524Y003772D01*
X019524Y003775D02*
X019996Y003775D01*
X019996Y003777D02*
X019524Y003777D01*
X019524Y003780D02*
X019996Y003780D01*
X019996Y003782D02*
X019524Y003782D01*
X019524Y003785D02*
X019996Y003785D01*
X019996Y003787D02*
X019524Y003787D01*
X019524Y003790D02*
X019996Y003790D01*
X019996Y003792D02*
X019524Y003792D01*
X019524Y003794D02*
X019996Y003794D01*
X019996Y003797D02*
X019524Y003797D01*
X019524Y003799D02*
X019996Y003799D01*
X019996Y003802D02*
X019524Y003802D01*
X019524Y003804D02*
X019996Y003804D01*
X019996Y003807D02*
X019524Y003807D01*
X019524Y003809D02*
X019996Y003809D01*
X019996Y003811D02*
X019524Y003811D01*
X019524Y003814D02*
X019996Y003814D01*
X019996Y003816D02*
X019524Y003816D01*
X019524Y003819D02*
X019996Y003819D01*
X019996Y003821D02*
X019524Y003821D01*
X019524Y003824D02*
X019996Y003824D01*
X019996Y003826D02*
X019524Y003826D01*
X019524Y003829D02*
X019996Y003829D01*
X019996Y003831D02*
X019524Y003831D01*
X019524Y003833D02*
X019996Y003833D01*
X019996Y003836D02*
X019524Y003836D01*
X019524Y003838D02*
X019996Y003838D01*
X019996Y003841D02*
X019524Y003841D01*
X019524Y003843D02*
X019996Y003843D01*
X019996Y003846D02*
X019524Y003846D01*
X019524Y003848D02*
X019996Y003848D01*
X019996Y003850D02*
X019524Y003850D01*
X019524Y003853D02*
X019996Y003853D01*
X019996Y003855D02*
X019524Y003855D01*
X019524Y003858D02*
X019996Y003858D01*
X019996Y003860D02*
X019524Y003860D01*
X019524Y003863D02*
X019996Y003863D01*
X019996Y003865D02*
X019524Y003865D01*
X019524Y003868D02*
X019996Y003868D01*
X019996Y003870D02*
X019524Y003870D01*
X019524Y003872D02*
X019996Y003872D01*
X019996Y003875D02*
X019524Y003875D01*
X019524Y003877D02*
X019996Y003877D01*
X019996Y003880D02*
X019524Y003880D01*
X019524Y003882D02*
X019996Y003882D01*
X019996Y003885D02*
X019524Y003885D01*
X019524Y003887D02*
X019996Y003887D01*
X019996Y003889D02*
X019524Y003889D01*
X019524Y003892D02*
X019996Y003892D01*
X019996Y003894D02*
X019524Y003894D01*
X019524Y003897D02*
X019996Y003897D01*
X019996Y003899D02*
X019524Y003899D01*
X019524Y003902D02*
X019996Y003902D01*
X019996Y003904D02*
X019524Y003904D01*
X019524Y003907D02*
X019996Y003907D01*
X019996Y003909D02*
X019524Y003909D01*
X019524Y003911D02*
X019996Y003911D01*
X019996Y003914D02*
X019524Y003914D01*
X019524Y003916D02*
X019996Y003916D01*
X019996Y003919D02*
X019524Y003919D01*
X019524Y003921D02*
X019996Y003921D01*
X019996Y003924D02*
X019524Y003924D01*
X019524Y003926D02*
X019996Y003926D01*
X019996Y003928D02*
X019524Y003928D01*
X019524Y003931D02*
X019996Y003931D01*
X019996Y003933D02*
X019524Y003933D01*
X019524Y003936D02*
X019996Y003936D01*
X019996Y003938D02*
X019524Y003938D01*
X019524Y003941D02*
X019996Y003941D01*
X019996Y003943D02*
X019524Y003943D01*
X019524Y003946D02*
X019996Y003946D01*
X019996Y003948D02*
X019524Y003948D01*
X019524Y003950D02*
X019996Y003950D01*
X019996Y003953D02*
X019524Y003953D01*
X019524Y003955D02*
X019996Y003955D01*
X019996Y003958D02*
X019524Y003958D01*
X019524Y003960D02*
X019996Y003960D01*
X019996Y003963D02*
X019524Y003963D01*
X019524Y003965D02*
X019996Y003965D01*
X019996Y003967D02*
X019524Y003967D01*
X019524Y003970D02*
X019996Y003970D01*
X019996Y003972D02*
X019524Y003972D01*
X019524Y003975D02*
X019996Y003975D01*
X019996Y003977D02*
X019524Y003977D01*
X019524Y003980D02*
X019996Y003980D01*
X019996Y003982D02*
X019524Y003982D01*
X019524Y003985D02*
X019996Y003985D01*
X019996Y003987D02*
X019524Y003987D01*
X019524Y003989D02*
X019996Y003989D01*
X019996Y003992D02*
X019524Y003992D01*
X019524Y003994D02*
X019996Y003994D01*
X019996Y003997D02*
X019524Y003997D01*
X019524Y003999D02*
X019996Y003999D01*
X019996Y004002D02*
X019524Y004002D01*
X019524Y004004D02*
X019996Y004004D01*
X019996Y004006D02*
X019524Y004006D01*
X019524Y004009D02*
X019996Y004009D01*
X019996Y004011D02*
X019524Y004011D01*
X019524Y004014D02*
X019996Y004014D01*
X019996Y004016D02*
X019524Y004016D01*
X019524Y004019D02*
X019996Y004019D01*
X019996Y004021D02*
X019524Y004021D01*
X019524Y004024D02*
X019996Y004024D01*
X019996Y004026D02*
X019524Y004026D01*
X019524Y004028D02*
X019996Y004028D01*
X019996Y004031D02*
X019524Y004031D01*
X019524Y004033D02*
X019996Y004033D01*
X019996Y004036D02*
X019524Y004036D01*
X019524Y004038D02*
X019996Y004038D01*
X019996Y004041D02*
X019524Y004041D01*
X019524Y004043D02*
X019996Y004043D01*
X019996Y004045D02*
X019524Y004045D01*
X019524Y004048D02*
X019996Y004048D01*
X019996Y004050D02*
X019524Y004050D01*
X019524Y004053D02*
X019996Y004053D01*
X019996Y004055D02*
X019524Y004055D01*
X019524Y004058D02*
X019996Y004058D01*
X019996Y004060D02*
X019524Y004060D01*
X019524Y004063D02*
X019996Y004063D01*
X019996Y004065D02*
X019524Y004065D01*
X019524Y004067D02*
X019996Y004067D01*
X019996Y004070D02*
X019524Y004070D01*
X019524Y004072D02*
X019996Y004072D01*
X019996Y004075D02*
X019524Y004075D01*
X019524Y004077D02*
X019996Y004077D01*
X019996Y004080D02*
X019524Y004080D01*
X019524Y004082D02*
X019996Y004082D01*
X019996Y004084D02*
X019524Y004084D01*
X019524Y004087D02*
X019996Y004087D01*
X019996Y004089D02*
X019524Y004089D01*
X019524Y004092D02*
X019996Y004092D01*
X019996Y004094D02*
X019524Y004094D01*
X019524Y004097D02*
X019996Y004097D01*
X019996Y004099D02*
X019524Y004099D01*
X019524Y004102D02*
X019996Y004102D01*
X019996Y004104D02*
X019524Y004104D01*
X019524Y004106D02*
X019996Y004106D01*
X019996Y004109D02*
X019524Y004109D01*
X019524Y004111D02*
X019996Y004111D01*
X019996Y004114D02*
X019524Y004114D01*
X019524Y004116D02*
X019996Y004116D01*
X019996Y004119D02*
X019524Y004119D01*
X019524Y004121D02*
X019996Y004121D01*
X019995Y004123D02*
X019524Y004123D01*
X019524Y004126D02*
X019995Y004126D01*
X019995Y004128D02*
X019525Y004128D01*
X019525Y004131D02*
X019994Y004131D01*
X019994Y004133D02*
X019525Y004133D01*
X019526Y004136D02*
X019993Y004136D01*
X019993Y004138D02*
X019526Y004138D01*
X019526Y004141D02*
X019993Y004141D01*
X019992Y004143D02*
X019527Y004143D01*
X019527Y004145D02*
X019992Y004145D01*
X019992Y004148D02*
X019527Y004148D01*
X019528Y004150D02*
X019991Y004150D01*
X019991Y004153D02*
X019528Y004153D01*
X019528Y004155D02*
X019990Y004155D01*
X019990Y004158D02*
X019529Y004158D01*
X019529Y004160D02*
X019990Y004160D01*
X019989Y004162D02*
X019530Y004162D01*
X019530Y004165D02*
X019989Y004165D01*
X019989Y004167D02*
X019531Y004167D01*
X019532Y004170D02*
X019988Y004170D01*
X019987Y004172D02*
X019533Y004172D01*
X019534Y004175D02*
X019986Y004175D01*
X019985Y004177D02*
X019534Y004177D01*
X019535Y004180D02*
X019984Y004180D01*
X019983Y004182D02*
X019536Y004182D01*
X019537Y004184D02*
X019982Y004184D01*
X019981Y004187D02*
X019538Y004187D01*
X019539Y004189D02*
X019980Y004189D01*
X019980Y004192D02*
X019539Y004192D01*
X019540Y004194D02*
X019979Y004194D01*
X019978Y004197D02*
X019541Y004197D01*
X019542Y004199D02*
X019977Y004199D01*
X019976Y004201D02*
X019543Y004201D01*
X019544Y004204D02*
X019975Y004204D01*
X019974Y004206D02*
X019545Y004206D01*
X019546Y004209D02*
X019973Y004209D01*
X019972Y004211D02*
X019548Y004211D01*
X019549Y004214D02*
X019971Y004214D01*
X019970Y004216D02*
X019550Y004216D01*
X019552Y004219D02*
X019968Y004219D01*
X019967Y004221D02*
X019553Y004221D01*
X019555Y004223D02*
X019965Y004223D01*
X019963Y004226D02*
X019556Y004226D01*
X019558Y004228D02*
X019962Y004228D01*
X019960Y004231D02*
X019559Y004231D01*
X019560Y004233D02*
X019958Y004233D01*
X019957Y004236D02*
X019562Y004236D01*
X019563Y004238D02*
X019955Y004238D01*
X019953Y004240D02*
X019565Y004240D01*
X019566Y004243D02*
X019952Y004243D01*
X019950Y004245D02*
X019568Y004245D01*
X019570Y004248D02*
X019948Y004248D01*
X019947Y004250D02*
X019572Y004250D01*
X019575Y004253D02*
X019945Y004253D01*
X019943Y004255D02*
X019577Y004255D01*
X019579Y004258D02*
X019942Y004258D01*
X019940Y004260D02*
X019581Y004260D01*
X019583Y004262D02*
X019937Y004262D01*
X019934Y004265D02*
X019585Y004265D01*
X019587Y004267D02*
X019932Y004267D01*
X019929Y004270D02*
X019590Y004270D01*
X019592Y004272D02*
X019927Y004272D01*
X019811Y002562D02*
X019859Y002547D01*
X019903Y002522D01*
X019618Y002522D01*
X019615Y002520D02*
X019906Y002520D01*
X019903Y002522D02*
X019941Y002487D01*
X019970Y002445D01*
X019988Y002398D01*
X019532Y002398D01*
X019533Y002400D02*
X019987Y002400D01*
X019988Y002398D02*
X019996Y002347D01*
X019524Y002347D01*
X019530Y002392D01*
X019544Y002434D01*
X019567Y002472D01*
X019596Y002506D01*
X019632Y002533D01*
X019672Y002552D01*
X019715Y002563D01*
X019760Y002566D01*
X019811Y002562D01*
X019814Y002561D02*
X019707Y002561D01*
X019698Y002559D02*
X019822Y002559D01*
X019830Y002556D02*
X019688Y002556D01*
X019679Y002554D02*
X019838Y002554D01*
X019846Y002551D02*
X019671Y002551D01*
X019666Y002549D02*
X019854Y002549D01*
X019861Y002547D02*
X019661Y002547D01*
X019656Y002544D02*
X019865Y002544D01*
X019869Y002542D02*
X019651Y002542D01*
X019646Y002539D02*
X019873Y002539D01*
X019877Y002537D02*
X019641Y002537D01*
X019636Y002534D02*
X019882Y002534D01*
X019886Y002532D02*
X019631Y002532D01*
X019628Y002529D02*
X019890Y002529D01*
X019894Y002527D02*
X019625Y002527D01*
X019621Y002525D02*
X019899Y002525D01*
X019908Y002517D02*
X019612Y002517D01*
X019609Y002515D02*
X019911Y002515D01*
X019914Y002512D02*
X019605Y002512D01*
X019602Y002510D02*
X019916Y002510D01*
X019919Y002508D02*
X019599Y002508D01*
X019596Y002505D02*
X019922Y002505D01*
X019924Y002503D02*
X019594Y002503D01*
X019592Y002500D02*
X019927Y002500D01*
X019929Y002498D02*
X019589Y002498D01*
X019587Y002495D02*
X019932Y002495D01*
X019935Y002493D02*
X019585Y002493D01*
X019583Y002490D02*
X019937Y002490D01*
X019940Y002488D02*
X019581Y002488D01*
X019579Y002486D02*
X019942Y002486D01*
X019944Y002483D02*
X019576Y002483D01*
X019574Y002481D02*
X019945Y002481D01*
X019947Y002478D02*
X019572Y002478D01*
X019570Y002476D02*
X019949Y002476D01*
X019950Y002473D02*
X019568Y002473D01*
X019566Y002471D02*
X019952Y002471D01*
X019954Y002469D02*
X019565Y002469D01*
X019563Y002466D02*
X019955Y002466D01*
X019957Y002464D02*
X019562Y002464D01*
X019560Y002461D02*
X019959Y002461D01*
X019960Y002459D02*
X019559Y002459D01*
X019557Y002456D02*
X019962Y002456D01*
X019964Y002454D02*
X019556Y002454D01*
X019555Y002452D02*
X019965Y002452D01*
X019967Y002449D02*
X019553Y002449D01*
X019552Y002447D02*
X019969Y002447D01*
X019970Y002444D02*
X019550Y002444D01*
X019549Y002442D02*
X019971Y002442D01*
X019972Y002439D02*
X019547Y002439D01*
X019546Y002437D02*
X019973Y002437D01*
X019974Y002434D02*
X019545Y002434D01*
X019544Y002432D02*
X019975Y002432D01*
X019976Y002430D02*
X019543Y002430D01*
X019542Y002427D02*
X019977Y002427D01*
X019978Y002425D02*
X019541Y002425D01*
X019540Y002422D02*
X019979Y002422D01*
X019980Y002420D02*
X019539Y002420D01*
X019539Y002417D02*
X019981Y002417D01*
X019982Y002415D02*
X019538Y002415D01*
X019537Y002413D02*
X019982Y002413D01*
X019983Y002410D02*
X019536Y002410D01*
X019535Y002408D02*
X019984Y002408D01*
X019985Y002405D02*
X019534Y002405D01*
X019533Y002403D02*
X019986Y002403D01*
X019989Y002395D02*
X019531Y002395D01*
X019530Y002393D02*
X019989Y002393D01*
X019989Y002391D02*
X019529Y002391D01*
X019529Y002388D02*
X019990Y002388D01*
X019990Y002386D02*
X019529Y002386D01*
X019528Y002383D02*
X019991Y002383D01*
X019991Y002381D02*
X019528Y002381D01*
X019528Y002378D02*
X019991Y002378D01*
X019992Y002376D02*
X019527Y002376D01*
X019527Y002374D02*
X019992Y002374D01*
X019992Y002371D02*
X019527Y002371D01*
X019526Y002369D02*
X019993Y002369D01*
X019993Y002366D02*
X019526Y002366D01*
X019526Y002364D02*
X019993Y002364D01*
X019994Y002361D02*
X019525Y002361D01*
X019525Y002359D02*
X019994Y002359D01*
X019995Y002356D02*
X019525Y002356D01*
X019524Y002354D02*
X019995Y002354D01*
X019995Y002352D02*
X019524Y002352D01*
X019524Y002349D02*
X019996Y002349D01*
X019996Y002347D02*
X019996Y001875D01*
X019988Y001825D01*
X019969Y001778D01*
X019940Y001737D01*
X019903Y001703D01*
X019616Y001703D01*
X019617Y001703D02*
X019579Y001737D01*
X019940Y001737D01*
X019938Y001735D02*
X019582Y001735D01*
X019579Y001737D02*
X019551Y001778D01*
X019532Y001825D01*
X019524Y001875D01*
X019524Y002347D01*
X019524Y002344D02*
X019996Y002344D01*
X019996Y002342D02*
X019524Y002342D01*
X019524Y002339D02*
X019996Y002339D01*
X019996Y002337D02*
X019524Y002337D01*
X019524Y002335D02*
X019996Y002335D01*
X019996Y002332D02*
X019524Y002332D01*
X019524Y002330D02*
X019996Y002330D01*
X019996Y002327D02*
X019524Y002327D01*
X019524Y002325D02*
X019996Y002325D01*
X019996Y002322D02*
X019524Y002322D01*
X019524Y002320D02*
X019996Y002320D01*
X019996Y002317D02*
X019524Y002317D01*
X019524Y002315D02*
X019996Y002315D01*
X019996Y002313D02*
X019524Y002313D01*
X019524Y002310D02*
X019996Y002310D01*
X019996Y002308D02*
X019524Y002308D01*
X019524Y002305D02*
X019996Y002305D01*
X019996Y002303D02*
X019524Y002303D01*
X019524Y002300D02*
X019996Y002300D01*
X019996Y002298D02*
X019524Y002298D01*
X019524Y002296D02*
X019996Y002296D01*
X019996Y002293D02*
X019524Y002293D01*
X019524Y002291D02*
X019996Y002291D01*
X019996Y002288D02*
X019524Y002288D01*
X019524Y002286D02*
X019996Y002286D01*
X019996Y002283D02*
X019524Y002283D01*
X019524Y002281D02*
X019996Y002281D01*
X019996Y002278D02*
X019524Y002278D01*
X019524Y002276D02*
X019996Y002276D01*
X019996Y002274D02*
X019524Y002274D01*
X019524Y002271D02*
X019996Y002271D01*
X019996Y002269D02*
X019524Y002269D01*
X019524Y002266D02*
X019996Y002266D01*
X019996Y002264D02*
X019524Y002264D01*
X019524Y002261D02*
X019996Y002261D01*
X019996Y002259D02*
X019524Y002259D01*
X019524Y002257D02*
X019996Y002257D01*
X019996Y002254D02*
X019524Y002254D01*
X019524Y002252D02*
X019996Y002252D01*
X019996Y002249D02*
X019524Y002249D01*
X019524Y002247D02*
X019996Y002247D01*
X019996Y002244D02*
X019524Y002244D01*
X019524Y002242D02*
X019996Y002242D01*
X019996Y002239D02*
X019524Y002239D01*
X019524Y002237D02*
X019996Y002237D01*
X019996Y002235D02*
X019524Y002235D01*
X019524Y002232D02*
X019996Y002232D01*
X019996Y002230D02*
X019524Y002230D01*
X019524Y002227D02*
X019996Y002227D01*
X019996Y002225D02*
X019524Y002225D01*
X019524Y002222D02*
X019996Y002222D01*
X019996Y002220D02*
X019524Y002220D01*
X019524Y002218D02*
X019996Y002218D01*
X019996Y002215D02*
X019524Y002215D01*
X019524Y002213D02*
X019996Y002213D01*
X019996Y002210D02*
X019524Y002210D01*
X019524Y002208D02*
X019996Y002208D01*
X019996Y002205D02*
X019524Y002205D01*
X019524Y002203D02*
X019996Y002203D01*
X019996Y002200D02*
X019524Y002200D01*
X019524Y002198D02*
X019996Y002198D01*
X019996Y002196D02*
X019524Y002196D01*
X019524Y002193D02*
X019996Y002193D01*
X019996Y002191D02*
X019524Y002191D01*
X019524Y002188D02*
X019996Y002188D01*
X019996Y002186D02*
X019524Y002186D01*
X019524Y002183D02*
X019996Y002183D01*
X019996Y002181D02*
X019524Y002181D01*
X019524Y002179D02*
X019996Y002179D01*
X019996Y002176D02*
X019524Y002176D01*
X019524Y002174D02*
X019996Y002174D01*
X019996Y002171D02*
X019524Y002171D01*
X019524Y002169D02*
X019996Y002169D01*
X019996Y002166D02*
X019524Y002166D01*
X019524Y002164D02*
X019996Y002164D01*
X019996Y002161D02*
X019524Y002161D01*
X019524Y002159D02*
X019996Y002159D01*
X019996Y002157D02*
X019524Y002157D01*
X019524Y002154D02*
X019996Y002154D01*
X019996Y002152D02*
X019524Y002152D01*
X019524Y002149D02*
X019996Y002149D01*
X019996Y002147D02*
X019524Y002147D01*
X019524Y002144D02*
X019996Y002144D01*
X019996Y002142D02*
X019524Y002142D01*
X019524Y002140D02*
X019996Y002140D01*
X019996Y002137D02*
X019524Y002137D01*
X019524Y002135D02*
X019996Y002135D01*
X019996Y002132D02*
X019524Y002132D01*
X019524Y002130D02*
X019996Y002130D01*
X019996Y002127D02*
X019524Y002127D01*
X019524Y002125D02*
X019996Y002125D01*
X019996Y002122D02*
X019524Y002122D01*
X019524Y002120D02*
X019996Y002120D01*
X019996Y002118D02*
X019524Y002118D01*
X019524Y002115D02*
X019996Y002115D01*
X019996Y002113D02*
X019524Y002113D01*
X019524Y002110D02*
X019996Y002110D01*
X019996Y002108D02*
X019524Y002108D01*
X019524Y002105D02*
X019996Y002105D01*
X019996Y002103D02*
X019524Y002103D01*
X019524Y002101D02*
X019996Y002101D01*
X019996Y002098D02*
X019524Y002098D01*
X019524Y002096D02*
X019996Y002096D01*
X019996Y002093D02*
X019524Y002093D01*
X019524Y002091D02*
X019996Y002091D01*
X019996Y002088D02*
X019524Y002088D01*
X019524Y002086D02*
X019996Y002086D01*
X019996Y002083D02*
X019524Y002083D01*
X019524Y002081D02*
X019996Y002081D01*
X019996Y002079D02*
X019524Y002079D01*
X019524Y002076D02*
X019996Y002076D01*
X019996Y002074D02*
X019524Y002074D01*
X019524Y002071D02*
X019996Y002071D01*
X019996Y002069D02*
X019524Y002069D01*
X019524Y002066D02*
X019996Y002066D01*
X019996Y002064D02*
X019524Y002064D01*
X019524Y002062D02*
X019996Y002062D01*
X019996Y002059D02*
X019524Y002059D01*
X019524Y002057D02*
X019996Y002057D01*
X019996Y002054D02*
X019524Y002054D01*
X019524Y002052D02*
X019996Y002052D01*
X019996Y002049D02*
X019524Y002049D01*
X019524Y002047D02*
X019996Y002047D01*
X019996Y002044D02*
X019524Y002044D01*
X019524Y002042D02*
X019996Y002042D01*
X019996Y002040D02*
X019524Y002040D01*
X019524Y002037D02*
X019996Y002037D01*
X019996Y002035D02*
X019524Y002035D01*
X019524Y002032D02*
X019996Y002032D01*
X019996Y002030D02*
X019524Y002030D01*
X019524Y002027D02*
X019996Y002027D01*
X019996Y002025D02*
X019524Y002025D01*
X019524Y002023D02*
X019996Y002023D01*
X019996Y002020D02*
X019524Y002020D01*
X019524Y002018D02*
X019996Y002018D01*
X019996Y002015D02*
X019524Y002015D01*
X019524Y002013D02*
X019996Y002013D01*
X019996Y002010D02*
X019524Y002010D01*
X019524Y002008D02*
X019996Y002008D01*
X019996Y002005D02*
X019524Y002005D01*
X019524Y002003D02*
X019996Y002003D01*
X019996Y002001D02*
X019524Y002001D01*
X019524Y001998D02*
X019996Y001998D01*
X019996Y001996D02*
X019524Y001996D01*
X019524Y001993D02*
X019996Y001993D01*
X019996Y001991D02*
X019524Y001991D01*
X019524Y001988D02*
X019996Y001988D01*
X019996Y001986D02*
X019524Y001986D01*
X019524Y001984D02*
X019996Y001984D01*
X019996Y001981D02*
X019524Y001981D01*
X019524Y001979D02*
X019996Y001979D01*
X019996Y001976D02*
X019524Y001976D01*
X019524Y001974D02*
X019996Y001974D01*
X019996Y001971D02*
X019524Y001971D01*
X019524Y001969D02*
X019996Y001969D01*
X019996Y001966D02*
X019524Y001966D01*
X019524Y001964D02*
X019996Y001964D01*
X019996Y001962D02*
X019524Y001962D01*
X019524Y001959D02*
X019996Y001959D01*
X019996Y001957D02*
X019524Y001957D01*
X019524Y001954D02*
X019996Y001954D01*
X019996Y001952D02*
X019524Y001952D01*
X019524Y001949D02*
X019996Y001949D01*
X019996Y001947D02*
X019524Y001947D01*
X019524Y001945D02*
X019996Y001945D01*
X019996Y001942D02*
X019524Y001942D01*
X019524Y001940D02*
X019996Y001940D01*
X019996Y001937D02*
X019524Y001937D01*
X019524Y001935D02*
X019996Y001935D01*
X019996Y001932D02*
X019524Y001932D01*
X019524Y001930D02*
X019996Y001930D01*
X019996Y001927D02*
X019524Y001927D01*
X019524Y001925D02*
X019996Y001925D01*
X019996Y001923D02*
X019524Y001923D01*
X019524Y001920D02*
X019996Y001920D01*
X019996Y001918D02*
X019524Y001918D01*
X019524Y001915D02*
X019996Y001915D01*
X019996Y001913D02*
X019524Y001913D01*
X019524Y001910D02*
X019996Y001910D01*
X019996Y001908D02*
X019524Y001908D01*
X019524Y001906D02*
X019996Y001906D01*
X019996Y001903D02*
X019524Y001903D01*
X019524Y001901D02*
X019996Y001901D01*
X019996Y001898D02*
X019524Y001898D01*
X019524Y001896D02*
X019996Y001896D01*
X019996Y001893D02*
X019524Y001893D01*
X019524Y001891D02*
X019996Y001891D01*
X019996Y001888D02*
X019524Y001888D01*
X019524Y001886D02*
X019996Y001886D01*
X019996Y001884D02*
X019524Y001884D01*
X019524Y001881D02*
X019996Y001881D01*
X019996Y001879D02*
X019524Y001879D01*
X019524Y001876D02*
X019996Y001876D01*
X019996Y001874D02*
X019524Y001874D01*
X019524Y001871D02*
X019995Y001871D01*
X019995Y001869D02*
X019524Y001869D01*
X019525Y001867D02*
X019995Y001867D01*
X019994Y001864D02*
X019525Y001864D01*
X019526Y001862D02*
X019994Y001862D01*
X019993Y001859D02*
X019526Y001859D01*
X019526Y001857D02*
X019993Y001857D01*
X019993Y001854D02*
X019527Y001854D01*
X019527Y001852D02*
X019992Y001852D01*
X019992Y001850D02*
X019528Y001850D01*
X019528Y001847D02*
X019991Y001847D01*
X019991Y001845D02*
X019528Y001845D01*
X019529Y001842D02*
X019991Y001842D01*
X019990Y001840D02*
X019529Y001840D01*
X019530Y001837D02*
X019990Y001837D01*
X019989Y001835D02*
X019530Y001835D01*
X019530Y001832D02*
X019989Y001832D01*
X019989Y001830D02*
X019531Y001830D01*
X019531Y001828D02*
X019988Y001828D01*
X019988Y001825D02*
X019532Y001825D01*
X019533Y001823D02*
X019987Y001823D01*
X019986Y001820D02*
X019534Y001820D01*
X019535Y001818D02*
X019985Y001818D01*
X019984Y001815D02*
X019536Y001815D01*
X019537Y001813D02*
X019983Y001813D01*
X019982Y001811D02*
X019537Y001811D01*
X019538Y001808D02*
X019981Y001808D01*
X019980Y001806D02*
X019539Y001806D01*
X019540Y001803D02*
X019979Y001803D01*
X019978Y001801D02*
X019541Y001801D01*
X019542Y001798D02*
X019977Y001798D01*
X019976Y001796D02*
X019543Y001796D01*
X019544Y001793D02*
X019975Y001793D01*
X019974Y001791D02*
X019545Y001791D01*
X019546Y001789D02*
X019973Y001789D01*
X019972Y001786D02*
X019547Y001786D01*
X019548Y001784D02*
X019971Y001784D01*
X019970Y001781D02*
X019549Y001781D01*
X019550Y001779D02*
X019969Y001779D01*
X019968Y001776D02*
X019552Y001776D01*
X019554Y001774D02*
X019966Y001774D01*
X019964Y001772D02*
X019555Y001772D01*
X019557Y001769D02*
X019963Y001769D01*
X019961Y001767D02*
X019559Y001767D01*
X019560Y001764D02*
X019959Y001764D01*
X019957Y001762D02*
X019562Y001762D01*
X019564Y001759D02*
X019956Y001759D01*
X019954Y001757D02*
X019565Y001757D01*
X019567Y001754D02*
X019952Y001754D01*
X019951Y001752D02*
X019569Y001752D01*
X019571Y001750D02*
X019949Y001750D01*
X019947Y001747D02*
X019572Y001747D01*
X019574Y001745D02*
X019946Y001745D01*
X019944Y001742D02*
X019576Y001742D01*
X019577Y001740D02*
X019942Y001740D01*
X019935Y001733D02*
X019584Y001733D01*
X019587Y001730D02*
X019933Y001730D01*
X019930Y001728D02*
X019590Y001728D01*
X019592Y001725D02*
X019927Y001725D01*
X019925Y001723D02*
X019595Y001723D01*
X019598Y001720D02*
X019922Y001720D01*
X019919Y001718D02*
X019600Y001718D01*
X019603Y001715D02*
X019917Y001715D01*
X019914Y001713D02*
X019606Y001713D01*
X019608Y001711D02*
X019911Y001711D01*
X019908Y001708D02*
X019611Y001708D01*
X019614Y001706D02*
X019906Y001706D01*
X019903Y001703D02*
X019859Y001678D01*
X019810Y001664D01*
X019760Y001660D01*
X019709Y001664D01*
X019661Y001678D01*
X019617Y001703D01*
X019620Y001701D02*
X019899Y001701D01*
X019895Y001698D02*
X019625Y001698D01*
X019629Y001696D02*
X019890Y001696D01*
X019886Y001694D02*
X019633Y001694D01*
X019638Y001691D02*
X019882Y001691D01*
X019877Y001689D02*
X019642Y001689D01*
X019646Y001686D02*
X019873Y001686D01*
X019869Y001684D02*
X019651Y001684D01*
X019655Y001681D02*
X019864Y001681D01*
X019860Y001679D02*
X019659Y001679D01*
X019666Y001676D02*
X019853Y001676D01*
X019845Y001674D02*
X019674Y001674D01*
X019683Y001672D02*
X019837Y001672D01*
X019829Y001669D02*
X019691Y001669D01*
X019699Y001667D02*
X019820Y001667D01*
X019812Y001664D02*
X019707Y001664D01*
X019738Y001662D02*
X019782Y001662D01*
X019791Y002564D02*
X019720Y002564D01*
X016366Y002347D02*
X016366Y001875D01*
X016358Y001825D01*
X016339Y001778D01*
X016310Y001737D01*
X016273Y001703D01*
X015986Y001703D01*
X015987Y001703D02*
X015950Y001737D01*
X015921Y001778D01*
X015902Y001825D01*
X015894Y001875D01*
X015894Y002347D01*
X016366Y002347D01*
X016358Y002398D01*
X015902Y002398D01*
X015903Y002400D02*
X016357Y002400D01*
X016358Y002398D02*
X016340Y002445D01*
X016311Y002487D01*
X016274Y002522D01*
X016229Y002547D01*
X016181Y002562D01*
X016130Y002566D01*
X016085Y002563D01*
X016042Y002552D01*
X016002Y002533D01*
X015966Y002506D01*
X015937Y002472D01*
X015914Y002434D01*
X015900Y002392D01*
X015894Y002347D01*
X015894Y002349D02*
X016366Y002349D01*
X016365Y002352D02*
X015894Y002352D01*
X015895Y002354D02*
X016365Y002354D01*
X016365Y002356D02*
X015895Y002356D01*
X015895Y002359D02*
X016364Y002359D01*
X016364Y002361D02*
X015896Y002361D01*
X015896Y002364D02*
X016364Y002364D01*
X016363Y002366D02*
X015896Y002366D01*
X015897Y002369D02*
X016363Y002369D01*
X016362Y002371D02*
X015897Y002371D01*
X015897Y002374D02*
X016362Y002374D01*
X016362Y002376D02*
X015898Y002376D01*
X015898Y002378D02*
X016361Y002378D01*
X016361Y002381D02*
X015898Y002381D01*
X015899Y002383D02*
X016361Y002383D01*
X016360Y002386D02*
X015899Y002386D01*
X015899Y002388D02*
X016360Y002388D01*
X016359Y002391D02*
X015900Y002391D01*
X015900Y002393D02*
X016359Y002393D01*
X016359Y002395D02*
X015901Y002395D01*
X015904Y002403D02*
X016356Y002403D01*
X016355Y002405D02*
X015904Y002405D01*
X015905Y002408D02*
X016354Y002408D01*
X016354Y002410D02*
X015906Y002410D01*
X015907Y002413D02*
X016353Y002413D01*
X016352Y002415D02*
X015908Y002415D01*
X015909Y002417D02*
X016351Y002417D01*
X016350Y002420D02*
X015909Y002420D01*
X015910Y002422D02*
X016349Y002422D01*
X016348Y002425D02*
X015911Y002425D01*
X015912Y002427D02*
X016347Y002427D01*
X016346Y002430D02*
X015913Y002430D01*
X015914Y002432D02*
X016345Y002432D01*
X016344Y002434D02*
X015915Y002434D01*
X015916Y002437D02*
X016343Y002437D01*
X016342Y002439D02*
X015918Y002439D01*
X015919Y002442D02*
X016341Y002442D01*
X016340Y002444D02*
X015920Y002444D01*
X015922Y002447D02*
X016339Y002447D01*
X016337Y002449D02*
X015923Y002449D01*
X015925Y002452D02*
X016335Y002452D01*
X016334Y002454D02*
X015926Y002454D01*
X015928Y002456D02*
X016332Y002456D01*
X016330Y002459D02*
X015929Y002459D01*
X015930Y002461D02*
X016329Y002461D01*
X016327Y002464D02*
X015932Y002464D01*
X015933Y002466D02*
X016325Y002466D01*
X016324Y002469D02*
X015935Y002469D01*
X015936Y002471D02*
X016322Y002471D01*
X016320Y002473D02*
X015938Y002473D01*
X015940Y002476D02*
X016319Y002476D01*
X016317Y002478D02*
X015942Y002478D01*
X015944Y002481D02*
X016315Y002481D01*
X016314Y002483D02*
X015947Y002483D01*
X015949Y002486D02*
X016312Y002486D01*
X016310Y002488D02*
X015951Y002488D01*
X015953Y002490D02*
X016307Y002490D01*
X016305Y002493D02*
X015955Y002493D01*
X015957Y002495D02*
X016302Y002495D01*
X016300Y002498D02*
X015960Y002498D01*
X015962Y002500D02*
X016297Y002500D01*
X016294Y002503D02*
X015964Y002503D01*
X015966Y002505D02*
X016292Y002505D01*
X016289Y002508D02*
X015969Y002508D01*
X015972Y002510D02*
X016286Y002510D01*
X016284Y002512D02*
X015975Y002512D01*
X015979Y002515D02*
X016281Y002515D01*
X016278Y002517D02*
X015982Y002517D01*
X015985Y002520D02*
X016276Y002520D01*
X016273Y002522D02*
X015988Y002522D01*
X015992Y002525D02*
X016269Y002525D01*
X016264Y002527D02*
X015995Y002527D01*
X015998Y002529D02*
X016260Y002529D01*
X016256Y002532D02*
X016001Y002532D01*
X016006Y002534D02*
X016252Y002534D01*
X016248Y002537D02*
X016011Y002537D01*
X016016Y002539D02*
X016243Y002539D01*
X016239Y002542D02*
X016021Y002542D01*
X016026Y002544D02*
X016235Y002544D01*
X016231Y002547D02*
X016031Y002547D01*
X016036Y002549D02*
X016224Y002549D01*
X016216Y002551D02*
X016041Y002551D01*
X016049Y002554D02*
X016208Y002554D01*
X016200Y002556D02*
X016059Y002556D01*
X016068Y002559D02*
X016192Y002559D01*
X016184Y002561D02*
X016077Y002561D01*
X016091Y002564D02*
X016162Y002564D01*
X016366Y002344D02*
X015894Y002344D01*
X015894Y002342D02*
X016366Y002342D01*
X016366Y002339D02*
X015894Y002339D01*
X015894Y002337D02*
X016366Y002337D01*
X016366Y002335D02*
X015894Y002335D01*
X015894Y002332D02*
X016366Y002332D01*
X016366Y002330D02*
X015894Y002330D01*
X015894Y002327D02*
X016366Y002327D01*
X016366Y002325D02*
X015894Y002325D01*
X015894Y002322D02*
X016366Y002322D01*
X016366Y002320D02*
X015894Y002320D01*
X015894Y002317D02*
X016366Y002317D01*
X016366Y002315D02*
X015894Y002315D01*
X015894Y002313D02*
X016366Y002313D01*
X016366Y002310D02*
X015894Y002310D01*
X015894Y002308D02*
X016366Y002308D01*
X016366Y002305D02*
X015894Y002305D01*
X015894Y002303D02*
X016366Y002303D01*
X016366Y002300D02*
X015894Y002300D01*
X015894Y002298D02*
X016366Y002298D01*
X016366Y002296D02*
X015894Y002296D01*
X015894Y002293D02*
X016366Y002293D01*
X016366Y002291D02*
X015894Y002291D01*
X015894Y002288D02*
X016366Y002288D01*
X016366Y002286D02*
X015894Y002286D01*
X015894Y002283D02*
X016366Y002283D01*
X016366Y002281D02*
X015894Y002281D01*
X015894Y002278D02*
X016366Y002278D01*
X016366Y002276D02*
X015894Y002276D01*
X015894Y002274D02*
X016366Y002274D01*
X016366Y002271D02*
X015894Y002271D01*
X015894Y002269D02*
X016366Y002269D01*
X016366Y002266D02*
X015894Y002266D01*
X015894Y002264D02*
X016366Y002264D01*
X016366Y002261D02*
X015894Y002261D01*
X015894Y002259D02*
X016366Y002259D01*
X016366Y002257D02*
X015894Y002257D01*
X015894Y002254D02*
X016366Y002254D01*
X016366Y002252D02*
X015894Y002252D01*
X015894Y002249D02*
X016366Y002249D01*
X016366Y002247D02*
X015894Y002247D01*
X015894Y002244D02*
X016366Y002244D01*
X016366Y002242D02*
X015894Y002242D01*
X015894Y002239D02*
X016366Y002239D01*
X016366Y002237D02*
X015894Y002237D01*
X015894Y002235D02*
X016366Y002235D01*
X016366Y002232D02*
X015894Y002232D01*
X015894Y002230D02*
X016366Y002230D01*
X016366Y002227D02*
X015894Y002227D01*
X015894Y002225D02*
X016366Y002225D01*
X016366Y002222D02*
X015894Y002222D01*
X015894Y002220D02*
X016366Y002220D01*
X016366Y002218D02*
X015894Y002218D01*
X015894Y002215D02*
X016366Y002215D01*
X016366Y002213D02*
X015894Y002213D01*
X015894Y002210D02*
X016366Y002210D01*
X016366Y002208D02*
X015894Y002208D01*
X015894Y002205D02*
X016366Y002205D01*
X016366Y002203D02*
X015894Y002203D01*
X015894Y002200D02*
X016366Y002200D01*
X016366Y002198D02*
X015894Y002198D01*
X015894Y002196D02*
X016366Y002196D01*
X016366Y002193D02*
X015894Y002193D01*
X015894Y002191D02*
X016366Y002191D01*
X016366Y002188D02*
X015894Y002188D01*
X015894Y002186D02*
X016366Y002186D01*
X016366Y002183D02*
X015894Y002183D01*
X015894Y002181D02*
X016366Y002181D01*
X016366Y002179D02*
X015894Y002179D01*
X015894Y002176D02*
X016366Y002176D01*
X016366Y002174D02*
X015894Y002174D01*
X015894Y002171D02*
X016366Y002171D01*
X016366Y002169D02*
X015894Y002169D01*
X015894Y002166D02*
X016366Y002166D01*
X016366Y002164D02*
X015894Y002164D01*
X015894Y002161D02*
X016366Y002161D01*
X016366Y002159D02*
X015894Y002159D01*
X015894Y002157D02*
X016366Y002157D01*
X016366Y002154D02*
X015894Y002154D01*
X015894Y002152D02*
X016366Y002152D01*
X016366Y002149D02*
X015894Y002149D01*
X015894Y002147D02*
X016366Y002147D01*
X016366Y002144D02*
X015894Y002144D01*
X015894Y002142D02*
X016366Y002142D01*
X016366Y002140D02*
X015894Y002140D01*
X015894Y002137D02*
X016366Y002137D01*
X016366Y002135D02*
X015894Y002135D01*
X015894Y002132D02*
X016366Y002132D01*
X016366Y002130D02*
X015894Y002130D01*
X015894Y002127D02*
X016366Y002127D01*
X016366Y002125D02*
X015894Y002125D01*
X015894Y002122D02*
X016366Y002122D01*
X016366Y002120D02*
X015894Y002120D01*
X015894Y002118D02*
X016366Y002118D01*
X016366Y002115D02*
X015894Y002115D01*
X015894Y002113D02*
X016366Y002113D01*
X016366Y002110D02*
X015894Y002110D01*
X015894Y002108D02*
X016366Y002108D01*
X016366Y002105D02*
X015894Y002105D01*
X015894Y002103D02*
X016366Y002103D01*
X016366Y002101D02*
X015894Y002101D01*
X015894Y002098D02*
X016366Y002098D01*
X016366Y002096D02*
X015894Y002096D01*
X015894Y002093D02*
X016366Y002093D01*
X016366Y002091D02*
X015894Y002091D01*
X015894Y002088D02*
X016366Y002088D01*
X016366Y002086D02*
X015894Y002086D01*
X015894Y002083D02*
X016366Y002083D01*
X016366Y002081D02*
X015894Y002081D01*
X015894Y002079D02*
X016366Y002079D01*
X016366Y002076D02*
X015894Y002076D01*
X015894Y002074D02*
X016366Y002074D01*
X016366Y002071D02*
X015894Y002071D01*
X015894Y002069D02*
X016366Y002069D01*
X016366Y002066D02*
X015894Y002066D01*
X015894Y002064D02*
X016366Y002064D01*
X016366Y002062D02*
X015894Y002062D01*
X015894Y002059D02*
X016366Y002059D01*
X016366Y002057D02*
X015894Y002057D01*
X015894Y002054D02*
X016366Y002054D01*
X016366Y002052D02*
X015894Y002052D01*
X015894Y002049D02*
X016366Y002049D01*
X016366Y002047D02*
X015894Y002047D01*
X015894Y002044D02*
X016366Y002044D01*
X016366Y002042D02*
X015894Y002042D01*
X015894Y002040D02*
X016366Y002040D01*
X016366Y002037D02*
X015894Y002037D01*
X015894Y002035D02*
X016366Y002035D01*
X016366Y002032D02*
X015894Y002032D01*
X015894Y002030D02*
X016366Y002030D01*
X016366Y002027D02*
X015894Y002027D01*
X015894Y002025D02*
X016366Y002025D01*
X016366Y002023D02*
X015894Y002023D01*
X015894Y002020D02*
X016366Y002020D01*
X016366Y002018D02*
X015894Y002018D01*
X015894Y002015D02*
X016366Y002015D01*
X016366Y002013D02*
X015894Y002013D01*
X015894Y002010D02*
X016366Y002010D01*
X016366Y002008D02*
X015894Y002008D01*
X015894Y002005D02*
X016366Y002005D01*
X016366Y002003D02*
X015894Y002003D01*
X015894Y002001D02*
X016366Y002001D01*
X016366Y001998D02*
X015894Y001998D01*
X015894Y001996D02*
X016366Y001996D01*
X016366Y001993D02*
X015894Y001993D01*
X015894Y001991D02*
X016366Y001991D01*
X016366Y001988D02*
X015894Y001988D01*
X015894Y001986D02*
X016366Y001986D01*
X016366Y001984D02*
X015894Y001984D01*
X015894Y001981D02*
X016366Y001981D01*
X016366Y001979D02*
X015894Y001979D01*
X015894Y001976D02*
X016366Y001976D01*
X016366Y001974D02*
X015894Y001974D01*
X015894Y001971D02*
X016366Y001971D01*
X016366Y001969D02*
X015894Y001969D01*
X015894Y001966D02*
X016366Y001966D01*
X016366Y001964D02*
X015894Y001964D01*
X015894Y001962D02*
X016366Y001962D01*
X016366Y001959D02*
X015894Y001959D01*
X015894Y001957D02*
X016366Y001957D01*
X016366Y001954D02*
X015894Y001954D01*
X015894Y001952D02*
X016366Y001952D01*
X016366Y001949D02*
X015894Y001949D01*
X015894Y001947D02*
X016366Y001947D01*
X016366Y001945D02*
X015894Y001945D01*
X015894Y001942D02*
X016366Y001942D01*
X016366Y001940D02*
X015894Y001940D01*
X015894Y001937D02*
X016366Y001937D01*
X016366Y001935D02*
X015894Y001935D01*
X015894Y001932D02*
X016366Y001932D01*
X016366Y001930D02*
X015894Y001930D01*
X015894Y001927D02*
X016366Y001927D01*
X016366Y001925D02*
X015894Y001925D01*
X015894Y001923D02*
X016366Y001923D01*
X016366Y001920D02*
X015894Y001920D01*
X015894Y001918D02*
X016366Y001918D01*
X016366Y001915D02*
X015894Y001915D01*
X015894Y001913D02*
X016366Y001913D01*
X016366Y001910D02*
X015894Y001910D01*
X015894Y001908D02*
X016366Y001908D01*
X016366Y001906D02*
X015894Y001906D01*
X015894Y001903D02*
X016366Y001903D01*
X016366Y001901D02*
X015894Y001901D01*
X015894Y001898D02*
X016366Y001898D01*
X016366Y001896D02*
X015894Y001896D01*
X015894Y001893D02*
X016366Y001893D01*
X016366Y001891D02*
X015894Y001891D01*
X015894Y001888D02*
X016366Y001888D01*
X016366Y001886D02*
X015894Y001886D01*
X015894Y001884D02*
X016366Y001884D01*
X016366Y001881D02*
X015894Y001881D01*
X015894Y001879D02*
X016366Y001879D01*
X016366Y001876D02*
X015894Y001876D01*
X015894Y001874D02*
X016366Y001874D01*
X016365Y001871D02*
X015894Y001871D01*
X015895Y001869D02*
X016365Y001869D01*
X016365Y001867D02*
X015895Y001867D01*
X015895Y001864D02*
X016364Y001864D01*
X016364Y001862D02*
X015896Y001862D01*
X015896Y001859D02*
X016363Y001859D01*
X016363Y001857D02*
X015897Y001857D01*
X015897Y001854D02*
X016363Y001854D01*
X016362Y001852D02*
X015897Y001852D01*
X015898Y001850D02*
X016362Y001850D01*
X016362Y001847D02*
X015898Y001847D01*
X015899Y001845D02*
X016361Y001845D01*
X016361Y001842D02*
X015899Y001842D01*
X015899Y001840D02*
X016360Y001840D01*
X016360Y001837D02*
X015900Y001837D01*
X015900Y001835D02*
X016360Y001835D01*
X016359Y001832D02*
X015900Y001832D01*
X015901Y001830D02*
X016359Y001830D01*
X016358Y001828D02*
X015901Y001828D01*
X015902Y001825D02*
X016358Y001825D01*
X016357Y001823D02*
X015903Y001823D01*
X015904Y001820D02*
X016356Y001820D01*
X016355Y001818D02*
X015905Y001818D01*
X015906Y001815D02*
X016354Y001815D01*
X016353Y001813D02*
X015907Y001813D01*
X015908Y001811D02*
X016352Y001811D01*
X016351Y001808D02*
X015909Y001808D01*
X015910Y001806D02*
X016350Y001806D01*
X016349Y001803D02*
X015911Y001803D01*
X015912Y001801D02*
X016348Y001801D01*
X016347Y001798D02*
X015913Y001798D01*
X015913Y001796D02*
X016346Y001796D01*
X016345Y001793D02*
X015914Y001793D01*
X015915Y001791D02*
X016344Y001791D01*
X016343Y001789D02*
X015916Y001789D01*
X015917Y001786D02*
X016342Y001786D01*
X016341Y001784D02*
X015918Y001784D01*
X015919Y001781D02*
X016340Y001781D01*
X016339Y001779D02*
X015920Y001779D01*
X015922Y001776D02*
X016338Y001776D01*
X016336Y001774D02*
X015924Y001774D01*
X015925Y001772D02*
X016334Y001772D01*
X016333Y001769D02*
X015927Y001769D01*
X015929Y001767D02*
X016331Y001767D01*
X016329Y001764D02*
X015930Y001764D01*
X015932Y001762D02*
X016328Y001762D01*
X016326Y001759D02*
X015934Y001759D01*
X015936Y001757D02*
X016324Y001757D01*
X016322Y001754D02*
X015937Y001754D01*
X015939Y001752D02*
X016321Y001752D01*
X016319Y001750D02*
X015941Y001750D01*
X015942Y001747D02*
X016317Y001747D01*
X016316Y001745D02*
X015944Y001745D01*
X015946Y001742D02*
X016314Y001742D01*
X016312Y001740D02*
X015947Y001740D01*
X015949Y001737D02*
X016311Y001737D01*
X016308Y001735D02*
X015952Y001735D01*
X015954Y001733D02*
X016305Y001733D01*
X016303Y001730D02*
X015957Y001730D01*
X015960Y001728D02*
X016300Y001728D01*
X016297Y001725D02*
X015962Y001725D01*
X015965Y001723D02*
X016295Y001723D01*
X016292Y001720D02*
X015968Y001720D01*
X015970Y001718D02*
X016289Y001718D01*
X016287Y001715D02*
X015973Y001715D01*
X015976Y001713D02*
X016284Y001713D01*
X016281Y001711D02*
X015978Y001711D01*
X015981Y001708D02*
X016279Y001708D01*
X016276Y001706D02*
X015984Y001706D01*
X015987Y001703D02*
X016031Y001678D01*
X016079Y001664D01*
X016130Y001660D01*
X016180Y001664D01*
X016229Y001678D01*
X016273Y001703D01*
X016269Y001701D02*
X015991Y001701D01*
X015995Y001698D02*
X016265Y001698D01*
X016260Y001696D02*
X015999Y001696D01*
X016004Y001694D02*
X016256Y001694D01*
X016252Y001691D02*
X016008Y001691D01*
X016012Y001689D02*
X016247Y001689D01*
X016243Y001686D02*
X016016Y001686D01*
X016021Y001684D02*
X016239Y001684D01*
X016235Y001681D02*
X016025Y001681D01*
X016029Y001679D02*
X016230Y001679D01*
X016223Y001676D02*
X016036Y001676D01*
X016045Y001674D02*
X016215Y001674D01*
X016207Y001672D02*
X016053Y001672D01*
X016061Y001669D02*
X016199Y001669D01*
X016190Y001667D02*
X016069Y001667D01*
X016077Y001664D02*
X016182Y001664D01*
X016152Y001662D02*
X016108Y001662D01*
X016130Y003432D02*
X016079Y003435D01*
X016031Y003450D01*
X015987Y003475D01*
X015950Y003508D01*
X015921Y003550D01*
X015902Y003597D01*
X016358Y003597D01*
X016339Y003550D01*
X016310Y003508D01*
X016273Y003475D01*
X015986Y003475D01*
X015984Y003478D02*
X016276Y003478D01*
X016279Y003480D02*
X015981Y003480D01*
X015978Y003482D02*
X016281Y003482D01*
X016284Y003485D02*
X015975Y003485D01*
X015973Y003487D02*
X016287Y003487D01*
X016290Y003490D02*
X015970Y003490D01*
X015967Y003492D02*
X016292Y003492D01*
X016295Y003495D02*
X015965Y003495D01*
X015962Y003497D02*
X016298Y003497D01*
X016300Y003500D02*
X015959Y003500D01*
X015957Y003502D02*
X016303Y003502D01*
X016306Y003504D02*
X015954Y003504D01*
X015951Y003507D02*
X016308Y003507D01*
X016311Y003509D02*
X015949Y003509D01*
X015947Y003512D02*
X016312Y003512D01*
X016314Y003514D02*
X015946Y003514D01*
X015944Y003517D02*
X016316Y003517D01*
X016317Y003519D02*
X015942Y003519D01*
X015940Y003521D02*
X016319Y003521D01*
X016321Y003524D02*
X015939Y003524D01*
X015937Y003526D02*
X016323Y003526D01*
X016324Y003529D02*
X015935Y003529D01*
X015934Y003531D02*
X016326Y003531D01*
X016328Y003534D02*
X015932Y003534D01*
X015930Y003536D02*
X016329Y003536D01*
X016331Y003539D02*
X015929Y003539D01*
X015927Y003541D02*
X016333Y003541D01*
X016334Y003543D02*
X015925Y003543D01*
X015923Y003546D02*
X016336Y003546D01*
X016338Y003548D02*
X015922Y003548D01*
X015920Y003551D02*
X016339Y003551D01*
X016340Y003553D02*
X015919Y003553D01*
X015918Y003556D02*
X016341Y003556D01*
X016342Y003558D02*
X015917Y003558D01*
X015916Y003560D02*
X016343Y003560D01*
X016344Y003563D02*
X015915Y003563D01*
X015914Y003565D02*
X016345Y003565D01*
X016346Y003568D02*
X015913Y003568D01*
X015912Y003570D02*
X016347Y003570D01*
X016348Y003573D02*
X015911Y003573D01*
X015910Y003575D02*
X016349Y003575D01*
X016350Y003578D02*
X015909Y003578D01*
X015908Y003580D02*
X016351Y003580D01*
X016352Y003582D02*
X015907Y003582D01*
X015906Y003585D02*
X016353Y003585D01*
X016354Y003587D02*
X015906Y003587D01*
X015905Y003590D02*
X016355Y003590D01*
X016356Y003592D02*
X015904Y003592D01*
X015903Y003595D02*
X016357Y003595D01*
X016358Y003597D02*
X016366Y003647D01*
X016366Y004119D01*
X016358Y004169D01*
X016340Y004217D01*
X016311Y004259D01*
X016274Y004294D01*
X016229Y004319D01*
X016181Y004334D01*
X016130Y004338D01*
X016085Y004335D01*
X016042Y004324D01*
X016002Y004304D01*
X015966Y004277D01*
X016291Y004277D01*
X016289Y004279D02*
X015969Y004279D01*
X015966Y004277D02*
X015937Y004244D01*
X015914Y004205D01*
X015900Y004163D01*
X015894Y004119D01*
X015894Y003647D01*
X015902Y003597D01*
X015901Y003599D02*
X016358Y003599D01*
X016359Y003602D02*
X015901Y003602D01*
X015900Y003604D02*
X016359Y003604D01*
X016360Y003607D02*
X015900Y003607D01*
X015900Y003609D02*
X016360Y003609D01*
X016360Y003612D02*
X015899Y003612D01*
X015899Y003614D02*
X016361Y003614D01*
X016361Y003617D02*
X015898Y003617D01*
X015898Y003619D02*
X016362Y003619D01*
X016362Y003621D02*
X015898Y003621D01*
X015897Y003624D02*
X016362Y003624D01*
X016363Y003626D02*
X015897Y003626D01*
X015897Y003629D02*
X016363Y003629D01*
X016364Y003631D02*
X015896Y003631D01*
X015896Y003634D02*
X016364Y003634D01*
X016364Y003636D02*
X015895Y003636D01*
X015895Y003638D02*
X016365Y003638D01*
X016365Y003641D02*
X015895Y003641D01*
X015894Y003643D02*
X016366Y003643D01*
X016366Y003646D02*
X015894Y003646D01*
X015894Y003648D02*
X016366Y003648D01*
X016366Y003651D02*
X015894Y003651D01*
X015894Y003653D02*
X016366Y003653D01*
X016366Y003656D02*
X015894Y003656D01*
X015894Y003658D02*
X016366Y003658D01*
X016366Y003660D02*
X015894Y003660D01*
X015894Y003663D02*
X016366Y003663D01*
X016366Y003665D02*
X015894Y003665D01*
X015894Y003668D02*
X016366Y003668D01*
X016366Y003670D02*
X015894Y003670D01*
X015894Y003673D02*
X016366Y003673D01*
X016366Y003675D02*
X015894Y003675D01*
X015894Y003677D02*
X016366Y003677D01*
X016366Y003680D02*
X015894Y003680D01*
X015894Y003682D02*
X016366Y003682D01*
X016366Y003685D02*
X015894Y003685D01*
X015894Y003687D02*
X016366Y003687D01*
X016366Y003690D02*
X015894Y003690D01*
X015894Y003692D02*
X016366Y003692D01*
X016366Y003695D02*
X015894Y003695D01*
X015894Y003697D02*
X016366Y003697D01*
X016366Y003699D02*
X015894Y003699D01*
X015894Y003702D02*
X016366Y003702D01*
X016366Y003704D02*
X015894Y003704D01*
X015894Y003707D02*
X016366Y003707D01*
X016366Y003709D02*
X015894Y003709D01*
X015894Y003712D02*
X016366Y003712D01*
X016366Y003714D02*
X015894Y003714D01*
X015894Y003716D02*
X016366Y003716D01*
X016366Y003719D02*
X015894Y003719D01*
X015894Y003721D02*
X016366Y003721D01*
X016366Y003724D02*
X015894Y003724D01*
X015894Y003726D02*
X016366Y003726D01*
X016366Y003729D02*
X015894Y003729D01*
X015894Y003731D02*
X016366Y003731D01*
X016366Y003733D02*
X015894Y003733D01*
X015894Y003736D02*
X016366Y003736D01*
X016366Y003738D02*
X015894Y003738D01*
X015894Y003741D02*
X016366Y003741D01*
X016366Y003743D02*
X015894Y003743D01*
X015894Y003746D02*
X016366Y003746D01*
X016366Y003748D02*
X015894Y003748D01*
X015894Y003751D02*
X016366Y003751D01*
X016366Y003753D02*
X015894Y003753D01*
X015894Y003755D02*
X016366Y003755D01*
X016366Y003758D02*
X015894Y003758D01*
X015894Y003760D02*
X016366Y003760D01*
X016366Y003763D02*
X015894Y003763D01*
X015894Y003765D02*
X016366Y003765D01*
X016366Y003768D02*
X015894Y003768D01*
X015894Y003770D02*
X016366Y003770D01*
X016366Y003772D02*
X015894Y003772D01*
X015894Y003775D02*
X016366Y003775D01*
X016366Y003777D02*
X015894Y003777D01*
X015894Y003780D02*
X016366Y003780D01*
X016366Y003782D02*
X015894Y003782D01*
X015894Y003785D02*
X016366Y003785D01*
X016366Y003787D02*
X015894Y003787D01*
X015894Y003790D02*
X016366Y003790D01*
X016366Y003792D02*
X015894Y003792D01*
X015894Y003794D02*
X016366Y003794D01*
X016366Y003797D02*
X015894Y003797D01*
X015894Y003799D02*
X016366Y003799D01*
X016366Y003802D02*
X015894Y003802D01*
X015894Y003804D02*
X016366Y003804D01*
X016366Y003807D02*
X015894Y003807D01*
X015894Y003809D02*
X016366Y003809D01*
X016366Y003811D02*
X015894Y003811D01*
X015894Y003814D02*
X016366Y003814D01*
X016366Y003816D02*
X015894Y003816D01*
X015894Y003819D02*
X016366Y003819D01*
X016366Y003821D02*
X015894Y003821D01*
X015894Y003824D02*
X016366Y003824D01*
X016366Y003826D02*
X015894Y003826D01*
X015894Y003829D02*
X016366Y003829D01*
X016366Y003831D02*
X015894Y003831D01*
X015894Y003833D02*
X016366Y003833D01*
X016366Y003836D02*
X015894Y003836D01*
X015894Y003838D02*
X016366Y003838D01*
X016366Y003841D02*
X015894Y003841D01*
X015894Y003843D02*
X016366Y003843D01*
X016366Y003846D02*
X015894Y003846D01*
X015894Y003848D02*
X016366Y003848D01*
X016366Y003850D02*
X015894Y003850D01*
X015894Y003853D02*
X016366Y003853D01*
X016366Y003855D02*
X015894Y003855D01*
X015894Y003858D02*
X016366Y003858D01*
X016366Y003860D02*
X015894Y003860D01*
X015894Y003863D02*
X016366Y003863D01*
X016366Y003865D02*
X015894Y003865D01*
X015894Y003868D02*
X016366Y003868D01*
X016366Y003870D02*
X015894Y003870D01*
X015894Y003872D02*
X016366Y003872D01*
X016366Y003875D02*
X015894Y003875D01*
X015894Y003877D02*
X016366Y003877D01*
X016366Y003880D02*
X015894Y003880D01*
X015894Y003882D02*
X016366Y003882D01*
X016366Y003885D02*
X015894Y003885D01*
X015894Y003887D02*
X016366Y003887D01*
X016366Y003889D02*
X015894Y003889D01*
X015894Y003892D02*
X016366Y003892D01*
X016366Y003894D02*
X015894Y003894D01*
X015894Y003897D02*
X016366Y003897D01*
X016366Y003899D02*
X015894Y003899D01*
X015894Y003902D02*
X016366Y003902D01*
X016366Y003904D02*
X015894Y003904D01*
X015894Y003907D02*
X016366Y003907D01*
X016366Y003909D02*
X015894Y003909D01*
X015894Y003911D02*
X016366Y003911D01*
X016366Y003914D02*
X015894Y003914D01*
X015894Y003916D02*
X016366Y003916D01*
X016366Y003919D02*
X015894Y003919D01*
X015894Y003921D02*
X016366Y003921D01*
X016366Y003924D02*
X015894Y003924D01*
X015894Y003926D02*
X016366Y003926D01*
X016366Y003928D02*
X015894Y003928D01*
X015894Y003931D02*
X016366Y003931D01*
X016366Y003933D02*
X015894Y003933D01*
X015894Y003936D02*
X016366Y003936D01*
X016366Y003938D02*
X015894Y003938D01*
X015894Y003941D02*
X016366Y003941D01*
X016366Y003943D02*
X015894Y003943D01*
X015894Y003946D02*
X016366Y003946D01*
X016366Y003948D02*
X015894Y003948D01*
X015894Y003950D02*
X016366Y003950D01*
X016366Y003953D02*
X015894Y003953D01*
X015894Y003955D02*
X016366Y003955D01*
X016366Y003958D02*
X015894Y003958D01*
X015894Y003960D02*
X016366Y003960D01*
X016366Y003963D02*
X015894Y003963D01*
X015894Y003965D02*
X016366Y003965D01*
X016366Y003967D02*
X015894Y003967D01*
X015894Y003970D02*
X016366Y003970D01*
X016366Y003972D02*
X015894Y003972D01*
X015894Y003975D02*
X016366Y003975D01*
X016366Y003977D02*
X015894Y003977D01*
X015894Y003980D02*
X016366Y003980D01*
X016366Y003982D02*
X015894Y003982D01*
X015894Y003985D02*
X016366Y003985D01*
X016366Y003987D02*
X015894Y003987D01*
X015894Y003989D02*
X016366Y003989D01*
X016366Y003992D02*
X015894Y003992D01*
X015894Y003994D02*
X016366Y003994D01*
X016366Y003997D02*
X015894Y003997D01*
X015894Y003999D02*
X016366Y003999D01*
X016366Y004002D02*
X015894Y004002D01*
X015894Y004004D02*
X016366Y004004D01*
X016366Y004006D02*
X015894Y004006D01*
X015894Y004009D02*
X016366Y004009D01*
X016366Y004011D02*
X015894Y004011D01*
X015894Y004014D02*
X016366Y004014D01*
X016366Y004016D02*
X015894Y004016D01*
X015894Y004019D02*
X016366Y004019D01*
X016366Y004021D02*
X015894Y004021D01*
X015894Y004024D02*
X016366Y004024D01*
X016366Y004026D02*
X015894Y004026D01*
X015894Y004028D02*
X016366Y004028D01*
X016366Y004031D02*
X015894Y004031D01*
X015894Y004033D02*
X016366Y004033D01*
X016366Y004036D02*
X015894Y004036D01*
X015894Y004038D02*
X016366Y004038D01*
X016366Y004041D02*
X015894Y004041D01*
X015894Y004043D02*
X016366Y004043D01*
X016366Y004045D02*
X015894Y004045D01*
X015894Y004048D02*
X016366Y004048D01*
X016366Y004050D02*
X015894Y004050D01*
X015894Y004053D02*
X016366Y004053D01*
X016366Y004055D02*
X015894Y004055D01*
X015894Y004058D02*
X016366Y004058D01*
X016366Y004060D02*
X015894Y004060D01*
X015894Y004063D02*
X016366Y004063D01*
X016366Y004065D02*
X015894Y004065D01*
X015894Y004067D02*
X016366Y004067D01*
X016366Y004070D02*
X015894Y004070D01*
X015894Y004072D02*
X016366Y004072D01*
X016366Y004075D02*
X015894Y004075D01*
X015894Y004077D02*
X016366Y004077D01*
X016366Y004080D02*
X015894Y004080D01*
X015894Y004082D02*
X016366Y004082D01*
X016366Y004084D02*
X015894Y004084D01*
X015894Y004087D02*
X016366Y004087D01*
X016366Y004089D02*
X015894Y004089D01*
X015894Y004092D02*
X016366Y004092D01*
X016366Y004094D02*
X015894Y004094D01*
X015894Y004097D02*
X016366Y004097D01*
X016366Y004099D02*
X015894Y004099D01*
X015894Y004102D02*
X016366Y004102D01*
X016366Y004104D02*
X015894Y004104D01*
X015894Y004106D02*
X016366Y004106D01*
X016366Y004109D02*
X015894Y004109D01*
X015894Y004111D02*
X016366Y004111D01*
X016366Y004114D02*
X015894Y004114D01*
X015894Y004116D02*
X016366Y004116D01*
X016366Y004119D02*
X015894Y004119D01*
X015894Y004121D02*
X016366Y004121D01*
X016365Y004123D02*
X015894Y004123D01*
X015895Y004126D02*
X016365Y004126D01*
X016365Y004128D02*
X015895Y004128D01*
X015895Y004131D02*
X016364Y004131D01*
X016364Y004133D02*
X015896Y004133D01*
X015896Y004136D02*
X016364Y004136D01*
X016363Y004138D02*
X015896Y004138D01*
X015897Y004141D02*
X016363Y004141D01*
X016362Y004143D02*
X015897Y004143D01*
X015897Y004145D02*
X016362Y004145D01*
X016362Y004148D02*
X015898Y004148D01*
X015898Y004150D02*
X016361Y004150D01*
X016361Y004153D02*
X015898Y004153D01*
X015899Y004155D02*
X016361Y004155D01*
X016360Y004158D02*
X015899Y004158D01*
X015899Y004160D02*
X016360Y004160D01*
X016359Y004162D02*
X015900Y004162D01*
X015900Y004165D02*
X016359Y004165D01*
X016359Y004167D02*
X015901Y004167D01*
X015902Y004170D02*
X016358Y004170D01*
X016357Y004172D02*
X015903Y004172D01*
X015904Y004175D02*
X016356Y004175D01*
X016355Y004177D02*
X015904Y004177D01*
X015905Y004180D02*
X016354Y004180D01*
X016353Y004182D02*
X015906Y004182D01*
X015907Y004184D02*
X016352Y004184D01*
X016352Y004187D02*
X015908Y004187D01*
X015909Y004189D02*
X016351Y004189D01*
X016350Y004192D02*
X015910Y004192D01*
X015910Y004194D02*
X016349Y004194D01*
X016348Y004197D02*
X015911Y004197D01*
X015912Y004199D02*
X016347Y004199D01*
X016346Y004201D02*
X015913Y004201D01*
X015914Y004204D02*
X016345Y004204D01*
X016344Y004206D02*
X015915Y004206D01*
X015916Y004209D02*
X016343Y004209D01*
X016342Y004211D02*
X015918Y004211D01*
X015919Y004214D02*
X016341Y004214D01*
X016340Y004216D02*
X015921Y004216D01*
X015922Y004219D02*
X016339Y004219D01*
X016337Y004221D02*
X015923Y004221D01*
X015925Y004223D02*
X016335Y004223D01*
X016334Y004226D02*
X015926Y004226D01*
X015928Y004228D02*
X016332Y004228D01*
X016330Y004231D02*
X015929Y004231D01*
X015931Y004233D02*
X016329Y004233D01*
X016327Y004236D02*
X015932Y004236D01*
X015933Y004238D02*
X016325Y004238D01*
X016324Y004240D02*
X015935Y004240D01*
X015936Y004243D02*
X016322Y004243D01*
X016320Y004245D02*
X015938Y004245D01*
X015940Y004248D02*
X016319Y004248D01*
X016317Y004250D02*
X015942Y004250D01*
X015945Y004253D02*
X016315Y004253D01*
X016314Y004255D02*
X015947Y004255D01*
X015949Y004258D02*
X016312Y004258D01*
X016310Y004260D02*
X015951Y004260D01*
X015953Y004262D02*
X016307Y004262D01*
X016305Y004265D02*
X015955Y004265D01*
X015958Y004267D02*
X016302Y004267D01*
X016299Y004270D02*
X015960Y004270D01*
X015962Y004272D02*
X016297Y004272D01*
X016294Y004275D02*
X015964Y004275D01*
X015973Y004282D02*
X016286Y004282D01*
X016283Y004284D02*
X015976Y004284D01*
X015979Y004287D02*
X016281Y004287D01*
X016278Y004289D02*
X015982Y004289D01*
X015985Y004292D02*
X016276Y004292D01*
X016273Y004294D02*
X015989Y004294D01*
X015992Y004297D02*
X016268Y004297D01*
X016264Y004299D02*
X015995Y004299D01*
X015998Y004301D02*
X016260Y004301D01*
X016256Y004304D02*
X016002Y004304D01*
X016006Y004306D02*
X016251Y004306D01*
X016247Y004309D02*
X016011Y004309D01*
X016016Y004311D02*
X016243Y004311D01*
X016239Y004314D02*
X016021Y004314D01*
X016026Y004316D02*
X016234Y004316D01*
X016230Y004318D02*
X016031Y004318D01*
X016036Y004321D02*
X016223Y004321D01*
X016215Y004323D02*
X016041Y004323D01*
X016050Y004326D02*
X016207Y004326D01*
X016199Y004328D02*
X016059Y004328D01*
X016069Y004331D02*
X016191Y004331D01*
X016183Y004333D02*
X016078Y004333D01*
X016094Y004336D02*
X016158Y004336D01*
X016273Y003475D02*
X016229Y003450D01*
X016180Y003435D01*
X016130Y003432D01*
X016155Y003434D02*
X016104Y003434D01*
X016077Y003436D02*
X016183Y003436D01*
X016191Y003439D02*
X016068Y003439D01*
X016060Y003441D02*
X016199Y003441D01*
X016208Y003443D02*
X016052Y003443D01*
X016044Y003446D02*
X016216Y003446D01*
X016224Y003448D02*
X016036Y003448D01*
X016029Y003451D02*
X016231Y003451D01*
X016235Y003453D02*
X016025Y003453D01*
X016020Y003456D02*
X016239Y003456D01*
X016244Y003458D02*
X016016Y003458D01*
X016012Y003461D02*
X016248Y003461D01*
X016252Y003463D02*
X016007Y003463D01*
X016003Y003465D02*
X016257Y003465D01*
X016261Y003468D02*
X015999Y003468D01*
X015994Y003470D02*
X016265Y003470D01*
X016270Y003473D02*
X015990Y003473D01*
X016754Y016029D02*
X016830Y016035D01*
X016905Y016054D01*
X016609Y016054D01*
X016605Y016055D02*
X016678Y016036D01*
X016754Y016029D01*
X016757Y016029D02*
X016750Y016029D01*
X016722Y016032D02*
X016790Y016032D01*
X016823Y016034D02*
X016693Y016034D01*
X016674Y016037D02*
X016838Y016037D01*
X016847Y016039D02*
X016665Y016039D01*
X016655Y016042D02*
X016857Y016042D01*
X016867Y016044D02*
X016646Y016044D01*
X016637Y016047D02*
X016876Y016047D01*
X016886Y016049D02*
X016628Y016049D01*
X016619Y016051D02*
X016895Y016051D01*
X016905Y016054D02*
X016975Y016085D01*
X016975Y016086D02*
X016539Y016086D01*
X016536Y016087D02*
X016605Y016055D01*
X016602Y016056D02*
X016910Y016056D01*
X016916Y016059D02*
X016597Y016059D01*
X016592Y016061D02*
X016921Y016061D01*
X016927Y016064D02*
X016586Y016064D01*
X016581Y016066D02*
X016932Y016066D01*
X016937Y016068D02*
X016576Y016068D01*
X016571Y016071D02*
X016943Y016071D01*
X016948Y016073D02*
X016565Y016073D01*
X016560Y016076D02*
X016954Y016076D01*
X016959Y016078D02*
X016555Y016078D01*
X016550Y016081D02*
X016964Y016081D01*
X016970Y016083D02*
X016544Y016083D01*
X016536Y016087D02*
X016474Y016130D01*
X016420Y016184D01*
X016376Y016246D01*
X016344Y016315D01*
X016324Y016388D01*
X016317Y016463D01*
X017200Y016463D01*
X017192Y016387D01*
X017171Y016313D01*
X017138Y016244D01*
X017093Y016182D01*
X017038Y016128D01*
X016975Y016085D01*
X016979Y016088D02*
X016534Y016088D01*
X016531Y016090D02*
X016982Y016090D01*
X016986Y016093D02*
X016527Y016093D01*
X016524Y016095D02*
X016989Y016095D01*
X016993Y016098D02*
X016521Y016098D01*
X016517Y016100D02*
X016997Y016100D01*
X017000Y016103D02*
X016514Y016103D01*
X016510Y016105D02*
X017004Y016105D01*
X017007Y016107D02*
X016507Y016107D01*
X016503Y016110D02*
X017011Y016110D01*
X017014Y016112D02*
X016500Y016112D01*
X016496Y016115D02*
X017018Y016115D01*
X017022Y016117D02*
X016493Y016117D01*
X016489Y016120D02*
X017025Y016120D01*
X017029Y016122D02*
X016486Y016122D01*
X016482Y016124D02*
X017032Y016124D01*
X017036Y016127D02*
X016479Y016127D01*
X016475Y016129D02*
X017039Y016129D01*
X017042Y016132D02*
X016472Y016132D01*
X016470Y016134D02*
X017044Y016134D01*
X017047Y016137D02*
X016467Y016137D01*
X016465Y016139D02*
X017049Y016139D01*
X017052Y016142D02*
X016462Y016142D01*
X016460Y016144D02*
X017054Y016144D01*
X017057Y016146D02*
X016457Y016146D01*
X016455Y016149D02*
X017059Y016149D01*
X017062Y016151D02*
X016453Y016151D01*
X016450Y016154D02*
X017064Y016154D01*
X017067Y016156D02*
X016448Y016156D01*
X016445Y016159D02*
X017069Y016159D01*
X017072Y016161D02*
X016443Y016161D01*
X016440Y016163D02*
X017074Y016163D01*
X017077Y016166D02*
X016438Y016166D01*
X016435Y016168D02*
X017079Y016168D01*
X017082Y016171D02*
X016433Y016171D01*
X016431Y016173D02*
X017084Y016173D01*
X017087Y016176D02*
X016428Y016176D01*
X016426Y016178D02*
X017089Y016178D01*
X017092Y016181D02*
X016423Y016181D01*
X016421Y016183D02*
X017094Y016183D01*
X017096Y016185D02*
X016419Y016185D01*
X016417Y016188D02*
X017097Y016188D01*
X017099Y016190D02*
X016415Y016190D01*
X016414Y016193D02*
X017101Y016193D01*
X017103Y016195D02*
X016412Y016195D01*
X016410Y016198D02*
X017104Y016198D01*
X017106Y016200D02*
X016408Y016200D01*
X016407Y016202D02*
X017108Y016202D01*
X017110Y016205D02*
X016405Y016205D01*
X016403Y016207D02*
X017111Y016207D01*
X017113Y016210D02*
X016402Y016210D01*
X016400Y016212D02*
X017115Y016212D01*
X017117Y016215D02*
X016398Y016215D01*
X016396Y016217D02*
X017118Y016217D01*
X017120Y016220D02*
X016395Y016220D01*
X016393Y016222D02*
X017122Y016222D01*
X017124Y016224D02*
X016391Y016224D01*
X016390Y016227D02*
X017125Y016227D01*
X017127Y016229D02*
X016388Y016229D01*
X016386Y016232D02*
X017129Y016232D01*
X017131Y016234D02*
X016384Y016234D01*
X016383Y016237D02*
X017132Y016237D01*
X017134Y016239D02*
X016381Y016239D01*
X016379Y016241D02*
X017136Y016241D01*
X017138Y016244D02*
X016378Y016244D01*
X016376Y016246D02*
X017139Y016246D01*
X017140Y016249D02*
X016375Y016249D01*
X016374Y016251D02*
X017141Y016251D01*
X017142Y016254D02*
X016373Y016254D01*
X016371Y016256D02*
X017144Y016256D01*
X017145Y016259D02*
X016370Y016259D01*
X016369Y016261D02*
X017146Y016261D01*
X017147Y016263D02*
X016368Y016263D01*
X016367Y016266D02*
X017148Y016266D01*
X017150Y016268D02*
X016366Y016268D01*
X016365Y016271D02*
X017151Y016271D01*
X017152Y016273D02*
X016363Y016273D01*
X016362Y016276D02*
X017153Y016276D01*
X017154Y016278D02*
X016361Y016278D01*
X016360Y016280D02*
X017155Y016280D01*
X017157Y016283D02*
X016359Y016283D01*
X016358Y016285D02*
X017158Y016285D01*
X017159Y016288D02*
X016357Y016288D01*
X016355Y016290D02*
X017160Y016290D01*
X017161Y016293D02*
X016354Y016293D01*
X016353Y016295D02*
X017162Y016295D01*
X017164Y016298D02*
X016352Y016298D01*
X016351Y016300D02*
X017165Y016300D01*
X017166Y016302D02*
X016350Y016302D01*
X016349Y016305D02*
X017167Y016305D01*
X017168Y016307D02*
X016347Y016307D01*
X016346Y016310D02*
X017170Y016310D01*
X017171Y016312D02*
X016345Y016312D01*
X016344Y016315D02*
X017172Y016315D01*
X017172Y016317D02*
X016343Y016317D01*
X016343Y016319D02*
X017173Y016319D01*
X017174Y016322D02*
X016342Y016322D01*
X016341Y016324D02*
X017174Y016324D01*
X017175Y016327D02*
X016341Y016327D01*
X016340Y016329D02*
X017176Y016329D01*
X017176Y016332D02*
X016339Y016332D01*
X016339Y016334D02*
X017177Y016334D01*
X017178Y016337D02*
X016338Y016337D01*
X016337Y016339D02*
X017179Y016339D01*
X017179Y016341D02*
X016337Y016341D01*
X016336Y016344D02*
X017180Y016344D01*
X017181Y016346D02*
X016335Y016346D01*
X016335Y016349D02*
X017181Y016349D01*
X017182Y016351D02*
X016334Y016351D01*
X016333Y016354D02*
X017183Y016354D01*
X017183Y016356D02*
X016333Y016356D01*
X016332Y016358D02*
X017184Y016358D01*
X017185Y016361D02*
X016331Y016361D01*
X016331Y016363D02*
X017185Y016363D01*
X017186Y016366D02*
X016330Y016366D01*
X016329Y016368D02*
X017187Y016368D01*
X017187Y016371D02*
X016329Y016371D01*
X016328Y016373D02*
X017188Y016373D01*
X017189Y016376D02*
X016327Y016376D01*
X016327Y016378D02*
X017190Y016378D01*
X017190Y016380D02*
X016326Y016380D01*
X016326Y016383D02*
X017191Y016383D01*
X017192Y016385D02*
X016325Y016385D01*
X016324Y016388D02*
X017192Y016388D01*
X017192Y016390D02*
X016324Y016390D01*
X016324Y016393D02*
X017193Y016393D01*
X017193Y016395D02*
X016324Y016395D01*
X016323Y016397D02*
X017193Y016397D01*
X017193Y016400D02*
X016323Y016400D01*
X016323Y016402D02*
X017194Y016402D01*
X017194Y016405D02*
X016323Y016405D01*
X016322Y016407D02*
X017194Y016407D01*
X017194Y016410D02*
X016322Y016410D01*
X016322Y016412D02*
X017195Y016412D01*
X017195Y016415D02*
X016322Y016415D01*
X016322Y016417D02*
X017195Y016417D01*
X017195Y016419D02*
X016321Y016419D01*
X016321Y016422D02*
X017196Y016422D01*
X017196Y016424D02*
X016321Y016424D01*
X016321Y016427D02*
X017196Y016427D01*
X017196Y016429D02*
X016320Y016429D01*
X016320Y016432D02*
X017197Y016432D01*
X017197Y016434D02*
X016320Y016434D01*
X016320Y016436D02*
X017197Y016436D01*
X017197Y016439D02*
X016320Y016439D01*
X016319Y016441D02*
X017198Y016441D01*
X017198Y016444D02*
X016319Y016444D01*
X016319Y016446D02*
X017198Y016446D01*
X017198Y016449D02*
X016319Y016449D01*
X016318Y016451D02*
X017199Y016451D01*
X017199Y016454D02*
X016318Y016454D01*
X016318Y016456D02*
X017199Y016456D01*
X017199Y016458D02*
X016318Y016458D01*
X016318Y016461D02*
X017200Y016461D01*
X017200Y016463D02*
X017200Y017550D01*
X016317Y017550D01*
X016317Y016463D01*
X016317Y016466D02*
X017200Y016466D01*
X017200Y016468D02*
X016317Y016468D01*
X016317Y016471D02*
X017200Y016471D01*
X017200Y016473D02*
X016317Y016473D01*
X016317Y016475D02*
X017200Y016475D01*
X017200Y016478D02*
X016317Y016478D01*
X016317Y016480D02*
X017200Y016480D01*
X017200Y016483D02*
X016317Y016483D01*
X016317Y016485D02*
X017200Y016485D01*
X017200Y016488D02*
X016317Y016488D01*
X016317Y016490D02*
X017200Y016490D01*
X017200Y016493D02*
X016317Y016493D01*
X016317Y016495D02*
X017200Y016495D01*
X017200Y016497D02*
X016317Y016497D01*
X016317Y016500D02*
X017200Y016500D01*
X017200Y016502D02*
X016317Y016502D01*
X016317Y016505D02*
X017200Y016505D01*
X017200Y016507D02*
X016317Y016507D01*
X016317Y016510D02*
X017200Y016510D01*
X017200Y016512D02*
X016317Y016512D01*
X016317Y016514D02*
X017200Y016514D01*
X017200Y016517D02*
X016317Y016517D01*
X016317Y016519D02*
X017200Y016519D01*
X017200Y016522D02*
X016317Y016522D01*
X016317Y016524D02*
X017200Y016524D01*
X017200Y016527D02*
X016317Y016527D01*
X016317Y016529D02*
X017200Y016529D01*
X017200Y016532D02*
X016317Y016532D01*
X016317Y016534D02*
X017200Y016534D01*
X017200Y016536D02*
X016317Y016536D01*
X016317Y016539D02*
X017200Y016539D01*
X017200Y016541D02*
X016317Y016541D01*
X016317Y016544D02*
X017200Y016544D01*
X017200Y016546D02*
X016317Y016546D01*
X016317Y016549D02*
X017200Y016549D01*
X017200Y016551D02*
X016317Y016551D01*
X016317Y016553D02*
X017200Y016553D01*
X017200Y016556D02*
X016317Y016556D01*
X016317Y016558D02*
X017200Y016558D01*
X017200Y016561D02*
X016317Y016561D01*
X016317Y016563D02*
X017200Y016563D01*
X017200Y016566D02*
X016317Y016566D01*
X016317Y016568D02*
X017200Y016568D01*
X017200Y016571D02*
X016317Y016571D01*
X016317Y016573D02*
X017200Y016573D01*
X017200Y016575D02*
X016317Y016575D01*
X016317Y016578D02*
X017200Y016578D01*
X017200Y016580D02*
X016317Y016580D01*
X016317Y016583D02*
X017200Y016583D01*
X017200Y016585D02*
X016317Y016585D01*
X016317Y016588D02*
X017200Y016588D01*
X017200Y016590D02*
X016317Y016590D01*
X016317Y016592D02*
X017200Y016592D01*
X017200Y016595D02*
X016317Y016595D01*
X016317Y016597D02*
X017200Y016597D01*
X017200Y016600D02*
X016317Y016600D01*
X016317Y016602D02*
X017200Y016602D01*
X017200Y016605D02*
X016317Y016605D01*
X016317Y016607D02*
X017200Y016607D01*
X017200Y016610D02*
X016317Y016610D01*
X016317Y016612D02*
X017200Y016612D01*
X017200Y016614D02*
X016317Y016614D01*
X016317Y016617D02*
X017200Y016617D01*
X017200Y016619D02*
X016317Y016619D01*
X016317Y016622D02*
X017200Y016622D01*
X017200Y016624D02*
X016317Y016624D01*
X016317Y016627D02*
X017200Y016627D01*
X017200Y016629D02*
X016317Y016629D01*
X016317Y016631D02*
X017200Y016631D01*
X017200Y016634D02*
X016317Y016634D01*
X016317Y016636D02*
X017200Y016636D01*
X017200Y016639D02*
X016317Y016639D01*
X016317Y016641D02*
X017200Y016641D01*
X017200Y016644D02*
X016317Y016644D01*
X016317Y016646D02*
X017200Y016646D01*
X017200Y016649D02*
X016317Y016649D01*
X016317Y016651D02*
X017200Y016651D01*
X017200Y016653D02*
X016317Y016653D01*
X016317Y016656D02*
X017200Y016656D01*
X017200Y016658D02*
X016317Y016658D01*
X016317Y016661D02*
X017200Y016661D01*
X017200Y016663D02*
X016317Y016663D01*
X016317Y016666D02*
X017200Y016666D01*
X017200Y016668D02*
X016317Y016668D01*
X016317Y016670D02*
X017200Y016670D01*
X017200Y016673D02*
X016317Y016673D01*
X016317Y016675D02*
X017200Y016675D01*
X017200Y016678D02*
X016317Y016678D01*
X016317Y016680D02*
X017200Y016680D01*
X017200Y016683D02*
X016317Y016683D01*
X016317Y016685D02*
X017200Y016685D01*
X017200Y016688D02*
X016317Y016688D01*
X016317Y016690D02*
X017200Y016690D01*
X017200Y016692D02*
X016317Y016692D01*
X016317Y016695D02*
X017200Y016695D01*
X017200Y016697D02*
X016317Y016697D01*
X016317Y016700D02*
X017200Y016700D01*
X017200Y016702D02*
X016317Y016702D01*
X016317Y016705D02*
X017200Y016705D01*
X017200Y016707D02*
X016317Y016707D01*
X016317Y016709D02*
X017200Y016709D01*
X017200Y016712D02*
X016317Y016712D01*
X016317Y016714D02*
X017200Y016714D01*
X017200Y016717D02*
X016317Y016717D01*
X016317Y016719D02*
X017200Y016719D01*
X017200Y016722D02*
X016317Y016722D01*
X016317Y016724D02*
X017200Y016724D01*
X017200Y016726D02*
X016317Y016726D01*
X016317Y016729D02*
X017200Y016729D01*
X017200Y016731D02*
X016317Y016731D01*
X016317Y016734D02*
X017200Y016734D01*
X017200Y016736D02*
X016317Y016736D01*
X016317Y016739D02*
X017200Y016739D01*
X017200Y016741D02*
X016317Y016741D01*
X016317Y016744D02*
X017200Y016744D01*
X017200Y016746D02*
X016317Y016746D01*
X016317Y016748D02*
X017200Y016748D01*
X017200Y016751D02*
X016317Y016751D01*
X016317Y016753D02*
X017200Y016753D01*
X017200Y016756D02*
X016317Y016756D01*
X016317Y016758D02*
X017200Y016758D01*
X017200Y016761D02*
X016317Y016761D01*
X016317Y016763D02*
X017200Y016763D01*
X017200Y016765D02*
X016317Y016765D01*
X016317Y016768D02*
X017200Y016768D01*
X017200Y016770D02*
X016317Y016770D01*
X016317Y016773D02*
X017200Y016773D01*
X017200Y016775D02*
X016317Y016775D01*
X016317Y016778D02*
X017200Y016778D01*
X017200Y016780D02*
X016317Y016780D01*
X016317Y016783D02*
X017200Y016783D01*
X017200Y016785D02*
X016317Y016785D01*
X016317Y016787D02*
X017200Y016787D01*
X017200Y016790D02*
X016317Y016790D01*
X016317Y016792D02*
X017200Y016792D01*
X017200Y016795D02*
X016317Y016795D01*
X016317Y016797D02*
X017200Y016797D01*
X017200Y016800D02*
X016317Y016800D01*
X016317Y016802D02*
X017200Y016802D01*
X017200Y016804D02*
X016317Y016804D01*
X016317Y016807D02*
X017200Y016807D01*
X017200Y016809D02*
X016317Y016809D01*
X016317Y016812D02*
X017200Y016812D01*
X017200Y016814D02*
X016317Y016814D01*
X016317Y016817D02*
X017200Y016817D01*
X017200Y016819D02*
X016317Y016819D01*
X016317Y016822D02*
X017200Y016822D01*
X017200Y016824D02*
X016317Y016824D01*
X016317Y016826D02*
X017200Y016826D01*
X017200Y016829D02*
X016317Y016829D01*
X016317Y016831D02*
X017200Y016831D01*
X017200Y016834D02*
X016317Y016834D01*
X016317Y016836D02*
X017200Y016836D01*
X017200Y016839D02*
X016317Y016839D01*
X016317Y016841D02*
X017200Y016841D01*
X017200Y016843D02*
X016317Y016843D01*
X016317Y016846D02*
X017200Y016846D01*
X017200Y016848D02*
X016317Y016848D01*
X016317Y016851D02*
X017200Y016851D01*
X017200Y016853D02*
X016317Y016853D01*
X016317Y016856D02*
X017200Y016856D01*
X017200Y016858D02*
X016317Y016858D01*
X016317Y016861D02*
X017200Y016861D01*
X017200Y016863D02*
X016317Y016863D01*
X016317Y016865D02*
X017200Y016865D01*
X017200Y016868D02*
X016317Y016868D01*
X016317Y016870D02*
X017200Y016870D01*
X017200Y016873D02*
X016317Y016873D01*
X016317Y016875D02*
X017200Y016875D01*
X017200Y016878D02*
X016317Y016878D01*
X016317Y016880D02*
X017200Y016880D01*
X017200Y016882D02*
X016317Y016882D01*
X016317Y016885D02*
X017200Y016885D01*
X017200Y016887D02*
X016317Y016887D01*
X016317Y016890D02*
X017200Y016890D01*
X017200Y016892D02*
X016317Y016892D01*
X016317Y016895D02*
X017200Y016895D01*
X017200Y016897D02*
X016317Y016897D01*
X016317Y016900D02*
X017200Y016900D01*
X017200Y016902D02*
X016317Y016902D01*
X016317Y016904D02*
X017200Y016904D01*
X017200Y016907D02*
X016317Y016907D01*
X016317Y016909D02*
X017200Y016909D01*
X017200Y016912D02*
X016317Y016912D01*
X016317Y016914D02*
X017200Y016914D01*
X017200Y016917D02*
X016317Y016917D01*
X016317Y016919D02*
X017200Y016919D01*
X017200Y016921D02*
X016317Y016921D01*
X016317Y016924D02*
X017200Y016924D01*
X017200Y016926D02*
X016317Y016926D01*
X016317Y016929D02*
X017200Y016929D01*
X017200Y016931D02*
X016317Y016931D01*
X016317Y016934D02*
X017200Y016934D01*
X017200Y016936D02*
X016317Y016936D01*
X016317Y016939D02*
X017200Y016939D01*
X017200Y016941D02*
X016317Y016941D01*
X016317Y016943D02*
X017200Y016943D01*
X017200Y016946D02*
X016317Y016946D01*
X016317Y016948D02*
X017200Y016948D01*
X017200Y016951D02*
X016317Y016951D01*
X016317Y016953D02*
X017200Y016953D01*
X017200Y016956D02*
X016317Y016956D01*
X016317Y016958D02*
X017200Y016958D01*
X017200Y016960D02*
X016317Y016960D01*
X016317Y016963D02*
X017200Y016963D01*
X017200Y016965D02*
X016317Y016965D01*
X016317Y016968D02*
X017200Y016968D01*
X017200Y016970D02*
X016317Y016970D01*
X016317Y016973D02*
X017200Y016973D01*
X017200Y016975D02*
X016317Y016975D01*
X016317Y016978D02*
X017200Y016978D01*
X017200Y016980D02*
X016317Y016980D01*
X016317Y016982D02*
X017200Y016982D01*
X017200Y016985D02*
X016317Y016985D01*
X016317Y016987D02*
X017200Y016987D01*
X017200Y016990D02*
X016317Y016990D01*
X016317Y016992D02*
X017200Y016992D01*
X017200Y016995D02*
X016317Y016995D01*
X016317Y016997D02*
X017200Y016997D01*
X017200Y016999D02*
X016317Y016999D01*
X016317Y017002D02*
X017200Y017002D01*
X017200Y017004D02*
X016317Y017004D01*
X016317Y017007D02*
X017200Y017007D01*
X017200Y017009D02*
X016317Y017009D01*
X016317Y017012D02*
X017200Y017012D01*
X017200Y017014D02*
X016317Y017014D01*
X016317Y017017D02*
X017200Y017017D01*
X017200Y017019D02*
X016317Y017019D01*
X016317Y017021D02*
X017200Y017021D01*
X017200Y017024D02*
X016317Y017024D01*
X016317Y017026D02*
X017200Y017026D01*
X017200Y017029D02*
X016317Y017029D01*
X016317Y017031D02*
X017200Y017031D01*
X017200Y017034D02*
X016317Y017034D01*
X016317Y017036D02*
X017200Y017036D01*
X017200Y017038D02*
X016317Y017038D01*
X016317Y017041D02*
X017200Y017041D01*
X017200Y017043D02*
X016317Y017043D01*
X016317Y017046D02*
X017200Y017046D01*
X017200Y017048D02*
X016317Y017048D01*
X016317Y017051D02*
X017200Y017051D01*
X017200Y017053D02*
X016317Y017053D01*
X016317Y017056D02*
X017200Y017056D01*
X017200Y017058D02*
X016317Y017058D01*
X016317Y017060D02*
X017200Y017060D01*
X017200Y017063D02*
X016317Y017063D01*
X016317Y017065D02*
X017200Y017065D01*
X017200Y017068D02*
X016317Y017068D01*
X016317Y017070D02*
X017200Y017070D01*
X017200Y017073D02*
X016317Y017073D01*
X016317Y017075D02*
X017200Y017075D01*
X017200Y017077D02*
X016317Y017077D01*
X016317Y017080D02*
X017200Y017080D01*
X017200Y017082D02*
X016317Y017082D01*
X016317Y017085D02*
X017200Y017085D01*
X017200Y017087D02*
X016317Y017087D01*
X016317Y017090D02*
X017200Y017090D01*
X017200Y017092D02*
X016317Y017092D01*
X016317Y017095D02*
X017200Y017095D01*
X017200Y017097D02*
X016317Y017097D01*
X016317Y017099D02*
X017200Y017099D01*
X017200Y017102D02*
X016317Y017102D01*
X016317Y017104D02*
X017200Y017104D01*
X017200Y017107D02*
X016317Y017107D01*
X016317Y017109D02*
X017200Y017109D01*
X017200Y017112D02*
X016317Y017112D01*
X016317Y017114D02*
X017200Y017114D01*
X017200Y017116D02*
X016317Y017116D01*
X016317Y017119D02*
X017200Y017119D01*
X017200Y017121D02*
X016317Y017121D01*
X016317Y017124D02*
X017200Y017124D01*
X017200Y017126D02*
X016317Y017126D01*
X016317Y017129D02*
X017200Y017129D01*
X017200Y017131D02*
X016317Y017131D01*
X016317Y017134D02*
X017200Y017134D01*
X017200Y017136D02*
X016317Y017136D01*
X016317Y017138D02*
X017200Y017138D01*
X017200Y017141D02*
X016317Y017141D01*
X016317Y017143D02*
X017200Y017143D01*
X017200Y017146D02*
X016317Y017146D01*
X016317Y017148D02*
X017200Y017148D01*
X017200Y017151D02*
X016317Y017151D01*
X016317Y017153D02*
X017200Y017153D01*
X017200Y017155D02*
X016317Y017155D01*
X016317Y017158D02*
X017200Y017158D01*
X017200Y017160D02*
X016317Y017160D01*
X016317Y017163D02*
X017200Y017163D01*
X017200Y017165D02*
X016317Y017165D01*
X016317Y017168D02*
X017200Y017168D01*
X017200Y017170D02*
X016317Y017170D01*
X016317Y017173D02*
X017200Y017173D01*
X017200Y017175D02*
X016317Y017175D01*
X016317Y017177D02*
X017200Y017177D01*
X017200Y017180D02*
X016317Y017180D01*
X016317Y017182D02*
X017200Y017182D01*
X017200Y017185D02*
X016317Y017185D01*
X016317Y017187D02*
X017200Y017187D01*
X017200Y017190D02*
X016317Y017190D01*
X016317Y017192D02*
X017200Y017192D01*
X017200Y017194D02*
X016317Y017194D01*
X016317Y017197D02*
X017200Y017197D01*
X017200Y017199D02*
X016317Y017199D01*
X016317Y017202D02*
X017200Y017202D01*
X017200Y017204D02*
X016317Y017204D01*
X016317Y017207D02*
X017200Y017207D01*
X017200Y017209D02*
X016317Y017209D01*
X016317Y017212D02*
X017200Y017212D01*
X017200Y017214D02*
X016317Y017214D01*
X016317Y017216D02*
X017200Y017216D01*
X017200Y017219D02*
X016317Y017219D01*
X016317Y017221D02*
X017200Y017221D01*
X017200Y017224D02*
X016317Y017224D01*
X016317Y017226D02*
X017200Y017226D01*
X017200Y017229D02*
X016317Y017229D01*
X016317Y017231D02*
X017200Y017231D01*
X017200Y017233D02*
X016317Y017233D01*
X016317Y017236D02*
X017200Y017236D01*
X017200Y017238D02*
X016317Y017238D01*
X016317Y017241D02*
X017200Y017241D01*
X017200Y017243D02*
X016317Y017243D01*
X016317Y017246D02*
X017200Y017246D01*
X017200Y017248D02*
X016317Y017248D01*
X016317Y017251D02*
X017200Y017251D01*
X017200Y017253D02*
X016317Y017253D01*
X016317Y017255D02*
X017200Y017255D01*
X017200Y017258D02*
X016317Y017258D01*
X016317Y017260D02*
X017200Y017260D01*
X017200Y017263D02*
X016317Y017263D01*
X016317Y017265D02*
X017200Y017265D01*
X017200Y017268D02*
X016317Y017268D01*
X016317Y017270D02*
X017200Y017270D01*
X017200Y017272D02*
X016317Y017272D01*
X016317Y017275D02*
X017200Y017275D01*
X017200Y017277D02*
X016317Y017277D01*
X016317Y017280D02*
X017200Y017280D01*
X017200Y017282D02*
X016317Y017282D01*
X016317Y017285D02*
X017200Y017285D01*
X017200Y017287D02*
X016317Y017287D01*
X016317Y017290D02*
X017200Y017290D01*
X017200Y017292D02*
X016317Y017292D01*
X016317Y017294D02*
X017200Y017294D01*
X017200Y017297D02*
X016317Y017297D01*
X016317Y017299D02*
X017200Y017299D01*
X017200Y017302D02*
X016317Y017302D01*
X016317Y017304D02*
X017200Y017304D01*
X017200Y017307D02*
X016317Y017307D01*
X016317Y017309D02*
X017200Y017309D01*
X017200Y017311D02*
X016317Y017311D01*
X016317Y017314D02*
X017200Y017314D01*
X017200Y017316D02*
X016317Y017316D01*
X016317Y017319D02*
X017200Y017319D01*
X017200Y017321D02*
X016317Y017321D01*
X016317Y017324D02*
X017200Y017324D01*
X017200Y017326D02*
X016317Y017326D01*
X016317Y017329D02*
X017200Y017329D01*
X017200Y017331D02*
X016317Y017331D01*
X016317Y017333D02*
X017200Y017333D01*
X017200Y017336D02*
X016317Y017336D01*
X016317Y017338D02*
X017200Y017338D01*
X017200Y017341D02*
X016317Y017341D01*
X016317Y017343D02*
X017200Y017343D01*
X017200Y017346D02*
X016317Y017346D01*
X016317Y017348D02*
X017200Y017348D01*
X017200Y017350D02*
X016317Y017350D01*
X016317Y017353D02*
X017200Y017353D01*
X017200Y017355D02*
X016317Y017355D01*
X016317Y017358D02*
X017200Y017358D01*
X017200Y017360D02*
X016317Y017360D01*
X016317Y017363D02*
X017200Y017363D01*
X017200Y017365D02*
X016317Y017365D01*
X016317Y017367D02*
X017200Y017367D01*
X017200Y017370D02*
X016317Y017370D01*
X016317Y017372D02*
X017200Y017372D01*
X017200Y017375D02*
X016317Y017375D01*
X016317Y017377D02*
X017200Y017377D01*
X017200Y017380D02*
X016317Y017380D01*
X016317Y017382D02*
X017200Y017382D01*
X017200Y017385D02*
X016317Y017385D01*
X016317Y017387D02*
X017200Y017387D01*
X017200Y017389D02*
X016317Y017389D01*
X016317Y017392D02*
X017200Y017392D01*
X017200Y017394D02*
X016317Y017394D01*
X016317Y017397D02*
X017200Y017397D01*
X017200Y017399D02*
X016317Y017399D01*
X016317Y017402D02*
X017200Y017402D01*
X017200Y017404D02*
X016317Y017404D01*
X016317Y017406D02*
X017200Y017406D01*
X017200Y017409D02*
X016317Y017409D01*
X016317Y017411D02*
X017200Y017411D01*
X017200Y017414D02*
X016317Y017414D01*
X016317Y017416D02*
X017200Y017416D01*
X017200Y017419D02*
X016317Y017419D01*
X016317Y017421D02*
X017200Y017421D01*
X017200Y017424D02*
X016317Y017424D01*
X016317Y017426D02*
X017200Y017426D01*
X017200Y017428D02*
X016317Y017428D01*
X016317Y017431D02*
X017200Y017431D01*
X017200Y017433D02*
X016317Y017433D01*
X016317Y017436D02*
X017200Y017436D01*
X017200Y017438D02*
X016317Y017438D01*
X016317Y017441D02*
X017200Y017441D01*
X017200Y017443D02*
X016317Y017443D01*
X016317Y017445D02*
X017200Y017445D01*
X017200Y017448D02*
X016317Y017448D01*
X016317Y017450D02*
X017200Y017450D01*
X017200Y017453D02*
X016317Y017453D01*
X016317Y017455D02*
X017200Y017455D01*
X017200Y017458D02*
X016317Y017458D01*
X016317Y017460D02*
X017200Y017460D01*
X017200Y017463D02*
X016317Y017463D01*
X016317Y017465D02*
X017200Y017465D01*
X017200Y017467D02*
X016317Y017467D01*
X016317Y017470D02*
X017200Y017470D01*
X017200Y017472D02*
X016317Y017472D01*
X016317Y017475D02*
X017200Y017475D01*
X017200Y017477D02*
X016317Y017477D01*
X016317Y017480D02*
X017200Y017480D01*
X017200Y017482D02*
X016317Y017482D01*
X016317Y017484D02*
X017200Y017484D01*
X017200Y017487D02*
X016317Y017487D01*
X016317Y017489D02*
X017200Y017489D01*
X017200Y017492D02*
X016317Y017492D01*
X016317Y017494D02*
X017200Y017494D01*
X017200Y017497D02*
X016317Y017497D01*
X016317Y017499D02*
X017200Y017499D01*
X017200Y017502D02*
X016317Y017502D01*
X016317Y017504D02*
X017200Y017504D01*
X017200Y017506D02*
X016317Y017506D01*
X016317Y017509D02*
X017200Y017509D01*
X017200Y017511D02*
X016317Y017511D01*
X016317Y017514D02*
X017200Y017514D01*
X017200Y017516D02*
X016317Y017516D01*
X016317Y017519D02*
X017200Y017519D01*
X017200Y017521D02*
X016317Y017521D01*
X016317Y017523D02*
X017200Y017523D01*
X017200Y017526D02*
X016317Y017526D01*
X016317Y017528D02*
X017200Y017528D01*
X017200Y017531D02*
X016317Y017531D01*
X016317Y017533D02*
X017200Y017533D01*
X017200Y017536D02*
X016317Y017536D01*
X016317Y017538D02*
X017200Y017538D01*
X017200Y017541D02*
X016317Y017541D01*
X016317Y017543D02*
X017200Y017543D01*
X017200Y017545D02*
X016317Y017545D01*
X016317Y017548D02*
X017200Y017548D01*
X017200Y017550D02*
X017192Y017626D01*
X016324Y017626D01*
X016317Y017550D01*
X016318Y017553D02*
X017200Y017553D01*
X017199Y017555D02*
X016318Y017555D01*
X016318Y017558D02*
X017199Y017558D01*
X017199Y017560D02*
X016318Y017560D01*
X016318Y017562D02*
X017199Y017562D01*
X017198Y017565D02*
X016319Y017565D01*
X016319Y017567D02*
X017198Y017567D01*
X017198Y017570D02*
X016319Y017570D01*
X016319Y017572D02*
X017198Y017572D01*
X017197Y017575D02*
X016320Y017575D01*
X016320Y017577D02*
X017197Y017577D01*
X017197Y017580D02*
X016320Y017580D01*
X016320Y017582D02*
X017197Y017582D01*
X017196Y017584D02*
X016320Y017584D01*
X016321Y017587D02*
X017196Y017587D01*
X017196Y017589D02*
X016321Y017589D01*
X016321Y017592D02*
X017196Y017592D01*
X017196Y017594D02*
X016321Y017594D01*
X016321Y017597D02*
X017195Y017597D01*
X017195Y017599D02*
X016322Y017599D01*
X016322Y017601D02*
X017195Y017601D01*
X017195Y017604D02*
X016322Y017604D01*
X016322Y017606D02*
X017194Y017606D01*
X017194Y017609D02*
X016322Y017609D01*
X016323Y017611D02*
X017194Y017611D01*
X017194Y017614D02*
X016323Y017614D01*
X016323Y017616D02*
X017193Y017616D01*
X017193Y017619D02*
X016323Y017619D01*
X016323Y017621D02*
X017193Y017621D01*
X017193Y017623D02*
X016324Y017623D01*
X016324Y017626D02*
X016343Y017699D01*
X017172Y017699D01*
X017172Y017701D02*
X017139Y017770D01*
X016376Y017770D01*
X016375Y017768D02*
X016343Y017699D01*
X016343Y017697D02*
X017173Y017697D01*
X017174Y017694D02*
X016342Y017694D01*
X016341Y017692D02*
X017174Y017692D01*
X017175Y017689D02*
X016341Y017689D01*
X016340Y017687D02*
X017176Y017687D01*
X017176Y017684D02*
X016339Y017684D01*
X016339Y017682D02*
X017177Y017682D01*
X017178Y017679D02*
X016338Y017679D01*
X016338Y017677D02*
X017178Y017677D01*
X017179Y017675D02*
X016337Y017675D01*
X016336Y017672D02*
X017180Y017672D01*
X017180Y017670D02*
X016336Y017670D01*
X016335Y017667D02*
X017181Y017667D01*
X017182Y017665D02*
X016334Y017665D01*
X016334Y017662D02*
X017182Y017662D01*
X017183Y017660D02*
X016333Y017660D01*
X016332Y017658D02*
X017184Y017658D01*
X017184Y017655D02*
X016332Y017655D01*
X016331Y017653D02*
X017185Y017653D01*
X017186Y017650D02*
X016330Y017650D01*
X016330Y017648D02*
X017186Y017648D01*
X017187Y017645D02*
X016329Y017645D01*
X016328Y017643D02*
X017188Y017643D01*
X017188Y017640D02*
X016328Y017640D01*
X016327Y017638D02*
X017189Y017638D01*
X017190Y017636D02*
X016327Y017636D01*
X016326Y017633D02*
X017191Y017633D01*
X017191Y017631D02*
X016325Y017631D01*
X016325Y017628D02*
X017192Y017628D01*
X017192Y017626D02*
X017172Y017701D01*
X017171Y017701D02*
X016344Y017701D01*
X016346Y017704D02*
X017170Y017704D01*
X017169Y017706D02*
X016347Y017706D01*
X016348Y017709D02*
X017168Y017709D01*
X017167Y017711D02*
X016349Y017711D01*
X016350Y017714D02*
X017166Y017714D01*
X017164Y017716D02*
X016351Y017716D01*
X016352Y017718D02*
X017163Y017718D01*
X017162Y017721D02*
X016353Y017721D01*
X016355Y017723D02*
X017161Y017723D01*
X017160Y017726D02*
X016356Y017726D01*
X016357Y017728D02*
X017159Y017728D01*
X017157Y017731D02*
X016358Y017731D01*
X016359Y017733D02*
X017156Y017733D01*
X017155Y017736D02*
X016360Y017736D01*
X016361Y017738D02*
X017154Y017738D01*
X017153Y017740D02*
X016362Y017740D01*
X016364Y017743D02*
X017152Y017743D01*
X017150Y017745D02*
X016365Y017745D01*
X016366Y017748D02*
X017149Y017748D01*
X017148Y017750D02*
X016367Y017750D01*
X016368Y017753D02*
X017147Y017753D01*
X017146Y017755D02*
X016369Y017755D01*
X016370Y017757D02*
X017145Y017757D01*
X017143Y017760D02*
X016372Y017760D01*
X016373Y017762D02*
X017142Y017762D01*
X017141Y017765D02*
X016374Y017765D01*
X016375Y017767D02*
X017140Y017767D01*
X017139Y017770D02*
X017094Y017833D01*
X017039Y017887D01*
X016975Y017931D01*
X016905Y017963D01*
X016830Y017982D01*
X016754Y017988D01*
X016678Y017981D01*
X016604Y017961D01*
X016535Y017929D01*
X016473Y017885D01*
X016419Y017831D01*
X016375Y017768D01*
X016378Y017772D02*
X017137Y017772D01*
X017135Y017775D02*
X016380Y017775D01*
X016381Y017777D02*
X017134Y017777D01*
X017132Y017779D02*
X016383Y017779D01*
X016385Y017782D02*
X017130Y017782D01*
X017129Y017784D02*
X016387Y017784D01*
X016388Y017787D02*
X017127Y017787D01*
X017125Y017789D02*
X016390Y017789D01*
X016392Y017792D02*
X017123Y017792D01*
X017122Y017794D02*
X016393Y017794D01*
X016395Y017796D02*
X017120Y017796D01*
X017118Y017799D02*
X016397Y017799D01*
X016398Y017801D02*
X017116Y017801D01*
X017115Y017804D02*
X016400Y017804D01*
X016402Y017806D02*
X017113Y017806D01*
X017111Y017809D02*
X016404Y017809D01*
X016405Y017811D02*
X017109Y017811D01*
X017108Y017814D02*
X016407Y017814D01*
X016409Y017816D02*
X017106Y017816D01*
X017104Y017818D02*
X016410Y017818D01*
X016412Y017821D02*
X017102Y017821D01*
X017101Y017823D02*
X016414Y017823D01*
X016415Y017826D02*
X017099Y017826D01*
X017097Y017828D02*
X016417Y017828D01*
X016419Y017831D02*
X017095Y017831D01*
X017094Y017833D02*
X016421Y017833D01*
X016424Y017835D02*
X017091Y017835D01*
X017089Y017838D02*
X016426Y017838D01*
X016428Y017840D02*
X017086Y017840D01*
X017084Y017843D02*
X016431Y017843D01*
X016433Y017845D02*
X017081Y017845D01*
X017079Y017848D02*
X016436Y017848D01*
X016438Y017850D02*
X017076Y017850D01*
X017074Y017853D02*
X016441Y017853D01*
X016443Y017855D02*
X017071Y017855D01*
X017069Y017857D02*
X016445Y017857D01*
X016448Y017860D02*
X017066Y017860D01*
X017064Y017862D02*
X016450Y017862D01*
X016453Y017865D02*
X017061Y017865D01*
X017059Y017867D02*
X016455Y017867D01*
X016458Y017870D02*
X017056Y017870D01*
X017054Y017872D02*
X016460Y017872D01*
X016462Y017874D02*
X017052Y017874D01*
X017049Y017877D02*
X016465Y017877D01*
X016467Y017879D02*
X017047Y017879D01*
X017044Y017882D02*
X016470Y017882D01*
X016472Y017884D02*
X017042Y017884D01*
X017039Y017887D02*
X016475Y017887D01*
X016479Y017889D02*
X017036Y017889D01*
X017032Y017892D02*
X016482Y017892D01*
X016486Y017894D02*
X017029Y017894D01*
X017025Y017896D02*
X016489Y017896D01*
X016493Y017899D02*
X017022Y017899D01*
X017018Y017901D02*
X016496Y017901D01*
X016499Y017904D02*
X017014Y017904D01*
X017011Y017906D02*
X016503Y017906D01*
X016506Y017909D02*
X017007Y017909D01*
X017004Y017911D02*
X016510Y017911D01*
X016513Y017913D02*
X017000Y017913D01*
X016997Y017916D02*
X016517Y017916D01*
X016520Y017918D02*
X016993Y017918D01*
X016990Y017921D02*
X016524Y017921D01*
X016527Y017923D02*
X016986Y017923D01*
X016982Y017926D02*
X016531Y017926D01*
X016534Y017928D02*
X016979Y017928D01*
X016975Y017931D02*
X016539Y017931D01*
X016544Y017933D02*
X016970Y017933D01*
X016965Y017935D02*
X016549Y017935D01*
X016554Y017938D02*
X016959Y017938D01*
X016954Y017940D02*
X016560Y017940D01*
X016565Y017943D02*
X016949Y017943D01*
X016943Y017945D02*
X016570Y017945D01*
X016575Y017948D02*
X016938Y017948D01*
X016933Y017950D02*
X016580Y017950D01*
X016586Y017952D02*
X016927Y017952D01*
X016922Y017955D02*
X016591Y017955D01*
X016596Y017957D02*
X016917Y017957D01*
X016911Y017960D02*
X016601Y017960D01*
X016608Y017962D02*
X016906Y017962D01*
X016897Y017965D02*
X016617Y017965D01*
X016626Y017967D02*
X016888Y017967D01*
X016878Y017969D02*
X016635Y017969D01*
X016644Y017972D02*
X016869Y017972D01*
X016859Y017974D02*
X016653Y017974D01*
X016662Y017977D02*
X016850Y017977D01*
X016840Y017979D02*
X016671Y017979D01*
X016685Y017982D02*
X016831Y017982D01*
X016801Y017984D02*
X016712Y017984D01*
X016739Y017987D02*
X016770Y017987D01*
X012069Y017550D02*
X012069Y016463D01*
X011187Y016463D01*
X011194Y016388D01*
X011213Y016315D01*
X011246Y016246D01*
X011289Y016184D01*
X011343Y016130D01*
X011405Y016087D01*
X011474Y016055D01*
X011547Y016036D01*
X011623Y016029D01*
X011700Y016035D01*
X011774Y016054D01*
X011844Y016085D01*
X011907Y016128D01*
X011962Y016182D01*
X012007Y016244D01*
X011247Y016244D01*
X011245Y016246D02*
X012008Y016246D01*
X012007Y016244D02*
X012041Y016313D01*
X012062Y016387D01*
X012069Y016463D01*
X012069Y016461D02*
X011187Y016461D01*
X011187Y016463D02*
X011187Y017550D01*
X012069Y017550D01*
X012062Y017626D01*
X011193Y017626D01*
X011187Y017550D01*
X011187Y017548D02*
X012069Y017548D01*
X012069Y017545D02*
X011187Y017545D01*
X011187Y017543D02*
X012069Y017543D01*
X012069Y017541D02*
X011187Y017541D01*
X011187Y017538D02*
X012069Y017538D01*
X012069Y017536D02*
X011187Y017536D01*
X011187Y017533D02*
X012069Y017533D01*
X012069Y017531D02*
X011187Y017531D01*
X011187Y017528D02*
X012069Y017528D01*
X012069Y017526D02*
X011187Y017526D01*
X011187Y017523D02*
X012069Y017523D01*
X012069Y017521D02*
X011187Y017521D01*
X011187Y017519D02*
X012069Y017519D01*
X012069Y017516D02*
X011187Y017516D01*
X011187Y017514D02*
X012069Y017514D01*
X012069Y017511D02*
X011187Y017511D01*
X011187Y017509D02*
X012069Y017509D01*
X012069Y017506D02*
X011187Y017506D01*
X011187Y017504D02*
X012069Y017504D01*
X012069Y017502D02*
X011187Y017502D01*
X011187Y017499D02*
X012069Y017499D01*
X012069Y017497D02*
X011187Y017497D01*
X011187Y017494D02*
X012069Y017494D01*
X012069Y017492D02*
X011187Y017492D01*
X011187Y017489D02*
X012069Y017489D01*
X012069Y017487D02*
X011187Y017487D01*
X011187Y017484D02*
X012069Y017484D01*
X012069Y017482D02*
X011187Y017482D01*
X011187Y017480D02*
X012069Y017480D01*
X012069Y017477D02*
X011187Y017477D01*
X011187Y017475D02*
X012069Y017475D01*
X012069Y017472D02*
X011187Y017472D01*
X011187Y017470D02*
X012069Y017470D01*
X012069Y017467D02*
X011187Y017467D01*
X011187Y017465D02*
X012069Y017465D01*
X012069Y017463D02*
X011187Y017463D01*
X011187Y017460D02*
X012069Y017460D01*
X012069Y017458D02*
X011187Y017458D01*
X011187Y017455D02*
X012069Y017455D01*
X012069Y017453D02*
X011187Y017453D01*
X011187Y017450D02*
X012069Y017450D01*
X012069Y017448D02*
X011187Y017448D01*
X011187Y017445D02*
X012069Y017445D01*
X012069Y017443D02*
X011187Y017443D01*
X011187Y017441D02*
X012069Y017441D01*
X012069Y017438D02*
X011187Y017438D01*
X011187Y017436D02*
X012069Y017436D01*
X012069Y017433D02*
X011187Y017433D01*
X011187Y017431D02*
X012069Y017431D01*
X012069Y017428D02*
X011187Y017428D01*
X011187Y017426D02*
X012069Y017426D01*
X012069Y017424D02*
X011187Y017424D01*
X011187Y017421D02*
X012069Y017421D01*
X012069Y017419D02*
X011187Y017419D01*
X011187Y017416D02*
X012069Y017416D01*
X012069Y017414D02*
X011187Y017414D01*
X011187Y017411D02*
X012069Y017411D01*
X012069Y017409D02*
X011187Y017409D01*
X011187Y017406D02*
X012069Y017406D01*
X012069Y017404D02*
X011187Y017404D01*
X011187Y017402D02*
X012069Y017402D01*
X012069Y017399D02*
X011187Y017399D01*
X011187Y017397D02*
X012069Y017397D01*
X012069Y017394D02*
X011187Y017394D01*
X011187Y017392D02*
X012069Y017392D01*
X012069Y017389D02*
X011187Y017389D01*
X011187Y017387D02*
X012069Y017387D01*
X012069Y017385D02*
X011187Y017385D01*
X011187Y017382D02*
X012069Y017382D01*
X012069Y017380D02*
X011187Y017380D01*
X011187Y017377D02*
X012069Y017377D01*
X012069Y017375D02*
X011187Y017375D01*
X011187Y017372D02*
X012069Y017372D01*
X012069Y017370D02*
X011187Y017370D01*
X011187Y017367D02*
X012069Y017367D01*
X012069Y017365D02*
X011187Y017365D01*
X011187Y017363D02*
X012069Y017363D01*
X012069Y017360D02*
X011187Y017360D01*
X011187Y017358D02*
X012069Y017358D01*
X012069Y017355D02*
X011187Y017355D01*
X011187Y017353D02*
X012069Y017353D01*
X012069Y017350D02*
X011187Y017350D01*
X011187Y017348D02*
X012069Y017348D01*
X012069Y017346D02*
X011187Y017346D01*
X011187Y017343D02*
X012069Y017343D01*
X012069Y017341D02*
X011187Y017341D01*
X011187Y017338D02*
X012069Y017338D01*
X012069Y017336D02*
X011187Y017336D01*
X011187Y017333D02*
X012069Y017333D01*
X012069Y017331D02*
X011187Y017331D01*
X011187Y017329D02*
X012069Y017329D01*
X012069Y017326D02*
X011187Y017326D01*
X011187Y017324D02*
X012069Y017324D01*
X012069Y017321D02*
X011187Y017321D01*
X011187Y017319D02*
X012069Y017319D01*
X012069Y017316D02*
X011187Y017316D01*
X011187Y017314D02*
X012069Y017314D01*
X012069Y017311D02*
X011187Y017311D01*
X011187Y017309D02*
X012069Y017309D01*
X012069Y017307D02*
X011187Y017307D01*
X011187Y017304D02*
X012069Y017304D01*
X012069Y017302D02*
X011187Y017302D01*
X011187Y017299D02*
X012069Y017299D01*
X012069Y017297D02*
X011187Y017297D01*
X011187Y017294D02*
X012069Y017294D01*
X012069Y017292D02*
X011187Y017292D01*
X011187Y017290D02*
X012069Y017290D01*
X012069Y017287D02*
X011187Y017287D01*
X011187Y017285D02*
X012069Y017285D01*
X012069Y017282D02*
X011187Y017282D01*
X011187Y017280D02*
X012069Y017280D01*
X012069Y017277D02*
X011187Y017277D01*
X011187Y017275D02*
X012069Y017275D01*
X012069Y017272D02*
X011187Y017272D01*
X011187Y017270D02*
X012069Y017270D01*
X012069Y017268D02*
X011187Y017268D01*
X011187Y017265D02*
X012069Y017265D01*
X012069Y017263D02*
X011187Y017263D01*
X011187Y017260D02*
X012069Y017260D01*
X012069Y017258D02*
X011187Y017258D01*
X011187Y017255D02*
X012069Y017255D01*
X012069Y017253D02*
X011187Y017253D01*
X011187Y017251D02*
X012069Y017251D01*
X012069Y017248D02*
X011187Y017248D01*
X011187Y017246D02*
X012069Y017246D01*
X012069Y017243D02*
X011187Y017243D01*
X011187Y017241D02*
X012069Y017241D01*
X012069Y017238D02*
X011187Y017238D01*
X011187Y017236D02*
X012069Y017236D01*
X012069Y017233D02*
X011187Y017233D01*
X011187Y017231D02*
X012069Y017231D01*
X012069Y017229D02*
X011187Y017229D01*
X011187Y017226D02*
X012069Y017226D01*
X012069Y017224D02*
X011187Y017224D01*
X011187Y017221D02*
X012069Y017221D01*
X012069Y017219D02*
X011187Y017219D01*
X011187Y017216D02*
X012069Y017216D01*
X012069Y017214D02*
X011187Y017214D01*
X011187Y017212D02*
X012069Y017212D01*
X012069Y017209D02*
X011187Y017209D01*
X011187Y017207D02*
X012069Y017207D01*
X012069Y017204D02*
X011187Y017204D01*
X011187Y017202D02*
X012069Y017202D01*
X012069Y017199D02*
X011187Y017199D01*
X011187Y017197D02*
X012069Y017197D01*
X012069Y017194D02*
X011187Y017194D01*
X011187Y017192D02*
X012069Y017192D01*
X012069Y017190D02*
X011187Y017190D01*
X011187Y017187D02*
X012069Y017187D01*
X012069Y017185D02*
X011187Y017185D01*
X011187Y017182D02*
X012069Y017182D01*
X012069Y017180D02*
X011187Y017180D01*
X011187Y017177D02*
X012069Y017177D01*
X012069Y017175D02*
X011187Y017175D01*
X011187Y017173D02*
X012069Y017173D01*
X012069Y017170D02*
X011187Y017170D01*
X011187Y017168D02*
X012069Y017168D01*
X012069Y017165D02*
X011187Y017165D01*
X011187Y017163D02*
X012069Y017163D01*
X012069Y017160D02*
X011187Y017160D01*
X011187Y017158D02*
X012069Y017158D01*
X012069Y017155D02*
X011187Y017155D01*
X011187Y017153D02*
X012069Y017153D01*
X012069Y017151D02*
X011187Y017151D01*
X011187Y017148D02*
X012069Y017148D01*
X012069Y017146D02*
X011187Y017146D01*
X011187Y017143D02*
X012069Y017143D01*
X012069Y017141D02*
X011187Y017141D01*
X011187Y017138D02*
X012069Y017138D01*
X012069Y017136D02*
X011187Y017136D01*
X011187Y017134D02*
X012069Y017134D01*
X012069Y017131D02*
X011187Y017131D01*
X011187Y017129D02*
X012069Y017129D01*
X012069Y017126D02*
X011187Y017126D01*
X011187Y017124D02*
X012069Y017124D01*
X012069Y017121D02*
X011187Y017121D01*
X011187Y017119D02*
X012069Y017119D01*
X012069Y017116D02*
X011187Y017116D01*
X011187Y017114D02*
X012069Y017114D01*
X012069Y017112D02*
X011187Y017112D01*
X011187Y017109D02*
X012069Y017109D01*
X012069Y017107D02*
X011187Y017107D01*
X011187Y017104D02*
X012069Y017104D01*
X012069Y017102D02*
X011187Y017102D01*
X011187Y017099D02*
X012069Y017099D01*
X012069Y017097D02*
X011187Y017097D01*
X011187Y017095D02*
X012069Y017095D01*
X012069Y017092D02*
X011187Y017092D01*
X011187Y017090D02*
X012069Y017090D01*
X012069Y017087D02*
X011187Y017087D01*
X011187Y017085D02*
X012069Y017085D01*
X012069Y017082D02*
X011187Y017082D01*
X011187Y017080D02*
X012069Y017080D01*
X012069Y017077D02*
X011187Y017077D01*
X011187Y017075D02*
X012069Y017075D01*
X012069Y017073D02*
X011187Y017073D01*
X011187Y017070D02*
X012069Y017070D01*
X012069Y017068D02*
X011187Y017068D01*
X011187Y017065D02*
X012069Y017065D01*
X012069Y017063D02*
X011187Y017063D01*
X011187Y017060D02*
X012069Y017060D01*
X012069Y017058D02*
X011187Y017058D01*
X011187Y017056D02*
X012069Y017056D01*
X012069Y017053D02*
X011187Y017053D01*
X011187Y017051D02*
X012069Y017051D01*
X012069Y017048D02*
X011187Y017048D01*
X011187Y017046D02*
X012069Y017046D01*
X012069Y017043D02*
X011187Y017043D01*
X011187Y017041D02*
X012069Y017041D01*
X012069Y017038D02*
X011187Y017038D01*
X011187Y017036D02*
X012069Y017036D01*
X012069Y017034D02*
X011187Y017034D01*
X011187Y017031D02*
X012069Y017031D01*
X012069Y017029D02*
X011187Y017029D01*
X011187Y017026D02*
X012069Y017026D01*
X012069Y017024D02*
X011187Y017024D01*
X011187Y017021D02*
X012069Y017021D01*
X012069Y017019D02*
X011187Y017019D01*
X011187Y017017D02*
X012069Y017017D01*
X012069Y017014D02*
X011187Y017014D01*
X011187Y017012D02*
X012069Y017012D01*
X012069Y017009D02*
X011187Y017009D01*
X011187Y017007D02*
X012069Y017007D01*
X012069Y017004D02*
X011187Y017004D01*
X011187Y017002D02*
X012069Y017002D01*
X012069Y016999D02*
X011187Y016999D01*
X011187Y016997D02*
X012069Y016997D01*
X012069Y016995D02*
X011187Y016995D01*
X011187Y016992D02*
X012069Y016992D01*
X012069Y016990D02*
X011187Y016990D01*
X011187Y016987D02*
X012069Y016987D01*
X012069Y016985D02*
X011187Y016985D01*
X011187Y016982D02*
X012069Y016982D01*
X012069Y016980D02*
X011187Y016980D01*
X011187Y016978D02*
X012069Y016978D01*
X012069Y016975D02*
X011187Y016975D01*
X011187Y016973D02*
X012069Y016973D01*
X012069Y016970D02*
X011187Y016970D01*
X011187Y016968D02*
X012069Y016968D01*
X012069Y016965D02*
X011187Y016965D01*
X011187Y016963D02*
X012069Y016963D01*
X012069Y016960D02*
X011187Y016960D01*
X011187Y016958D02*
X012069Y016958D01*
X012069Y016956D02*
X011187Y016956D01*
X011187Y016953D02*
X012069Y016953D01*
X012069Y016951D02*
X011187Y016951D01*
X011187Y016948D02*
X012069Y016948D01*
X012069Y016946D02*
X011187Y016946D01*
X011187Y016943D02*
X012069Y016943D01*
X012069Y016941D02*
X011187Y016941D01*
X011187Y016939D02*
X012069Y016939D01*
X012069Y016936D02*
X011187Y016936D01*
X011187Y016934D02*
X012069Y016934D01*
X012069Y016931D02*
X011187Y016931D01*
X011187Y016929D02*
X012069Y016929D01*
X012069Y016926D02*
X011187Y016926D01*
X011187Y016924D02*
X012069Y016924D01*
X012069Y016921D02*
X011187Y016921D01*
X011187Y016919D02*
X012069Y016919D01*
X012069Y016917D02*
X011187Y016917D01*
X011187Y016914D02*
X012069Y016914D01*
X012069Y016912D02*
X011187Y016912D01*
X011187Y016909D02*
X012069Y016909D01*
X012069Y016907D02*
X011187Y016907D01*
X011187Y016904D02*
X012069Y016904D01*
X012069Y016902D02*
X011187Y016902D01*
X011187Y016900D02*
X012069Y016900D01*
X012069Y016897D02*
X011187Y016897D01*
X011187Y016895D02*
X012069Y016895D01*
X012069Y016892D02*
X011187Y016892D01*
X011187Y016890D02*
X012069Y016890D01*
X012069Y016887D02*
X011187Y016887D01*
X011187Y016885D02*
X012069Y016885D01*
X012069Y016882D02*
X011187Y016882D01*
X011187Y016880D02*
X012069Y016880D01*
X012069Y016878D02*
X011187Y016878D01*
X011187Y016875D02*
X012069Y016875D01*
X012069Y016873D02*
X011187Y016873D01*
X011187Y016870D02*
X012069Y016870D01*
X012069Y016868D02*
X011187Y016868D01*
X011187Y016865D02*
X012069Y016865D01*
X012069Y016863D02*
X011187Y016863D01*
X011187Y016861D02*
X012069Y016861D01*
X012069Y016858D02*
X011187Y016858D01*
X011187Y016856D02*
X012069Y016856D01*
X012069Y016853D02*
X011187Y016853D01*
X011187Y016851D02*
X012069Y016851D01*
X012069Y016848D02*
X011187Y016848D01*
X011187Y016846D02*
X012069Y016846D01*
X012069Y016843D02*
X011187Y016843D01*
X011187Y016841D02*
X012069Y016841D01*
X012069Y016839D02*
X011187Y016839D01*
X011187Y016836D02*
X012069Y016836D01*
X012069Y016834D02*
X011187Y016834D01*
X011187Y016831D02*
X012069Y016831D01*
X012069Y016829D02*
X011187Y016829D01*
X011187Y016826D02*
X012069Y016826D01*
X012069Y016824D02*
X011187Y016824D01*
X011187Y016822D02*
X012069Y016822D01*
X012069Y016819D02*
X011187Y016819D01*
X011187Y016817D02*
X012069Y016817D01*
X012069Y016814D02*
X011187Y016814D01*
X011187Y016812D02*
X012069Y016812D01*
X012069Y016809D02*
X011187Y016809D01*
X011187Y016807D02*
X012069Y016807D01*
X012069Y016804D02*
X011187Y016804D01*
X011187Y016802D02*
X012069Y016802D01*
X012069Y016800D02*
X011187Y016800D01*
X011187Y016797D02*
X012069Y016797D01*
X012069Y016795D02*
X011187Y016795D01*
X011187Y016792D02*
X012069Y016792D01*
X012069Y016790D02*
X011187Y016790D01*
X011187Y016787D02*
X012069Y016787D01*
X012069Y016785D02*
X011187Y016785D01*
X011187Y016783D02*
X012069Y016783D01*
X012069Y016780D02*
X011187Y016780D01*
X011187Y016778D02*
X012069Y016778D01*
X012069Y016775D02*
X011187Y016775D01*
X011187Y016773D02*
X012069Y016773D01*
X012069Y016770D02*
X011187Y016770D01*
X011187Y016768D02*
X012069Y016768D01*
X012069Y016765D02*
X011187Y016765D01*
X011187Y016763D02*
X012069Y016763D01*
X012069Y016761D02*
X011187Y016761D01*
X011187Y016758D02*
X012069Y016758D01*
X012069Y016756D02*
X011187Y016756D01*
X011187Y016753D02*
X012069Y016753D01*
X012069Y016751D02*
X011187Y016751D01*
X011187Y016748D02*
X012069Y016748D01*
X012069Y016746D02*
X011187Y016746D01*
X011187Y016744D02*
X012069Y016744D01*
X012069Y016741D02*
X011187Y016741D01*
X011187Y016739D02*
X012069Y016739D01*
X012069Y016736D02*
X011187Y016736D01*
X011187Y016734D02*
X012069Y016734D01*
X012069Y016731D02*
X011187Y016731D01*
X011187Y016729D02*
X012069Y016729D01*
X012069Y016726D02*
X011187Y016726D01*
X011187Y016724D02*
X012069Y016724D01*
X012069Y016722D02*
X011187Y016722D01*
X011187Y016719D02*
X012069Y016719D01*
X012069Y016717D02*
X011187Y016717D01*
X011187Y016714D02*
X012069Y016714D01*
X012069Y016712D02*
X011187Y016712D01*
X011187Y016709D02*
X012069Y016709D01*
X012069Y016707D02*
X011187Y016707D01*
X011187Y016705D02*
X012069Y016705D01*
X012069Y016702D02*
X011187Y016702D01*
X011187Y016700D02*
X012069Y016700D01*
X012069Y016697D02*
X011187Y016697D01*
X011187Y016695D02*
X012069Y016695D01*
X012069Y016692D02*
X011187Y016692D01*
X011187Y016690D02*
X012069Y016690D01*
X012069Y016688D02*
X011187Y016688D01*
X011187Y016685D02*
X012069Y016685D01*
X012069Y016683D02*
X011187Y016683D01*
X011187Y016680D02*
X012069Y016680D01*
X012069Y016678D02*
X011187Y016678D01*
X011187Y016675D02*
X012069Y016675D01*
X012069Y016673D02*
X011187Y016673D01*
X011187Y016670D02*
X012069Y016670D01*
X012069Y016668D02*
X011187Y016668D01*
X011187Y016666D02*
X012069Y016666D01*
X012069Y016663D02*
X011187Y016663D01*
X011187Y016661D02*
X012069Y016661D01*
X012069Y016658D02*
X011187Y016658D01*
X011187Y016656D02*
X012069Y016656D01*
X012069Y016653D02*
X011187Y016653D01*
X011187Y016651D02*
X012069Y016651D01*
X012069Y016649D02*
X011187Y016649D01*
X011187Y016646D02*
X012069Y016646D01*
X012069Y016644D02*
X011187Y016644D01*
X011187Y016641D02*
X012069Y016641D01*
X012069Y016639D02*
X011187Y016639D01*
X011187Y016636D02*
X012069Y016636D01*
X012069Y016634D02*
X011187Y016634D01*
X011187Y016631D02*
X012069Y016631D01*
X012069Y016629D02*
X011187Y016629D01*
X011187Y016627D02*
X012069Y016627D01*
X012069Y016624D02*
X011187Y016624D01*
X011187Y016622D02*
X012069Y016622D01*
X012069Y016619D02*
X011187Y016619D01*
X011187Y016617D02*
X012069Y016617D01*
X012069Y016614D02*
X011187Y016614D01*
X011187Y016612D02*
X012069Y016612D01*
X012069Y016610D02*
X011187Y016610D01*
X011187Y016607D02*
X012069Y016607D01*
X012069Y016605D02*
X011187Y016605D01*
X011187Y016602D02*
X012069Y016602D01*
X012069Y016600D02*
X011187Y016600D01*
X011187Y016597D02*
X012069Y016597D01*
X012069Y016595D02*
X011187Y016595D01*
X011187Y016592D02*
X012069Y016592D01*
X012069Y016590D02*
X011187Y016590D01*
X011187Y016588D02*
X012069Y016588D01*
X012069Y016585D02*
X011187Y016585D01*
X011187Y016583D02*
X012069Y016583D01*
X012069Y016580D02*
X011187Y016580D01*
X011187Y016578D02*
X012069Y016578D01*
X012069Y016575D02*
X011187Y016575D01*
X011187Y016573D02*
X012069Y016573D01*
X012069Y016571D02*
X011187Y016571D01*
X011187Y016568D02*
X012069Y016568D01*
X012069Y016566D02*
X011187Y016566D01*
X011187Y016563D02*
X012069Y016563D01*
X012069Y016561D02*
X011187Y016561D01*
X011187Y016558D02*
X012069Y016558D01*
X012069Y016556D02*
X011187Y016556D01*
X011187Y016553D02*
X012069Y016553D01*
X012069Y016551D02*
X011187Y016551D01*
X011187Y016549D02*
X012069Y016549D01*
X012069Y016546D02*
X011187Y016546D01*
X011187Y016544D02*
X012069Y016544D01*
X012069Y016541D02*
X011187Y016541D01*
X011187Y016539D02*
X012069Y016539D01*
X012069Y016536D02*
X011187Y016536D01*
X011187Y016534D02*
X012069Y016534D01*
X012069Y016532D02*
X011187Y016532D01*
X011187Y016529D02*
X012069Y016529D01*
X012069Y016527D02*
X011187Y016527D01*
X011187Y016524D02*
X012069Y016524D01*
X012069Y016522D02*
X011187Y016522D01*
X011187Y016519D02*
X012069Y016519D01*
X012069Y016517D02*
X011187Y016517D01*
X011187Y016514D02*
X012069Y016514D01*
X012069Y016512D02*
X011187Y016512D01*
X011187Y016510D02*
X012069Y016510D01*
X012069Y016507D02*
X011187Y016507D01*
X011187Y016505D02*
X012069Y016505D01*
X012069Y016502D02*
X011187Y016502D01*
X011187Y016500D02*
X012069Y016500D01*
X012069Y016497D02*
X011187Y016497D01*
X011187Y016495D02*
X012069Y016495D01*
X012069Y016493D02*
X011187Y016493D01*
X011187Y016490D02*
X012069Y016490D01*
X012069Y016488D02*
X011187Y016488D01*
X011187Y016485D02*
X012069Y016485D01*
X012069Y016483D02*
X011187Y016483D01*
X011187Y016480D02*
X012069Y016480D01*
X012069Y016478D02*
X011187Y016478D01*
X011187Y016475D02*
X012069Y016475D01*
X012069Y016473D02*
X011187Y016473D01*
X011187Y016471D02*
X012069Y016471D01*
X012069Y016468D02*
X011187Y016468D01*
X011187Y016466D02*
X012069Y016466D01*
X012069Y016458D02*
X011187Y016458D01*
X011188Y016456D02*
X012069Y016456D01*
X012068Y016454D02*
X011188Y016454D01*
X011188Y016451D02*
X012068Y016451D01*
X012068Y016449D02*
X011188Y016449D01*
X011188Y016446D02*
X012068Y016446D01*
X012067Y016444D02*
X011189Y016444D01*
X011189Y016441D02*
X012067Y016441D01*
X012067Y016439D02*
X011189Y016439D01*
X011189Y016436D02*
X012067Y016436D01*
X012066Y016434D02*
X011190Y016434D01*
X011190Y016432D02*
X012066Y016432D01*
X012066Y016429D02*
X011190Y016429D01*
X011190Y016427D02*
X012066Y016427D01*
X012065Y016424D02*
X011190Y016424D01*
X011191Y016422D02*
X012065Y016422D01*
X012065Y016419D02*
X011191Y016419D01*
X011191Y016417D02*
X012065Y016417D01*
X012064Y016415D02*
X011191Y016415D01*
X011191Y016412D02*
X012064Y016412D01*
X012064Y016410D02*
X011192Y016410D01*
X011192Y016407D02*
X012064Y016407D01*
X012063Y016405D02*
X011192Y016405D01*
X011192Y016402D02*
X012063Y016402D01*
X012063Y016400D02*
X011193Y016400D01*
X011193Y016397D02*
X012063Y016397D01*
X012062Y016395D02*
X011193Y016395D01*
X011193Y016393D02*
X012062Y016393D01*
X012062Y016390D02*
X011193Y016390D01*
X011194Y016388D02*
X012062Y016388D01*
X012061Y016385D02*
X011194Y016385D01*
X011195Y016383D02*
X012060Y016383D01*
X012060Y016380D02*
X011196Y016380D01*
X011196Y016378D02*
X012059Y016378D01*
X012058Y016376D02*
X011197Y016376D01*
X011198Y016373D02*
X012058Y016373D01*
X012057Y016371D02*
X011198Y016371D01*
X011199Y016368D02*
X012056Y016368D01*
X012056Y016366D02*
X011200Y016366D01*
X011200Y016363D02*
X012055Y016363D01*
X012054Y016361D02*
X011201Y016361D01*
X011202Y016358D02*
X012054Y016358D01*
X012053Y016356D02*
X011202Y016356D01*
X011203Y016354D02*
X012052Y016354D01*
X012051Y016351D02*
X011204Y016351D01*
X011204Y016349D02*
X012051Y016349D01*
X012050Y016346D02*
X011205Y016346D01*
X011206Y016344D02*
X012049Y016344D01*
X012049Y016341D02*
X011206Y016341D01*
X011207Y016339D02*
X012048Y016339D01*
X012047Y016337D02*
X011208Y016337D01*
X011208Y016334D02*
X012047Y016334D01*
X012046Y016332D02*
X011209Y016332D01*
X011210Y016329D02*
X012045Y016329D01*
X012045Y016327D02*
X011210Y016327D01*
X011211Y016324D02*
X012044Y016324D01*
X012043Y016322D02*
X011211Y016322D01*
X011212Y016319D02*
X012042Y016319D01*
X012042Y016317D02*
X011213Y016317D01*
X011213Y016315D02*
X012041Y016315D01*
X012040Y016312D02*
X011215Y016312D01*
X011216Y016310D02*
X012039Y016310D01*
X012038Y016307D02*
X011217Y016307D01*
X011218Y016305D02*
X012037Y016305D01*
X012035Y016302D02*
X011219Y016302D01*
X011220Y016300D02*
X012034Y016300D01*
X012033Y016298D02*
X011221Y016298D01*
X011223Y016295D02*
X012032Y016295D01*
X012031Y016293D02*
X011224Y016293D01*
X011225Y016290D02*
X012030Y016290D01*
X012028Y016288D02*
X011226Y016288D01*
X011227Y016285D02*
X012027Y016285D01*
X012026Y016283D02*
X011228Y016283D01*
X011229Y016280D02*
X012025Y016280D01*
X012024Y016278D02*
X011231Y016278D01*
X011232Y016276D02*
X012023Y016276D01*
X012021Y016273D02*
X011233Y016273D01*
X011234Y016271D02*
X012020Y016271D01*
X012019Y016268D02*
X011235Y016268D01*
X011236Y016266D02*
X012018Y016266D01*
X012017Y016263D02*
X011237Y016263D01*
X011239Y016261D02*
X012015Y016261D01*
X012014Y016259D02*
X011240Y016259D01*
X011241Y016256D02*
X012013Y016256D01*
X012012Y016254D02*
X011242Y016254D01*
X011243Y016251D02*
X012011Y016251D01*
X012010Y016249D02*
X011244Y016249D01*
X011249Y016241D02*
X012005Y016241D01*
X012004Y016239D02*
X011251Y016239D01*
X011252Y016237D02*
X012002Y016237D01*
X012000Y016234D02*
X011254Y016234D01*
X011256Y016232D02*
X011998Y016232D01*
X011997Y016229D02*
X011257Y016229D01*
X011259Y016227D02*
X011995Y016227D01*
X011993Y016224D02*
X011261Y016224D01*
X011263Y016222D02*
X011991Y016222D01*
X011990Y016220D02*
X011264Y016220D01*
X011266Y016217D02*
X011988Y016217D01*
X011986Y016215D02*
X011268Y016215D01*
X011269Y016212D02*
X011984Y016212D01*
X011983Y016210D02*
X011271Y016210D01*
X011273Y016207D02*
X011981Y016207D01*
X011979Y016205D02*
X011275Y016205D01*
X011276Y016202D02*
X011977Y016202D01*
X011976Y016200D02*
X011278Y016200D01*
X011280Y016198D02*
X011974Y016198D01*
X011972Y016195D02*
X011281Y016195D01*
X011283Y016193D02*
X011970Y016193D01*
X011969Y016190D02*
X011285Y016190D01*
X011287Y016188D02*
X011967Y016188D01*
X011965Y016185D02*
X011288Y016185D01*
X011290Y016183D02*
X011963Y016183D01*
X011961Y016181D02*
X011293Y016181D01*
X011295Y016178D02*
X011959Y016178D01*
X011956Y016176D02*
X011298Y016176D01*
X011300Y016173D02*
X011954Y016173D01*
X011951Y016171D02*
X011302Y016171D01*
X011305Y016168D02*
X011949Y016168D01*
X011946Y016166D02*
X011307Y016166D01*
X011310Y016163D02*
X011944Y016163D01*
X011941Y016161D02*
X011312Y016161D01*
X011315Y016159D02*
X011939Y016159D01*
X011936Y016156D02*
X011317Y016156D01*
X011320Y016154D02*
X011934Y016154D01*
X011931Y016151D02*
X011322Y016151D01*
X011325Y016149D02*
X011929Y016149D01*
X011926Y016146D02*
X011327Y016146D01*
X011329Y016144D02*
X011924Y016144D01*
X011921Y016142D02*
X011332Y016142D01*
X011334Y016139D02*
X011919Y016139D01*
X011916Y016137D02*
X011337Y016137D01*
X011339Y016134D02*
X011914Y016134D01*
X011911Y016132D02*
X011342Y016132D01*
X011345Y016129D02*
X011909Y016129D01*
X011905Y016127D02*
X011348Y016127D01*
X011352Y016124D02*
X011902Y016124D01*
X011898Y016122D02*
X011355Y016122D01*
X011359Y016120D02*
X011895Y016120D01*
X011891Y016117D02*
X011362Y016117D01*
X011366Y016115D02*
X011888Y016115D01*
X011884Y016112D02*
X011369Y016112D01*
X011373Y016110D02*
X011880Y016110D01*
X011877Y016107D02*
X011376Y016107D01*
X011379Y016105D02*
X011873Y016105D01*
X011870Y016103D02*
X011383Y016103D01*
X011386Y016100D02*
X011866Y016100D01*
X011862Y016098D02*
X011390Y016098D01*
X011393Y016095D02*
X011859Y016095D01*
X011855Y016093D02*
X011397Y016093D01*
X011400Y016090D02*
X011852Y016090D01*
X011848Y016088D02*
X011404Y016088D01*
X011409Y016086D02*
X011845Y016086D01*
X011839Y016083D02*
X011414Y016083D01*
X011419Y016081D02*
X011834Y016081D01*
X011829Y016078D02*
X011424Y016078D01*
X011430Y016076D02*
X011823Y016076D01*
X011818Y016073D02*
X011435Y016073D01*
X011440Y016071D02*
X011812Y016071D01*
X011807Y016068D02*
X011445Y016068D01*
X011451Y016066D02*
X011801Y016066D01*
X011796Y016064D02*
X011456Y016064D01*
X011461Y016061D02*
X011791Y016061D01*
X011785Y016059D02*
X011466Y016059D01*
X011472Y016056D02*
X011780Y016056D01*
X011774Y016054D02*
X011479Y016054D01*
X011488Y016051D02*
X011765Y016051D01*
X011755Y016049D02*
X011497Y016049D01*
X011506Y016047D02*
X011746Y016047D01*
X011736Y016044D02*
X011516Y016044D01*
X011525Y016042D02*
X011726Y016042D01*
X011717Y016039D02*
X011534Y016039D01*
X011543Y016037D02*
X011707Y016037D01*
X011693Y016034D02*
X011563Y016034D01*
X011591Y016032D02*
X011660Y016032D01*
X011627Y016029D02*
X011620Y016029D01*
X011187Y017553D02*
X012069Y017553D01*
X012069Y017555D02*
X011187Y017555D01*
X011188Y017558D02*
X012069Y017558D01*
X012068Y017560D02*
X011188Y017560D01*
X011188Y017562D02*
X012068Y017562D01*
X012068Y017565D02*
X011188Y017565D01*
X011188Y017567D02*
X012068Y017567D01*
X012067Y017570D02*
X011189Y017570D01*
X011189Y017572D02*
X012067Y017572D01*
X012067Y017575D02*
X011189Y017575D01*
X011189Y017577D02*
X012067Y017577D01*
X012066Y017580D02*
X011189Y017580D01*
X011190Y017582D02*
X012066Y017582D01*
X012066Y017584D02*
X011190Y017584D01*
X011190Y017587D02*
X012066Y017587D01*
X012065Y017589D02*
X011190Y017589D01*
X011190Y017592D02*
X012065Y017592D01*
X012065Y017594D02*
X011191Y017594D01*
X011191Y017597D02*
X012065Y017597D01*
X012065Y017599D02*
X011191Y017599D01*
X011191Y017601D02*
X012064Y017601D01*
X012064Y017604D02*
X011191Y017604D01*
X011192Y017606D02*
X012064Y017606D01*
X012064Y017609D02*
X011192Y017609D01*
X011192Y017611D02*
X012063Y017611D01*
X012063Y017614D02*
X011192Y017614D01*
X011193Y017616D02*
X012063Y017616D01*
X012063Y017619D02*
X011193Y017619D01*
X011193Y017621D02*
X012062Y017621D01*
X012062Y017623D02*
X011193Y017623D01*
X011193Y017626D02*
X011213Y017699D01*
X012042Y017699D01*
X012041Y017701D02*
X012008Y017770D01*
X011963Y017833D01*
X011291Y017833D01*
X011293Y017835D02*
X011961Y017835D01*
X011963Y017833D02*
X011908Y017887D01*
X011845Y017931D01*
X011775Y017963D01*
X011700Y017982D01*
X011623Y017988D01*
X011547Y017981D01*
X011474Y017961D01*
X011405Y017929D01*
X011342Y017885D01*
X011289Y017831D01*
X011245Y017768D01*
X011213Y017699D01*
X011214Y017701D02*
X012041Y017701D01*
X012062Y017626D01*
X012061Y017628D02*
X011194Y017628D01*
X011195Y017631D02*
X012061Y017631D01*
X012060Y017633D02*
X011195Y017633D01*
X011196Y017636D02*
X012059Y017636D01*
X012059Y017638D02*
X011197Y017638D01*
X011197Y017640D02*
X012058Y017640D01*
X012057Y017643D02*
X011198Y017643D01*
X011199Y017645D02*
X012057Y017645D01*
X012056Y017648D02*
X011199Y017648D01*
X011200Y017650D02*
X012055Y017650D01*
X012055Y017653D02*
X011201Y017653D01*
X011201Y017655D02*
X012054Y017655D01*
X012053Y017658D02*
X011202Y017658D01*
X011202Y017660D02*
X012053Y017660D01*
X012052Y017662D02*
X011203Y017662D01*
X011204Y017665D02*
X012051Y017665D01*
X012051Y017667D02*
X011204Y017667D01*
X011205Y017670D02*
X012050Y017670D01*
X012049Y017672D02*
X011206Y017672D01*
X011206Y017675D02*
X012049Y017675D01*
X012048Y017677D02*
X011207Y017677D01*
X011208Y017679D02*
X012047Y017679D01*
X012046Y017682D02*
X011208Y017682D01*
X011209Y017684D02*
X012046Y017684D01*
X012045Y017687D02*
X011210Y017687D01*
X011210Y017689D02*
X012044Y017689D01*
X012044Y017692D02*
X011211Y017692D01*
X011212Y017694D02*
X012043Y017694D01*
X012042Y017697D02*
X011212Y017697D01*
X011215Y017704D02*
X012040Y017704D01*
X012039Y017706D02*
X011216Y017706D01*
X011217Y017709D02*
X012037Y017709D01*
X012036Y017711D02*
X011218Y017711D01*
X011220Y017714D02*
X012035Y017714D01*
X012034Y017716D02*
X011221Y017716D01*
X011222Y017718D02*
X012033Y017718D01*
X012032Y017721D02*
X011223Y017721D01*
X011224Y017723D02*
X012030Y017723D01*
X012029Y017726D02*
X011225Y017726D01*
X011226Y017728D02*
X012028Y017728D01*
X012027Y017731D02*
X011227Y017731D01*
X011229Y017733D02*
X012026Y017733D01*
X012025Y017736D02*
X011230Y017736D01*
X011231Y017738D02*
X012023Y017738D01*
X012022Y017740D02*
X011232Y017740D01*
X011233Y017743D02*
X012021Y017743D01*
X012020Y017745D02*
X011234Y017745D01*
X011235Y017748D02*
X012019Y017748D01*
X012018Y017750D02*
X011236Y017750D01*
X011238Y017753D02*
X012016Y017753D01*
X012015Y017755D02*
X011239Y017755D01*
X011240Y017757D02*
X012014Y017757D01*
X012013Y017760D02*
X011241Y017760D01*
X011242Y017762D02*
X012012Y017762D01*
X012011Y017765D02*
X011243Y017765D01*
X011244Y017767D02*
X012009Y017767D01*
X012008Y017770D02*
X011246Y017770D01*
X011248Y017772D02*
X012007Y017772D01*
X012005Y017775D02*
X011249Y017775D01*
X011251Y017777D02*
X012003Y017777D01*
X012002Y017779D02*
X011253Y017779D01*
X011254Y017782D02*
X012000Y017782D01*
X011998Y017784D02*
X011256Y017784D01*
X011258Y017787D02*
X011996Y017787D01*
X011995Y017789D02*
X011259Y017789D01*
X011261Y017792D02*
X011993Y017792D01*
X011991Y017794D02*
X011263Y017794D01*
X011265Y017796D02*
X011989Y017796D01*
X011988Y017799D02*
X011266Y017799D01*
X011268Y017801D02*
X011986Y017801D01*
X011984Y017804D02*
X011270Y017804D01*
X011271Y017806D02*
X011982Y017806D01*
X011981Y017809D02*
X011273Y017809D01*
X011275Y017811D02*
X011979Y017811D01*
X011977Y017814D02*
X011276Y017814D01*
X011278Y017816D02*
X011975Y017816D01*
X011974Y017818D02*
X011280Y017818D01*
X011282Y017821D02*
X011972Y017821D01*
X011970Y017823D02*
X011283Y017823D01*
X011285Y017826D02*
X011968Y017826D01*
X011967Y017828D02*
X011287Y017828D01*
X011288Y017831D02*
X011965Y017831D01*
X011958Y017838D02*
X011295Y017838D01*
X011298Y017840D02*
X011956Y017840D01*
X011953Y017843D02*
X011300Y017843D01*
X011303Y017845D02*
X011951Y017845D01*
X011948Y017848D02*
X011305Y017848D01*
X011308Y017850D02*
X011946Y017850D01*
X011943Y017853D02*
X011310Y017853D01*
X011312Y017855D02*
X011941Y017855D01*
X011938Y017857D02*
X011315Y017857D01*
X011317Y017860D02*
X011936Y017860D01*
X011933Y017862D02*
X011320Y017862D01*
X011322Y017865D02*
X011931Y017865D01*
X011928Y017867D02*
X011325Y017867D01*
X011327Y017870D02*
X011926Y017870D01*
X011923Y017872D02*
X011329Y017872D01*
X011332Y017874D02*
X011921Y017874D01*
X011919Y017877D02*
X011334Y017877D01*
X011337Y017879D02*
X011916Y017879D01*
X011914Y017882D02*
X011339Y017882D01*
X011342Y017884D02*
X011911Y017884D01*
X011909Y017887D02*
X011345Y017887D01*
X011348Y017889D02*
X011905Y017889D01*
X011902Y017892D02*
X011352Y017892D01*
X011355Y017894D02*
X011898Y017894D01*
X011895Y017896D02*
X011359Y017896D01*
X011362Y017899D02*
X011891Y017899D01*
X011887Y017901D02*
X011366Y017901D01*
X011369Y017904D02*
X011884Y017904D01*
X011880Y017906D02*
X011372Y017906D01*
X011376Y017909D02*
X011877Y017909D01*
X011873Y017911D02*
X011379Y017911D01*
X011383Y017913D02*
X011870Y017913D01*
X011866Y017916D02*
X011386Y017916D01*
X011390Y017918D02*
X011863Y017918D01*
X011859Y017921D02*
X011393Y017921D01*
X011397Y017923D02*
X011856Y017923D01*
X011852Y017926D02*
X011400Y017926D01*
X011404Y017928D02*
X011848Y017928D01*
X011845Y017931D02*
X011408Y017931D01*
X011414Y017933D02*
X011840Y017933D01*
X011834Y017935D02*
X011419Y017935D01*
X011424Y017938D02*
X011829Y017938D01*
X011824Y017940D02*
X011429Y017940D01*
X011434Y017943D02*
X011818Y017943D01*
X011813Y017945D02*
X011439Y017945D01*
X011445Y017948D02*
X011807Y017948D01*
X011802Y017950D02*
X011450Y017950D01*
X011455Y017952D02*
X011797Y017952D01*
X011791Y017955D02*
X011460Y017955D01*
X011465Y017957D02*
X011786Y017957D01*
X011781Y017960D02*
X011471Y017960D01*
X011478Y017962D02*
X011775Y017962D01*
X011767Y017965D02*
X011487Y017965D01*
X011496Y017967D02*
X011757Y017967D01*
X011748Y017969D02*
X011505Y017969D01*
X011514Y017972D02*
X011738Y017972D01*
X011729Y017974D02*
X011523Y017974D01*
X011532Y017977D02*
X011719Y017977D01*
X011710Y017979D02*
X011541Y017979D01*
X011555Y017982D02*
X011700Y017982D01*
X011670Y017984D02*
X011582Y017984D01*
X011609Y017987D02*
X011639Y017987D01*
D16*
X017621Y007032D03*
X017621Y006638D03*
X017621Y006244D03*
X017621Y005851D03*
X017621Y005457D03*
X019642Y005457D03*
X019642Y005851D03*
X019642Y006244D03*
X019642Y006638D03*
X019642Y007032D03*
D17*
X018631Y006244D03*
D18*
X016555Y006432D03*
X016555Y006832D03*
X016108Y006832D03*
X016108Y006432D03*
X016108Y006032D03*
X016108Y005632D03*
X016555Y005632D03*
X016555Y006032D03*
D19*
X015495Y017252D03*
X012925Y017262D03*
D20*
X014571Y013100D03*
X014571Y012100D03*
X018691Y011670D03*
X018691Y012670D03*
X018691Y013670D03*
D21*
X016461Y012699D03*
X016461Y011912D03*
D22*
X017240Y009277D03*
M02*
