G75*
G70*
%OFA0B0*%
%FSLAX24Y24*%
%IPPOS*%
%LPD*%
%AMOC8*
5,1,8,0,0,1.08239X$1,22.5*
%
%ADD10C,0.0050*%
%ADD11R,0.0118X0.0450*%
%ADD12R,0.0236X0.0450*%
%ADD13C,0.0000*%
%ADD14C,0.0004*%
%ADD15R,0.0413X0.0169*%
%ADD16R,0.0300X0.0300*%
%ADD17R,0.0220X0.0197*%
D10*
X012906Y009970D02*
X012906Y013470D01*
X012906Y013471D02*
X012907Y013535D01*
X012903Y013600D01*
X012896Y013664D01*
X012885Y013728D01*
X012870Y013791D01*
X012852Y013853D01*
X012830Y013914D01*
X012805Y013974D01*
X012776Y014032D01*
X012744Y014088D01*
X012709Y014142D01*
X012670Y014194D01*
X012629Y014244D01*
X012585Y014291D01*
X012538Y014336D01*
X012488Y014378D01*
X012437Y014417D01*
X012383Y014453D01*
X012327Y014485D01*
X012269Y014515D01*
X012210Y014540D01*
X012149Y014563D01*
X012087Y014582D01*
X012024Y014597D01*
X011960Y014608D01*
X011896Y014616D01*
X011831Y014620D01*
X011031Y014620D01*
X010964Y014622D01*
X010897Y014628D01*
X010831Y014637D01*
X010766Y014651D01*
X010701Y014668D01*
X010638Y014689D01*
X010576Y014714D01*
X010515Y014742D01*
X010456Y014774D01*
X010399Y014809D01*
X010344Y014848D01*
X010292Y014889D01*
X010242Y014934D01*
X010195Y014981D01*
X010150Y015031D01*
X010109Y015083D01*
X010070Y015138D01*
X010035Y015195D01*
X010003Y015254D01*
X009975Y015315D01*
X009950Y015377D01*
X009929Y015440D01*
X009912Y015505D01*
X009898Y015570D01*
X009889Y015636D01*
X009883Y015703D01*
X009881Y015770D01*
X009881Y019545D01*
X009883Y019587D01*
X009889Y019628D01*
X009898Y019668D01*
X009911Y019708D01*
X009928Y019746D01*
X009948Y019782D01*
X009972Y019816D01*
X009998Y019848D01*
X010028Y019878D01*
X010060Y019904D01*
X010094Y019928D01*
X010130Y019948D01*
X010168Y019965D01*
X010208Y019978D01*
X010248Y019987D01*
X010289Y019993D01*
X010331Y019995D01*
X013256Y019995D01*
X013286Y019993D01*
X013316Y019988D01*
X013345Y019979D01*
X013372Y019966D01*
X013398Y019951D01*
X013422Y019932D01*
X013443Y019911D01*
X013462Y019887D01*
X013477Y019861D01*
X013490Y019834D01*
X013499Y019805D01*
X013504Y019775D01*
X013506Y019745D01*
X013506Y019520D01*
X013508Y019494D01*
X013513Y019468D01*
X013521Y019443D01*
X013533Y019420D01*
X013547Y019398D01*
X013565Y019379D01*
X013584Y019361D01*
X013606Y019347D01*
X013629Y019335D01*
X013654Y019327D01*
X013680Y019322D01*
X013706Y019320D01*
X013956Y019320D01*
X013982Y019322D01*
X014008Y019327D01*
X014033Y019335D01*
X014056Y019347D01*
X014078Y019361D01*
X014097Y019379D01*
X014115Y019398D01*
X014129Y019420D01*
X014141Y019443D01*
X014149Y019468D01*
X014154Y019494D01*
X014156Y019520D01*
X014156Y019745D01*
X014158Y019775D01*
X014163Y019805D01*
X014172Y019834D01*
X014185Y019861D01*
X014200Y019887D01*
X014219Y019911D01*
X014240Y019932D01*
X014264Y019951D01*
X014290Y019966D01*
X014317Y019979D01*
X014346Y019988D01*
X014376Y019993D01*
X014406Y019995D01*
X017556Y019995D01*
X017598Y019993D01*
X017639Y019987D01*
X017679Y019978D01*
X017719Y019965D01*
X017757Y019948D01*
X017793Y019928D01*
X017827Y019904D01*
X017859Y019878D01*
X017889Y019848D01*
X017915Y019816D01*
X017939Y019782D01*
X017959Y019746D01*
X017976Y019708D01*
X017989Y019668D01*
X017998Y019628D01*
X018004Y019587D01*
X018006Y019545D01*
X018006Y016295D01*
X021156Y013120D01*
X021156Y001995D01*
X021154Y001953D01*
X021148Y001912D01*
X021139Y001872D01*
X021126Y001832D01*
X021109Y001794D01*
X021089Y001758D01*
X021065Y001724D01*
X021039Y001692D01*
X021009Y001662D01*
X020977Y001636D01*
X020943Y001612D01*
X020907Y001592D01*
X020869Y001575D01*
X020829Y001562D01*
X020789Y001553D01*
X020748Y001547D01*
X020706Y001545D01*
X015181Y001545D01*
X015139Y001547D01*
X015098Y001553D01*
X015058Y001562D01*
X015018Y001575D01*
X014980Y001592D01*
X014944Y001612D01*
X014910Y001636D01*
X014878Y001662D01*
X014848Y001692D01*
X014822Y001724D01*
X014798Y001758D01*
X014778Y001794D01*
X014761Y001832D01*
X014748Y001872D01*
X014739Y001912D01*
X014733Y001953D01*
X014731Y001995D01*
X014731Y009020D01*
X014729Y009064D01*
X014723Y009107D01*
X014714Y009149D01*
X014701Y009191D01*
X014684Y009231D01*
X014664Y009270D01*
X014641Y009307D01*
X014614Y009341D01*
X014585Y009374D01*
X014552Y009403D01*
X014518Y009430D01*
X014481Y009453D01*
X014442Y009473D01*
X014402Y009490D01*
X014360Y009503D01*
X014318Y009512D01*
X014275Y009518D01*
X014231Y009520D01*
X013356Y009520D01*
X013314Y009522D01*
X013273Y009528D01*
X013233Y009537D01*
X013193Y009550D01*
X013155Y009567D01*
X013119Y009587D01*
X013085Y009611D01*
X013053Y009637D01*
X013023Y009667D01*
X012997Y009699D01*
X012973Y009733D01*
X012953Y009769D01*
X012936Y009807D01*
X012923Y009847D01*
X012914Y009887D01*
X012908Y009928D01*
X012906Y009970D01*
D11*
X017255Y004110D03*
X017452Y004110D03*
X017649Y004110D03*
X017846Y004110D03*
X018042Y004110D03*
X018239Y004110D03*
X018436Y004110D03*
X018633Y004110D03*
D12*
X018909Y004110D03*
X019214Y004110D03*
X016979Y004110D03*
X016674Y004110D03*
D13*
X016421Y003664D02*
X016423Y003689D01*
X016429Y003714D01*
X016438Y003737D01*
X016451Y003759D01*
X016467Y003778D01*
X016486Y003795D01*
X016507Y003809D01*
X016530Y003819D01*
X016555Y003826D01*
X016580Y003829D01*
X016605Y003828D01*
X016630Y003823D01*
X016653Y003815D01*
X016676Y003802D01*
X016696Y003787D01*
X016713Y003769D01*
X016728Y003748D01*
X016739Y003726D01*
X016747Y003702D01*
X016751Y003677D01*
X016751Y003651D01*
X016747Y003626D01*
X016739Y003602D01*
X016728Y003580D01*
X016713Y003559D01*
X016696Y003541D01*
X016676Y003526D01*
X016653Y003513D01*
X016630Y003505D01*
X016605Y003500D01*
X016580Y003499D01*
X016555Y003502D01*
X016530Y003509D01*
X016507Y003519D01*
X016486Y003533D01*
X016467Y003550D01*
X016451Y003569D01*
X016438Y003591D01*
X016429Y003614D01*
X016423Y003639D01*
X016421Y003664D01*
X019137Y003664D02*
X019139Y003689D01*
X019145Y003714D01*
X019154Y003737D01*
X019167Y003759D01*
X019183Y003778D01*
X019202Y003795D01*
X019223Y003809D01*
X019246Y003819D01*
X019271Y003826D01*
X019296Y003829D01*
X019321Y003828D01*
X019346Y003823D01*
X019369Y003815D01*
X019392Y003802D01*
X019412Y003787D01*
X019429Y003769D01*
X019444Y003748D01*
X019455Y003726D01*
X019463Y003702D01*
X019467Y003677D01*
X019467Y003651D01*
X019463Y003626D01*
X019455Y003602D01*
X019444Y003580D01*
X019429Y003559D01*
X019412Y003541D01*
X019392Y003526D01*
X019369Y003513D01*
X019346Y003505D01*
X019321Y003500D01*
X019296Y003499D01*
X019271Y003502D01*
X019246Y003509D01*
X019223Y003519D01*
X019202Y003533D01*
X019183Y003550D01*
X019167Y003569D01*
X019154Y003591D01*
X019145Y003614D01*
X019139Y003639D01*
X019137Y003664D01*
X016740Y009277D02*
X016742Y009321D01*
X016748Y009365D01*
X016758Y009408D01*
X016771Y009450D01*
X016788Y009491D01*
X016809Y009530D01*
X016833Y009567D01*
X016860Y009602D01*
X016890Y009634D01*
X016923Y009664D01*
X016959Y009690D01*
X016996Y009714D01*
X017036Y009733D01*
X017077Y009750D01*
X017120Y009762D01*
X017163Y009771D01*
X017207Y009776D01*
X017251Y009777D01*
X017295Y009774D01*
X017339Y009767D01*
X017382Y009756D01*
X017424Y009742D01*
X017464Y009724D01*
X017503Y009702D01*
X017539Y009678D01*
X017573Y009650D01*
X017605Y009619D01*
X017634Y009585D01*
X017660Y009549D01*
X017682Y009511D01*
X017701Y009471D01*
X017716Y009429D01*
X017728Y009387D01*
X017736Y009343D01*
X017740Y009299D01*
X017740Y009255D01*
X017736Y009211D01*
X017728Y009167D01*
X017716Y009125D01*
X017701Y009083D01*
X017682Y009043D01*
X017660Y009005D01*
X017634Y008969D01*
X017605Y008935D01*
X017573Y008904D01*
X017539Y008876D01*
X017503Y008852D01*
X017464Y008830D01*
X017424Y008812D01*
X017382Y008798D01*
X017339Y008787D01*
X017295Y008780D01*
X017251Y008777D01*
X017207Y008778D01*
X017163Y008783D01*
X017120Y008792D01*
X017077Y008804D01*
X017036Y008821D01*
X016996Y008840D01*
X016959Y008864D01*
X016923Y008890D01*
X016890Y008920D01*
X016860Y008952D01*
X016833Y008987D01*
X016809Y009024D01*
X016788Y009063D01*
X016771Y009104D01*
X016758Y009146D01*
X016748Y009189D01*
X016742Y009233D01*
X016740Y009277D01*
D14*
X016166Y004301D02*
X016207Y004289D01*
X016057Y004289D01*
X016051Y004287D02*
X016212Y004287D01*
X016216Y004284D02*
X016045Y004284D01*
X016039Y004282D02*
X016220Y004282D01*
X016225Y004279D02*
X016035Y004279D01*
X016037Y004281D02*
X016078Y004297D01*
X016122Y004304D01*
X016166Y004301D01*
X016104Y004301D01*
X016088Y004299D02*
X016174Y004299D01*
X016182Y004297D02*
X016076Y004297D01*
X016070Y004294D02*
X016191Y004294D01*
X016199Y004292D02*
X016064Y004292D01*
X016037Y004281D02*
X016001Y004256D01*
X015971Y004224D01*
X015949Y004186D01*
X015936Y004143D01*
X016323Y004143D01*
X016322Y004145D02*
X015937Y004145D01*
X015936Y004143D02*
X015933Y004099D01*
X016327Y004099D01*
X016327Y004097D02*
X015933Y004097D01*
X015933Y004099D02*
X015933Y003627D01*
X015942Y003590D01*
X015958Y003555D01*
X015982Y003526D01*
X016012Y003502D01*
X016047Y003486D01*
X016084Y003477D01*
X016122Y003477D01*
X016164Y003478D01*
X016205Y003488D01*
X016242Y003507D01*
X016006Y003507D01*
X016003Y003509D02*
X016245Y003509D01*
X016242Y003507D02*
X016275Y003534D01*
X016300Y003567D01*
X016318Y003605D01*
X016327Y003647D01*
X016327Y004119D01*
X016320Y004162D01*
X016303Y004203D01*
X016278Y004238D01*
X015984Y004238D01*
X015982Y004236D02*
X016280Y004236D01*
X016278Y004238D02*
X016246Y004268D01*
X016207Y004289D01*
X016229Y004277D02*
X016031Y004277D01*
X016028Y004275D02*
X016233Y004275D01*
X016238Y004272D02*
X016024Y004272D01*
X016021Y004270D02*
X016242Y004270D01*
X016246Y004267D02*
X016017Y004267D01*
X016013Y004265D02*
X016249Y004265D01*
X016252Y004262D02*
X016010Y004262D01*
X016006Y004260D02*
X016254Y004260D01*
X016257Y004258D02*
X016003Y004258D01*
X016000Y004255D02*
X016260Y004255D01*
X016262Y004253D02*
X015998Y004253D01*
X015995Y004250D02*
X016265Y004250D01*
X016268Y004248D02*
X015993Y004248D01*
X015991Y004245D02*
X016270Y004245D01*
X016273Y004243D02*
X015989Y004243D01*
X015986Y004240D02*
X016276Y004240D01*
X016282Y004233D02*
X015980Y004233D01*
X015977Y004231D02*
X016283Y004231D01*
X016285Y004228D02*
X015975Y004228D01*
X015973Y004226D02*
X016287Y004226D01*
X016289Y004223D02*
X015971Y004223D01*
X015969Y004221D02*
X016290Y004221D01*
X016292Y004219D02*
X015968Y004219D01*
X015967Y004216D02*
X016294Y004216D01*
X016295Y004214D02*
X015965Y004214D01*
X015964Y004211D02*
X016297Y004211D01*
X016299Y004209D02*
X015962Y004209D01*
X015961Y004206D02*
X016301Y004206D01*
X016302Y004204D02*
X015960Y004204D01*
X015958Y004201D02*
X016304Y004201D01*
X016305Y004199D02*
X015957Y004199D01*
X015955Y004197D02*
X016306Y004197D01*
X016307Y004194D02*
X015954Y004194D01*
X015953Y004192D02*
X016308Y004192D01*
X016309Y004189D02*
X015951Y004189D01*
X015950Y004187D02*
X016310Y004187D01*
X016311Y004184D02*
X015949Y004184D01*
X015948Y004182D02*
X016312Y004182D01*
X016313Y004180D02*
X015947Y004180D01*
X015946Y004177D02*
X016314Y004177D01*
X016315Y004175D02*
X015946Y004175D01*
X015945Y004172D02*
X016316Y004172D01*
X016317Y004170D02*
X015944Y004170D01*
X015943Y004167D02*
X016318Y004167D01*
X016319Y004165D02*
X015943Y004165D01*
X015942Y004162D02*
X016319Y004162D01*
X016320Y004160D02*
X015941Y004160D01*
X015940Y004158D02*
X016320Y004158D01*
X016321Y004155D02*
X015940Y004155D01*
X015939Y004153D02*
X016321Y004153D01*
X016322Y004150D02*
X015938Y004150D01*
X015938Y004148D02*
X016322Y004148D01*
X016323Y004141D02*
X015936Y004141D01*
X015936Y004138D02*
X016324Y004138D01*
X016324Y004136D02*
X015936Y004136D01*
X015935Y004133D02*
X016324Y004133D01*
X016325Y004131D02*
X015935Y004131D01*
X015935Y004128D02*
X016325Y004128D01*
X016326Y004126D02*
X015935Y004126D01*
X015935Y004123D02*
X016326Y004123D01*
X016326Y004121D02*
X015935Y004121D01*
X015934Y004119D02*
X016327Y004119D01*
X016327Y004116D02*
X015934Y004116D01*
X015934Y004114D02*
X016327Y004114D01*
X016327Y004111D02*
X015934Y004111D01*
X015934Y004109D02*
X016327Y004109D01*
X016327Y004106D02*
X015933Y004106D01*
X015933Y004104D02*
X016327Y004104D01*
X016327Y004102D02*
X015933Y004102D01*
X015933Y004094D02*
X016327Y004094D01*
X016327Y004092D02*
X015933Y004092D01*
X015933Y004089D02*
X016327Y004089D01*
X016327Y004087D02*
X015933Y004087D01*
X015933Y004084D02*
X016327Y004084D01*
X016327Y004082D02*
X015933Y004082D01*
X015933Y004080D02*
X016327Y004080D01*
X016327Y004077D02*
X015933Y004077D01*
X015933Y004075D02*
X016327Y004075D01*
X016327Y004072D02*
X015933Y004072D01*
X015933Y004070D02*
X016327Y004070D01*
X016327Y004067D02*
X015933Y004067D01*
X015933Y004065D02*
X016327Y004065D01*
X016327Y004063D02*
X015933Y004063D01*
X015933Y004060D02*
X016327Y004060D01*
X016327Y004058D02*
X015933Y004058D01*
X015933Y004055D02*
X016327Y004055D01*
X016327Y004053D02*
X015933Y004053D01*
X015933Y004050D02*
X016327Y004050D01*
X016327Y004048D02*
X015933Y004048D01*
X015933Y004045D02*
X016327Y004045D01*
X016327Y004043D02*
X015933Y004043D01*
X015933Y004041D02*
X016327Y004041D01*
X016327Y004038D02*
X015933Y004038D01*
X015933Y004036D02*
X016327Y004036D01*
X016327Y004033D02*
X015933Y004033D01*
X015933Y004031D02*
X016327Y004031D01*
X016327Y004028D02*
X015933Y004028D01*
X015933Y004026D02*
X016327Y004026D01*
X016327Y004024D02*
X015933Y004024D01*
X015933Y004021D02*
X016327Y004021D01*
X016327Y004019D02*
X015933Y004019D01*
X015933Y004016D02*
X016327Y004016D01*
X016327Y004014D02*
X015933Y004014D01*
X015933Y004011D02*
X016327Y004011D01*
X016327Y004009D02*
X015933Y004009D01*
X015933Y004006D02*
X016327Y004006D01*
X016327Y004004D02*
X015933Y004004D01*
X015933Y004002D02*
X016327Y004002D01*
X016327Y003999D02*
X015933Y003999D01*
X015933Y003997D02*
X016327Y003997D01*
X016327Y003994D02*
X015933Y003994D01*
X015933Y003992D02*
X016327Y003992D01*
X016327Y003989D02*
X015933Y003989D01*
X015933Y003987D02*
X016327Y003987D01*
X016327Y003985D02*
X015933Y003985D01*
X015933Y003982D02*
X016327Y003982D01*
X016327Y003980D02*
X015933Y003980D01*
X015933Y003977D02*
X016327Y003977D01*
X016327Y003975D02*
X015933Y003975D01*
X015933Y003972D02*
X016327Y003972D01*
X016327Y003970D02*
X015933Y003970D01*
X015933Y003967D02*
X016327Y003967D01*
X016327Y003965D02*
X015933Y003965D01*
X015933Y003963D02*
X016327Y003963D01*
X016327Y003960D02*
X015933Y003960D01*
X015933Y003958D02*
X016327Y003958D01*
X016327Y003955D02*
X015933Y003955D01*
X015933Y003953D02*
X016327Y003953D01*
X016327Y003950D02*
X015933Y003950D01*
X015933Y003948D02*
X016327Y003948D01*
X016327Y003946D02*
X015933Y003946D01*
X015933Y003943D02*
X016327Y003943D01*
X016327Y003941D02*
X015933Y003941D01*
X015933Y003938D02*
X016327Y003938D01*
X016327Y003936D02*
X015933Y003936D01*
X015933Y003933D02*
X016327Y003933D01*
X016327Y003931D02*
X015933Y003931D01*
X015933Y003928D02*
X016327Y003928D01*
X016327Y003926D02*
X015933Y003926D01*
X015933Y003924D02*
X016327Y003924D01*
X016327Y003921D02*
X015933Y003921D01*
X015933Y003919D02*
X016327Y003919D01*
X016327Y003916D02*
X015933Y003916D01*
X015933Y003914D02*
X016327Y003914D01*
X016327Y003911D02*
X015933Y003911D01*
X015933Y003909D02*
X016327Y003909D01*
X016327Y003907D02*
X015933Y003907D01*
X015933Y003904D02*
X016327Y003904D01*
X016327Y003902D02*
X015933Y003902D01*
X015933Y003899D02*
X016327Y003899D01*
X016327Y003897D02*
X015933Y003897D01*
X015933Y003894D02*
X016327Y003894D01*
X016327Y003892D02*
X015933Y003892D01*
X015933Y003889D02*
X016327Y003889D01*
X016327Y003887D02*
X015933Y003887D01*
X015933Y003885D02*
X016327Y003885D01*
X016327Y003882D02*
X015933Y003882D01*
X015933Y003880D02*
X016327Y003880D01*
X016327Y003877D02*
X015933Y003877D01*
X015933Y003875D02*
X016327Y003875D01*
X016327Y003872D02*
X015933Y003872D01*
X015933Y003870D02*
X016327Y003870D01*
X016327Y003868D02*
X015933Y003868D01*
X015933Y003865D02*
X016327Y003865D01*
X016327Y003863D02*
X015933Y003863D01*
X015933Y003860D02*
X016327Y003860D01*
X016327Y003858D02*
X015933Y003858D01*
X015933Y003855D02*
X016327Y003855D01*
X016327Y003853D02*
X015933Y003853D01*
X015933Y003850D02*
X016327Y003850D01*
X016327Y003848D02*
X015933Y003848D01*
X015933Y003846D02*
X016327Y003846D01*
X016327Y003843D02*
X015933Y003843D01*
X015933Y003841D02*
X016327Y003841D01*
X016327Y003838D02*
X015933Y003838D01*
X015933Y003836D02*
X016327Y003836D01*
X016327Y003833D02*
X015933Y003833D01*
X015933Y003831D02*
X016327Y003831D01*
X016327Y003829D02*
X015933Y003829D01*
X015933Y003826D02*
X016327Y003826D01*
X016327Y003824D02*
X015933Y003824D01*
X015933Y003821D02*
X016327Y003821D01*
X016327Y003819D02*
X015933Y003819D01*
X015933Y003816D02*
X016327Y003816D01*
X016327Y003814D02*
X015933Y003814D01*
X015933Y003811D02*
X016327Y003811D01*
X016327Y003809D02*
X015933Y003809D01*
X015933Y003807D02*
X016327Y003807D01*
X016327Y003804D02*
X015933Y003804D01*
X015933Y003802D02*
X016327Y003802D01*
X016327Y003799D02*
X015933Y003799D01*
X015933Y003797D02*
X016327Y003797D01*
X016327Y003794D02*
X015933Y003794D01*
X015933Y003792D02*
X016327Y003792D01*
X016327Y003790D02*
X015933Y003790D01*
X015933Y003787D02*
X016327Y003787D01*
X016327Y003785D02*
X015933Y003785D01*
X015933Y003782D02*
X016327Y003782D01*
X016327Y003780D02*
X015933Y003780D01*
X015933Y003777D02*
X016327Y003777D01*
X016327Y003775D02*
X015933Y003775D01*
X015933Y003772D02*
X016327Y003772D01*
X016327Y003770D02*
X015933Y003770D01*
X015933Y003768D02*
X016327Y003768D01*
X016327Y003765D02*
X015933Y003765D01*
X015933Y003763D02*
X016327Y003763D01*
X016327Y003760D02*
X015933Y003760D01*
X015933Y003758D02*
X016327Y003758D01*
X016327Y003755D02*
X015933Y003755D01*
X015933Y003753D02*
X016327Y003753D01*
X016327Y003751D02*
X015933Y003751D01*
X015933Y003748D02*
X016327Y003748D01*
X016327Y003746D02*
X015933Y003746D01*
X015933Y003743D02*
X016327Y003743D01*
X016327Y003741D02*
X015933Y003741D01*
X015933Y003738D02*
X016327Y003738D01*
X016327Y003736D02*
X015933Y003736D01*
X015933Y003733D02*
X016327Y003733D01*
X016327Y003731D02*
X015933Y003731D01*
X015933Y003729D02*
X016327Y003729D01*
X016327Y003726D02*
X015933Y003726D01*
X015933Y003724D02*
X016327Y003724D01*
X016327Y003721D02*
X015933Y003721D01*
X015933Y003719D02*
X016327Y003719D01*
X016327Y003716D02*
X015933Y003716D01*
X015933Y003714D02*
X016327Y003714D01*
X016327Y003712D02*
X015933Y003712D01*
X015933Y003709D02*
X016327Y003709D01*
X016327Y003707D02*
X015933Y003707D01*
X015933Y003704D02*
X016327Y003704D01*
X016327Y003702D02*
X015933Y003702D01*
X015933Y003699D02*
X016327Y003699D01*
X016327Y003697D02*
X015933Y003697D01*
X015933Y003695D02*
X016327Y003695D01*
X016327Y003692D02*
X015933Y003692D01*
X015933Y003690D02*
X016327Y003690D01*
X016327Y003687D02*
X015933Y003687D01*
X015933Y003685D02*
X016327Y003685D01*
X016327Y003682D02*
X015933Y003682D01*
X015933Y003680D02*
X016327Y003680D01*
X016327Y003677D02*
X015933Y003677D01*
X015933Y003675D02*
X016327Y003675D01*
X016327Y003673D02*
X015933Y003673D01*
X015933Y003670D02*
X016327Y003670D01*
X016327Y003668D02*
X015933Y003668D01*
X015933Y003665D02*
X016327Y003665D01*
X016327Y003663D02*
X015933Y003663D01*
X015933Y003660D02*
X016327Y003660D01*
X016327Y003658D02*
X015933Y003658D01*
X015933Y003656D02*
X016327Y003656D01*
X016327Y003653D02*
X015933Y003653D01*
X015933Y003651D02*
X016327Y003651D01*
X016327Y003648D02*
X015933Y003648D01*
X015933Y003646D02*
X016326Y003646D01*
X016326Y003643D02*
X015933Y003643D01*
X015933Y003641D02*
X016325Y003641D01*
X016325Y003638D02*
X015933Y003638D01*
X015933Y003636D02*
X016324Y003636D01*
X016324Y003634D02*
X015933Y003634D01*
X015933Y003631D02*
X016323Y003631D01*
X016323Y003629D02*
X015933Y003629D01*
X015933Y003626D02*
X016322Y003626D01*
X016322Y003624D02*
X015934Y003624D01*
X015934Y003621D02*
X016321Y003621D01*
X016321Y003619D02*
X015935Y003619D01*
X015935Y003617D02*
X016320Y003617D01*
X016320Y003614D02*
X015936Y003614D01*
X015937Y003612D02*
X016319Y003612D01*
X016319Y003609D02*
X015937Y003609D01*
X015938Y003607D02*
X016318Y003607D01*
X016318Y003604D02*
X015938Y003604D01*
X015939Y003602D02*
X016316Y003602D01*
X016315Y003599D02*
X015939Y003599D01*
X015940Y003597D02*
X016314Y003597D01*
X016313Y003595D02*
X015940Y003595D01*
X015941Y003592D02*
X016312Y003592D01*
X016311Y003590D02*
X015942Y003590D01*
X015943Y003587D02*
X016310Y003587D01*
X016309Y003585D02*
X015944Y003585D01*
X015945Y003582D02*
X016307Y003582D01*
X016306Y003580D02*
X015946Y003580D01*
X015948Y003578D02*
X016305Y003578D01*
X016304Y003575D02*
X015949Y003575D01*
X015950Y003573D02*
X016303Y003573D01*
X016302Y003570D02*
X015951Y003570D01*
X015952Y003568D02*
X016301Y003568D01*
X016299Y003565D02*
X015953Y003565D01*
X015955Y003563D02*
X016297Y003563D01*
X016295Y003560D02*
X015956Y003560D01*
X015957Y003558D02*
X016293Y003558D01*
X016291Y003556D02*
X015958Y003556D01*
X015960Y003553D02*
X016290Y003553D01*
X016288Y003551D02*
X015962Y003551D01*
X015964Y003548D02*
X016286Y003548D01*
X016284Y003546D02*
X015966Y003546D01*
X015968Y003543D02*
X016282Y003543D01*
X016280Y003541D02*
X015970Y003541D01*
X015972Y003539D02*
X016278Y003539D01*
X016276Y003536D02*
X015974Y003536D01*
X015976Y003534D02*
X016274Y003534D01*
X016272Y003531D02*
X015978Y003531D01*
X015980Y003529D02*
X016269Y003529D01*
X016266Y003526D02*
X015982Y003526D01*
X015984Y003524D02*
X016263Y003524D01*
X016260Y003521D02*
X015988Y003521D01*
X015991Y003519D02*
X016257Y003519D01*
X016254Y003517D02*
X015994Y003517D01*
X015997Y003514D02*
X016251Y003514D01*
X016248Y003512D02*
X016000Y003512D01*
X016009Y003504D02*
X016237Y003504D01*
X016232Y003502D02*
X016012Y003502D01*
X016017Y003500D02*
X016227Y003500D01*
X016222Y003497D02*
X016022Y003497D01*
X016028Y003495D02*
X016218Y003495D01*
X016213Y003492D02*
X016033Y003492D01*
X016038Y003490D02*
X016208Y003490D01*
X016201Y003487D02*
X016043Y003487D01*
X016050Y003485D02*
X016192Y003485D01*
X016182Y003482D02*
X016060Y003482D01*
X016071Y003480D02*
X016172Y003480D01*
X016135Y003478D02*
X016082Y003478D01*
X016120Y004304D02*
X016127Y004304D01*
X016122Y002532D02*
X016166Y002530D01*
X016207Y002517D01*
X016246Y002496D01*
X016278Y002467D01*
X016303Y002431D01*
X016320Y002391D01*
X015942Y002391D01*
X015943Y002393D02*
X016319Y002393D01*
X016320Y002391D02*
X016327Y002347D01*
X015934Y002347D01*
X015935Y002349D02*
X016326Y002349D01*
X016327Y002347D02*
X016327Y001875D01*
X016318Y001834D01*
X016300Y001796D01*
X016301Y001796D02*
X015952Y001796D01*
X015951Y001798D02*
X016302Y001798D01*
X016300Y001796D02*
X016275Y001762D01*
X016242Y001735D01*
X016241Y001735D02*
X016006Y001735D01*
X016003Y001737D02*
X016245Y001737D01*
X016242Y001735D02*
X016205Y001717D01*
X016164Y001706D01*
X016122Y001706D01*
X016084Y001706D01*
X016047Y001714D01*
X016012Y001730D01*
X015982Y001754D01*
X015958Y001784D01*
X015942Y001818D01*
X016311Y001818D01*
X016312Y001820D02*
X015941Y001820D01*
X015942Y001818D02*
X015933Y001855D01*
X015933Y002328D01*
X015936Y002372D01*
X015949Y002414D01*
X015971Y002452D01*
X016001Y002485D01*
X016037Y002510D01*
X016078Y002526D01*
X016122Y002532D01*
X016118Y002532D02*
X016131Y002532D01*
X016102Y002529D02*
X016167Y002529D01*
X016175Y002527D02*
X016087Y002527D01*
X016075Y002525D02*
X016183Y002525D01*
X016191Y002522D02*
X016069Y002522D01*
X016063Y002520D02*
X016200Y002520D01*
X016208Y002517D02*
X016057Y002517D01*
X016051Y002515D02*
X016212Y002515D01*
X016216Y002512D02*
X016045Y002512D01*
X016038Y002510D02*
X016221Y002510D01*
X016225Y002508D02*
X016034Y002508D01*
X016031Y002505D02*
X016229Y002505D01*
X016234Y002503D02*
X016027Y002503D01*
X016024Y002500D02*
X016238Y002500D01*
X016243Y002498D02*
X016020Y002498D01*
X016017Y002495D02*
X016246Y002495D01*
X016249Y002493D02*
X016013Y002493D01*
X016010Y002490D02*
X016252Y002490D01*
X016254Y002488D02*
X016006Y002488D01*
X016002Y002486D02*
X016257Y002486D01*
X016260Y002483D02*
X016000Y002483D01*
X015997Y002481D02*
X016263Y002481D01*
X016265Y002478D02*
X015995Y002478D01*
X015993Y002476D02*
X016268Y002476D01*
X016271Y002473D02*
X015991Y002473D01*
X015988Y002471D02*
X016273Y002471D01*
X016276Y002469D02*
X015986Y002469D01*
X015984Y002466D02*
X016278Y002466D01*
X016280Y002464D02*
X015982Y002464D01*
X015979Y002461D02*
X016282Y002461D01*
X016284Y002459D02*
X015977Y002459D01*
X015975Y002456D02*
X016285Y002456D01*
X016287Y002454D02*
X015973Y002454D01*
X015971Y002452D02*
X016289Y002452D01*
X016290Y002449D02*
X015969Y002449D01*
X015968Y002447D02*
X016292Y002447D01*
X016294Y002444D02*
X015966Y002444D01*
X015965Y002442D02*
X016296Y002442D01*
X016297Y002439D02*
X015964Y002439D01*
X015962Y002437D02*
X016299Y002437D01*
X016301Y002434D02*
X015961Y002434D01*
X015959Y002432D02*
X016302Y002432D01*
X016304Y002430D02*
X015958Y002430D01*
X015957Y002427D02*
X016305Y002427D01*
X016306Y002425D02*
X015955Y002425D01*
X015954Y002422D02*
X016307Y002422D01*
X016308Y002420D02*
X015952Y002420D01*
X015951Y002417D02*
X016309Y002417D01*
X016310Y002415D02*
X015950Y002415D01*
X015949Y002413D02*
X016311Y002413D01*
X016312Y002410D02*
X015948Y002410D01*
X015947Y002408D02*
X016313Y002408D01*
X016314Y002405D02*
X015946Y002405D01*
X015946Y002403D02*
X016315Y002403D01*
X016316Y002400D02*
X015945Y002400D01*
X015944Y002398D02*
X016317Y002398D01*
X016318Y002395D02*
X015943Y002395D01*
X015941Y002388D02*
X016320Y002388D01*
X016320Y002386D02*
X015940Y002386D01*
X015940Y002383D02*
X016321Y002383D01*
X016321Y002381D02*
X015939Y002381D01*
X015938Y002378D02*
X016322Y002378D01*
X016322Y002376D02*
X015937Y002376D01*
X015937Y002374D02*
X016322Y002374D01*
X016323Y002371D02*
X015936Y002371D01*
X015936Y002369D02*
X016323Y002369D01*
X016324Y002366D02*
X015936Y002366D01*
X015936Y002364D02*
X016324Y002364D01*
X016324Y002361D02*
X015935Y002361D01*
X015935Y002359D02*
X016325Y002359D01*
X016325Y002356D02*
X015935Y002356D01*
X015935Y002354D02*
X016326Y002354D01*
X016326Y002352D02*
X015935Y002352D01*
X015934Y002344D02*
X016327Y002344D01*
X016327Y002342D02*
X015934Y002342D01*
X015934Y002339D02*
X016327Y002339D01*
X016327Y002337D02*
X015934Y002337D01*
X015933Y002335D02*
X016327Y002335D01*
X016327Y002332D02*
X015933Y002332D01*
X015933Y002330D02*
X016327Y002330D01*
X016327Y002327D02*
X015933Y002327D01*
X015933Y002325D02*
X016327Y002325D01*
X016327Y002322D02*
X015933Y002322D01*
X015933Y002320D02*
X016327Y002320D01*
X016327Y002317D02*
X015933Y002317D01*
X015933Y002315D02*
X016327Y002315D01*
X016327Y002313D02*
X015933Y002313D01*
X015933Y002310D02*
X016327Y002310D01*
X016327Y002308D02*
X015933Y002308D01*
X015933Y002305D02*
X016327Y002305D01*
X016327Y002303D02*
X015933Y002303D01*
X015933Y002300D02*
X016327Y002300D01*
X016327Y002298D02*
X015933Y002298D01*
X015933Y002296D02*
X016327Y002296D01*
X016327Y002293D02*
X015933Y002293D01*
X015933Y002291D02*
X016327Y002291D01*
X016327Y002288D02*
X015933Y002288D01*
X015933Y002286D02*
X016327Y002286D01*
X016327Y002283D02*
X015933Y002283D01*
X015933Y002281D02*
X016327Y002281D01*
X016327Y002278D02*
X015933Y002278D01*
X015933Y002276D02*
X016327Y002276D01*
X016327Y002274D02*
X015933Y002274D01*
X015933Y002271D02*
X016327Y002271D01*
X016327Y002269D02*
X015933Y002269D01*
X015933Y002266D02*
X016327Y002266D01*
X016327Y002264D02*
X015933Y002264D01*
X015933Y002261D02*
X016327Y002261D01*
X016327Y002259D02*
X015933Y002259D01*
X015933Y002257D02*
X016327Y002257D01*
X016327Y002254D02*
X015933Y002254D01*
X015933Y002252D02*
X016327Y002252D01*
X016327Y002249D02*
X015933Y002249D01*
X015933Y002247D02*
X016327Y002247D01*
X016327Y002244D02*
X015933Y002244D01*
X015933Y002242D02*
X016327Y002242D01*
X016327Y002239D02*
X015933Y002239D01*
X015933Y002237D02*
X016327Y002237D01*
X016327Y002235D02*
X015933Y002235D01*
X015933Y002232D02*
X016327Y002232D01*
X016327Y002230D02*
X015933Y002230D01*
X015933Y002227D02*
X016327Y002227D01*
X016327Y002225D02*
X015933Y002225D01*
X015933Y002222D02*
X016327Y002222D01*
X016327Y002220D02*
X015933Y002220D01*
X015933Y002218D02*
X016327Y002218D01*
X016327Y002215D02*
X015933Y002215D01*
X015933Y002213D02*
X016327Y002213D01*
X016327Y002210D02*
X015933Y002210D01*
X015933Y002208D02*
X016327Y002208D01*
X016327Y002205D02*
X015933Y002205D01*
X015933Y002203D02*
X016327Y002203D01*
X016327Y002200D02*
X015933Y002200D01*
X015933Y002198D02*
X016327Y002198D01*
X016327Y002196D02*
X015933Y002196D01*
X015933Y002193D02*
X016327Y002193D01*
X016327Y002191D02*
X015933Y002191D01*
X015933Y002188D02*
X016327Y002188D01*
X016327Y002186D02*
X015933Y002186D01*
X015933Y002183D02*
X016327Y002183D01*
X016327Y002181D02*
X015933Y002181D01*
X015933Y002179D02*
X016327Y002179D01*
X016327Y002176D02*
X015933Y002176D01*
X015933Y002174D02*
X016327Y002174D01*
X016327Y002171D02*
X015933Y002171D01*
X015933Y002169D02*
X016327Y002169D01*
X016327Y002166D02*
X015933Y002166D01*
X015933Y002164D02*
X016327Y002164D01*
X016327Y002161D02*
X015933Y002161D01*
X015933Y002159D02*
X016327Y002159D01*
X016327Y002157D02*
X015933Y002157D01*
X015933Y002154D02*
X016327Y002154D01*
X016327Y002152D02*
X015933Y002152D01*
X015933Y002149D02*
X016327Y002149D01*
X016327Y002147D02*
X015933Y002147D01*
X015933Y002144D02*
X016327Y002144D01*
X016327Y002142D02*
X015933Y002142D01*
X015933Y002140D02*
X016327Y002140D01*
X016327Y002137D02*
X015933Y002137D01*
X015933Y002135D02*
X016327Y002135D01*
X016327Y002132D02*
X015933Y002132D01*
X015933Y002130D02*
X016327Y002130D01*
X016327Y002127D02*
X015933Y002127D01*
X015933Y002125D02*
X016327Y002125D01*
X016327Y002122D02*
X015933Y002122D01*
X015933Y002120D02*
X016327Y002120D01*
X016327Y002118D02*
X015933Y002118D01*
X015933Y002115D02*
X016327Y002115D01*
X016327Y002113D02*
X015933Y002113D01*
X015933Y002110D02*
X016327Y002110D01*
X016327Y002108D02*
X015933Y002108D01*
X015933Y002105D02*
X016327Y002105D01*
X016327Y002103D02*
X015933Y002103D01*
X015933Y002101D02*
X016327Y002101D01*
X016327Y002098D02*
X015933Y002098D01*
X015933Y002096D02*
X016327Y002096D01*
X016327Y002093D02*
X015933Y002093D01*
X015933Y002091D02*
X016327Y002091D01*
X016327Y002088D02*
X015933Y002088D01*
X015933Y002086D02*
X016327Y002086D01*
X016327Y002083D02*
X015933Y002083D01*
X015933Y002081D02*
X016327Y002081D01*
X016327Y002079D02*
X015933Y002079D01*
X015933Y002076D02*
X016327Y002076D01*
X016327Y002074D02*
X015933Y002074D01*
X015933Y002071D02*
X016327Y002071D01*
X016327Y002069D02*
X015933Y002069D01*
X015933Y002066D02*
X016327Y002066D01*
X016327Y002064D02*
X015933Y002064D01*
X015933Y002062D02*
X016327Y002062D01*
X016327Y002059D02*
X015933Y002059D01*
X015933Y002057D02*
X016327Y002057D01*
X016327Y002054D02*
X015933Y002054D01*
X015933Y002052D02*
X016327Y002052D01*
X016327Y002049D02*
X015933Y002049D01*
X015933Y002047D02*
X016327Y002047D01*
X016327Y002044D02*
X015933Y002044D01*
X015933Y002042D02*
X016327Y002042D01*
X016327Y002040D02*
X015933Y002040D01*
X015933Y002037D02*
X016327Y002037D01*
X016327Y002035D02*
X015933Y002035D01*
X015933Y002032D02*
X016327Y002032D01*
X016327Y002030D02*
X015933Y002030D01*
X015933Y002027D02*
X016327Y002027D01*
X016327Y002025D02*
X015933Y002025D01*
X015933Y002023D02*
X016327Y002023D01*
X016327Y002020D02*
X015933Y002020D01*
X015933Y002018D02*
X016327Y002018D01*
X016327Y002015D02*
X015933Y002015D01*
X015933Y002013D02*
X016327Y002013D01*
X016327Y002010D02*
X015933Y002010D01*
X015933Y002008D02*
X016327Y002008D01*
X016327Y002005D02*
X015933Y002005D01*
X015933Y002003D02*
X016327Y002003D01*
X016327Y002001D02*
X015933Y002001D01*
X015933Y001998D02*
X016327Y001998D01*
X016327Y001996D02*
X015933Y001996D01*
X015933Y001993D02*
X016327Y001993D01*
X016327Y001991D02*
X015933Y001991D01*
X015933Y001988D02*
X016327Y001988D01*
X016327Y001986D02*
X015933Y001986D01*
X015933Y001984D02*
X016327Y001984D01*
X016327Y001981D02*
X015933Y001981D01*
X015933Y001979D02*
X016327Y001979D01*
X016327Y001976D02*
X015933Y001976D01*
X015933Y001974D02*
X016327Y001974D01*
X016327Y001971D02*
X015933Y001971D01*
X015933Y001969D02*
X016327Y001969D01*
X016327Y001966D02*
X015933Y001966D01*
X015933Y001964D02*
X016327Y001964D01*
X016327Y001962D02*
X015933Y001962D01*
X015933Y001959D02*
X016327Y001959D01*
X016327Y001957D02*
X015933Y001957D01*
X015933Y001954D02*
X016327Y001954D01*
X016327Y001952D02*
X015933Y001952D01*
X015933Y001949D02*
X016327Y001949D01*
X016327Y001947D02*
X015933Y001947D01*
X015933Y001945D02*
X016327Y001945D01*
X016327Y001942D02*
X015933Y001942D01*
X015933Y001940D02*
X016327Y001940D01*
X016327Y001937D02*
X015933Y001937D01*
X015933Y001935D02*
X016327Y001935D01*
X016327Y001932D02*
X015933Y001932D01*
X015933Y001930D02*
X016327Y001930D01*
X016327Y001927D02*
X015933Y001927D01*
X015933Y001925D02*
X016327Y001925D01*
X016327Y001923D02*
X015933Y001923D01*
X015933Y001920D02*
X016327Y001920D01*
X016327Y001918D02*
X015933Y001918D01*
X015933Y001915D02*
X016327Y001915D01*
X016327Y001913D02*
X015933Y001913D01*
X015933Y001910D02*
X016327Y001910D01*
X016327Y001908D02*
X015933Y001908D01*
X015933Y001906D02*
X016327Y001906D01*
X016327Y001903D02*
X015933Y001903D01*
X015933Y001901D02*
X016327Y001901D01*
X016327Y001898D02*
X015933Y001898D01*
X015933Y001896D02*
X016327Y001896D01*
X016327Y001893D02*
X015933Y001893D01*
X015933Y001891D02*
X016327Y001891D01*
X016327Y001888D02*
X015933Y001888D01*
X015933Y001886D02*
X016327Y001886D01*
X016327Y001884D02*
X015933Y001884D01*
X015933Y001881D02*
X016327Y001881D01*
X016327Y001879D02*
X015933Y001879D01*
X015933Y001876D02*
X016327Y001876D01*
X016326Y001874D02*
X015933Y001874D01*
X015933Y001871D02*
X016326Y001871D01*
X016325Y001869D02*
X015933Y001869D01*
X015933Y001867D02*
X016325Y001867D01*
X016324Y001864D02*
X015933Y001864D01*
X015933Y001862D02*
X016324Y001862D01*
X016323Y001859D02*
X015933Y001859D01*
X015933Y001857D02*
X016323Y001857D01*
X016322Y001854D02*
X015933Y001854D01*
X015934Y001852D02*
X016322Y001852D01*
X016321Y001850D02*
X015934Y001850D01*
X015935Y001847D02*
X016321Y001847D01*
X016320Y001845D02*
X015935Y001845D01*
X015936Y001842D02*
X016320Y001842D01*
X016319Y001840D02*
X015937Y001840D01*
X015937Y001837D02*
X016319Y001837D01*
X016318Y001835D02*
X015938Y001835D01*
X015938Y001832D02*
X016317Y001832D01*
X016316Y001830D02*
X015939Y001830D01*
X015939Y001828D02*
X016315Y001828D01*
X016314Y001825D02*
X015940Y001825D01*
X015941Y001823D02*
X016313Y001823D01*
X016310Y001815D02*
X015943Y001815D01*
X015944Y001813D02*
X016308Y001813D01*
X016307Y001811D02*
X015945Y001811D01*
X015946Y001808D02*
X016306Y001808D01*
X016305Y001806D02*
X015948Y001806D01*
X015949Y001803D02*
X016304Y001803D01*
X016303Y001801D02*
X015950Y001801D01*
X015954Y001793D02*
X016299Y001793D01*
X016297Y001791D02*
X015955Y001791D01*
X015956Y001789D02*
X016295Y001789D01*
X016293Y001786D02*
X015957Y001786D01*
X015958Y001784D02*
X016291Y001784D01*
X016289Y001781D02*
X015960Y001781D01*
X015962Y001779D02*
X016288Y001779D01*
X016286Y001776D02*
X015964Y001776D01*
X015966Y001774D02*
X016284Y001774D01*
X016282Y001772D02*
X015968Y001772D01*
X015970Y001769D02*
X016280Y001769D01*
X016278Y001767D02*
X015972Y001767D01*
X015974Y001764D02*
X016276Y001764D01*
X016274Y001762D02*
X015976Y001762D01*
X015978Y001759D02*
X016271Y001759D01*
X016268Y001757D02*
X015980Y001757D01*
X015982Y001754D02*
X016265Y001754D01*
X016262Y001752D02*
X015985Y001752D01*
X015988Y001750D02*
X016259Y001750D01*
X016257Y001747D02*
X015991Y001747D01*
X015994Y001745D02*
X016254Y001745D01*
X016251Y001742D02*
X015997Y001742D01*
X016000Y001740D02*
X016248Y001740D01*
X016237Y001733D02*
X016009Y001733D01*
X016013Y001730D02*
X016232Y001730D01*
X016227Y001728D02*
X016018Y001728D01*
X016023Y001725D02*
X016222Y001725D01*
X016217Y001723D02*
X016028Y001723D01*
X016033Y001720D02*
X016212Y001720D01*
X016208Y001718D02*
X016038Y001718D01*
X016043Y001715D02*
X016200Y001715D01*
X016191Y001713D02*
X016051Y001713D01*
X016061Y001711D02*
X016181Y001711D01*
X016171Y001708D02*
X016072Y001708D01*
X016083Y001706D02*
X016121Y001706D01*
X019563Y001855D02*
X019572Y001818D01*
X019941Y001818D01*
X019942Y001820D02*
X019571Y001820D01*
X019572Y001818D02*
X019588Y001784D01*
X019612Y001754D01*
X019642Y001730D01*
X019676Y001714D01*
X019714Y001706D01*
X019752Y001706D01*
X019794Y001706D01*
X019835Y001717D01*
X019872Y001735D01*
X019905Y001762D01*
X019930Y001796D01*
X019931Y001796D02*
X019582Y001796D01*
X019581Y001798D02*
X019932Y001798D01*
X019933Y001801D02*
X019580Y001801D01*
X019579Y001803D02*
X019934Y001803D01*
X019935Y001806D02*
X019578Y001806D01*
X019576Y001808D02*
X019936Y001808D01*
X019937Y001811D02*
X019575Y001811D01*
X019574Y001813D02*
X019938Y001813D01*
X019939Y001815D02*
X019573Y001815D01*
X019570Y001823D02*
X019943Y001823D01*
X019944Y001825D02*
X019570Y001825D01*
X019569Y001828D02*
X019945Y001828D01*
X019946Y001830D02*
X019569Y001830D01*
X019568Y001832D02*
X019947Y001832D01*
X019948Y001834D02*
X019930Y001796D01*
X019929Y001793D02*
X019584Y001793D01*
X019585Y001791D02*
X019927Y001791D01*
X019925Y001789D02*
X019586Y001789D01*
X019587Y001786D02*
X019923Y001786D01*
X019921Y001784D02*
X019588Y001784D01*
X019590Y001781D02*
X019919Y001781D01*
X019917Y001779D02*
X019592Y001779D01*
X019594Y001776D02*
X019916Y001776D01*
X019914Y001774D02*
X019596Y001774D01*
X019598Y001772D02*
X019912Y001772D01*
X019910Y001769D02*
X019600Y001769D01*
X019602Y001767D02*
X019908Y001767D01*
X019906Y001764D02*
X019604Y001764D01*
X019606Y001762D02*
X019904Y001762D01*
X019901Y001759D02*
X019608Y001759D01*
X019610Y001757D02*
X019898Y001757D01*
X019895Y001754D02*
X019612Y001754D01*
X019615Y001752D02*
X019892Y001752D01*
X019889Y001750D02*
X019618Y001750D01*
X019621Y001747D02*
X019886Y001747D01*
X019884Y001745D02*
X019624Y001745D01*
X019627Y001742D02*
X019881Y001742D01*
X019878Y001740D02*
X019630Y001740D01*
X019633Y001737D02*
X019875Y001737D01*
X019871Y001735D02*
X019636Y001735D01*
X019639Y001733D02*
X019866Y001733D01*
X019862Y001730D02*
X019643Y001730D01*
X019648Y001728D02*
X019857Y001728D01*
X019852Y001725D02*
X019653Y001725D01*
X019658Y001723D02*
X019847Y001723D01*
X019842Y001720D02*
X019663Y001720D01*
X019668Y001718D02*
X019837Y001718D01*
X019830Y001715D02*
X019673Y001715D01*
X019681Y001713D02*
X019820Y001713D01*
X019811Y001711D02*
X019691Y001711D01*
X019702Y001708D02*
X019801Y001708D01*
X019750Y001706D02*
X019713Y001706D01*
X019568Y001835D02*
X019948Y001835D01*
X019948Y001834D02*
X019957Y001875D01*
X019957Y002347D01*
X019564Y002347D01*
X019564Y002349D02*
X019956Y002349D01*
X019957Y002347D02*
X019950Y002391D01*
X019572Y002391D01*
X019573Y002393D02*
X019949Y002393D01*
X019950Y002391D02*
X019933Y002431D01*
X019908Y002467D01*
X019876Y002496D01*
X019837Y002517D01*
X019795Y002530D01*
X019752Y002532D01*
X019708Y002526D01*
X019667Y002510D01*
X019631Y002485D01*
X019601Y002452D01*
X019579Y002414D01*
X019566Y002372D01*
X019563Y002328D01*
X019563Y001855D01*
X019563Y001854D02*
X019952Y001854D01*
X019952Y001852D02*
X019564Y001852D01*
X019564Y001850D02*
X019951Y001850D01*
X019951Y001847D02*
X019565Y001847D01*
X019565Y001845D02*
X019950Y001845D01*
X019950Y001842D02*
X019566Y001842D01*
X019567Y001840D02*
X019949Y001840D01*
X019949Y001837D02*
X019567Y001837D01*
X019563Y001857D02*
X019953Y001857D01*
X019953Y001859D02*
X019563Y001859D01*
X019563Y001862D02*
X019954Y001862D01*
X019954Y001864D02*
X019563Y001864D01*
X019563Y001867D02*
X019955Y001867D01*
X019955Y001869D02*
X019563Y001869D01*
X019563Y001871D02*
X019956Y001871D01*
X019956Y001874D02*
X019563Y001874D01*
X019563Y001876D02*
X019957Y001876D01*
X019957Y001879D02*
X019563Y001879D01*
X019563Y001881D02*
X019957Y001881D01*
X019957Y001884D02*
X019563Y001884D01*
X019563Y001886D02*
X019957Y001886D01*
X019957Y001888D02*
X019563Y001888D01*
X019563Y001891D02*
X019957Y001891D01*
X019957Y001893D02*
X019563Y001893D01*
X019563Y001896D02*
X019957Y001896D01*
X019957Y001898D02*
X019563Y001898D01*
X019563Y001901D02*
X019957Y001901D01*
X019957Y001903D02*
X019563Y001903D01*
X019563Y001906D02*
X019957Y001906D01*
X019957Y001908D02*
X019563Y001908D01*
X019563Y001910D02*
X019957Y001910D01*
X019957Y001913D02*
X019563Y001913D01*
X019563Y001915D02*
X019957Y001915D01*
X019957Y001918D02*
X019563Y001918D01*
X019563Y001920D02*
X019957Y001920D01*
X019957Y001923D02*
X019563Y001923D01*
X019563Y001925D02*
X019957Y001925D01*
X019957Y001927D02*
X019563Y001927D01*
X019563Y001930D02*
X019957Y001930D01*
X019957Y001932D02*
X019563Y001932D01*
X019563Y001935D02*
X019957Y001935D01*
X019957Y001937D02*
X019563Y001937D01*
X019563Y001940D02*
X019957Y001940D01*
X019957Y001942D02*
X019563Y001942D01*
X019563Y001945D02*
X019957Y001945D01*
X019957Y001947D02*
X019563Y001947D01*
X019563Y001949D02*
X019957Y001949D01*
X019957Y001952D02*
X019563Y001952D01*
X019563Y001954D02*
X019957Y001954D01*
X019957Y001957D02*
X019563Y001957D01*
X019563Y001959D02*
X019957Y001959D01*
X019957Y001962D02*
X019563Y001962D01*
X019563Y001964D02*
X019957Y001964D01*
X019957Y001966D02*
X019563Y001966D01*
X019563Y001969D02*
X019957Y001969D01*
X019957Y001971D02*
X019563Y001971D01*
X019563Y001974D02*
X019957Y001974D01*
X019957Y001976D02*
X019563Y001976D01*
X019563Y001979D02*
X019957Y001979D01*
X019957Y001981D02*
X019563Y001981D01*
X019563Y001984D02*
X019957Y001984D01*
X019957Y001986D02*
X019563Y001986D01*
X019563Y001988D02*
X019957Y001988D01*
X019957Y001991D02*
X019563Y001991D01*
X019563Y001993D02*
X019957Y001993D01*
X019957Y001996D02*
X019563Y001996D01*
X019563Y001998D02*
X019957Y001998D01*
X019957Y002001D02*
X019563Y002001D01*
X019563Y002003D02*
X019957Y002003D01*
X019957Y002005D02*
X019563Y002005D01*
X019563Y002008D02*
X019957Y002008D01*
X019957Y002010D02*
X019563Y002010D01*
X019563Y002013D02*
X019957Y002013D01*
X019957Y002015D02*
X019563Y002015D01*
X019563Y002018D02*
X019957Y002018D01*
X019957Y002020D02*
X019563Y002020D01*
X019563Y002023D02*
X019957Y002023D01*
X019957Y002025D02*
X019563Y002025D01*
X019563Y002027D02*
X019957Y002027D01*
X019957Y002030D02*
X019563Y002030D01*
X019563Y002032D02*
X019957Y002032D01*
X019957Y002035D02*
X019563Y002035D01*
X019563Y002037D02*
X019957Y002037D01*
X019957Y002040D02*
X019563Y002040D01*
X019563Y002042D02*
X019957Y002042D01*
X019957Y002044D02*
X019563Y002044D01*
X019563Y002047D02*
X019957Y002047D01*
X019957Y002049D02*
X019563Y002049D01*
X019563Y002052D02*
X019957Y002052D01*
X019957Y002054D02*
X019563Y002054D01*
X019563Y002057D02*
X019957Y002057D01*
X019957Y002059D02*
X019563Y002059D01*
X019563Y002062D02*
X019957Y002062D01*
X019957Y002064D02*
X019563Y002064D01*
X019563Y002066D02*
X019957Y002066D01*
X019957Y002069D02*
X019563Y002069D01*
X019563Y002071D02*
X019957Y002071D01*
X019957Y002074D02*
X019563Y002074D01*
X019563Y002076D02*
X019957Y002076D01*
X019957Y002079D02*
X019563Y002079D01*
X019563Y002081D02*
X019957Y002081D01*
X019957Y002083D02*
X019563Y002083D01*
X019563Y002086D02*
X019957Y002086D01*
X019957Y002088D02*
X019563Y002088D01*
X019563Y002091D02*
X019957Y002091D01*
X019957Y002093D02*
X019563Y002093D01*
X019563Y002096D02*
X019957Y002096D01*
X019957Y002098D02*
X019563Y002098D01*
X019563Y002101D02*
X019957Y002101D01*
X019957Y002103D02*
X019563Y002103D01*
X019563Y002105D02*
X019957Y002105D01*
X019957Y002108D02*
X019563Y002108D01*
X019563Y002110D02*
X019957Y002110D01*
X019957Y002113D02*
X019563Y002113D01*
X019563Y002115D02*
X019957Y002115D01*
X019957Y002118D02*
X019563Y002118D01*
X019563Y002120D02*
X019957Y002120D01*
X019957Y002122D02*
X019563Y002122D01*
X019563Y002125D02*
X019957Y002125D01*
X019957Y002127D02*
X019563Y002127D01*
X019563Y002130D02*
X019957Y002130D01*
X019957Y002132D02*
X019563Y002132D01*
X019563Y002135D02*
X019957Y002135D01*
X019957Y002137D02*
X019563Y002137D01*
X019563Y002140D02*
X019957Y002140D01*
X019957Y002142D02*
X019563Y002142D01*
X019563Y002144D02*
X019957Y002144D01*
X019957Y002147D02*
X019563Y002147D01*
X019563Y002149D02*
X019957Y002149D01*
X019957Y002152D02*
X019563Y002152D01*
X019563Y002154D02*
X019957Y002154D01*
X019957Y002157D02*
X019563Y002157D01*
X019563Y002159D02*
X019957Y002159D01*
X019957Y002161D02*
X019563Y002161D01*
X019563Y002164D02*
X019957Y002164D01*
X019957Y002166D02*
X019563Y002166D01*
X019563Y002169D02*
X019957Y002169D01*
X019957Y002171D02*
X019563Y002171D01*
X019563Y002174D02*
X019957Y002174D01*
X019957Y002176D02*
X019563Y002176D01*
X019563Y002179D02*
X019957Y002179D01*
X019957Y002181D02*
X019563Y002181D01*
X019563Y002183D02*
X019957Y002183D01*
X019957Y002186D02*
X019563Y002186D01*
X019563Y002188D02*
X019957Y002188D01*
X019957Y002191D02*
X019563Y002191D01*
X019563Y002193D02*
X019957Y002193D01*
X019957Y002196D02*
X019563Y002196D01*
X019563Y002198D02*
X019957Y002198D01*
X019957Y002200D02*
X019563Y002200D01*
X019563Y002203D02*
X019957Y002203D01*
X019957Y002205D02*
X019563Y002205D01*
X019563Y002208D02*
X019957Y002208D01*
X019957Y002210D02*
X019563Y002210D01*
X019563Y002213D02*
X019957Y002213D01*
X019957Y002215D02*
X019563Y002215D01*
X019563Y002218D02*
X019957Y002218D01*
X019957Y002220D02*
X019563Y002220D01*
X019563Y002222D02*
X019957Y002222D01*
X019957Y002225D02*
X019563Y002225D01*
X019563Y002227D02*
X019957Y002227D01*
X019957Y002230D02*
X019563Y002230D01*
X019563Y002232D02*
X019957Y002232D01*
X019957Y002235D02*
X019563Y002235D01*
X019563Y002237D02*
X019957Y002237D01*
X019957Y002239D02*
X019563Y002239D01*
X019563Y002242D02*
X019957Y002242D01*
X019957Y002244D02*
X019563Y002244D01*
X019563Y002247D02*
X019957Y002247D01*
X019957Y002249D02*
X019563Y002249D01*
X019563Y002252D02*
X019957Y002252D01*
X019957Y002254D02*
X019563Y002254D01*
X019563Y002257D02*
X019957Y002257D01*
X019957Y002259D02*
X019563Y002259D01*
X019563Y002261D02*
X019957Y002261D01*
X019957Y002264D02*
X019563Y002264D01*
X019563Y002266D02*
X019957Y002266D01*
X019957Y002269D02*
X019563Y002269D01*
X019563Y002271D02*
X019957Y002271D01*
X019957Y002274D02*
X019563Y002274D01*
X019563Y002276D02*
X019957Y002276D01*
X019957Y002278D02*
X019563Y002278D01*
X019563Y002281D02*
X019957Y002281D01*
X019957Y002283D02*
X019563Y002283D01*
X019563Y002286D02*
X019957Y002286D01*
X019957Y002288D02*
X019563Y002288D01*
X019563Y002291D02*
X019957Y002291D01*
X019957Y002293D02*
X019563Y002293D01*
X019563Y002296D02*
X019957Y002296D01*
X019957Y002298D02*
X019563Y002298D01*
X019563Y002300D02*
X019957Y002300D01*
X019957Y002303D02*
X019563Y002303D01*
X019563Y002305D02*
X019957Y002305D01*
X019957Y002308D02*
X019563Y002308D01*
X019563Y002310D02*
X019957Y002310D01*
X019957Y002313D02*
X019563Y002313D01*
X019563Y002315D02*
X019957Y002315D01*
X019957Y002317D02*
X019563Y002317D01*
X019563Y002320D02*
X019957Y002320D01*
X019957Y002322D02*
X019563Y002322D01*
X019563Y002325D02*
X019957Y002325D01*
X019957Y002327D02*
X019563Y002327D01*
X019563Y002330D02*
X019957Y002330D01*
X019957Y002332D02*
X019563Y002332D01*
X019563Y002335D02*
X019957Y002335D01*
X019957Y002337D02*
X019564Y002337D01*
X019564Y002339D02*
X019957Y002339D01*
X019957Y002342D02*
X019564Y002342D01*
X019564Y002344D02*
X019957Y002344D01*
X019956Y002352D02*
X019565Y002352D01*
X019565Y002354D02*
X019956Y002354D01*
X019955Y002356D02*
X019565Y002356D01*
X019565Y002359D02*
X019955Y002359D01*
X019954Y002361D02*
X019565Y002361D01*
X019565Y002364D02*
X019954Y002364D01*
X019954Y002366D02*
X019566Y002366D01*
X019566Y002369D02*
X019953Y002369D01*
X019953Y002371D02*
X019566Y002371D01*
X019567Y002374D02*
X019952Y002374D01*
X019952Y002376D02*
X019567Y002376D01*
X019568Y002378D02*
X019952Y002378D01*
X019951Y002381D02*
X019569Y002381D01*
X019570Y002383D02*
X019951Y002383D01*
X019950Y002386D02*
X019570Y002386D01*
X019571Y002388D02*
X019950Y002388D01*
X019948Y002395D02*
X019573Y002395D01*
X019574Y002398D02*
X019947Y002398D01*
X019946Y002400D02*
X019575Y002400D01*
X019576Y002403D02*
X019945Y002403D01*
X019944Y002405D02*
X019576Y002405D01*
X019577Y002408D02*
X019943Y002408D01*
X019942Y002410D02*
X019578Y002410D01*
X019579Y002413D02*
X019941Y002413D01*
X019940Y002415D02*
X019580Y002415D01*
X019581Y002417D02*
X019939Y002417D01*
X019938Y002420D02*
X019582Y002420D01*
X019584Y002422D02*
X019937Y002422D01*
X019936Y002425D02*
X019585Y002425D01*
X019587Y002427D02*
X019935Y002427D01*
X019934Y002430D02*
X019588Y002430D01*
X019589Y002432D02*
X019932Y002432D01*
X019931Y002434D02*
X019591Y002434D01*
X019592Y002437D02*
X019929Y002437D01*
X019927Y002439D02*
X019594Y002439D01*
X019595Y002442D02*
X019925Y002442D01*
X019924Y002444D02*
X019596Y002444D01*
X019598Y002447D02*
X019922Y002447D01*
X019920Y002449D02*
X019599Y002449D01*
X019601Y002452D02*
X019919Y002452D01*
X019917Y002454D02*
X019603Y002454D01*
X019605Y002456D02*
X019915Y002456D01*
X019914Y002459D02*
X019607Y002459D01*
X019609Y002461D02*
X019912Y002461D01*
X019910Y002464D02*
X019612Y002464D01*
X019614Y002466D02*
X019908Y002466D01*
X019906Y002469D02*
X019616Y002469D01*
X019618Y002471D02*
X019903Y002471D01*
X019901Y002473D02*
X019621Y002473D01*
X019623Y002476D02*
X019898Y002476D01*
X019895Y002478D02*
X019625Y002478D01*
X019627Y002481D02*
X019893Y002481D01*
X019890Y002483D02*
X019630Y002483D01*
X019632Y002486D02*
X019887Y002486D01*
X019884Y002488D02*
X019636Y002488D01*
X019639Y002490D02*
X019882Y002490D01*
X019879Y002493D02*
X019643Y002493D01*
X019647Y002495D02*
X019876Y002495D01*
X019872Y002498D02*
X019650Y002498D01*
X019654Y002500D02*
X019868Y002500D01*
X019864Y002503D02*
X019657Y002503D01*
X019661Y002505D02*
X019859Y002505D01*
X019855Y002508D02*
X019664Y002508D01*
X019668Y002510D02*
X019851Y002510D01*
X019846Y002512D02*
X019674Y002512D01*
X019681Y002515D02*
X019842Y002515D01*
X019838Y002517D02*
X019687Y002517D01*
X019693Y002520D02*
X019830Y002520D01*
X019821Y002522D02*
X019699Y002522D01*
X019705Y002525D02*
X019813Y002525D01*
X019805Y002527D02*
X019717Y002527D01*
X019732Y002529D02*
X019796Y002529D01*
X019761Y002532D02*
X019748Y002532D01*
X019752Y003477D02*
X019714Y003477D01*
X019676Y003486D01*
X019642Y003502D01*
X019612Y003526D01*
X019588Y003555D01*
X019572Y003590D01*
X019563Y003627D01*
X019563Y004099D01*
X019957Y004099D01*
X019957Y004097D02*
X019563Y004097D01*
X019563Y004099D02*
X019566Y004143D01*
X019953Y004143D01*
X019953Y004141D02*
X019566Y004141D01*
X019566Y004143D02*
X019579Y004186D01*
X019601Y004224D01*
X019631Y004256D01*
X019667Y004281D01*
X019708Y004297D01*
X019752Y004304D01*
X019795Y004301D01*
X019837Y004289D01*
X019687Y004289D01*
X019681Y004287D02*
X019842Y004287D01*
X019846Y004284D02*
X019675Y004284D01*
X019669Y004282D02*
X019850Y004282D01*
X019855Y004279D02*
X019665Y004279D01*
X019661Y004277D02*
X019859Y004277D01*
X019863Y004275D02*
X019658Y004275D01*
X019654Y004272D02*
X019868Y004272D01*
X019872Y004270D02*
X019650Y004270D01*
X019647Y004267D02*
X019876Y004267D01*
X019876Y004268D02*
X019908Y004238D01*
X019614Y004238D01*
X019612Y004236D02*
X019910Y004236D01*
X019908Y004238D02*
X019933Y004203D01*
X019950Y004162D01*
X019957Y004119D01*
X019957Y003647D01*
X019948Y003605D01*
X019930Y003567D01*
X019905Y003534D01*
X019872Y003507D01*
X019636Y003507D01*
X019633Y003509D02*
X019875Y003509D01*
X019872Y003507D02*
X019835Y003488D01*
X019794Y003478D01*
X019752Y003477D01*
X019765Y003478D02*
X019712Y003478D01*
X019701Y003480D02*
X019802Y003480D01*
X019812Y003482D02*
X019690Y003482D01*
X019680Y003485D02*
X019821Y003485D01*
X019831Y003487D02*
X019673Y003487D01*
X019668Y003490D02*
X019838Y003490D01*
X019843Y003492D02*
X019663Y003492D01*
X019657Y003495D02*
X019848Y003495D01*
X019852Y003497D02*
X019652Y003497D01*
X019647Y003500D02*
X019857Y003500D01*
X019862Y003502D02*
X019642Y003502D01*
X019639Y003504D02*
X019867Y003504D01*
X019878Y003512D02*
X019630Y003512D01*
X019627Y003514D02*
X019881Y003514D01*
X019884Y003517D02*
X019624Y003517D01*
X019621Y003519D02*
X019887Y003519D01*
X019890Y003521D02*
X019617Y003521D01*
X019614Y003524D02*
X019893Y003524D01*
X019896Y003526D02*
X019612Y003526D01*
X019610Y003529D02*
X019899Y003529D01*
X019901Y003531D02*
X019608Y003531D01*
X019606Y003534D02*
X019904Y003534D01*
X019906Y003536D02*
X019604Y003536D01*
X019602Y003539D02*
X019908Y003539D01*
X019910Y003541D02*
X019600Y003541D01*
X019598Y003543D02*
X019912Y003543D01*
X019914Y003546D02*
X019596Y003546D01*
X019594Y003548D02*
X019916Y003548D01*
X019918Y003551D02*
X019592Y003551D01*
X019590Y003553D02*
X019920Y003553D01*
X019921Y003556D02*
X019588Y003556D01*
X019587Y003558D02*
X019923Y003558D01*
X019925Y003560D02*
X019586Y003560D01*
X019585Y003563D02*
X019927Y003563D01*
X019929Y003565D02*
X019583Y003565D01*
X019582Y003568D02*
X019931Y003568D01*
X019932Y003570D02*
X019581Y003570D01*
X019580Y003573D02*
X019933Y003573D01*
X019934Y003575D02*
X019579Y003575D01*
X019577Y003578D02*
X019935Y003578D01*
X019936Y003580D02*
X019576Y003580D01*
X019575Y003582D02*
X019937Y003582D01*
X019938Y003585D02*
X019574Y003585D01*
X019573Y003587D02*
X019940Y003587D01*
X019941Y003590D02*
X019572Y003590D01*
X019571Y003592D02*
X019942Y003592D01*
X019943Y003595D02*
X019570Y003595D01*
X019570Y003597D02*
X019944Y003597D01*
X019945Y003599D02*
X019569Y003599D01*
X019569Y003602D02*
X019946Y003602D01*
X019947Y003604D02*
X019568Y003604D01*
X019568Y003607D02*
X019948Y003607D01*
X019949Y003609D02*
X019567Y003609D01*
X019566Y003612D02*
X019949Y003612D01*
X019950Y003614D02*
X019566Y003614D01*
X019565Y003617D02*
X019950Y003617D01*
X019951Y003619D02*
X019565Y003619D01*
X019564Y003621D02*
X019951Y003621D01*
X019952Y003624D02*
X019564Y003624D01*
X019563Y003626D02*
X019952Y003626D01*
X019953Y003629D02*
X019563Y003629D01*
X019563Y003631D02*
X019953Y003631D01*
X019954Y003634D02*
X019563Y003634D01*
X019563Y003636D02*
X019954Y003636D01*
X019955Y003638D02*
X019563Y003638D01*
X019563Y003641D02*
X019955Y003641D01*
X019956Y003643D02*
X019563Y003643D01*
X019563Y003646D02*
X019956Y003646D01*
X019957Y003648D02*
X019563Y003648D01*
X019563Y003651D02*
X019957Y003651D01*
X019957Y003653D02*
X019563Y003653D01*
X019563Y003656D02*
X019957Y003656D01*
X019957Y003658D02*
X019563Y003658D01*
X019563Y003660D02*
X019957Y003660D01*
X019957Y003663D02*
X019563Y003663D01*
X019563Y003665D02*
X019957Y003665D01*
X019957Y003668D02*
X019563Y003668D01*
X019563Y003670D02*
X019957Y003670D01*
X019957Y003673D02*
X019563Y003673D01*
X019563Y003675D02*
X019957Y003675D01*
X019957Y003677D02*
X019563Y003677D01*
X019563Y003680D02*
X019957Y003680D01*
X019957Y003682D02*
X019563Y003682D01*
X019563Y003685D02*
X019957Y003685D01*
X019957Y003687D02*
X019563Y003687D01*
X019563Y003690D02*
X019957Y003690D01*
X019957Y003692D02*
X019563Y003692D01*
X019563Y003695D02*
X019957Y003695D01*
X019957Y003697D02*
X019563Y003697D01*
X019563Y003699D02*
X019957Y003699D01*
X019957Y003702D02*
X019563Y003702D01*
X019563Y003704D02*
X019957Y003704D01*
X019957Y003707D02*
X019563Y003707D01*
X019563Y003709D02*
X019957Y003709D01*
X019957Y003712D02*
X019563Y003712D01*
X019563Y003714D02*
X019957Y003714D01*
X019957Y003716D02*
X019563Y003716D01*
X019563Y003719D02*
X019957Y003719D01*
X019957Y003721D02*
X019563Y003721D01*
X019563Y003724D02*
X019957Y003724D01*
X019957Y003726D02*
X019563Y003726D01*
X019563Y003729D02*
X019957Y003729D01*
X019957Y003731D02*
X019563Y003731D01*
X019563Y003733D02*
X019957Y003733D01*
X019957Y003736D02*
X019563Y003736D01*
X019563Y003738D02*
X019957Y003738D01*
X019957Y003741D02*
X019563Y003741D01*
X019563Y003743D02*
X019957Y003743D01*
X019957Y003746D02*
X019563Y003746D01*
X019563Y003748D02*
X019957Y003748D01*
X019957Y003751D02*
X019563Y003751D01*
X019563Y003753D02*
X019957Y003753D01*
X019957Y003755D02*
X019563Y003755D01*
X019563Y003758D02*
X019957Y003758D01*
X019957Y003760D02*
X019563Y003760D01*
X019563Y003763D02*
X019957Y003763D01*
X019957Y003765D02*
X019563Y003765D01*
X019563Y003768D02*
X019957Y003768D01*
X019957Y003770D02*
X019563Y003770D01*
X019563Y003772D02*
X019957Y003772D01*
X019957Y003775D02*
X019563Y003775D01*
X019563Y003777D02*
X019957Y003777D01*
X019957Y003780D02*
X019563Y003780D01*
X019563Y003782D02*
X019957Y003782D01*
X019957Y003785D02*
X019563Y003785D01*
X019563Y003787D02*
X019957Y003787D01*
X019957Y003790D02*
X019563Y003790D01*
X019563Y003792D02*
X019957Y003792D01*
X019957Y003794D02*
X019563Y003794D01*
X019563Y003797D02*
X019957Y003797D01*
X019957Y003799D02*
X019563Y003799D01*
X019563Y003802D02*
X019957Y003802D01*
X019957Y003804D02*
X019563Y003804D01*
X019563Y003807D02*
X019957Y003807D01*
X019957Y003809D02*
X019563Y003809D01*
X019563Y003811D02*
X019957Y003811D01*
X019957Y003814D02*
X019563Y003814D01*
X019563Y003816D02*
X019957Y003816D01*
X019957Y003819D02*
X019563Y003819D01*
X019563Y003821D02*
X019957Y003821D01*
X019957Y003824D02*
X019563Y003824D01*
X019563Y003826D02*
X019957Y003826D01*
X019957Y003829D02*
X019563Y003829D01*
X019563Y003831D02*
X019957Y003831D01*
X019957Y003833D02*
X019563Y003833D01*
X019563Y003836D02*
X019957Y003836D01*
X019957Y003838D02*
X019563Y003838D01*
X019563Y003841D02*
X019957Y003841D01*
X019957Y003843D02*
X019563Y003843D01*
X019563Y003846D02*
X019957Y003846D01*
X019957Y003848D02*
X019563Y003848D01*
X019563Y003850D02*
X019957Y003850D01*
X019957Y003853D02*
X019563Y003853D01*
X019563Y003855D02*
X019957Y003855D01*
X019957Y003858D02*
X019563Y003858D01*
X019563Y003860D02*
X019957Y003860D01*
X019957Y003863D02*
X019563Y003863D01*
X019563Y003865D02*
X019957Y003865D01*
X019957Y003868D02*
X019563Y003868D01*
X019563Y003870D02*
X019957Y003870D01*
X019957Y003872D02*
X019563Y003872D01*
X019563Y003875D02*
X019957Y003875D01*
X019957Y003877D02*
X019563Y003877D01*
X019563Y003880D02*
X019957Y003880D01*
X019957Y003882D02*
X019563Y003882D01*
X019563Y003885D02*
X019957Y003885D01*
X019957Y003887D02*
X019563Y003887D01*
X019563Y003889D02*
X019957Y003889D01*
X019957Y003892D02*
X019563Y003892D01*
X019563Y003894D02*
X019957Y003894D01*
X019957Y003897D02*
X019563Y003897D01*
X019563Y003899D02*
X019957Y003899D01*
X019957Y003902D02*
X019563Y003902D01*
X019563Y003904D02*
X019957Y003904D01*
X019957Y003907D02*
X019563Y003907D01*
X019563Y003909D02*
X019957Y003909D01*
X019957Y003911D02*
X019563Y003911D01*
X019563Y003914D02*
X019957Y003914D01*
X019957Y003916D02*
X019563Y003916D01*
X019563Y003919D02*
X019957Y003919D01*
X019957Y003921D02*
X019563Y003921D01*
X019563Y003924D02*
X019957Y003924D01*
X019957Y003926D02*
X019563Y003926D01*
X019563Y003928D02*
X019957Y003928D01*
X019957Y003931D02*
X019563Y003931D01*
X019563Y003933D02*
X019957Y003933D01*
X019957Y003936D02*
X019563Y003936D01*
X019563Y003938D02*
X019957Y003938D01*
X019957Y003941D02*
X019563Y003941D01*
X019563Y003943D02*
X019957Y003943D01*
X019957Y003946D02*
X019563Y003946D01*
X019563Y003948D02*
X019957Y003948D01*
X019957Y003950D02*
X019563Y003950D01*
X019563Y003953D02*
X019957Y003953D01*
X019957Y003955D02*
X019563Y003955D01*
X019563Y003958D02*
X019957Y003958D01*
X019957Y003960D02*
X019563Y003960D01*
X019563Y003963D02*
X019957Y003963D01*
X019957Y003965D02*
X019563Y003965D01*
X019563Y003967D02*
X019957Y003967D01*
X019957Y003970D02*
X019563Y003970D01*
X019563Y003972D02*
X019957Y003972D01*
X019957Y003975D02*
X019563Y003975D01*
X019563Y003977D02*
X019957Y003977D01*
X019957Y003980D02*
X019563Y003980D01*
X019563Y003982D02*
X019957Y003982D01*
X019957Y003985D02*
X019563Y003985D01*
X019563Y003987D02*
X019957Y003987D01*
X019957Y003989D02*
X019563Y003989D01*
X019563Y003992D02*
X019957Y003992D01*
X019957Y003994D02*
X019563Y003994D01*
X019563Y003997D02*
X019957Y003997D01*
X019957Y003999D02*
X019563Y003999D01*
X019563Y004002D02*
X019957Y004002D01*
X019957Y004004D02*
X019563Y004004D01*
X019563Y004006D02*
X019957Y004006D01*
X019957Y004009D02*
X019563Y004009D01*
X019563Y004011D02*
X019957Y004011D01*
X019957Y004014D02*
X019563Y004014D01*
X019563Y004016D02*
X019957Y004016D01*
X019957Y004019D02*
X019563Y004019D01*
X019563Y004021D02*
X019957Y004021D01*
X019957Y004024D02*
X019563Y004024D01*
X019563Y004026D02*
X019957Y004026D01*
X019957Y004028D02*
X019563Y004028D01*
X019563Y004031D02*
X019957Y004031D01*
X019957Y004033D02*
X019563Y004033D01*
X019563Y004036D02*
X019957Y004036D01*
X019957Y004038D02*
X019563Y004038D01*
X019563Y004041D02*
X019957Y004041D01*
X019957Y004043D02*
X019563Y004043D01*
X019563Y004045D02*
X019957Y004045D01*
X019957Y004048D02*
X019563Y004048D01*
X019563Y004050D02*
X019957Y004050D01*
X019957Y004053D02*
X019563Y004053D01*
X019563Y004055D02*
X019957Y004055D01*
X019957Y004058D02*
X019563Y004058D01*
X019563Y004060D02*
X019957Y004060D01*
X019957Y004063D02*
X019563Y004063D01*
X019563Y004065D02*
X019957Y004065D01*
X019957Y004067D02*
X019563Y004067D01*
X019563Y004070D02*
X019957Y004070D01*
X019957Y004072D02*
X019563Y004072D01*
X019563Y004075D02*
X019957Y004075D01*
X019957Y004077D02*
X019563Y004077D01*
X019563Y004080D02*
X019957Y004080D01*
X019957Y004082D02*
X019563Y004082D01*
X019563Y004084D02*
X019957Y004084D01*
X019957Y004087D02*
X019563Y004087D01*
X019563Y004089D02*
X019957Y004089D01*
X019957Y004092D02*
X019563Y004092D01*
X019563Y004094D02*
X019957Y004094D01*
X019957Y004102D02*
X019563Y004102D01*
X019563Y004104D02*
X019957Y004104D01*
X019957Y004106D02*
X019563Y004106D01*
X019564Y004109D02*
X019957Y004109D01*
X019957Y004111D02*
X019564Y004111D01*
X019564Y004114D02*
X019957Y004114D01*
X019957Y004116D02*
X019564Y004116D01*
X019564Y004119D02*
X019957Y004119D01*
X019956Y004121D02*
X019564Y004121D01*
X019565Y004123D02*
X019956Y004123D01*
X019955Y004126D02*
X019565Y004126D01*
X019565Y004128D02*
X019955Y004128D01*
X019955Y004131D02*
X019565Y004131D01*
X019565Y004133D02*
X019954Y004133D01*
X019954Y004136D02*
X019566Y004136D01*
X019566Y004138D02*
X019953Y004138D01*
X019952Y004145D02*
X019567Y004145D01*
X019567Y004148D02*
X019952Y004148D01*
X019951Y004150D02*
X019568Y004150D01*
X019569Y004153D02*
X019951Y004153D01*
X019951Y004155D02*
X019570Y004155D01*
X019570Y004158D02*
X019950Y004158D01*
X019950Y004160D02*
X019571Y004160D01*
X019572Y004162D02*
X019949Y004162D01*
X019948Y004165D02*
X019573Y004165D01*
X019573Y004167D02*
X019947Y004167D01*
X019946Y004170D02*
X019574Y004170D01*
X019575Y004172D02*
X019945Y004172D01*
X019944Y004175D02*
X019576Y004175D01*
X019576Y004177D02*
X019943Y004177D01*
X019942Y004180D02*
X019577Y004180D01*
X019578Y004182D02*
X019941Y004182D01*
X019940Y004184D02*
X019579Y004184D01*
X019580Y004187D02*
X019939Y004187D01*
X019938Y004189D02*
X019581Y004189D01*
X019582Y004192D02*
X019937Y004192D01*
X019937Y004194D02*
X019584Y004194D01*
X019585Y004197D02*
X019936Y004197D01*
X019935Y004199D02*
X019587Y004199D01*
X019588Y004201D02*
X019934Y004201D01*
X019932Y004204D02*
X019589Y004204D01*
X019591Y004206D02*
X019930Y004206D01*
X019929Y004209D02*
X019592Y004209D01*
X019594Y004211D02*
X019927Y004211D01*
X019925Y004214D02*
X019595Y004214D01*
X019596Y004216D02*
X019924Y004216D01*
X019922Y004219D02*
X019598Y004219D01*
X019599Y004221D02*
X019920Y004221D01*
X019919Y004223D02*
X019601Y004223D01*
X019603Y004226D02*
X019917Y004226D01*
X019915Y004228D02*
X019605Y004228D01*
X019607Y004231D02*
X019913Y004231D01*
X019912Y004233D02*
X019609Y004233D01*
X019616Y004240D02*
X019906Y004240D01*
X019903Y004243D02*
X019618Y004243D01*
X019621Y004245D02*
X019900Y004245D01*
X019898Y004248D02*
X019623Y004248D01*
X019625Y004250D02*
X019895Y004250D01*
X019892Y004253D02*
X019627Y004253D01*
X019630Y004255D02*
X019890Y004255D01*
X019887Y004258D02*
X019633Y004258D01*
X019636Y004260D02*
X019884Y004260D01*
X019881Y004262D02*
X019640Y004262D01*
X019643Y004265D02*
X019879Y004265D01*
X019876Y004268D02*
X019837Y004289D01*
X019829Y004292D02*
X019694Y004292D01*
X019700Y004294D02*
X019821Y004294D01*
X019812Y004297D02*
X019706Y004297D01*
X019718Y004299D02*
X019804Y004299D01*
X019796Y004301D02*
X019734Y004301D01*
X019750Y004304D02*
X019757Y004304D01*
X016838Y016059D02*
X016916Y016082D01*
X016988Y016120D01*
X017051Y016172D01*
X017102Y016235D01*
X017141Y016307D01*
X016375Y016307D01*
X016376Y016305D02*
X017140Y016305D01*
X017141Y016307D02*
X017164Y016384D01*
X017172Y016465D01*
X017172Y017552D01*
X017166Y017624D01*
X017147Y017694D01*
X016368Y017694D01*
X016349Y017624D01*
X016343Y017552D01*
X016343Y016465D01*
X016349Y016393D01*
X016368Y016324D01*
X016398Y016258D01*
X016440Y016199D01*
X016491Y016148D01*
X016550Y016106D01*
X016616Y016076D01*
X016686Y016057D01*
X016758Y016051D01*
X016838Y016059D01*
X016839Y016059D02*
X016679Y016059D01*
X016670Y016061D02*
X016847Y016061D01*
X016855Y016064D02*
X016660Y016064D01*
X016651Y016066D02*
X016863Y016066D01*
X016871Y016068D02*
X016642Y016068D01*
X016633Y016071D02*
X016879Y016071D01*
X016887Y016073D02*
X016624Y016073D01*
X016615Y016076D02*
X016895Y016076D01*
X016903Y016078D02*
X016610Y016078D01*
X016605Y016081D02*
X016911Y016081D01*
X016918Y016083D02*
X016600Y016083D01*
X016594Y016086D02*
X016923Y016086D01*
X016927Y016088D02*
X016589Y016088D01*
X016584Y016090D02*
X016932Y016090D01*
X016936Y016093D02*
X016579Y016093D01*
X016573Y016095D02*
X016941Y016095D01*
X016945Y016098D02*
X016568Y016098D01*
X016563Y016100D02*
X016950Y016100D01*
X016955Y016103D02*
X016558Y016103D01*
X016553Y016105D02*
X016959Y016105D01*
X016964Y016107D02*
X016548Y016107D01*
X016545Y016110D02*
X016968Y016110D01*
X016973Y016112D02*
X016541Y016112D01*
X016538Y016115D02*
X016977Y016115D01*
X016982Y016117D02*
X016534Y016117D01*
X016531Y016120D02*
X016986Y016120D01*
X016990Y016122D02*
X016527Y016122D01*
X016524Y016124D02*
X016993Y016124D01*
X016996Y016127D02*
X016520Y016127D01*
X016517Y016129D02*
X016999Y016129D01*
X017002Y016132D02*
X016513Y016132D01*
X016510Y016134D02*
X017005Y016134D01*
X017008Y016137D02*
X016506Y016137D01*
X016503Y016139D02*
X017011Y016139D01*
X017014Y016142D02*
X016500Y016142D01*
X016496Y016144D02*
X017017Y016144D01*
X017020Y016146D02*
X016493Y016146D01*
X016490Y016149D02*
X017023Y016149D01*
X017026Y016151D02*
X016487Y016151D01*
X016485Y016154D02*
X017029Y016154D01*
X017032Y016156D02*
X016482Y016156D01*
X016480Y016159D02*
X017035Y016159D01*
X017037Y016161D02*
X016477Y016161D01*
X016475Y016163D02*
X017040Y016163D01*
X017043Y016166D02*
X016473Y016166D01*
X016470Y016168D02*
X017046Y016168D01*
X017049Y016171D02*
X016468Y016171D01*
X016465Y016173D02*
X017052Y016173D01*
X017054Y016176D02*
X016463Y016176D01*
X016460Y016178D02*
X017056Y016178D01*
X017058Y016181D02*
X016458Y016181D01*
X016455Y016183D02*
X017060Y016183D01*
X017062Y016185D02*
X016453Y016185D01*
X016451Y016188D02*
X017064Y016188D01*
X017066Y016190D02*
X016448Y016190D01*
X016446Y016193D02*
X017068Y016193D01*
X017070Y016195D02*
X016443Y016195D01*
X016441Y016198D02*
X017072Y016198D01*
X017074Y016200D02*
X016439Y016200D01*
X016437Y016202D02*
X017076Y016202D01*
X017078Y016205D02*
X016435Y016205D01*
X016434Y016207D02*
X017080Y016207D01*
X017082Y016210D02*
X016432Y016210D01*
X016430Y016212D02*
X017084Y016212D01*
X017086Y016215D02*
X016429Y016215D01*
X016427Y016217D02*
X017088Y016217D01*
X017090Y016220D02*
X016425Y016220D01*
X016423Y016222D02*
X017092Y016222D01*
X017094Y016224D02*
X016422Y016224D01*
X016420Y016227D02*
X017096Y016227D01*
X017098Y016229D02*
X016418Y016229D01*
X016417Y016232D02*
X017100Y016232D01*
X017102Y016234D02*
X016415Y016234D01*
X016413Y016237D02*
X017103Y016237D01*
X017105Y016239D02*
X016412Y016239D01*
X016410Y016241D02*
X017106Y016241D01*
X017107Y016244D02*
X016408Y016244D01*
X016406Y016246D02*
X017109Y016246D01*
X017110Y016249D02*
X016405Y016249D01*
X016403Y016251D02*
X017111Y016251D01*
X017113Y016254D02*
X016401Y016254D01*
X016400Y016256D02*
X017114Y016256D01*
X017115Y016259D02*
X016398Y016259D01*
X016397Y016261D02*
X017116Y016261D01*
X017118Y016263D02*
X016396Y016263D01*
X016395Y016266D02*
X017119Y016266D01*
X017120Y016268D02*
X016393Y016268D01*
X016392Y016271D02*
X017122Y016271D01*
X017123Y016273D02*
X016391Y016273D01*
X016390Y016276D02*
X017124Y016276D01*
X017126Y016278D02*
X016389Y016278D01*
X016388Y016280D02*
X017127Y016280D01*
X017128Y016283D02*
X016387Y016283D01*
X016385Y016285D02*
X017129Y016285D01*
X017131Y016288D02*
X016384Y016288D01*
X016383Y016290D02*
X017132Y016290D01*
X017133Y016293D02*
X016382Y016293D01*
X016381Y016295D02*
X017135Y016295D01*
X017136Y016298D02*
X016380Y016298D01*
X016379Y016300D02*
X017137Y016300D01*
X017139Y016302D02*
X016378Y016302D01*
X016374Y016310D02*
X017142Y016310D01*
X017142Y016312D02*
X016373Y016312D01*
X016372Y016315D02*
X017143Y016315D01*
X017144Y016317D02*
X016371Y016317D01*
X016370Y016319D02*
X017145Y016319D01*
X017145Y016322D02*
X016368Y016322D01*
X016367Y016324D02*
X017146Y016324D01*
X017147Y016327D02*
X016367Y016327D01*
X016366Y016329D02*
X017148Y016329D01*
X017148Y016332D02*
X016366Y016332D01*
X016365Y016334D02*
X017149Y016334D01*
X017150Y016337D02*
X016364Y016337D01*
X016364Y016339D02*
X017151Y016339D01*
X017151Y016341D02*
X016363Y016341D01*
X016362Y016344D02*
X017152Y016344D01*
X017153Y016346D02*
X016362Y016346D01*
X016361Y016349D02*
X017154Y016349D01*
X017154Y016351D02*
X016360Y016351D01*
X016360Y016354D02*
X017155Y016354D01*
X017156Y016356D02*
X016359Y016356D01*
X016358Y016358D02*
X017157Y016358D01*
X017157Y016361D02*
X016358Y016361D01*
X016357Y016363D02*
X017158Y016363D01*
X017159Y016366D02*
X016356Y016366D01*
X016356Y016368D02*
X017159Y016368D01*
X017160Y016371D02*
X016355Y016371D01*
X016354Y016373D02*
X017161Y016373D01*
X017162Y016376D02*
X016354Y016376D01*
X016353Y016378D02*
X017162Y016378D01*
X017163Y016380D02*
X016352Y016380D01*
X016352Y016383D02*
X017164Y016383D01*
X017164Y016385D02*
X016351Y016385D01*
X016351Y016388D02*
X017165Y016388D01*
X017165Y016390D02*
X016350Y016390D01*
X016349Y016393D02*
X017165Y016393D01*
X017165Y016395D02*
X016349Y016395D01*
X016349Y016397D02*
X017166Y016397D01*
X017166Y016400D02*
X016348Y016400D01*
X016348Y016402D02*
X017166Y016402D01*
X017166Y016405D02*
X016348Y016405D01*
X016348Y016407D02*
X017167Y016407D01*
X017167Y016410D02*
X016348Y016410D01*
X016347Y016412D02*
X017167Y016412D01*
X017167Y016415D02*
X016347Y016415D01*
X016347Y016417D02*
X017168Y016417D01*
X017168Y016419D02*
X016347Y016419D01*
X016346Y016422D02*
X017168Y016422D01*
X017168Y016424D02*
X016346Y016424D01*
X016346Y016427D02*
X017169Y016427D01*
X017169Y016429D02*
X016346Y016429D01*
X016346Y016432D02*
X017169Y016432D01*
X017169Y016434D02*
X016345Y016434D01*
X016345Y016436D02*
X017170Y016436D01*
X017170Y016439D02*
X016345Y016439D01*
X016345Y016441D02*
X017170Y016441D01*
X017170Y016444D02*
X016345Y016444D01*
X016344Y016446D02*
X017170Y016446D01*
X017171Y016449D02*
X016344Y016449D01*
X016344Y016451D02*
X017171Y016451D01*
X017171Y016454D02*
X016344Y016454D01*
X016344Y016456D02*
X017171Y016456D01*
X017172Y016458D02*
X016343Y016458D01*
X016343Y016461D02*
X017172Y016461D01*
X017172Y016463D02*
X016343Y016463D01*
X016343Y016466D02*
X017172Y016466D01*
X017172Y016468D02*
X016343Y016468D01*
X016343Y016471D02*
X017172Y016471D01*
X017172Y016473D02*
X016343Y016473D01*
X016343Y016475D02*
X017172Y016475D01*
X017172Y016478D02*
X016343Y016478D01*
X016343Y016480D02*
X017172Y016480D01*
X017172Y016483D02*
X016343Y016483D01*
X016343Y016485D02*
X017172Y016485D01*
X017172Y016488D02*
X016343Y016488D01*
X016343Y016490D02*
X017172Y016490D01*
X017172Y016493D02*
X016343Y016493D01*
X016343Y016495D02*
X017172Y016495D01*
X017172Y016497D02*
X016343Y016497D01*
X016343Y016500D02*
X017172Y016500D01*
X017172Y016502D02*
X016343Y016502D01*
X016343Y016505D02*
X017172Y016505D01*
X017172Y016507D02*
X016343Y016507D01*
X016343Y016510D02*
X017172Y016510D01*
X017172Y016512D02*
X016343Y016512D01*
X016343Y016514D02*
X017172Y016514D01*
X017172Y016517D02*
X016343Y016517D01*
X016343Y016519D02*
X017172Y016519D01*
X017172Y016522D02*
X016343Y016522D01*
X016343Y016524D02*
X017172Y016524D01*
X017172Y016527D02*
X016343Y016527D01*
X016343Y016529D02*
X017172Y016529D01*
X017172Y016532D02*
X016343Y016532D01*
X016343Y016534D02*
X017172Y016534D01*
X017172Y016536D02*
X016343Y016536D01*
X016343Y016539D02*
X017172Y016539D01*
X017172Y016541D02*
X016343Y016541D01*
X016343Y016544D02*
X017172Y016544D01*
X017172Y016546D02*
X016343Y016546D01*
X016343Y016549D02*
X017172Y016549D01*
X017172Y016551D02*
X016343Y016551D01*
X016343Y016553D02*
X017172Y016553D01*
X017172Y016556D02*
X016343Y016556D01*
X016343Y016558D02*
X017172Y016558D01*
X017172Y016561D02*
X016343Y016561D01*
X016343Y016563D02*
X017172Y016563D01*
X017172Y016566D02*
X016343Y016566D01*
X016343Y016568D02*
X017172Y016568D01*
X017172Y016571D02*
X016343Y016571D01*
X016343Y016573D02*
X017172Y016573D01*
X017172Y016575D02*
X016343Y016575D01*
X016343Y016578D02*
X017172Y016578D01*
X017172Y016580D02*
X016343Y016580D01*
X016343Y016583D02*
X017172Y016583D01*
X017172Y016585D02*
X016343Y016585D01*
X016343Y016588D02*
X017172Y016588D01*
X017172Y016590D02*
X016343Y016590D01*
X016343Y016592D02*
X017172Y016592D01*
X017172Y016595D02*
X016343Y016595D01*
X016343Y016597D02*
X017172Y016597D01*
X017172Y016600D02*
X016343Y016600D01*
X016343Y016602D02*
X017172Y016602D01*
X017172Y016605D02*
X016343Y016605D01*
X016343Y016607D02*
X017172Y016607D01*
X017172Y016610D02*
X016343Y016610D01*
X016343Y016612D02*
X017172Y016612D01*
X017172Y016614D02*
X016343Y016614D01*
X016343Y016617D02*
X017172Y016617D01*
X017172Y016619D02*
X016343Y016619D01*
X016343Y016622D02*
X017172Y016622D01*
X017172Y016624D02*
X016343Y016624D01*
X016343Y016627D02*
X017172Y016627D01*
X017172Y016629D02*
X016343Y016629D01*
X016343Y016631D02*
X017172Y016631D01*
X017172Y016634D02*
X016343Y016634D01*
X016343Y016636D02*
X017172Y016636D01*
X017172Y016639D02*
X016343Y016639D01*
X016343Y016641D02*
X017172Y016641D01*
X017172Y016644D02*
X016343Y016644D01*
X016343Y016646D02*
X017172Y016646D01*
X017172Y016649D02*
X016343Y016649D01*
X016343Y016651D02*
X017172Y016651D01*
X017172Y016653D02*
X016343Y016653D01*
X016343Y016656D02*
X017172Y016656D01*
X017172Y016658D02*
X016343Y016658D01*
X016343Y016661D02*
X017172Y016661D01*
X017172Y016663D02*
X016343Y016663D01*
X016343Y016666D02*
X017172Y016666D01*
X017172Y016668D02*
X016343Y016668D01*
X016343Y016670D02*
X017172Y016670D01*
X017172Y016673D02*
X016343Y016673D01*
X016343Y016675D02*
X017172Y016675D01*
X017172Y016678D02*
X016343Y016678D01*
X016343Y016680D02*
X017172Y016680D01*
X017172Y016683D02*
X016343Y016683D01*
X016343Y016685D02*
X017172Y016685D01*
X017172Y016688D02*
X016343Y016688D01*
X016343Y016690D02*
X017172Y016690D01*
X017172Y016692D02*
X016343Y016692D01*
X016343Y016695D02*
X017172Y016695D01*
X017172Y016697D02*
X016343Y016697D01*
X016343Y016700D02*
X017172Y016700D01*
X017172Y016702D02*
X016343Y016702D01*
X016343Y016705D02*
X017172Y016705D01*
X017172Y016707D02*
X016343Y016707D01*
X016343Y016709D02*
X017172Y016709D01*
X017172Y016712D02*
X016343Y016712D01*
X016343Y016714D02*
X017172Y016714D01*
X017172Y016717D02*
X016343Y016717D01*
X016343Y016719D02*
X017172Y016719D01*
X017172Y016722D02*
X016343Y016722D01*
X016343Y016724D02*
X017172Y016724D01*
X017172Y016726D02*
X016343Y016726D01*
X016343Y016729D02*
X017172Y016729D01*
X017172Y016731D02*
X016343Y016731D01*
X016343Y016734D02*
X017172Y016734D01*
X017172Y016736D02*
X016343Y016736D01*
X016343Y016739D02*
X017172Y016739D01*
X017172Y016741D02*
X016343Y016741D01*
X016343Y016744D02*
X017172Y016744D01*
X017172Y016746D02*
X016343Y016746D01*
X016343Y016748D02*
X017172Y016748D01*
X017172Y016751D02*
X016343Y016751D01*
X016343Y016753D02*
X017172Y016753D01*
X017172Y016756D02*
X016343Y016756D01*
X016343Y016758D02*
X017172Y016758D01*
X017172Y016761D02*
X016343Y016761D01*
X016343Y016763D02*
X017172Y016763D01*
X017172Y016765D02*
X016343Y016765D01*
X016343Y016768D02*
X017172Y016768D01*
X017172Y016770D02*
X016343Y016770D01*
X016343Y016773D02*
X017172Y016773D01*
X017172Y016775D02*
X016343Y016775D01*
X016343Y016778D02*
X017172Y016778D01*
X017172Y016780D02*
X016343Y016780D01*
X016343Y016783D02*
X017172Y016783D01*
X017172Y016785D02*
X016343Y016785D01*
X016343Y016787D02*
X017172Y016787D01*
X017172Y016790D02*
X016343Y016790D01*
X016343Y016792D02*
X017172Y016792D01*
X017172Y016795D02*
X016343Y016795D01*
X016343Y016797D02*
X017172Y016797D01*
X017172Y016800D02*
X016343Y016800D01*
X016343Y016802D02*
X017172Y016802D01*
X017172Y016804D02*
X016343Y016804D01*
X016343Y016807D02*
X017172Y016807D01*
X017172Y016809D02*
X016343Y016809D01*
X016343Y016812D02*
X017172Y016812D01*
X017172Y016814D02*
X016343Y016814D01*
X016343Y016817D02*
X017172Y016817D01*
X017172Y016819D02*
X016343Y016819D01*
X016343Y016822D02*
X017172Y016822D01*
X017172Y016824D02*
X016343Y016824D01*
X016343Y016826D02*
X017172Y016826D01*
X017172Y016829D02*
X016343Y016829D01*
X016343Y016831D02*
X017172Y016831D01*
X017172Y016834D02*
X016343Y016834D01*
X016343Y016836D02*
X017172Y016836D01*
X017172Y016839D02*
X016343Y016839D01*
X016343Y016841D02*
X017172Y016841D01*
X017172Y016843D02*
X016343Y016843D01*
X016343Y016846D02*
X017172Y016846D01*
X017172Y016848D02*
X016343Y016848D01*
X016343Y016851D02*
X017172Y016851D01*
X017172Y016853D02*
X016343Y016853D01*
X016343Y016856D02*
X017172Y016856D01*
X017172Y016858D02*
X016343Y016858D01*
X016343Y016861D02*
X017172Y016861D01*
X017172Y016863D02*
X016343Y016863D01*
X016343Y016865D02*
X017172Y016865D01*
X017172Y016868D02*
X016343Y016868D01*
X016343Y016870D02*
X017172Y016870D01*
X017172Y016873D02*
X016343Y016873D01*
X016343Y016875D02*
X017172Y016875D01*
X017172Y016878D02*
X016343Y016878D01*
X016343Y016880D02*
X017172Y016880D01*
X017172Y016882D02*
X016343Y016882D01*
X016343Y016885D02*
X017172Y016885D01*
X017172Y016887D02*
X016343Y016887D01*
X016343Y016890D02*
X017172Y016890D01*
X017172Y016892D02*
X016343Y016892D01*
X016343Y016895D02*
X017172Y016895D01*
X017172Y016897D02*
X016343Y016897D01*
X016343Y016900D02*
X017172Y016900D01*
X017172Y016902D02*
X016343Y016902D01*
X016343Y016904D02*
X017172Y016904D01*
X017172Y016907D02*
X016343Y016907D01*
X016343Y016909D02*
X017172Y016909D01*
X017172Y016912D02*
X016343Y016912D01*
X016343Y016914D02*
X017172Y016914D01*
X017172Y016917D02*
X016343Y016917D01*
X016343Y016919D02*
X017172Y016919D01*
X017172Y016921D02*
X016343Y016921D01*
X016343Y016924D02*
X017172Y016924D01*
X017172Y016926D02*
X016343Y016926D01*
X016343Y016929D02*
X017172Y016929D01*
X017172Y016931D02*
X016343Y016931D01*
X016343Y016934D02*
X017172Y016934D01*
X017172Y016936D02*
X016343Y016936D01*
X016343Y016939D02*
X017172Y016939D01*
X017172Y016941D02*
X016343Y016941D01*
X016343Y016943D02*
X017172Y016943D01*
X017172Y016946D02*
X016343Y016946D01*
X016343Y016948D02*
X017172Y016948D01*
X017172Y016951D02*
X016343Y016951D01*
X016343Y016953D02*
X017172Y016953D01*
X017172Y016956D02*
X016343Y016956D01*
X016343Y016958D02*
X017172Y016958D01*
X017172Y016960D02*
X016343Y016960D01*
X016343Y016963D02*
X017172Y016963D01*
X017172Y016965D02*
X016343Y016965D01*
X016343Y016968D02*
X017172Y016968D01*
X017172Y016970D02*
X016343Y016970D01*
X016343Y016973D02*
X017172Y016973D01*
X017172Y016975D02*
X016343Y016975D01*
X016343Y016978D02*
X017172Y016978D01*
X017172Y016980D02*
X016343Y016980D01*
X016343Y016982D02*
X017172Y016982D01*
X017172Y016985D02*
X016343Y016985D01*
X016343Y016987D02*
X017172Y016987D01*
X017172Y016990D02*
X016343Y016990D01*
X016343Y016992D02*
X017172Y016992D01*
X017172Y016995D02*
X016343Y016995D01*
X016343Y016997D02*
X017172Y016997D01*
X017172Y016999D02*
X016343Y016999D01*
X016343Y017002D02*
X017172Y017002D01*
X017172Y017004D02*
X016343Y017004D01*
X016343Y017007D02*
X017172Y017007D01*
X017172Y017009D02*
X016343Y017009D01*
X016343Y017012D02*
X017172Y017012D01*
X017172Y017014D02*
X016343Y017014D01*
X016343Y017017D02*
X017172Y017017D01*
X017172Y017019D02*
X016343Y017019D01*
X016343Y017021D02*
X017172Y017021D01*
X017172Y017024D02*
X016343Y017024D01*
X016343Y017026D02*
X017172Y017026D01*
X017172Y017029D02*
X016343Y017029D01*
X016343Y017031D02*
X017172Y017031D01*
X017172Y017034D02*
X016343Y017034D01*
X016343Y017036D02*
X017172Y017036D01*
X017172Y017038D02*
X016343Y017038D01*
X016343Y017041D02*
X017172Y017041D01*
X017172Y017043D02*
X016343Y017043D01*
X016343Y017046D02*
X017172Y017046D01*
X017172Y017048D02*
X016343Y017048D01*
X016343Y017051D02*
X017172Y017051D01*
X017172Y017053D02*
X016343Y017053D01*
X016343Y017056D02*
X017172Y017056D01*
X017172Y017058D02*
X016343Y017058D01*
X016343Y017060D02*
X017172Y017060D01*
X017172Y017063D02*
X016343Y017063D01*
X016343Y017065D02*
X017172Y017065D01*
X017172Y017068D02*
X016343Y017068D01*
X016343Y017070D02*
X017172Y017070D01*
X017172Y017073D02*
X016343Y017073D01*
X016343Y017075D02*
X017172Y017075D01*
X017172Y017077D02*
X016343Y017077D01*
X016343Y017080D02*
X017172Y017080D01*
X017172Y017082D02*
X016343Y017082D01*
X016343Y017085D02*
X017172Y017085D01*
X017172Y017087D02*
X016343Y017087D01*
X016343Y017090D02*
X017172Y017090D01*
X017172Y017092D02*
X016343Y017092D01*
X016343Y017095D02*
X017172Y017095D01*
X017172Y017097D02*
X016343Y017097D01*
X016343Y017099D02*
X017172Y017099D01*
X017172Y017102D02*
X016343Y017102D01*
X016343Y017104D02*
X017172Y017104D01*
X017172Y017107D02*
X016343Y017107D01*
X016343Y017109D02*
X017172Y017109D01*
X017172Y017112D02*
X016343Y017112D01*
X016343Y017114D02*
X017172Y017114D01*
X017172Y017116D02*
X016343Y017116D01*
X016343Y017119D02*
X017172Y017119D01*
X017172Y017121D02*
X016343Y017121D01*
X016343Y017124D02*
X017172Y017124D01*
X017172Y017126D02*
X016343Y017126D01*
X016343Y017129D02*
X017172Y017129D01*
X017172Y017131D02*
X016343Y017131D01*
X016343Y017134D02*
X017172Y017134D01*
X017172Y017136D02*
X016343Y017136D01*
X016343Y017138D02*
X017172Y017138D01*
X017172Y017141D02*
X016343Y017141D01*
X016343Y017143D02*
X017172Y017143D01*
X017172Y017146D02*
X016343Y017146D01*
X016343Y017148D02*
X017172Y017148D01*
X017172Y017151D02*
X016343Y017151D01*
X016343Y017153D02*
X017172Y017153D01*
X017172Y017155D02*
X016343Y017155D01*
X016343Y017158D02*
X017172Y017158D01*
X017172Y017160D02*
X016343Y017160D01*
X016343Y017163D02*
X017172Y017163D01*
X017172Y017165D02*
X016343Y017165D01*
X016343Y017168D02*
X017172Y017168D01*
X017172Y017170D02*
X016343Y017170D01*
X016343Y017173D02*
X017172Y017173D01*
X017172Y017175D02*
X016343Y017175D01*
X016343Y017177D02*
X017172Y017177D01*
X017172Y017180D02*
X016343Y017180D01*
X016343Y017182D02*
X017172Y017182D01*
X017172Y017185D02*
X016343Y017185D01*
X016343Y017187D02*
X017172Y017187D01*
X017172Y017190D02*
X016343Y017190D01*
X016343Y017192D02*
X017172Y017192D01*
X017172Y017194D02*
X016343Y017194D01*
X016343Y017197D02*
X017172Y017197D01*
X017172Y017199D02*
X016343Y017199D01*
X016343Y017202D02*
X017172Y017202D01*
X017172Y017204D02*
X016343Y017204D01*
X016343Y017207D02*
X017172Y017207D01*
X017172Y017209D02*
X016343Y017209D01*
X016343Y017212D02*
X017172Y017212D01*
X017172Y017214D02*
X016343Y017214D01*
X016343Y017216D02*
X017172Y017216D01*
X017172Y017219D02*
X016343Y017219D01*
X016343Y017221D02*
X017172Y017221D01*
X017172Y017224D02*
X016343Y017224D01*
X016343Y017226D02*
X017172Y017226D01*
X017172Y017229D02*
X016343Y017229D01*
X016343Y017231D02*
X017172Y017231D01*
X017172Y017233D02*
X016343Y017233D01*
X016343Y017236D02*
X017172Y017236D01*
X017172Y017238D02*
X016343Y017238D01*
X016343Y017241D02*
X017172Y017241D01*
X017172Y017243D02*
X016343Y017243D01*
X016343Y017246D02*
X017172Y017246D01*
X017172Y017248D02*
X016343Y017248D01*
X016343Y017251D02*
X017172Y017251D01*
X017172Y017253D02*
X016343Y017253D01*
X016343Y017255D02*
X017172Y017255D01*
X017172Y017258D02*
X016343Y017258D01*
X016343Y017260D02*
X017172Y017260D01*
X017172Y017263D02*
X016343Y017263D01*
X016343Y017265D02*
X017172Y017265D01*
X017172Y017268D02*
X016343Y017268D01*
X016343Y017270D02*
X017172Y017270D01*
X017172Y017272D02*
X016343Y017272D01*
X016343Y017275D02*
X017172Y017275D01*
X017172Y017277D02*
X016343Y017277D01*
X016343Y017280D02*
X017172Y017280D01*
X017172Y017282D02*
X016343Y017282D01*
X016343Y017285D02*
X017172Y017285D01*
X017172Y017287D02*
X016343Y017287D01*
X016343Y017290D02*
X017172Y017290D01*
X017172Y017292D02*
X016343Y017292D01*
X016343Y017294D02*
X017172Y017294D01*
X017172Y017297D02*
X016343Y017297D01*
X016343Y017299D02*
X017172Y017299D01*
X017172Y017302D02*
X016343Y017302D01*
X016343Y017304D02*
X017172Y017304D01*
X017172Y017307D02*
X016343Y017307D01*
X016343Y017309D02*
X017172Y017309D01*
X017172Y017311D02*
X016343Y017311D01*
X016343Y017314D02*
X017172Y017314D01*
X017172Y017316D02*
X016343Y017316D01*
X016343Y017319D02*
X017172Y017319D01*
X017172Y017321D02*
X016343Y017321D01*
X016343Y017324D02*
X017172Y017324D01*
X017172Y017326D02*
X016343Y017326D01*
X016343Y017329D02*
X017172Y017329D01*
X017172Y017331D02*
X016343Y017331D01*
X016343Y017333D02*
X017172Y017333D01*
X017172Y017336D02*
X016343Y017336D01*
X016343Y017338D02*
X017172Y017338D01*
X017172Y017341D02*
X016343Y017341D01*
X016343Y017343D02*
X017172Y017343D01*
X017172Y017346D02*
X016343Y017346D01*
X016343Y017348D02*
X017172Y017348D01*
X017172Y017350D02*
X016343Y017350D01*
X016343Y017353D02*
X017172Y017353D01*
X017172Y017355D02*
X016343Y017355D01*
X016343Y017358D02*
X017172Y017358D01*
X017172Y017360D02*
X016343Y017360D01*
X016343Y017363D02*
X017172Y017363D01*
X017172Y017365D02*
X016343Y017365D01*
X016343Y017367D02*
X017172Y017367D01*
X017172Y017370D02*
X016343Y017370D01*
X016343Y017372D02*
X017172Y017372D01*
X017172Y017375D02*
X016343Y017375D01*
X016343Y017377D02*
X017172Y017377D01*
X017172Y017380D02*
X016343Y017380D01*
X016343Y017382D02*
X017172Y017382D01*
X017172Y017385D02*
X016343Y017385D01*
X016343Y017387D02*
X017172Y017387D01*
X017172Y017389D02*
X016343Y017389D01*
X016343Y017392D02*
X017172Y017392D01*
X017172Y017394D02*
X016343Y017394D01*
X016343Y017397D02*
X017172Y017397D01*
X017172Y017399D02*
X016343Y017399D01*
X016343Y017402D02*
X017172Y017402D01*
X017172Y017404D02*
X016343Y017404D01*
X016343Y017406D02*
X017172Y017406D01*
X017172Y017409D02*
X016343Y017409D01*
X016343Y017411D02*
X017172Y017411D01*
X017172Y017414D02*
X016343Y017414D01*
X016343Y017416D02*
X017172Y017416D01*
X017172Y017419D02*
X016343Y017419D01*
X016343Y017421D02*
X017172Y017421D01*
X017172Y017424D02*
X016343Y017424D01*
X016343Y017426D02*
X017172Y017426D01*
X017172Y017428D02*
X016343Y017428D01*
X016343Y017431D02*
X017172Y017431D01*
X017172Y017433D02*
X016343Y017433D01*
X016343Y017436D02*
X017172Y017436D01*
X017172Y017438D02*
X016343Y017438D01*
X016343Y017441D02*
X017172Y017441D01*
X017172Y017443D02*
X016343Y017443D01*
X016343Y017445D02*
X017172Y017445D01*
X017172Y017448D02*
X016343Y017448D01*
X016343Y017450D02*
X017172Y017450D01*
X017172Y017453D02*
X016343Y017453D01*
X016343Y017455D02*
X017172Y017455D01*
X017172Y017458D02*
X016343Y017458D01*
X016343Y017460D02*
X017172Y017460D01*
X017172Y017463D02*
X016343Y017463D01*
X016343Y017465D02*
X017172Y017465D01*
X017172Y017467D02*
X016343Y017467D01*
X016343Y017470D02*
X017172Y017470D01*
X017172Y017472D02*
X016343Y017472D01*
X016343Y017475D02*
X017172Y017475D01*
X017172Y017477D02*
X016343Y017477D01*
X016343Y017480D02*
X017172Y017480D01*
X017172Y017482D02*
X016343Y017482D01*
X016343Y017484D02*
X017172Y017484D01*
X017172Y017487D02*
X016343Y017487D01*
X016343Y017489D02*
X017172Y017489D01*
X017172Y017492D02*
X016343Y017492D01*
X016343Y017494D02*
X017172Y017494D01*
X017172Y017497D02*
X016343Y017497D01*
X016343Y017499D02*
X017172Y017499D01*
X017172Y017502D02*
X016343Y017502D01*
X016343Y017504D02*
X017172Y017504D01*
X017172Y017506D02*
X016343Y017506D01*
X016343Y017509D02*
X017172Y017509D01*
X017172Y017511D02*
X016343Y017511D01*
X016343Y017514D02*
X017172Y017514D01*
X017172Y017516D02*
X016343Y017516D01*
X016343Y017519D02*
X017172Y017519D01*
X017172Y017521D02*
X016343Y017521D01*
X016343Y017523D02*
X017172Y017523D01*
X017172Y017526D02*
X016343Y017526D01*
X016343Y017528D02*
X017172Y017528D01*
X017172Y017531D02*
X016343Y017531D01*
X016343Y017533D02*
X017172Y017533D01*
X017172Y017536D02*
X016343Y017536D01*
X016343Y017538D02*
X017172Y017538D01*
X017172Y017541D02*
X016343Y017541D01*
X016343Y017543D02*
X017172Y017543D01*
X017172Y017545D02*
X016343Y017545D01*
X016343Y017548D02*
X017172Y017548D01*
X017172Y017550D02*
X016343Y017550D01*
X016343Y017553D02*
X017172Y017553D01*
X017172Y017555D02*
X016343Y017555D01*
X016343Y017558D02*
X017172Y017558D01*
X017172Y017560D02*
X016343Y017560D01*
X016344Y017562D02*
X017171Y017562D01*
X017171Y017565D02*
X016344Y017565D01*
X016344Y017567D02*
X017171Y017567D01*
X017171Y017570D02*
X016344Y017570D01*
X016344Y017572D02*
X017171Y017572D01*
X017170Y017575D02*
X016345Y017575D01*
X016345Y017577D02*
X017170Y017577D01*
X017170Y017580D02*
X016345Y017580D01*
X016345Y017582D02*
X017170Y017582D01*
X017170Y017584D02*
X016346Y017584D01*
X016346Y017587D02*
X017169Y017587D01*
X017169Y017589D02*
X016346Y017589D01*
X016346Y017592D02*
X017169Y017592D01*
X017169Y017594D02*
X016346Y017594D01*
X016347Y017597D02*
X017168Y017597D01*
X017168Y017599D02*
X016347Y017599D01*
X016347Y017601D02*
X017168Y017601D01*
X017168Y017604D02*
X016347Y017604D01*
X016347Y017606D02*
X017168Y017606D01*
X017167Y017609D02*
X016348Y017609D01*
X016348Y017611D02*
X017167Y017611D01*
X017167Y017614D02*
X016348Y017614D01*
X016348Y017616D02*
X017167Y017616D01*
X017167Y017619D02*
X016349Y017619D01*
X016349Y017621D02*
X017166Y017621D01*
X017166Y017623D02*
X016349Y017623D01*
X016350Y017626D02*
X017165Y017626D01*
X017165Y017628D02*
X016350Y017628D01*
X016351Y017631D02*
X017164Y017631D01*
X017164Y017633D02*
X016352Y017633D01*
X016352Y017636D02*
X017163Y017636D01*
X017162Y017638D02*
X016353Y017638D01*
X016353Y017640D02*
X017162Y017640D01*
X017161Y017643D02*
X016354Y017643D01*
X016355Y017645D02*
X017160Y017645D01*
X017160Y017648D02*
X016355Y017648D01*
X016356Y017650D02*
X017159Y017650D01*
X017158Y017653D02*
X016357Y017653D01*
X016357Y017655D02*
X017158Y017655D01*
X017157Y017658D02*
X016358Y017658D01*
X016359Y017660D02*
X017156Y017660D01*
X017156Y017662D02*
X016359Y017662D01*
X016360Y017665D02*
X017155Y017665D01*
X017154Y017667D02*
X016361Y017667D01*
X016361Y017670D02*
X017154Y017670D01*
X017153Y017672D02*
X016362Y017672D01*
X016363Y017675D02*
X017152Y017675D01*
X017152Y017677D02*
X016363Y017677D01*
X016364Y017679D02*
X017151Y017679D01*
X017150Y017682D02*
X016365Y017682D01*
X016365Y017684D02*
X017150Y017684D01*
X017149Y017687D02*
X016366Y017687D01*
X016367Y017689D02*
X017149Y017689D01*
X017148Y017692D02*
X016367Y017692D01*
X016368Y017694D02*
X016398Y017759D01*
X016440Y017818D01*
X016491Y017869D01*
X016550Y017911D01*
X016616Y017941D01*
X016686Y017960D01*
X016758Y017966D01*
X016830Y017960D01*
X016899Y017941D01*
X016965Y017911D01*
X017024Y017869D01*
X017075Y017818D01*
X017117Y017759D01*
X017147Y017694D01*
X017146Y017697D02*
X016369Y017697D01*
X016370Y017699D02*
X017145Y017699D01*
X017144Y017701D02*
X016371Y017701D01*
X016373Y017704D02*
X017143Y017704D01*
X017141Y017706D02*
X016374Y017706D01*
X016375Y017709D02*
X017140Y017709D01*
X017139Y017711D02*
X016376Y017711D01*
X016377Y017714D02*
X017138Y017714D01*
X017137Y017716D02*
X016378Y017716D01*
X016379Y017718D02*
X017136Y017718D01*
X017135Y017721D02*
X016380Y017721D01*
X016382Y017723D02*
X017133Y017723D01*
X017132Y017726D02*
X016383Y017726D01*
X016384Y017728D02*
X017131Y017728D01*
X017130Y017731D02*
X016385Y017731D01*
X016386Y017733D02*
X017129Y017733D01*
X017128Y017736D02*
X016387Y017736D01*
X016388Y017738D02*
X017127Y017738D01*
X017126Y017740D02*
X016390Y017740D01*
X016391Y017743D02*
X017124Y017743D01*
X017123Y017745D02*
X016392Y017745D01*
X016393Y017748D02*
X017122Y017748D01*
X017121Y017750D02*
X016394Y017750D01*
X016395Y017753D02*
X017120Y017753D01*
X017119Y017755D02*
X016396Y017755D01*
X016398Y017757D02*
X017118Y017757D01*
X017116Y017760D02*
X016399Y017760D01*
X016401Y017762D02*
X017115Y017762D01*
X017113Y017765D02*
X016402Y017765D01*
X016404Y017767D02*
X017111Y017767D01*
X017109Y017770D02*
X016406Y017770D01*
X016407Y017772D02*
X017108Y017772D01*
X017106Y017775D02*
X016409Y017775D01*
X016411Y017777D02*
X017104Y017777D01*
X017103Y017779D02*
X016413Y017779D01*
X016414Y017782D02*
X017101Y017782D01*
X017099Y017784D02*
X016416Y017784D01*
X016418Y017787D02*
X017097Y017787D01*
X017096Y017789D02*
X016419Y017789D01*
X016421Y017792D02*
X017094Y017792D01*
X017092Y017794D02*
X016423Y017794D01*
X016424Y017796D02*
X017091Y017796D01*
X017089Y017799D02*
X016426Y017799D01*
X016428Y017801D02*
X017087Y017801D01*
X017085Y017804D02*
X016430Y017804D01*
X016431Y017806D02*
X017084Y017806D01*
X017082Y017809D02*
X016433Y017809D01*
X016435Y017811D02*
X017080Y017811D01*
X017079Y017814D02*
X016436Y017814D01*
X016438Y017816D02*
X017077Y017816D01*
X017075Y017818D02*
X016440Y017818D01*
X016442Y017821D02*
X017073Y017821D01*
X017070Y017823D02*
X016445Y017823D01*
X016447Y017826D02*
X017068Y017826D01*
X017065Y017828D02*
X016450Y017828D01*
X016452Y017831D02*
X017063Y017831D01*
X017061Y017833D02*
X016454Y017833D01*
X016457Y017835D02*
X017058Y017835D01*
X017056Y017838D02*
X016459Y017838D01*
X016462Y017840D02*
X017053Y017840D01*
X017051Y017843D02*
X016464Y017843D01*
X016467Y017845D02*
X017048Y017845D01*
X017046Y017848D02*
X016469Y017848D01*
X016472Y017850D02*
X017044Y017850D01*
X017041Y017853D02*
X016474Y017853D01*
X016476Y017855D02*
X017039Y017855D01*
X017036Y017857D02*
X016479Y017857D01*
X016481Y017860D02*
X017034Y017860D01*
X017031Y017862D02*
X016484Y017862D01*
X016486Y017865D02*
X017029Y017865D01*
X017026Y017867D02*
X016489Y017867D01*
X016491Y017870D02*
X017024Y017870D01*
X017020Y017872D02*
X016495Y017872D01*
X016498Y017874D02*
X017017Y017874D01*
X017014Y017877D02*
X016502Y017877D01*
X016505Y017879D02*
X017010Y017879D01*
X017007Y017882D02*
X016509Y017882D01*
X016512Y017884D02*
X017003Y017884D01*
X017000Y017887D02*
X016515Y017887D01*
X016519Y017889D02*
X016996Y017889D01*
X016993Y017892D02*
X016522Y017892D01*
X016526Y017894D02*
X016989Y017894D01*
X016986Y017896D02*
X016529Y017896D01*
X016533Y017899D02*
X016982Y017899D01*
X016979Y017901D02*
X016536Y017901D01*
X016540Y017904D02*
X016975Y017904D01*
X016972Y017906D02*
X016543Y017906D01*
X016547Y017909D02*
X016968Y017909D01*
X016965Y017911D02*
X016550Y017911D01*
X016556Y017913D02*
X016959Y017913D01*
X016954Y017916D02*
X016561Y017916D01*
X016566Y017918D02*
X016949Y017918D01*
X016944Y017921D02*
X016571Y017921D01*
X016577Y017923D02*
X016939Y017923D01*
X016933Y017926D02*
X016582Y017926D01*
X016587Y017928D02*
X016928Y017928D01*
X016923Y017931D02*
X016592Y017931D01*
X016597Y017933D02*
X016918Y017933D01*
X016912Y017935D02*
X016603Y017935D01*
X016608Y017938D02*
X016907Y017938D01*
X016902Y017940D02*
X016613Y017940D01*
X016620Y017943D02*
X016895Y017943D01*
X016886Y017945D02*
X016629Y017945D01*
X016638Y017948D02*
X016877Y017948D01*
X016867Y017950D02*
X016648Y017950D01*
X016657Y017952D02*
X016858Y017952D01*
X016849Y017955D02*
X016666Y017955D01*
X016675Y017957D02*
X016840Y017957D01*
X016831Y017960D02*
X016684Y017960D01*
X016709Y017962D02*
X016806Y017962D01*
X016779Y017965D02*
X016737Y017965D01*
X016692Y016056D02*
X016816Y016056D01*
X016791Y016054D02*
X016720Y016054D01*
X016748Y016051D02*
X016766Y016051D01*
X012042Y016465D02*
X012042Y017552D01*
X012036Y017624D01*
X012017Y017694D01*
X011237Y017694D01*
X011218Y017624D01*
X011212Y017552D01*
X011212Y016465D01*
X011218Y016393D01*
X011237Y016324D01*
X012016Y016324D01*
X012015Y016322D02*
X011238Y016322D01*
X011237Y016324D02*
X011268Y016258D01*
X011309Y016199D01*
X011360Y016148D01*
X011420Y016106D01*
X011485Y016076D01*
X011765Y016076D01*
X011773Y016078D02*
X011479Y016078D01*
X011474Y016081D02*
X011781Y016081D01*
X011786Y016082D02*
X011858Y016120D01*
X011920Y016172D01*
X011972Y016235D01*
X012010Y016307D01*
X012034Y016384D01*
X012042Y016465D01*
X012042Y016466D02*
X011212Y016466D01*
X011212Y016468D02*
X012042Y016468D01*
X012042Y016471D02*
X011212Y016471D01*
X011212Y016473D02*
X012042Y016473D01*
X012042Y016475D02*
X011212Y016475D01*
X011212Y016478D02*
X012042Y016478D01*
X012042Y016480D02*
X011212Y016480D01*
X011212Y016483D02*
X012042Y016483D01*
X012042Y016485D02*
X011212Y016485D01*
X011212Y016488D02*
X012042Y016488D01*
X012042Y016490D02*
X011212Y016490D01*
X011212Y016493D02*
X012042Y016493D01*
X012042Y016495D02*
X011212Y016495D01*
X011212Y016497D02*
X012042Y016497D01*
X012042Y016500D02*
X011212Y016500D01*
X011212Y016502D02*
X012042Y016502D01*
X012042Y016505D02*
X011212Y016505D01*
X011212Y016507D02*
X012042Y016507D01*
X012042Y016510D02*
X011212Y016510D01*
X011212Y016512D02*
X012042Y016512D01*
X012042Y016514D02*
X011212Y016514D01*
X011212Y016517D02*
X012042Y016517D01*
X012042Y016519D02*
X011212Y016519D01*
X011212Y016522D02*
X012042Y016522D01*
X012042Y016524D02*
X011212Y016524D01*
X011212Y016527D02*
X012042Y016527D01*
X012042Y016529D02*
X011212Y016529D01*
X011212Y016532D02*
X012042Y016532D01*
X012042Y016534D02*
X011212Y016534D01*
X011212Y016536D02*
X012042Y016536D01*
X012042Y016539D02*
X011212Y016539D01*
X011212Y016541D02*
X012042Y016541D01*
X012042Y016544D02*
X011212Y016544D01*
X011212Y016546D02*
X012042Y016546D01*
X012042Y016549D02*
X011212Y016549D01*
X011212Y016551D02*
X012042Y016551D01*
X012042Y016553D02*
X011212Y016553D01*
X011212Y016556D02*
X012042Y016556D01*
X012042Y016558D02*
X011212Y016558D01*
X011212Y016561D02*
X012042Y016561D01*
X012042Y016563D02*
X011212Y016563D01*
X011212Y016566D02*
X012042Y016566D01*
X012042Y016568D02*
X011212Y016568D01*
X011212Y016571D02*
X012042Y016571D01*
X012042Y016573D02*
X011212Y016573D01*
X011212Y016575D02*
X012042Y016575D01*
X012042Y016578D02*
X011212Y016578D01*
X011212Y016580D02*
X012042Y016580D01*
X012042Y016583D02*
X011212Y016583D01*
X011212Y016585D02*
X012042Y016585D01*
X012042Y016588D02*
X011212Y016588D01*
X011212Y016590D02*
X012042Y016590D01*
X012042Y016592D02*
X011212Y016592D01*
X011212Y016595D02*
X012042Y016595D01*
X012042Y016597D02*
X011212Y016597D01*
X011212Y016600D02*
X012042Y016600D01*
X012042Y016602D02*
X011212Y016602D01*
X011212Y016605D02*
X012042Y016605D01*
X012042Y016607D02*
X011212Y016607D01*
X011212Y016610D02*
X012042Y016610D01*
X012042Y016612D02*
X011212Y016612D01*
X011212Y016614D02*
X012042Y016614D01*
X012042Y016617D02*
X011212Y016617D01*
X011212Y016619D02*
X012042Y016619D01*
X012042Y016622D02*
X011212Y016622D01*
X011212Y016624D02*
X012042Y016624D01*
X012042Y016627D02*
X011212Y016627D01*
X011212Y016629D02*
X012042Y016629D01*
X012042Y016631D02*
X011212Y016631D01*
X011212Y016634D02*
X012042Y016634D01*
X012042Y016636D02*
X011212Y016636D01*
X011212Y016639D02*
X012042Y016639D01*
X012042Y016641D02*
X011212Y016641D01*
X011212Y016644D02*
X012042Y016644D01*
X012042Y016646D02*
X011212Y016646D01*
X011212Y016649D02*
X012042Y016649D01*
X012042Y016651D02*
X011212Y016651D01*
X011212Y016653D02*
X012042Y016653D01*
X012042Y016656D02*
X011212Y016656D01*
X011212Y016658D02*
X012042Y016658D01*
X012042Y016661D02*
X011212Y016661D01*
X011212Y016663D02*
X012042Y016663D01*
X012042Y016666D02*
X011212Y016666D01*
X011212Y016668D02*
X012042Y016668D01*
X012042Y016670D02*
X011212Y016670D01*
X011212Y016673D02*
X012042Y016673D01*
X012042Y016675D02*
X011212Y016675D01*
X011212Y016678D02*
X012042Y016678D01*
X012042Y016680D02*
X011212Y016680D01*
X011212Y016683D02*
X012042Y016683D01*
X012042Y016685D02*
X011212Y016685D01*
X011212Y016688D02*
X012042Y016688D01*
X012042Y016690D02*
X011212Y016690D01*
X011212Y016692D02*
X012042Y016692D01*
X012042Y016695D02*
X011212Y016695D01*
X011212Y016697D02*
X012042Y016697D01*
X012042Y016700D02*
X011212Y016700D01*
X011212Y016702D02*
X012042Y016702D01*
X012042Y016705D02*
X011212Y016705D01*
X011212Y016707D02*
X012042Y016707D01*
X012042Y016709D02*
X011212Y016709D01*
X011212Y016712D02*
X012042Y016712D01*
X012042Y016714D02*
X011212Y016714D01*
X011212Y016717D02*
X012042Y016717D01*
X012042Y016719D02*
X011212Y016719D01*
X011212Y016722D02*
X012042Y016722D01*
X012042Y016724D02*
X011212Y016724D01*
X011212Y016726D02*
X012042Y016726D01*
X012042Y016729D02*
X011212Y016729D01*
X011212Y016731D02*
X012042Y016731D01*
X012042Y016734D02*
X011212Y016734D01*
X011212Y016736D02*
X012042Y016736D01*
X012042Y016739D02*
X011212Y016739D01*
X011212Y016741D02*
X012042Y016741D01*
X012042Y016744D02*
X011212Y016744D01*
X011212Y016746D02*
X012042Y016746D01*
X012042Y016748D02*
X011212Y016748D01*
X011212Y016751D02*
X012042Y016751D01*
X012042Y016753D02*
X011212Y016753D01*
X011212Y016756D02*
X012042Y016756D01*
X012042Y016758D02*
X011212Y016758D01*
X011212Y016761D02*
X012042Y016761D01*
X012042Y016763D02*
X011212Y016763D01*
X011212Y016765D02*
X012042Y016765D01*
X012042Y016768D02*
X011212Y016768D01*
X011212Y016770D02*
X012042Y016770D01*
X012042Y016773D02*
X011212Y016773D01*
X011212Y016775D02*
X012042Y016775D01*
X012042Y016778D02*
X011212Y016778D01*
X011212Y016780D02*
X012042Y016780D01*
X012042Y016783D02*
X011212Y016783D01*
X011212Y016785D02*
X012042Y016785D01*
X012042Y016787D02*
X011212Y016787D01*
X011212Y016790D02*
X012042Y016790D01*
X012042Y016792D02*
X011212Y016792D01*
X011212Y016795D02*
X012042Y016795D01*
X012042Y016797D02*
X011212Y016797D01*
X011212Y016800D02*
X012042Y016800D01*
X012042Y016802D02*
X011212Y016802D01*
X011212Y016804D02*
X012042Y016804D01*
X012042Y016807D02*
X011212Y016807D01*
X011212Y016809D02*
X012042Y016809D01*
X012042Y016812D02*
X011212Y016812D01*
X011212Y016814D02*
X012042Y016814D01*
X012042Y016817D02*
X011212Y016817D01*
X011212Y016819D02*
X012042Y016819D01*
X012042Y016822D02*
X011212Y016822D01*
X011212Y016824D02*
X012042Y016824D01*
X012042Y016826D02*
X011212Y016826D01*
X011212Y016829D02*
X012042Y016829D01*
X012042Y016831D02*
X011212Y016831D01*
X011212Y016834D02*
X012042Y016834D01*
X012042Y016836D02*
X011212Y016836D01*
X011212Y016839D02*
X012042Y016839D01*
X012042Y016841D02*
X011212Y016841D01*
X011212Y016843D02*
X012042Y016843D01*
X012042Y016846D02*
X011212Y016846D01*
X011212Y016848D02*
X012042Y016848D01*
X012042Y016851D02*
X011212Y016851D01*
X011212Y016853D02*
X012042Y016853D01*
X012042Y016856D02*
X011212Y016856D01*
X011212Y016858D02*
X012042Y016858D01*
X012042Y016861D02*
X011212Y016861D01*
X011212Y016863D02*
X012042Y016863D01*
X012042Y016865D02*
X011212Y016865D01*
X011212Y016868D02*
X012042Y016868D01*
X012042Y016870D02*
X011212Y016870D01*
X011212Y016873D02*
X012042Y016873D01*
X012042Y016875D02*
X011212Y016875D01*
X011212Y016878D02*
X012042Y016878D01*
X012042Y016880D02*
X011212Y016880D01*
X011212Y016882D02*
X012042Y016882D01*
X012042Y016885D02*
X011212Y016885D01*
X011212Y016887D02*
X012042Y016887D01*
X012042Y016890D02*
X011212Y016890D01*
X011212Y016892D02*
X012042Y016892D01*
X012042Y016895D02*
X011212Y016895D01*
X011212Y016897D02*
X012042Y016897D01*
X012042Y016900D02*
X011212Y016900D01*
X011212Y016902D02*
X012042Y016902D01*
X012042Y016904D02*
X011212Y016904D01*
X011212Y016907D02*
X012042Y016907D01*
X012042Y016909D02*
X011212Y016909D01*
X011212Y016912D02*
X012042Y016912D01*
X012042Y016914D02*
X011212Y016914D01*
X011212Y016917D02*
X012042Y016917D01*
X012042Y016919D02*
X011212Y016919D01*
X011212Y016921D02*
X012042Y016921D01*
X012042Y016924D02*
X011212Y016924D01*
X011212Y016926D02*
X012042Y016926D01*
X012042Y016929D02*
X011212Y016929D01*
X011212Y016931D02*
X012042Y016931D01*
X012042Y016934D02*
X011212Y016934D01*
X011212Y016936D02*
X012042Y016936D01*
X012042Y016939D02*
X011212Y016939D01*
X011212Y016941D02*
X012042Y016941D01*
X012042Y016943D02*
X011212Y016943D01*
X011212Y016946D02*
X012042Y016946D01*
X012042Y016948D02*
X011212Y016948D01*
X011212Y016951D02*
X012042Y016951D01*
X012042Y016953D02*
X011212Y016953D01*
X011212Y016956D02*
X012042Y016956D01*
X012042Y016958D02*
X011212Y016958D01*
X011212Y016960D02*
X012042Y016960D01*
X012042Y016963D02*
X011212Y016963D01*
X011212Y016965D02*
X012042Y016965D01*
X012042Y016968D02*
X011212Y016968D01*
X011212Y016970D02*
X012042Y016970D01*
X012042Y016973D02*
X011212Y016973D01*
X011212Y016975D02*
X012042Y016975D01*
X012042Y016978D02*
X011212Y016978D01*
X011212Y016980D02*
X012042Y016980D01*
X012042Y016982D02*
X011212Y016982D01*
X011212Y016985D02*
X012042Y016985D01*
X012042Y016987D02*
X011212Y016987D01*
X011212Y016990D02*
X012042Y016990D01*
X012042Y016992D02*
X011212Y016992D01*
X011212Y016995D02*
X012042Y016995D01*
X012042Y016997D02*
X011212Y016997D01*
X011212Y016999D02*
X012042Y016999D01*
X012042Y017002D02*
X011212Y017002D01*
X011212Y017004D02*
X012042Y017004D01*
X012042Y017007D02*
X011212Y017007D01*
X011212Y017009D02*
X012042Y017009D01*
X012042Y017012D02*
X011212Y017012D01*
X011212Y017014D02*
X012042Y017014D01*
X012042Y017017D02*
X011212Y017017D01*
X011212Y017019D02*
X012042Y017019D01*
X012042Y017021D02*
X011212Y017021D01*
X011212Y017024D02*
X012042Y017024D01*
X012042Y017026D02*
X011212Y017026D01*
X011212Y017029D02*
X012042Y017029D01*
X012042Y017031D02*
X011212Y017031D01*
X011212Y017034D02*
X012042Y017034D01*
X012042Y017036D02*
X011212Y017036D01*
X011212Y017038D02*
X012042Y017038D01*
X012042Y017041D02*
X011212Y017041D01*
X011212Y017043D02*
X012042Y017043D01*
X012042Y017046D02*
X011212Y017046D01*
X011212Y017048D02*
X012042Y017048D01*
X012042Y017051D02*
X011212Y017051D01*
X011212Y017053D02*
X012042Y017053D01*
X012042Y017056D02*
X011212Y017056D01*
X011212Y017058D02*
X012042Y017058D01*
X012042Y017060D02*
X011212Y017060D01*
X011212Y017063D02*
X012042Y017063D01*
X012042Y017065D02*
X011212Y017065D01*
X011212Y017068D02*
X012042Y017068D01*
X012042Y017070D02*
X011212Y017070D01*
X011212Y017073D02*
X012042Y017073D01*
X012042Y017075D02*
X011212Y017075D01*
X011212Y017077D02*
X012042Y017077D01*
X012042Y017080D02*
X011212Y017080D01*
X011212Y017082D02*
X012042Y017082D01*
X012042Y017085D02*
X011212Y017085D01*
X011212Y017087D02*
X012042Y017087D01*
X012042Y017090D02*
X011212Y017090D01*
X011212Y017092D02*
X012042Y017092D01*
X012042Y017095D02*
X011212Y017095D01*
X011212Y017097D02*
X012042Y017097D01*
X012042Y017099D02*
X011212Y017099D01*
X011212Y017102D02*
X012042Y017102D01*
X012042Y017104D02*
X011212Y017104D01*
X011212Y017107D02*
X012042Y017107D01*
X012042Y017109D02*
X011212Y017109D01*
X011212Y017112D02*
X012042Y017112D01*
X012042Y017114D02*
X011212Y017114D01*
X011212Y017116D02*
X012042Y017116D01*
X012042Y017119D02*
X011212Y017119D01*
X011212Y017121D02*
X012042Y017121D01*
X012042Y017124D02*
X011212Y017124D01*
X011212Y017126D02*
X012042Y017126D01*
X012042Y017129D02*
X011212Y017129D01*
X011212Y017131D02*
X012042Y017131D01*
X012042Y017134D02*
X011212Y017134D01*
X011212Y017136D02*
X012042Y017136D01*
X012042Y017138D02*
X011212Y017138D01*
X011212Y017141D02*
X012042Y017141D01*
X012042Y017143D02*
X011212Y017143D01*
X011212Y017146D02*
X012042Y017146D01*
X012042Y017148D02*
X011212Y017148D01*
X011212Y017151D02*
X012042Y017151D01*
X012042Y017153D02*
X011212Y017153D01*
X011212Y017155D02*
X012042Y017155D01*
X012042Y017158D02*
X011212Y017158D01*
X011212Y017160D02*
X012042Y017160D01*
X012042Y017163D02*
X011212Y017163D01*
X011212Y017165D02*
X012042Y017165D01*
X012042Y017168D02*
X011212Y017168D01*
X011212Y017170D02*
X012042Y017170D01*
X012042Y017173D02*
X011212Y017173D01*
X011212Y017175D02*
X012042Y017175D01*
X012042Y017177D02*
X011212Y017177D01*
X011212Y017180D02*
X012042Y017180D01*
X012042Y017182D02*
X011212Y017182D01*
X011212Y017185D02*
X012042Y017185D01*
X012042Y017187D02*
X011212Y017187D01*
X011212Y017190D02*
X012042Y017190D01*
X012042Y017192D02*
X011212Y017192D01*
X011212Y017194D02*
X012042Y017194D01*
X012042Y017197D02*
X011212Y017197D01*
X011212Y017199D02*
X012042Y017199D01*
X012042Y017202D02*
X011212Y017202D01*
X011212Y017204D02*
X012042Y017204D01*
X012042Y017207D02*
X011212Y017207D01*
X011212Y017209D02*
X012042Y017209D01*
X012042Y017212D02*
X011212Y017212D01*
X011212Y017214D02*
X012042Y017214D01*
X012042Y017216D02*
X011212Y017216D01*
X011212Y017219D02*
X012042Y017219D01*
X012042Y017221D02*
X011212Y017221D01*
X011212Y017224D02*
X012042Y017224D01*
X012042Y017226D02*
X011212Y017226D01*
X011212Y017229D02*
X012042Y017229D01*
X012042Y017231D02*
X011212Y017231D01*
X011212Y017233D02*
X012042Y017233D01*
X012042Y017236D02*
X011212Y017236D01*
X011212Y017238D02*
X012042Y017238D01*
X012042Y017241D02*
X011212Y017241D01*
X011212Y017243D02*
X012042Y017243D01*
X012042Y017246D02*
X011212Y017246D01*
X011212Y017248D02*
X012042Y017248D01*
X012042Y017251D02*
X011212Y017251D01*
X011212Y017253D02*
X012042Y017253D01*
X012042Y017255D02*
X011212Y017255D01*
X011212Y017258D02*
X012042Y017258D01*
X012042Y017260D02*
X011212Y017260D01*
X011212Y017263D02*
X012042Y017263D01*
X012042Y017265D02*
X011212Y017265D01*
X011212Y017268D02*
X012042Y017268D01*
X012042Y017270D02*
X011212Y017270D01*
X011212Y017272D02*
X012042Y017272D01*
X012042Y017275D02*
X011212Y017275D01*
X011212Y017277D02*
X012042Y017277D01*
X012042Y017280D02*
X011212Y017280D01*
X011212Y017282D02*
X012042Y017282D01*
X012042Y017285D02*
X011212Y017285D01*
X011212Y017287D02*
X012042Y017287D01*
X012042Y017290D02*
X011212Y017290D01*
X011212Y017292D02*
X012042Y017292D01*
X012042Y017294D02*
X011212Y017294D01*
X011212Y017297D02*
X012042Y017297D01*
X012042Y017299D02*
X011212Y017299D01*
X011212Y017302D02*
X012042Y017302D01*
X012042Y017304D02*
X011212Y017304D01*
X011212Y017307D02*
X012042Y017307D01*
X012042Y017309D02*
X011212Y017309D01*
X011212Y017311D02*
X012042Y017311D01*
X012042Y017314D02*
X011212Y017314D01*
X011212Y017316D02*
X012042Y017316D01*
X012042Y017319D02*
X011212Y017319D01*
X011212Y017321D02*
X012042Y017321D01*
X012042Y017324D02*
X011212Y017324D01*
X011212Y017326D02*
X012042Y017326D01*
X012042Y017329D02*
X011212Y017329D01*
X011212Y017331D02*
X012042Y017331D01*
X012042Y017333D02*
X011212Y017333D01*
X011212Y017336D02*
X012042Y017336D01*
X012042Y017338D02*
X011212Y017338D01*
X011212Y017341D02*
X012042Y017341D01*
X012042Y017343D02*
X011212Y017343D01*
X011212Y017346D02*
X012042Y017346D01*
X012042Y017348D02*
X011212Y017348D01*
X011212Y017350D02*
X012042Y017350D01*
X012042Y017353D02*
X011212Y017353D01*
X011212Y017355D02*
X012042Y017355D01*
X012042Y017358D02*
X011212Y017358D01*
X011212Y017360D02*
X012042Y017360D01*
X012042Y017363D02*
X011212Y017363D01*
X011212Y017365D02*
X012042Y017365D01*
X012042Y017367D02*
X011212Y017367D01*
X011212Y017370D02*
X012042Y017370D01*
X012042Y017372D02*
X011212Y017372D01*
X011212Y017375D02*
X012042Y017375D01*
X012042Y017377D02*
X011212Y017377D01*
X011212Y017380D02*
X012042Y017380D01*
X012042Y017382D02*
X011212Y017382D01*
X011212Y017385D02*
X012042Y017385D01*
X012042Y017387D02*
X011212Y017387D01*
X011212Y017389D02*
X012042Y017389D01*
X012042Y017392D02*
X011212Y017392D01*
X011212Y017394D02*
X012042Y017394D01*
X012042Y017397D02*
X011212Y017397D01*
X011212Y017399D02*
X012042Y017399D01*
X012042Y017402D02*
X011212Y017402D01*
X011212Y017404D02*
X012042Y017404D01*
X012042Y017406D02*
X011212Y017406D01*
X011212Y017409D02*
X012042Y017409D01*
X012042Y017411D02*
X011212Y017411D01*
X011212Y017414D02*
X012042Y017414D01*
X012042Y017416D02*
X011212Y017416D01*
X011212Y017419D02*
X012042Y017419D01*
X012042Y017421D02*
X011212Y017421D01*
X011212Y017424D02*
X012042Y017424D01*
X012042Y017426D02*
X011212Y017426D01*
X011212Y017428D02*
X012042Y017428D01*
X012042Y017431D02*
X011212Y017431D01*
X011212Y017433D02*
X012042Y017433D01*
X012042Y017436D02*
X011212Y017436D01*
X011212Y017438D02*
X012042Y017438D01*
X012042Y017441D02*
X011212Y017441D01*
X011212Y017443D02*
X012042Y017443D01*
X012042Y017445D02*
X011212Y017445D01*
X011212Y017448D02*
X012042Y017448D01*
X012042Y017450D02*
X011212Y017450D01*
X011212Y017453D02*
X012042Y017453D01*
X012042Y017455D02*
X011212Y017455D01*
X011212Y017458D02*
X012042Y017458D01*
X012042Y017460D02*
X011212Y017460D01*
X011212Y017463D02*
X012042Y017463D01*
X012042Y017465D02*
X011212Y017465D01*
X011212Y017467D02*
X012042Y017467D01*
X012042Y017470D02*
X011212Y017470D01*
X011212Y017472D02*
X012042Y017472D01*
X012042Y017475D02*
X011212Y017475D01*
X011212Y017477D02*
X012042Y017477D01*
X012042Y017480D02*
X011212Y017480D01*
X011212Y017482D02*
X012042Y017482D01*
X012042Y017484D02*
X011212Y017484D01*
X011212Y017487D02*
X012042Y017487D01*
X012042Y017489D02*
X011212Y017489D01*
X011212Y017492D02*
X012042Y017492D01*
X012042Y017494D02*
X011212Y017494D01*
X011212Y017497D02*
X012042Y017497D01*
X012042Y017499D02*
X011212Y017499D01*
X011212Y017502D02*
X012042Y017502D01*
X012042Y017504D02*
X011212Y017504D01*
X011212Y017506D02*
X012042Y017506D01*
X012042Y017509D02*
X011212Y017509D01*
X011212Y017511D02*
X012042Y017511D01*
X012042Y017514D02*
X011212Y017514D01*
X011212Y017516D02*
X012042Y017516D01*
X012042Y017519D02*
X011212Y017519D01*
X011212Y017521D02*
X012042Y017521D01*
X012042Y017523D02*
X011212Y017523D01*
X011212Y017526D02*
X012042Y017526D01*
X012042Y017528D02*
X011212Y017528D01*
X011212Y017531D02*
X012042Y017531D01*
X012042Y017533D02*
X011212Y017533D01*
X011212Y017536D02*
X012042Y017536D01*
X012042Y017538D02*
X011212Y017538D01*
X011212Y017541D02*
X012042Y017541D01*
X012042Y017543D02*
X011212Y017543D01*
X011212Y017545D02*
X012042Y017545D01*
X012042Y017548D02*
X011212Y017548D01*
X011212Y017550D02*
X012042Y017550D01*
X012042Y017553D02*
X011212Y017553D01*
X011212Y017555D02*
X012042Y017555D01*
X012041Y017558D02*
X011213Y017558D01*
X011213Y017560D02*
X012041Y017560D01*
X012041Y017562D02*
X011213Y017562D01*
X011213Y017565D02*
X012041Y017565D01*
X012041Y017567D02*
X011214Y017567D01*
X011214Y017570D02*
X012040Y017570D01*
X012040Y017572D02*
X011214Y017572D01*
X011214Y017575D02*
X012040Y017575D01*
X012040Y017577D02*
X011214Y017577D01*
X011215Y017580D02*
X012039Y017580D01*
X012039Y017582D02*
X011215Y017582D01*
X011215Y017584D02*
X012039Y017584D01*
X012039Y017587D02*
X011215Y017587D01*
X011215Y017589D02*
X012039Y017589D01*
X012038Y017592D02*
X011216Y017592D01*
X011216Y017594D02*
X012038Y017594D01*
X012038Y017597D02*
X011216Y017597D01*
X011216Y017599D02*
X012038Y017599D01*
X012038Y017601D02*
X011217Y017601D01*
X011217Y017604D02*
X012037Y017604D01*
X012037Y017606D02*
X011217Y017606D01*
X011217Y017609D02*
X012037Y017609D01*
X012037Y017611D02*
X011217Y017611D01*
X011218Y017614D02*
X012036Y017614D01*
X012036Y017616D02*
X011218Y017616D01*
X011218Y017619D02*
X012036Y017619D01*
X012036Y017621D02*
X011218Y017621D01*
X011218Y017623D02*
X012036Y017623D01*
X012035Y017626D02*
X011219Y017626D01*
X011220Y017628D02*
X012034Y017628D01*
X012034Y017631D02*
X011220Y017631D01*
X011221Y017633D02*
X012033Y017633D01*
X012032Y017636D02*
X011222Y017636D01*
X011222Y017638D02*
X012032Y017638D01*
X012031Y017640D02*
X011223Y017640D01*
X011224Y017643D02*
X012030Y017643D01*
X012030Y017645D02*
X011224Y017645D01*
X011225Y017648D02*
X012029Y017648D01*
X012028Y017650D02*
X011226Y017650D01*
X011226Y017653D02*
X012028Y017653D01*
X012027Y017655D02*
X011227Y017655D01*
X011228Y017658D02*
X012026Y017658D01*
X012026Y017660D02*
X011228Y017660D01*
X011229Y017662D02*
X012025Y017662D01*
X012025Y017665D02*
X011230Y017665D01*
X011230Y017667D02*
X012024Y017667D01*
X012023Y017670D02*
X011231Y017670D01*
X011231Y017672D02*
X012023Y017672D01*
X012022Y017675D02*
X011232Y017675D01*
X011233Y017677D02*
X012021Y017677D01*
X012021Y017679D02*
X011233Y017679D01*
X011234Y017682D02*
X012020Y017682D01*
X012019Y017684D02*
X011235Y017684D01*
X011235Y017687D02*
X012019Y017687D01*
X012018Y017689D02*
X011236Y017689D01*
X011237Y017692D02*
X012017Y017692D01*
X012017Y017694D02*
X011986Y017759D01*
X011945Y017818D01*
X011894Y017869D01*
X011834Y017911D01*
X011420Y017911D01*
X011360Y017869D01*
X011309Y017818D01*
X011268Y017759D01*
X011237Y017694D01*
X011239Y017697D02*
X012015Y017697D01*
X012014Y017699D02*
X011240Y017699D01*
X011241Y017701D02*
X012013Y017701D01*
X012012Y017704D02*
X011242Y017704D01*
X011243Y017706D02*
X012011Y017706D01*
X012010Y017709D02*
X011244Y017709D01*
X011245Y017711D02*
X012009Y017711D01*
X012007Y017714D02*
X011247Y017714D01*
X011248Y017716D02*
X012006Y017716D01*
X012005Y017718D02*
X011249Y017718D01*
X011250Y017721D02*
X012004Y017721D01*
X012003Y017723D02*
X011251Y017723D01*
X011252Y017726D02*
X012002Y017726D01*
X012001Y017728D02*
X011253Y017728D01*
X011255Y017731D02*
X012000Y017731D01*
X011998Y017733D02*
X011256Y017733D01*
X011257Y017736D02*
X011997Y017736D01*
X011996Y017738D02*
X011258Y017738D01*
X011259Y017740D02*
X011995Y017740D01*
X011994Y017743D02*
X011260Y017743D01*
X011261Y017745D02*
X011993Y017745D01*
X011992Y017748D02*
X011262Y017748D01*
X011264Y017750D02*
X011990Y017750D01*
X011989Y017753D02*
X011265Y017753D01*
X011266Y017755D02*
X011988Y017755D01*
X011987Y017757D02*
X011267Y017757D01*
X011268Y017760D02*
X011986Y017760D01*
X011984Y017762D02*
X011270Y017762D01*
X011272Y017765D02*
X011982Y017765D01*
X011981Y017767D02*
X011273Y017767D01*
X011275Y017770D02*
X011979Y017770D01*
X011977Y017772D02*
X011277Y017772D01*
X011279Y017775D02*
X011975Y017775D01*
X011974Y017777D02*
X011280Y017777D01*
X011282Y017779D02*
X011972Y017779D01*
X011970Y017782D02*
X011284Y017782D01*
X011285Y017784D02*
X011969Y017784D01*
X011967Y017787D02*
X011287Y017787D01*
X011289Y017789D02*
X011965Y017789D01*
X011964Y017792D02*
X011291Y017792D01*
X011292Y017794D02*
X011962Y017794D01*
X011960Y017796D02*
X011294Y017796D01*
X011296Y017799D02*
X011958Y017799D01*
X011957Y017801D02*
X011297Y017801D01*
X011299Y017804D02*
X011955Y017804D01*
X011953Y017806D02*
X011301Y017806D01*
X011302Y017809D02*
X011952Y017809D01*
X011950Y017811D02*
X011304Y017811D01*
X011306Y017814D02*
X011948Y017814D01*
X011946Y017816D02*
X011308Y017816D01*
X011309Y017818D02*
X011945Y017818D01*
X011942Y017821D02*
X011312Y017821D01*
X011314Y017823D02*
X011940Y017823D01*
X011937Y017826D02*
X011317Y017826D01*
X011319Y017828D02*
X011935Y017828D01*
X011933Y017831D02*
X011322Y017831D01*
X011324Y017833D02*
X011930Y017833D01*
X011928Y017835D02*
X011326Y017835D01*
X011329Y017838D02*
X011925Y017838D01*
X011923Y017840D02*
X011331Y017840D01*
X011334Y017843D02*
X011920Y017843D01*
X011918Y017845D02*
X011336Y017845D01*
X011339Y017848D02*
X011915Y017848D01*
X011913Y017850D02*
X011341Y017850D01*
X011343Y017853D02*
X011911Y017853D01*
X011908Y017855D02*
X011346Y017855D01*
X011348Y017857D02*
X011906Y017857D01*
X011903Y017860D02*
X011351Y017860D01*
X011353Y017862D02*
X011901Y017862D01*
X011898Y017865D02*
X011356Y017865D01*
X011358Y017867D02*
X011896Y017867D01*
X011893Y017870D02*
X011361Y017870D01*
X011364Y017872D02*
X011890Y017872D01*
X011886Y017874D02*
X011368Y017874D01*
X011371Y017877D02*
X011883Y017877D01*
X011880Y017879D02*
X011375Y017879D01*
X011378Y017882D02*
X011876Y017882D01*
X011873Y017884D02*
X011381Y017884D01*
X011385Y017887D02*
X011869Y017887D01*
X011866Y017889D02*
X011388Y017889D01*
X011392Y017892D02*
X011862Y017892D01*
X011859Y017894D02*
X011395Y017894D01*
X011399Y017896D02*
X011855Y017896D01*
X011852Y017899D02*
X011402Y017899D01*
X011406Y017901D02*
X011848Y017901D01*
X011845Y017904D02*
X011409Y017904D01*
X011413Y017906D02*
X011841Y017906D01*
X011838Y017909D02*
X011416Y017909D01*
X011420Y017911D02*
X011485Y017941D01*
X011555Y017960D01*
X011627Y017966D01*
X011699Y017960D01*
X011769Y017941D01*
X011834Y017911D01*
X011829Y017913D02*
X011425Y017913D01*
X011430Y017916D02*
X011824Y017916D01*
X011819Y017918D02*
X011436Y017918D01*
X011441Y017921D02*
X011813Y017921D01*
X011808Y017923D02*
X011446Y017923D01*
X011451Y017926D02*
X011803Y017926D01*
X011798Y017928D02*
X011456Y017928D01*
X011462Y017931D02*
X011792Y017931D01*
X011787Y017933D02*
X011467Y017933D01*
X011472Y017935D02*
X011782Y017935D01*
X011777Y017938D02*
X011477Y017938D01*
X011483Y017940D02*
X011771Y017940D01*
X011764Y017943D02*
X011490Y017943D01*
X011499Y017945D02*
X011755Y017945D01*
X011746Y017948D02*
X011508Y017948D01*
X011517Y017950D02*
X011737Y017950D01*
X011728Y017952D02*
X011526Y017952D01*
X011535Y017955D02*
X011719Y017955D01*
X011710Y017957D02*
X011544Y017957D01*
X011553Y017960D02*
X011701Y017960D01*
X011676Y017962D02*
X011578Y017962D01*
X011606Y017965D02*
X011648Y017965D01*
X012042Y016463D02*
X011212Y016463D01*
X011213Y016461D02*
X012041Y016461D01*
X012041Y016458D02*
X011213Y016458D01*
X011213Y016456D02*
X012041Y016456D01*
X012041Y016454D02*
X011213Y016454D01*
X011213Y016451D02*
X012040Y016451D01*
X012040Y016449D02*
X011214Y016449D01*
X011214Y016446D02*
X012040Y016446D01*
X012040Y016444D02*
X011214Y016444D01*
X011214Y016441D02*
X012040Y016441D01*
X012039Y016439D02*
X011214Y016439D01*
X011215Y016436D02*
X012039Y016436D01*
X012039Y016434D02*
X011215Y016434D01*
X011215Y016432D02*
X012039Y016432D01*
X012038Y016429D02*
X011215Y016429D01*
X011216Y016427D02*
X012038Y016427D01*
X012038Y016424D02*
X011216Y016424D01*
X011216Y016422D02*
X012038Y016422D01*
X012037Y016419D02*
X011216Y016419D01*
X011216Y016417D02*
X012037Y016417D01*
X012037Y016415D02*
X011217Y016415D01*
X011217Y016412D02*
X012037Y016412D01*
X012036Y016410D02*
X011217Y016410D01*
X011217Y016407D02*
X012036Y016407D01*
X012036Y016405D02*
X011217Y016405D01*
X011218Y016402D02*
X012036Y016402D01*
X012035Y016400D02*
X011218Y016400D01*
X011218Y016397D02*
X012035Y016397D01*
X012035Y016395D02*
X011218Y016395D01*
X011219Y016393D02*
X012035Y016393D01*
X012034Y016390D02*
X011219Y016390D01*
X011220Y016388D02*
X012034Y016388D01*
X012034Y016385D02*
X011221Y016385D01*
X011221Y016383D02*
X012033Y016383D01*
X012033Y016380D02*
X011222Y016380D01*
X011223Y016378D02*
X012032Y016378D01*
X012031Y016376D02*
X011223Y016376D01*
X011224Y016373D02*
X012030Y016373D01*
X012030Y016371D02*
X011225Y016371D01*
X011225Y016368D02*
X012029Y016368D01*
X012028Y016366D02*
X011226Y016366D01*
X011227Y016363D02*
X012028Y016363D01*
X012027Y016361D02*
X011227Y016361D01*
X011228Y016358D02*
X012026Y016358D01*
X012025Y016356D02*
X011228Y016356D01*
X011229Y016354D02*
X012025Y016354D01*
X012024Y016351D02*
X011230Y016351D01*
X011230Y016349D02*
X012023Y016349D01*
X012022Y016346D02*
X011231Y016346D01*
X011232Y016344D02*
X012022Y016344D01*
X012021Y016341D02*
X011232Y016341D01*
X011233Y016339D02*
X012020Y016339D01*
X012019Y016337D02*
X011234Y016337D01*
X011234Y016334D02*
X012019Y016334D01*
X012018Y016332D02*
X011235Y016332D01*
X011236Y016329D02*
X012017Y016329D01*
X012016Y016327D02*
X011236Y016327D01*
X011239Y016319D02*
X012014Y016319D01*
X012013Y016317D02*
X011240Y016317D01*
X011241Y016315D02*
X012013Y016315D01*
X012012Y016312D02*
X011242Y016312D01*
X011244Y016310D02*
X012011Y016310D01*
X012010Y016307D02*
X011245Y016307D01*
X011246Y016305D02*
X012009Y016305D01*
X012008Y016302D02*
X011247Y016302D01*
X011248Y016300D02*
X012007Y016300D01*
X012005Y016298D02*
X011249Y016298D01*
X011250Y016295D02*
X012004Y016295D01*
X012003Y016293D02*
X011252Y016293D01*
X011253Y016290D02*
X012002Y016290D01*
X012000Y016288D02*
X011254Y016288D01*
X011255Y016285D02*
X011999Y016285D01*
X011998Y016283D02*
X011256Y016283D01*
X011257Y016280D02*
X011996Y016280D01*
X011995Y016278D02*
X011258Y016278D01*
X011260Y016276D02*
X011994Y016276D01*
X011992Y016273D02*
X011261Y016273D01*
X011262Y016271D02*
X011991Y016271D01*
X011990Y016268D02*
X011263Y016268D01*
X011264Y016266D02*
X011989Y016266D01*
X011987Y016263D02*
X011265Y016263D01*
X011266Y016261D02*
X011986Y016261D01*
X011985Y016259D02*
X011267Y016259D01*
X011269Y016256D02*
X011983Y016256D01*
X011982Y016254D02*
X011271Y016254D01*
X011272Y016251D02*
X011981Y016251D01*
X011979Y016249D02*
X011274Y016249D01*
X011276Y016246D02*
X011978Y016246D01*
X011977Y016244D02*
X011278Y016244D01*
X011279Y016241D02*
X011975Y016241D01*
X011974Y016239D02*
X011281Y016239D01*
X011283Y016237D02*
X011973Y016237D01*
X011971Y016234D02*
X011284Y016234D01*
X011286Y016232D02*
X011969Y016232D01*
X011967Y016229D02*
X011288Y016229D01*
X011290Y016227D02*
X011965Y016227D01*
X011963Y016224D02*
X011291Y016224D01*
X011293Y016222D02*
X011961Y016222D01*
X011959Y016220D02*
X011295Y016220D01*
X011296Y016217D02*
X011957Y016217D01*
X011955Y016215D02*
X011298Y016215D01*
X011300Y016212D02*
X011953Y016212D01*
X011951Y016210D02*
X011301Y016210D01*
X011303Y016207D02*
X011949Y016207D01*
X011947Y016205D02*
X011305Y016205D01*
X011307Y016202D02*
X011945Y016202D01*
X011943Y016200D02*
X011308Y016200D01*
X011310Y016198D02*
X011941Y016198D01*
X011939Y016195D02*
X011313Y016195D01*
X011315Y016193D02*
X011937Y016193D01*
X011935Y016190D02*
X011318Y016190D01*
X011320Y016188D02*
X011933Y016188D01*
X011931Y016185D02*
X011323Y016185D01*
X011325Y016183D02*
X011929Y016183D01*
X011927Y016181D02*
X011327Y016181D01*
X011330Y016178D02*
X011925Y016178D01*
X011923Y016176D02*
X011332Y016176D01*
X011335Y016173D02*
X011921Y016173D01*
X011919Y016171D02*
X011337Y016171D01*
X011340Y016168D02*
X011916Y016168D01*
X011913Y016166D02*
X011342Y016166D01*
X011344Y016163D02*
X011910Y016163D01*
X011907Y016161D02*
X011347Y016161D01*
X011349Y016159D02*
X011904Y016159D01*
X011901Y016156D02*
X011352Y016156D01*
X011354Y016154D02*
X011898Y016154D01*
X011895Y016151D02*
X011357Y016151D01*
X011359Y016149D02*
X011892Y016149D01*
X011889Y016146D02*
X011362Y016146D01*
X011366Y016144D02*
X011886Y016144D01*
X011883Y016142D02*
X011369Y016142D01*
X011372Y016139D02*
X011880Y016139D01*
X011877Y016137D02*
X011376Y016137D01*
X011379Y016134D02*
X011874Y016134D01*
X011871Y016132D02*
X011383Y016132D01*
X011386Y016129D02*
X011868Y016129D01*
X011865Y016127D02*
X011390Y016127D01*
X011393Y016124D02*
X011862Y016124D01*
X011859Y016122D02*
X011397Y016122D01*
X011400Y016120D02*
X011856Y016120D01*
X011851Y016117D02*
X011404Y016117D01*
X011407Y016115D02*
X011847Y016115D01*
X011842Y016112D02*
X011411Y016112D01*
X011414Y016110D02*
X011838Y016110D01*
X011833Y016107D02*
X011418Y016107D01*
X011422Y016105D02*
X011829Y016105D01*
X011824Y016103D02*
X011427Y016103D01*
X011432Y016100D02*
X011819Y016100D01*
X011815Y016098D02*
X011438Y016098D01*
X011443Y016095D02*
X011810Y016095D01*
X011806Y016093D02*
X011448Y016093D01*
X011453Y016090D02*
X011801Y016090D01*
X011797Y016088D02*
X011459Y016088D01*
X011464Y016086D02*
X011792Y016086D01*
X011788Y016083D02*
X011469Y016083D01*
X011485Y016076D02*
X011555Y016057D01*
X011627Y016051D01*
X011708Y016059D01*
X011786Y016082D01*
X011757Y016073D02*
X011494Y016073D01*
X011503Y016071D02*
X011749Y016071D01*
X011741Y016068D02*
X011512Y016068D01*
X011521Y016066D02*
X011733Y016066D01*
X011725Y016064D02*
X011530Y016064D01*
X011539Y016061D02*
X011717Y016061D01*
X011709Y016059D02*
X011548Y016059D01*
X011562Y016056D02*
X011685Y016056D01*
X011660Y016054D02*
X011590Y016054D01*
X011617Y016051D02*
X011636Y016051D01*
D15*
X017621Y007032D03*
X017621Y006638D03*
X017621Y006244D03*
X017621Y005851D03*
X017621Y005457D03*
X019642Y005457D03*
X019642Y005851D03*
X019642Y006244D03*
X019642Y006638D03*
X019642Y007032D03*
D16*
X018856Y006644D03*
X018856Y006244D03*
X018856Y005844D03*
X018406Y005844D03*
X018406Y006244D03*
X018406Y006644D03*
D17*
X016555Y006832D03*
X016555Y006432D03*
X016555Y006032D03*
X016555Y005632D03*
X016108Y005632D03*
X016108Y006032D03*
X016108Y006432D03*
X016108Y006832D03*
M02*
