G75*
G70*
%OFA0B0*%
%FSLAX24Y24*%
%IPPOS*%
%LPD*%
%AMOC8*
5,1,8,0,0,1.08239X$1,22.5*
%
%ADD10C,0.0050*%
%ADD11R,0.0118X0.0450*%
%ADD12R,0.0236X0.0450*%
%ADD13C,0.0000*%
%ADD14C,0.0277*%
%ADD15C,0.0004*%
%ADD16R,0.0413X0.0169*%
%ADD17R,0.0906X0.1260*%
%ADD18R,0.0220X0.0197*%
%ADD19C,0.0850*%
%ADD20C,0.0450*%
%ADD21C,0.0669*%
%ADD22C,0.0551*%
%ADD23C,0.0080*%
%ADD24C,0.0235*%
%ADD25C,0.0240*%
%ADD26C,0.0900*%
%ADD27C,0.0700*%
%ADD28C,0.0600*%
%ADD29C,0.0100*%
%ADD30C,0.0800*%
%ADD31C,0.0240*%
%ADD32C,0.0200*%
D10*
X012906Y009970D02*
X012906Y013470D01*
X012906Y013471D02*
X012907Y013535D01*
X012903Y013600D01*
X012896Y013664D01*
X012885Y013728D01*
X012870Y013791D01*
X012852Y013853D01*
X012830Y013914D01*
X012805Y013974D01*
X012776Y014032D01*
X012744Y014088D01*
X012709Y014142D01*
X012670Y014194D01*
X012629Y014244D01*
X012585Y014291D01*
X012538Y014336D01*
X012488Y014378D01*
X012437Y014417D01*
X012383Y014453D01*
X012327Y014485D01*
X012269Y014515D01*
X012210Y014540D01*
X012149Y014563D01*
X012087Y014582D01*
X012024Y014597D01*
X011960Y014608D01*
X011896Y014616D01*
X011831Y014620D01*
X011031Y014620D01*
X010964Y014622D01*
X010897Y014628D01*
X010831Y014637D01*
X010766Y014651D01*
X010701Y014668D01*
X010638Y014689D01*
X010576Y014714D01*
X010515Y014742D01*
X010456Y014774D01*
X010399Y014809D01*
X010344Y014848D01*
X010292Y014889D01*
X010242Y014934D01*
X010195Y014981D01*
X010150Y015031D01*
X010109Y015083D01*
X010070Y015138D01*
X010035Y015195D01*
X010003Y015254D01*
X009975Y015315D01*
X009950Y015377D01*
X009929Y015440D01*
X009912Y015505D01*
X009898Y015570D01*
X009889Y015636D01*
X009883Y015703D01*
X009881Y015770D01*
X009881Y019545D01*
X009883Y019587D01*
X009889Y019628D01*
X009898Y019668D01*
X009911Y019708D01*
X009928Y019746D01*
X009948Y019782D01*
X009972Y019816D01*
X009998Y019848D01*
X010028Y019878D01*
X010060Y019904D01*
X010094Y019928D01*
X010130Y019948D01*
X010168Y019965D01*
X010208Y019978D01*
X010248Y019987D01*
X010289Y019993D01*
X010331Y019995D01*
X013256Y019995D01*
X013286Y019993D01*
X013316Y019988D01*
X013345Y019979D01*
X013372Y019966D01*
X013398Y019951D01*
X013422Y019932D01*
X013443Y019911D01*
X013462Y019887D01*
X013477Y019861D01*
X013490Y019834D01*
X013499Y019805D01*
X013504Y019775D01*
X013506Y019745D01*
X013506Y019520D01*
X013508Y019494D01*
X013513Y019468D01*
X013521Y019443D01*
X013533Y019420D01*
X013547Y019398D01*
X013565Y019379D01*
X013584Y019361D01*
X013606Y019347D01*
X013629Y019335D01*
X013654Y019327D01*
X013680Y019322D01*
X013706Y019320D01*
X013956Y019320D01*
X013982Y019322D01*
X014008Y019327D01*
X014033Y019335D01*
X014056Y019347D01*
X014078Y019361D01*
X014097Y019379D01*
X014115Y019398D01*
X014129Y019420D01*
X014141Y019443D01*
X014149Y019468D01*
X014154Y019494D01*
X014156Y019520D01*
X014156Y019745D01*
X014158Y019775D01*
X014163Y019805D01*
X014172Y019834D01*
X014185Y019861D01*
X014200Y019887D01*
X014219Y019911D01*
X014240Y019932D01*
X014264Y019951D01*
X014290Y019966D01*
X014317Y019979D01*
X014346Y019988D01*
X014376Y019993D01*
X014406Y019995D01*
X017556Y019995D01*
X017598Y019993D01*
X017639Y019987D01*
X017679Y019978D01*
X017719Y019965D01*
X017757Y019948D01*
X017793Y019928D01*
X017827Y019904D01*
X017859Y019878D01*
X017889Y019848D01*
X017915Y019816D01*
X017939Y019782D01*
X017959Y019746D01*
X017976Y019708D01*
X017989Y019668D01*
X017998Y019628D01*
X018004Y019587D01*
X018006Y019545D01*
X018006Y016295D01*
X021156Y013120D01*
X021156Y001995D01*
X021154Y001953D01*
X021148Y001912D01*
X021139Y001872D01*
X021126Y001832D01*
X021109Y001794D01*
X021089Y001758D01*
X021065Y001724D01*
X021039Y001692D01*
X021009Y001662D01*
X020977Y001636D01*
X020943Y001612D01*
X020907Y001592D01*
X020869Y001575D01*
X020829Y001562D01*
X020789Y001553D01*
X020748Y001547D01*
X020706Y001545D01*
X015181Y001545D01*
X015139Y001547D01*
X015098Y001553D01*
X015058Y001562D01*
X015018Y001575D01*
X014980Y001592D01*
X014944Y001612D01*
X014910Y001636D01*
X014878Y001662D01*
X014848Y001692D01*
X014822Y001724D01*
X014798Y001758D01*
X014778Y001794D01*
X014761Y001832D01*
X014748Y001872D01*
X014739Y001912D01*
X014733Y001953D01*
X014731Y001995D01*
X014731Y009020D01*
X014729Y009064D01*
X014723Y009107D01*
X014714Y009149D01*
X014701Y009191D01*
X014684Y009231D01*
X014664Y009270D01*
X014641Y009307D01*
X014614Y009341D01*
X014585Y009374D01*
X014552Y009403D01*
X014518Y009430D01*
X014481Y009453D01*
X014442Y009473D01*
X014402Y009490D01*
X014360Y009503D01*
X014318Y009512D01*
X014275Y009518D01*
X014231Y009520D01*
X013356Y009520D01*
X013314Y009522D01*
X013273Y009528D01*
X013233Y009537D01*
X013193Y009550D01*
X013155Y009567D01*
X013119Y009587D01*
X013085Y009611D01*
X013053Y009637D01*
X013023Y009667D01*
X012997Y009699D01*
X012973Y009733D01*
X012953Y009769D01*
X012936Y009807D01*
X012923Y009847D01*
X012914Y009887D01*
X012908Y009928D01*
X012906Y009970D01*
D11*
X017255Y004110D03*
X017452Y004110D03*
X017649Y004110D03*
X017846Y004110D03*
X018042Y004110D03*
X018239Y004110D03*
X018436Y004110D03*
X018633Y004110D03*
D12*
X018909Y004110D03*
X019214Y004110D03*
X016979Y004110D03*
X016674Y004110D03*
D13*
X016421Y003664D02*
X016423Y003689D01*
X016429Y003714D01*
X016438Y003737D01*
X016451Y003759D01*
X016467Y003778D01*
X016486Y003795D01*
X016507Y003809D01*
X016530Y003819D01*
X016555Y003826D01*
X016580Y003829D01*
X016605Y003828D01*
X016630Y003823D01*
X016653Y003815D01*
X016676Y003802D01*
X016696Y003787D01*
X016713Y003769D01*
X016728Y003748D01*
X016739Y003726D01*
X016747Y003702D01*
X016751Y003677D01*
X016751Y003651D01*
X016747Y003626D01*
X016739Y003602D01*
X016728Y003580D01*
X016713Y003559D01*
X016696Y003541D01*
X016676Y003526D01*
X016653Y003513D01*
X016630Y003505D01*
X016605Y003500D01*
X016580Y003499D01*
X016555Y003502D01*
X016530Y003509D01*
X016507Y003519D01*
X016486Y003533D01*
X016467Y003550D01*
X016451Y003569D01*
X016438Y003591D01*
X016429Y003614D01*
X016423Y003639D01*
X016421Y003664D01*
X019137Y003664D02*
X019139Y003689D01*
X019145Y003714D01*
X019154Y003737D01*
X019167Y003759D01*
X019183Y003778D01*
X019202Y003795D01*
X019223Y003809D01*
X019246Y003819D01*
X019271Y003826D01*
X019296Y003829D01*
X019321Y003828D01*
X019346Y003823D01*
X019369Y003815D01*
X019392Y003802D01*
X019412Y003787D01*
X019429Y003769D01*
X019444Y003748D01*
X019455Y003726D01*
X019463Y003702D01*
X019467Y003677D01*
X019467Y003651D01*
X019463Y003626D01*
X019455Y003602D01*
X019444Y003580D01*
X019429Y003559D01*
X019412Y003541D01*
X019392Y003526D01*
X019369Y003513D01*
X019346Y003505D01*
X019321Y003500D01*
X019296Y003499D01*
X019271Y003502D01*
X019246Y003509D01*
X019223Y003519D01*
X019202Y003533D01*
X019183Y003550D01*
X019167Y003569D01*
X019154Y003591D01*
X019145Y003614D01*
X019139Y003639D01*
X019137Y003664D01*
X016740Y009277D02*
X016742Y009321D01*
X016748Y009365D01*
X016758Y009408D01*
X016771Y009450D01*
X016788Y009491D01*
X016809Y009530D01*
X016833Y009567D01*
X016860Y009602D01*
X016890Y009634D01*
X016923Y009664D01*
X016959Y009690D01*
X016996Y009714D01*
X017036Y009733D01*
X017077Y009750D01*
X017120Y009762D01*
X017163Y009771D01*
X017207Y009776D01*
X017251Y009777D01*
X017295Y009774D01*
X017339Y009767D01*
X017382Y009756D01*
X017424Y009742D01*
X017464Y009724D01*
X017503Y009702D01*
X017539Y009678D01*
X017573Y009650D01*
X017605Y009619D01*
X017634Y009585D01*
X017660Y009549D01*
X017682Y009511D01*
X017701Y009471D01*
X017716Y009429D01*
X017728Y009387D01*
X017736Y009343D01*
X017740Y009299D01*
X017740Y009255D01*
X017736Y009211D01*
X017728Y009167D01*
X017716Y009125D01*
X017701Y009083D01*
X017682Y009043D01*
X017660Y009005D01*
X017634Y008969D01*
X017605Y008935D01*
X017573Y008904D01*
X017539Y008876D01*
X017503Y008852D01*
X017464Y008830D01*
X017424Y008812D01*
X017382Y008798D01*
X017339Y008787D01*
X017295Y008780D01*
X017251Y008777D01*
X017207Y008778D01*
X017163Y008783D01*
X017120Y008792D01*
X017077Y008804D01*
X017036Y008821D01*
X016996Y008840D01*
X016959Y008864D01*
X016923Y008890D01*
X016890Y008920D01*
X016860Y008952D01*
X016833Y008987D01*
X016809Y009024D01*
X016788Y009063D01*
X016771Y009104D01*
X016758Y009146D01*
X016748Y009189D01*
X016742Y009233D01*
X016740Y009277D01*
D14*
X016129Y003885D03*
X016129Y002113D03*
X019759Y002113D03*
X019759Y003885D03*
D15*
X019562Y003885D02*
X019956Y003885D01*
X019956Y003887D02*
X019562Y003887D01*
X019562Y003889D02*
X019956Y003889D01*
X019956Y003892D02*
X019562Y003892D01*
X019562Y003894D02*
X019956Y003894D01*
X019956Y003897D02*
X019562Y003897D01*
X019562Y003899D02*
X019956Y003899D01*
X019956Y003902D02*
X019562Y003902D01*
X019562Y003904D02*
X019956Y003904D01*
X019956Y003907D02*
X019562Y003907D01*
X019562Y003909D02*
X019956Y003909D01*
X019956Y003911D02*
X019562Y003911D01*
X019562Y003914D02*
X019956Y003914D01*
X019956Y003916D02*
X019562Y003916D01*
X019562Y003919D02*
X019956Y003919D01*
X019956Y003921D02*
X019562Y003921D01*
X019562Y003924D02*
X019956Y003924D01*
X019956Y003926D02*
X019562Y003926D01*
X019562Y003928D02*
X019956Y003928D01*
X019956Y003931D02*
X019562Y003931D01*
X019562Y003933D02*
X019956Y003933D01*
X019956Y003936D02*
X019562Y003936D01*
X019562Y003938D02*
X019956Y003938D01*
X019956Y003941D02*
X019562Y003941D01*
X019562Y003943D02*
X019956Y003943D01*
X019956Y003946D02*
X019562Y003946D01*
X019562Y003948D02*
X019956Y003948D01*
X019956Y003950D02*
X019562Y003950D01*
X019562Y003953D02*
X019956Y003953D01*
X019956Y003955D02*
X019562Y003955D01*
X019562Y003958D02*
X019956Y003958D01*
X019956Y003960D02*
X019562Y003960D01*
X019562Y003963D02*
X019956Y003963D01*
X019956Y003965D02*
X019562Y003965D01*
X019562Y003967D02*
X019956Y003967D01*
X019956Y003970D02*
X019562Y003970D01*
X019562Y003972D02*
X019956Y003972D01*
X019956Y003975D02*
X019562Y003975D01*
X019562Y003977D02*
X019956Y003977D01*
X019956Y003980D02*
X019562Y003980D01*
X019562Y003982D02*
X019956Y003982D01*
X019956Y003985D02*
X019562Y003985D01*
X019562Y003987D02*
X019956Y003987D01*
X019956Y003989D02*
X019562Y003989D01*
X019562Y003992D02*
X019956Y003992D01*
X019956Y003994D02*
X019562Y003994D01*
X019562Y003997D02*
X019956Y003997D01*
X019956Y003999D02*
X019562Y003999D01*
X019562Y004002D02*
X019956Y004002D01*
X019956Y004004D02*
X019562Y004004D01*
X019562Y004006D02*
X019956Y004006D01*
X019956Y004009D02*
X019562Y004009D01*
X019562Y004011D02*
X019956Y004011D01*
X019956Y004014D02*
X019562Y004014D01*
X019562Y004016D02*
X019956Y004016D01*
X019956Y004019D02*
X019562Y004019D01*
X019562Y004021D02*
X019956Y004021D01*
X019956Y004024D02*
X019562Y004024D01*
X019562Y004026D02*
X019956Y004026D01*
X019956Y004028D02*
X019562Y004028D01*
X019562Y004031D02*
X019956Y004031D01*
X019956Y004033D02*
X019562Y004033D01*
X019562Y004036D02*
X019956Y004036D01*
X019956Y004038D02*
X019562Y004038D01*
X019562Y004041D02*
X019956Y004041D01*
X019956Y004043D02*
X019562Y004043D01*
X019562Y004045D02*
X019956Y004045D01*
X019956Y004048D02*
X019562Y004048D01*
X019562Y004050D02*
X019956Y004050D01*
X019956Y004053D02*
X019562Y004053D01*
X019562Y004055D02*
X019956Y004055D01*
X019956Y004058D02*
X019562Y004058D01*
X019562Y004060D02*
X019956Y004060D01*
X019956Y004063D02*
X019562Y004063D01*
X019562Y004065D02*
X019956Y004065D01*
X019956Y004067D02*
X019562Y004067D01*
X019562Y004070D02*
X019956Y004070D01*
X019956Y004072D02*
X019562Y004072D01*
X019562Y004075D02*
X019956Y004075D01*
X019956Y004077D02*
X019562Y004077D01*
X019562Y004080D02*
X019956Y004080D01*
X019956Y004082D02*
X019562Y004082D01*
X019562Y004084D02*
X019956Y004084D01*
X019956Y004087D02*
X019562Y004087D01*
X019562Y004089D02*
X019956Y004089D01*
X019956Y004092D02*
X019562Y004092D01*
X019562Y004094D02*
X019956Y004094D01*
X019956Y004097D02*
X019562Y004097D01*
X019562Y004099D02*
X019956Y004099D01*
X019956Y004101D02*
X019951Y004145D01*
X019936Y004187D01*
X019582Y004187D01*
X019605Y004224D01*
X019636Y004255D01*
X019882Y004255D01*
X019913Y004224D01*
X019936Y004187D01*
X019935Y004189D02*
X019583Y004189D01*
X019582Y004187D02*
X019567Y004145D01*
X019562Y004101D01*
X019562Y003668D01*
X019567Y003625D01*
X019582Y003583D01*
X019605Y003546D01*
X019913Y003546D01*
X019882Y003514D01*
X019844Y003491D01*
X019803Y003476D01*
X019759Y003471D01*
X019715Y003476D01*
X019674Y003491D01*
X019636Y003514D01*
X019605Y003546D01*
X019603Y003548D02*
X019915Y003548D01*
X019916Y003551D02*
X019602Y003551D01*
X019600Y003553D02*
X019918Y003553D01*
X019919Y003556D02*
X019599Y003556D01*
X019597Y003558D02*
X019921Y003558D01*
X019922Y003560D02*
X019596Y003560D01*
X019594Y003563D02*
X019924Y003563D01*
X019925Y003565D02*
X019593Y003565D01*
X019591Y003568D02*
X019927Y003568D01*
X019928Y003570D02*
X019590Y003570D01*
X019588Y003573D02*
X019930Y003573D01*
X019931Y003575D02*
X019587Y003575D01*
X019585Y003578D02*
X019933Y003578D01*
X019934Y003580D02*
X019583Y003580D01*
X019582Y003582D02*
X019936Y003582D01*
X019936Y003583D02*
X019913Y003546D01*
X019911Y003543D02*
X019607Y003543D01*
X019610Y003541D02*
X019908Y003541D01*
X019906Y003539D02*
X019612Y003539D01*
X019615Y003536D02*
X019903Y003536D01*
X019901Y003534D02*
X019617Y003534D01*
X019619Y003531D02*
X019898Y003531D01*
X019896Y003529D02*
X019622Y003529D01*
X019624Y003526D02*
X019894Y003526D01*
X019891Y003524D02*
X019627Y003524D01*
X019629Y003521D02*
X019889Y003521D01*
X019886Y003519D02*
X019632Y003519D01*
X019634Y003517D02*
X019884Y003517D01*
X019881Y003514D02*
X019637Y003514D01*
X019641Y003512D02*
X019877Y003512D01*
X019874Y003509D02*
X019644Y003509D01*
X019648Y003507D02*
X019870Y003507D01*
X019866Y003504D02*
X019652Y003504D01*
X019656Y003502D02*
X019862Y003502D01*
X019858Y003500D02*
X019660Y003500D01*
X019664Y003497D02*
X019854Y003497D01*
X019850Y003495D02*
X019668Y003495D01*
X019672Y003492D02*
X019846Y003492D01*
X019841Y003490D02*
X019677Y003490D01*
X019684Y003487D02*
X019834Y003487D01*
X019827Y003485D02*
X019691Y003485D01*
X019698Y003482D02*
X019820Y003482D01*
X019813Y003480D02*
X019705Y003480D01*
X019712Y003478D02*
X019806Y003478D01*
X019792Y003475D02*
X019726Y003475D01*
X019748Y003473D02*
X019770Y003473D01*
X019936Y003583D02*
X019951Y003625D01*
X019956Y003668D01*
X019956Y004101D01*
X019956Y004102D02*
X019562Y004102D01*
X019562Y004104D02*
X019956Y004104D01*
X019955Y004106D02*
X019563Y004106D01*
X019563Y004109D02*
X019955Y004109D01*
X019955Y004111D02*
X019563Y004111D01*
X019563Y004114D02*
X019954Y004114D01*
X019954Y004116D02*
X019564Y004116D01*
X019564Y004119D02*
X019954Y004119D01*
X019954Y004121D02*
X019564Y004121D01*
X019565Y004123D02*
X019953Y004123D01*
X019953Y004126D02*
X019565Y004126D01*
X019565Y004128D02*
X019953Y004128D01*
X019952Y004131D02*
X019565Y004131D01*
X019566Y004133D02*
X019952Y004133D01*
X019952Y004136D02*
X019566Y004136D01*
X019566Y004138D02*
X019952Y004138D01*
X019951Y004141D02*
X019567Y004141D01*
X019567Y004143D02*
X019951Y004143D01*
X019951Y004145D02*
X019567Y004145D01*
X019568Y004148D02*
X019950Y004148D01*
X019949Y004150D02*
X019569Y004150D01*
X019570Y004153D02*
X019948Y004153D01*
X019947Y004155D02*
X019571Y004155D01*
X019571Y004158D02*
X019947Y004158D01*
X019946Y004160D02*
X019572Y004160D01*
X019573Y004162D02*
X019945Y004162D01*
X019944Y004165D02*
X019574Y004165D01*
X019575Y004167D02*
X019943Y004167D01*
X019942Y004170D02*
X019576Y004170D01*
X019576Y004172D02*
X019941Y004172D01*
X019941Y004175D02*
X019577Y004175D01*
X019578Y004177D02*
X019940Y004177D01*
X019939Y004180D02*
X019579Y004180D01*
X019580Y004182D02*
X019938Y004182D01*
X019937Y004184D02*
X019581Y004184D01*
X019585Y004192D02*
X019933Y004192D01*
X019932Y004194D02*
X019586Y004194D01*
X019588Y004197D02*
X019930Y004197D01*
X019929Y004199D02*
X019589Y004199D01*
X019591Y004201D02*
X019927Y004201D01*
X019926Y004204D02*
X019592Y004204D01*
X019594Y004206D02*
X019924Y004206D01*
X019923Y004209D02*
X019595Y004209D01*
X019597Y004211D02*
X019921Y004211D01*
X019919Y004214D02*
X019598Y004214D01*
X019600Y004216D02*
X019918Y004216D01*
X019916Y004219D02*
X019602Y004219D01*
X019603Y004221D02*
X019915Y004221D01*
X019913Y004223D02*
X019605Y004223D01*
X019607Y004226D02*
X019911Y004226D01*
X019909Y004228D02*
X019609Y004228D01*
X019612Y004231D02*
X019906Y004231D01*
X019904Y004233D02*
X019614Y004233D01*
X019617Y004236D02*
X019901Y004236D01*
X019899Y004238D02*
X019619Y004238D01*
X019621Y004240D02*
X019897Y004240D01*
X019894Y004243D02*
X019624Y004243D01*
X019626Y004245D02*
X019892Y004245D01*
X019889Y004248D02*
X019629Y004248D01*
X019631Y004250D02*
X019887Y004250D01*
X019884Y004253D02*
X019634Y004253D01*
X019636Y004255D02*
X019674Y004279D01*
X019715Y004293D01*
X019759Y004298D01*
X019803Y004293D01*
X019844Y004279D01*
X019882Y004255D01*
X019878Y004258D02*
X019640Y004258D01*
X019644Y004260D02*
X019874Y004260D01*
X019870Y004262D02*
X019648Y004262D01*
X019651Y004265D02*
X019867Y004265D01*
X019863Y004267D02*
X019655Y004267D01*
X019659Y004270D02*
X019859Y004270D01*
X019855Y004272D02*
X019663Y004272D01*
X019667Y004275D02*
X019851Y004275D01*
X019847Y004277D02*
X019671Y004277D01*
X019676Y004279D02*
X019842Y004279D01*
X019835Y004282D02*
X019683Y004282D01*
X019690Y004284D02*
X019828Y004284D01*
X019821Y004287D02*
X019696Y004287D01*
X019703Y004289D02*
X019814Y004289D01*
X019808Y004292D02*
X019710Y004292D01*
X019722Y004294D02*
X019796Y004294D01*
X019774Y004297D02*
X019744Y004297D01*
X019562Y003882D02*
X019956Y003882D01*
X019956Y003880D02*
X019562Y003880D01*
X019562Y003877D02*
X019956Y003877D01*
X019956Y003875D02*
X019562Y003875D01*
X019562Y003872D02*
X019956Y003872D01*
X019956Y003870D02*
X019562Y003870D01*
X019562Y003868D02*
X019956Y003868D01*
X019956Y003865D02*
X019562Y003865D01*
X019562Y003863D02*
X019956Y003863D01*
X019956Y003860D02*
X019562Y003860D01*
X019562Y003858D02*
X019956Y003858D01*
X019956Y003855D02*
X019562Y003855D01*
X019562Y003853D02*
X019956Y003853D01*
X019956Y003850D02*
X019562Y003850D01*
X019562Y003848D02*
X019956Y003848D01*
X019956Y003846D02*
X019562Y003846D01*
X019562Y003843D02*
X019956Y003843D01*
X019956Y003841D02*
X019562Y003841D01*
X019562Y003838D02*
X019956Y003838D01*
X019956Y003836D02*
X019562Y003836D01*
X019562Y003833D02*
X019956Y003833D01*
X019956Y003831D02*
X019562Y003831D01*
X019562Y003829D02*
X019956Y003829D01*
X019956Y003826D02*
X019562Y003826D01*
X019562Y003824D02*
X019956Y003824D01*
X019956Y003821D02*
X019562Y003821D01*
X019562Y003819D02*
X019956Y003819D01*
X019956Y003816D02*
X019562Y003816D01*
X019562Y003814D02*
X019956Y003814D01*
X019956Y003811D02*
X019562Y003811D01*
X019562Y003809D02*
X019956Y003809D01*
X019956Y003807D02*
X019562Y003807D01*
X019562Y003804D02*
X019956Y003804D01*
X019956Y003802D02*
X019562Y003802D01*
X019562Y003799D02*
X019956Y003799D01*
X019956Y003797D02*
X019562Y003797D01*
X019562Y003794D02*
X019956Y003794D01*
X019956Y003792D02*
X019562Y003792D01*
X019562Y003790D02*
X019956Y003790D01*
X019956Y003787D02*
X019562Y003787D01*
X019562Y003785D02*
X019956Y003785D01*
X019956Y003782D02*
X019562Y003782D01*
X019562Y003780D02*
X019956Y003780D01*
X019956Y003777D02*
X019562Y003777D01*
X019562Y003775D02*
X019956Y003775D01*
X019956Y003772D02*
X019562Y003772D01*
X019562Y003770D02*
X019956Y003770D01*
X019956Y003768D02*
X019562Y003768D01*
X019562Y003765D02*
X019956Y003765D01*
X019956Y003763D02*
X019562Y003763D01*
X019562Y003760D02*
X019956Y003760D01*
X019956Y003758D02*
X019562Y003758D01*
X019562Y003755D02*
X019956Y003755D01*
X019956Y003753D02*
X019562Y003753D01*
X019562Y003751D02*
X019956Y003751D01*
X019956Y003748D02*
X019562Y003748D01*
X019562Y003746D02*
X019956Y003746D01*
X019956Y003743D02*
X019562Y003743D01*
X019562Y003741D02*
X019956Y003741D01*
X019956Y003738D02*
X019562Y003738D01*
X019562Y003736D02*
X019956Y003736D01*
X019956Y003733D02*
X019562Y003733D01*
X019562Y003731D02*
X019956Y003731D01*
X019956Y003729D02*
X019562Y003729D01*
X019562Y003726D02*
X019956Y003726D01*
X019956Y003724D02*
X019562Y003724D01*
X019562Y003721D02*
X019956Y003721D01*
X019956Y003719D02*
X019562Y003719D01*
X019562Y003716D02*
X019956Y003716D01*
X019956Y003714D02*
X019562Y003714D01*
X019562Y003712D02*
X019956Y003712D01*
X019956Y003709D02*
X019562Y003709D01*
X019562Y003707D02*
X019956Y003707D01*
X019956Y003704D02*
X019562Y003704D01*
X019562Y003702D02*
X019956Y003702D01*
X019956Y003699D02*
X019562Y003699D01*
X019562Y003697D02*
X019956Y003697D01*
X019956Y003695D02*
X019562Y003695D01*
X019562Y003692D02*
X019956Y003692D01*
X019956Y003690D02*
X019562Y003690D01*
X019562Y003687D02*
X019956Y003687D01*
X019956Y003685D02*
X019562Y003685D01*
X019562Y003682D02*
X019956Y003682D01*
X019956Y003680D02*
X019562Y003680D01*
X019562Y003677D02*
X019956Y003677D01*
X019956Y003675D02*
X019562Y003675D01*
X019562Y003673D02*
X019956Y003673D01*
X019956Y003670D02*
X019562Y003670D01*
X019562Y003668D02*
X019956Y003668D01*
X019955Y003665D02*
X019562Y003665D01*
X019563Y003663D02*
X019955Y003663D01*
X019955Y003660D02*
X019563Y003660D01*
X019563Y003658D02*
X019955Y003658D01*
X019954Y003656D02*
X019564Y003656D01*
X019564Y003653D02*
X019954Y003653D01*
X019954Y003651D02*
X019564Y003651D01*
X019564Y003648D02*
X019954Y003648D01*
X019953Y003646D02*
X019565Y003646D01*
X019565Y003643D02*
X019953Y003643D01*
X019953Y003641D02*
X019565Y003641D01*
X019565Y003638D02*
X019952Y003638D01*
X019952Y003636D02*
X019566Y003636D01*
X019566Y003634D02*
X019952Y003634D01*
X019952Y003631D02*
X019566Y003631D01*
X019567Y003629D02*
X019951Y003629D01*
X019951Y003626D02*
X019567Y003626D01*
X019567Y003624D02*
X019951Y003624D01*
X019950Y003621D02*
X019568Y003621D01*
X019569Y003619D02*
X019949Y003619D01*
X019948Y003617D02*
X019570Y003617D01*
X019571Y003614D02*
X019947Y003614D01*
X019946Y003612D02*
X019572Y003612D01*
X019572Y003609D02*
X019946Y003609D01*
X019945Y003607D02*
X019573Y003607D01*
X019574Y003604D02*
X019944Y003604D01*
X019943Y003602D02*
X019575Y003602D01*
X019576Y003599D02*
X019942Y003599D01*
X019941Y003597D02*
X019577Y003597D01*
X019578Y003595D02*
X019940Y003595D01*
X019940Y003592D02*
X019578Y003592D01*
X019579Y003590D02*
X019939Y003590D01*
X019938Y003587D02*
X019580Y003587D01*
X019581Y003585D02*
X019937Y003585D01*
X019803Y002522D02*
X019844Y002507D01*
X019882Y002484D01*
X019913Y002452D01*
X019936Y002415D01*
X019951Y002374D01*
X019956Y002330D01*
X019956Y001897D01*
X019951Y001853D01*
X019936Y001811D01*
X019913Y001774D01*
X019605Y001774D01*
X019582Y001811D01*
X019567Y001853D01*
X019562Y001897D01*
X019562Y002330D01*
X019567Y002374D01*
X019582Y002415D01*
X019605Y002452D01*
X019636Y002484D01*
X019674Y002507D01*
X019715Y002522D01*
X019759Y002527D01*
X019803Y002522D01*
X019798Y002522D02*
X019720Y002522D01*
X019710Y002520D02*
X019808Y002520D01*
X019815Y002517D02*
X019703Y002517D01*
X019696Y002515D02*
X019822Y002515D01*
X019829Y002512D02*
X019689Y002512D01*
X019682Y002510D02*
X019836Y002510D01*
X019843Y002508D02*
X019675Y002508D01*
X019670Y002505D02*
X019847Y002505D01*
X019851Y002503D02*
X019667Y002503D01*
X019663Y002500D02*
X019855Y002500D01*
X019859Y002498D02*
X019659Y002498D01*
X019655Y002495D02*
X019863Y002495D01*
X019867Y002493D02*
X019651Y002493D01*
X019647Y002490D02*
X019871Y002490D01*
X019875Y002488D02*
X019643Y002488D01*
X019639Y002486D02*
X019879Y002486D01*
X019882Y002483D02*
X019636Y002483D01*
X019633Y002481D02*
X019885Y002481D01*
X019887Y002478D02*
X019631Y002478D01*
X019628Y002476D02*
X019889Y002476D01*
X019892Y002473D02*
X019626Y002473D01*
X019624Y002471D02*
X019894Y002471D01*
X019897Y002469D02*
X019621Y002469D01*
X019619Y002466D02*
X019899Y002466D01*
X019902Y002464D02*
X019616Y002464D01*
X019614Y002461D02*
X019904Y002461D01*
X019907Y002459D02*
X019611Y002459D01*
X019609Y002456D02*
X019909Y002456D01*
X019911Y002454D02*
X019607Y002454D01*
X019604Y002452D02*
X019913Y002452D01*
X019915Y002449D02*
X019603Y002449D01*
X019601Y002447D02*
X019917Y002447D01*
X019918Y002444D02*
X019600Y002444D01*
X019598Y002442D02*
X019920Y002442D01*
X019921Y002439D02*
X019597Y002439D01*
X019595Y002437D02*
X019923Y002437D01*
X019924Y002434D02*
X019594Y002434D01*
X019592Y002432D02*
X019926Y002432D01*
X019927Y002430D02*
X019591Y002430D01*
X019589Y002427D02*
X019929Y002427D01*
X019930Y002425D02*
X019588Y002425D01*
X019586Y002422D02*
X019932Y002422D01*
X019933Y002420D02*
X019585Y002420D01*
X019583Y002417D02*
X019935Y002417D01*
X019936Y002415D02*
X019582Y002415D01*
X019581Y002413D02*
X019937Y002413D01*
X019938Y002410D02*
X019580Y002410D01*
X019579Y002408D02*
X019939Y002408D01*
X019940Y002405D02*
X019578Y002405D01*
X019577Y002403D02*
X019941Y002403D01*
X019941Y002400D02*
X019576Y002400D01*
X019576Y002398D02*
X019942Y002398D01*
X019943Y002395D02*
X019575Y002395D01*
X019574Y002393D02*
X019944Y002393D01*
X019945Y002391D02*
X019573Y002391D01*
X019572Y002388D02*
X019946Y002388D01*
X019947Y002386D02*
X019571Y002386D01*
X019570Y002383D02*
X019947Y002383D01*
X019948Y002381D02*
X019570Y002381D01*
X019569Y002378D02*
X019949Y002378D01*
X019950Y002376D02*
X019568Y002376D01*
X019567Y002374D02*
X019951Y002374D01*
X019951Y002371D02*
X019567Y002371D01*
X019566Y002369D02*
X019951Y002369D01*
X019952Y002366D02*
X019566Y002366D01*
X019566Y002364D02*
X019952Y002364D01*
X019952Y002361D02*
X019566Y002361D01*
X019565Y002359D02*
X019953Y002359D01*
X019953Y002356D02*
X019565Y002356D01*
X019565Y002354D02*
X019953Y002354D01*
X019953Y002352D02*
X019565Y002352D01*
X019564Y002349D02*
X019954Y002349D01*
X019954Y002347D02*
X019564Y002347D01*
X019564Y002344D02*
X019954Y002344D01*
X019954Y002342D02*
X019563Y002342D01*
X019563Y002339D02*
X019955Y002339D01*
X019955Y002337D02*
X019563Y002337D01*
X019563Y002335D02*
X019955Y002335D01*
X019956Y002332D02*
X019562Y002332D01*
X019562Y002330D02*
X019956Y002330D01*
X019956Y002327D02*
X019562Y002327D01*
X019562Y002325D02*
X019956Y002325D01*
X019956Y002322D02*
X019562Y002322D01*
X019562Y002320D02*
X019956Y002320D01*
X019956Y002317D02*
X019562Y002317D01*
X019562Y002315D02*
X019956Y002315D01*
X019956Y002313D02*
X019562Y002313D01*
X019562Y002310D02*
X019956Y002310D01*
X019956Y002308D02*
X019562Y002308D01*
X019562Y002305D02*
X019956Y002305D01*
X019956Y002303D02*
X019562Y002303D01*
X019562Y002300D02*
X019956Y002300D01*
X019956Y002298D02*
X019562Y002298D01*
X019562Y002296D02*
X019956Y002296D01*
X019956Y002293D02*
X019562Y002293D01*
X019562Y002291D02*
X019956Y002291D01*
X019956Y002288D02*
X019562Y002288D01*
X019562Y002286D02*
X019956Y002286D01*
X019956Y002283D02*
X019562Y002283D01*
X019562Y002281D02*
X019956Y002281D01*
X019956Y002278D02*
X019562Y002278D01*
X019562Y002276D02*
X019956Y002276D01*
X019956Y002274D02*
X019562Y002274D01*
X019562Y002271D02*
X019956Y002271D01*
X019956Y002269D02*
X019562Y002269D01*
X019562Y002266D02*
X019956Y002266D01*
X019956Y002264D02*
X019562Y002264D01*
X019562Y002261D02*
X019956Y002261D01*
X019956Y002259D02*
X019562Y002259D01*
X019562Y002257D02*
X019956Y002257D01*
X019956Y002254D02*
X019562Y002254D01*
X019562Y002252D02*
X019956Y002252D01*
X019956Y002249D02*
X019562Y002249D01*
X019562Y002247D02*
X019956Y002247D01*
X019956Y002244D02*
X019562Y002244D01*
X019562Y002242D02*
X019956Y002242D01*
X019956Y002239D02*
X019562Y002239D01*
X019562Y002237D02*
X019956Y002237D01*
X019956Y002235D02*
X019562Y002235D01*
X019562Y002232D02*
X019956Y002232D01*
X019956Y002230D02*
X019562Y002230D01*
X019562Y002227D02*
X019956Y002227D01*
X019956Y002225D02*
X019562Y002225D01*
X019562Y002222D02*
X019956Y002222D01*
X019956Y002220D02*
X019562Y002220D01*
X019562Y002218D02*
X019956Y002218D01*
X019956Y002215D02*
X019562Y002215D01*
X019562Y002213D02*
X019956Y002213D01*
X019956Y002210D02*
X019562Y002210D01*
X019562Y002208D02*
X019956Y002208D01*
X019956Y002205D02*
X019562Y002205D01*
X019562Y002203D02*
X019956Y002203D01*
X019956Y002200D02*
X019562Y002200D01*
X019562Y002198D02*
X019956Y002198D01*
X019956Y002196D02*
X019562Y002196D01*
X019562Y002193D02*
X019956Y002193D01*
X019956Y002191D02*
X019562Y002191D01*
X019562Y002188D02*
X019956Y002188D01*
X019956Y002186D02*
X019562Y002186D01*
X019562Y002183D02*
X019956Y002183D01*
X019956Y002181D02*
X019562Y002181D01*
X019562Y002179D02*
X019956Y002179D01*
X019956Y002176D02*
X019562Y002176D01*
X019562Y002174D02*
X019956Y002174D01*
X019956Y002171D02*
X019562Y002171D01*
X019562Y002169D02*
X019956Y002169D01*
X019956Y002166D02*
X019562Y002166D01*
X019562Y002164D02*
X019956Y002164D01*
X019956Y002161D02*
X019562Y002161D01*
X019562Y002159D02*
X019956Y002159D01*
X019956Y002157D02*
X019562Y002157D01*
X019562Y002154D02*
X019956Y002154D01*
X019956Y002152D02*
X019562Y002152D01*
X019562Y002149D02*
X019956Y002149D01*
X019956Y002147D02*
X019562Y002147D01*
X019562Y002144D02*
X019956Y002144D01*
X019956Y002142D02*
X019562Y002142D01*
X019562Y002140D02*
X019956Y002140D01*
X019956Y002137D02*
X019562Y002137D01*
X019562Y002135D02*
X019956Y002135D01*
X019956Y002132D02*
X019562Y002132D01*
X019562Y002130D02*
X019956Y002130D01*
X019956Y002127D02*
X019562Y002127D01*
X019562Y002125D02*
X019956Y002125D01*
X019956Y002122D02*
X019562Y002122D01*
X019562Y002120D02*
X019956Y002120D01*
X019956Y002118D02*
X019562Y002118D01*
X019562Y002115D02*
X019956Y002115D01*
X019956Y002113D02*
X019562Y002113D01*
X019562Y002110D02*
X019956Y002110D01*
X019956Y002108D02*
X019562Y002108D01*
X019562Y002105D02*
X019956Y002105D01*
X019956Y002103D02*
X019562Y002103D01*
X019562Y002101D02*
X019956Y002101D01*
X019956Y002098D02*
X019562Y002098D01*
X019562Y002096D02*
X019956Y002096D01*
X019956Y002093D02*
X019562Y002093D01*
X019562Y002091D02*
X019956Y002091D01*
X019956Y002088D02*
X019562Y002088D01*
X019562Y002086D02*
X019956Y002086D01*
X019956Y002083D02*
X019562Y002083D01*
X019562Y002081D02*
X019956Y002081D01*
X019956Y002079D02*
X019562Y002079D01*
X019562Y002076D02*
X019956Y002076D01*
X019956Y002074D02*
X019562Y002074D01*
X019562Y002071D02*
X019956Y002071D01*
X019956Y002069D02*
X019562Y002069D01*
X019562Y002066D02*
X019956Y002066D01*
X019956Y002064D02*
X019562Y002064D01*
X019562Y002062D02*
X019956Y002062D01*
X019956Y002059D02*
X019562Y002059D01*
X019562Y002057D02*
X019956Y002057D01*
X019956Y002054D02*
X019562Y002054D01*
X019562Y002052D02*
X019956Y002052D01*
X019956Y002049D02*
X019562Y002049D01*
X019562Y002047D02*
X019956Y002047D01*
X019956Y002044D02*
X019562Y002044D01*
X019562Y002042D02*
X019956Y002042D01*
X019956Y002040D02*
X019562Y002040D01*
X019562Y002037D02*
X019956Y002037D01*
X019956Y002035D02*
X019562Y002035D01*
X019562Y002032D02*
X019956Y002032D01*
X019956Y002030D02*
X019562Y002030D01*
X019562Y002027D02*
X019956Y002027D01*
X019956Y002025D02*
X019562Y002025D01*
X019562Y002023D02*
X019956Y002023D01*
X019956Y002020D02*
X019562Y002020D01*
X019562Y002018D02*
X019956Y002018D01*
X019956Y002015D02*
X019562Y002015D01*
X019562Y002013D02*
X019956Y002013D01*
X019956Y002010D02*
X019562Y002010D01*
X019562Y002008D02*
X019956Y002008D01*
X019956Y002005D02*
X019562Y002005D01*
X019562Y002003D02*
X019956Y002003D01*
X019956Y002001D02*
X019562Y002001D01*
X019562Y001998D02*
X019956Y001998D01*
X019956Y001996D02*
X019562Y001996D01*
X019562Y001993D02*
X019956Y001993D01*
X019956Y001991D02*
X019562Y001991D01*
X019562Y001988D02*
X019956Y001988D01*
X019956Y001986D02*
X019562Y001986D01*
X019562Y001984D02*
X019956Y001984D01*
X019956Y001981D02*
X019562Y001981D01*
X019562Y001979D02*
X019956Y001979D01*
X019956Y001976D02*
X019562Y001976D01*
X019562Y001974D02*
X019956Y001974D01*
X019956Y001971D02*
X019562Y001971D01*
X019562Y001969D02*
X019956Y001969D01*
X019956Y001966D02*
X019562Y001966D01*
X019562Y001964D02*
X019956Y001964D01*
X019956Y001962D02*
X019562Y001962D01*
X019562Y001959D02*
X019956Y001959D01*
X019956Y001957D02*
X019562Y001957D01*
X019562Y001954D02*
X019956Y001954D01*
X019956Y001952D02*
X019562Y001952D01*
X019562Y001949D02*
X019956Y001949D01*
X019956Y001947D02*
X019562Y001947D01*
X019562Y001945D02*
X019956Y001945D01*
X019956Y001942D02*
X019562Y001942D01*
X019562Y001940D02*
X019956Y001940D01*
X019956Y001937D02*
X019562Y001937D01*
X019562Y001935D02*
X019956Y001935D01*
X019956Y001932D02*
X019562Y001932D01*
X019562Y001930D02*
X019956Y001930D01*
X019956Y001927D02*
X019562Y001927D01*
X019562Y001925D02*
X019956Y001925D01*
X019956Y001923D02*
X019562Y001923D01*
X019562Y001920D02*
X019956Y001920D01*
X019956Y001918D02*
X019562Y001918D01*
X019562Y001915D02*
X019956Y001915D01*
X019956Y001913D02*
X019562Y001913D01*
X019562Y001910D02*
X019956Y001910D01*
X019956Y001908D02*
X019562Y001908D01*
X019562Y001906D02*
X019956Y001906D01*
X019956Y001903D02*
X019562Y001903D01*
X019562Y001901D02*
X019956Y001901D01*
X019956Y001898D02*
X019562Y001898D01*
X019562Y001896D02*
X019956Y001896D01*
X019955Y001893D02*
X019562Y001893D01*
X019563Y001891D02*
X019955Y001891D01*
X019955Y001888D02*
X019563Y001888D01*
X019563Y001886D02*
X019955Y001886D01*
X019954Y001884D02*
X019564Y001884D01*
X019564Y001881D02*
X019954Y001881D01*
X019954Y001879D02*
X019564Y001879D01*
X019564Y001876D02*
X019954Y001876D01*
X019953Y001874D02*
X019565Y001874D01*
X019565Y001871D02*
X019953Y001871D01*
X019953Y001869D02*
X019565Y001869D01*
X019565Y001867D02*
X019952Y001867D01*
X019952Y001864D02*
X019566Y001864D01*
X019566Y001862D02*
X019952Y001862D01*
X019952Y001859D02*
X019566Y001859D01*
X019567Y001857D02*
X019951Y001857D01*
X019951Y001854D02*
X019567Y001854D01*
X019567Y001852D02*
X019951Y001852D01*
X019950Y001850D02*
X019568Y001850D01*
X019569Y001847D02*
X019949Y001847D01*
X019948Y001845D02*
X019570Y001845D01*
X019571Y001842D02*
X019947Y001842D01*
X019946Y001840D02*
X019572Y001840D01*
X019572Y001837D02*
X019945Y001837D01*
X019945Y001835D02*
X019573Y001835D01*
X019574Y001832D02*
X019944Y001832D01*
X019943Y001830D02*
X019575Y001830D01*
X019576Y001828D02*
X019942Y001828D01*
X019941Y001825D02*
X019577Y001825D01*
X019578Y001823D02*
X019940Y001823D01*
X019939Y001820D02*
X019578Y001820D01*
X019579Y001818D02*
X019939Y001818D01*
X019938Y001815D02*
X019580Y001815D01*
X019581Y001813D02*
X019937Y001813D01*
X019936Y001811D02*
X019582Y001811D01*
X019584Y001808D02*
X019934Y001808D01*
X019933Y001806D02*
X019585Y001806D01*
X019587Y001803D02*
X019931Y001803D01*
X019930Y001801D02*
X019588Y001801D01*
X019590Y001798D02*
X019928Y001798D01*
X019927Y001796D02*
X019591Y001796D01*
X019593Y001793D02*
X019925Y001793D01*
X019924Y001791D02*
X019594Y001791D01*
X019596Y001789D02*
X019922Y001789D01*
X019921Y001786D02*
X019597Y001786D01*
X019599Y001784D02*
X019919Y001784D01*
X019917Y001781D02*
X019600Y001781D01*
X019602Y001779D02*
X019916Y001779D01*
X019914Y001776D02*
X019604Y001776D01*
X019605Y001774D02*
X019636Y001743D01*
X019674Y001719D01*
X019715Y001705D01*
X019759Y001700D01*
X019803Y001705D01*
X019844Y001719D01*
X019882Y001743D01*
X019913Y001774D01*
X019910Y001772D02*
X019607Y001772D01*
X019610Y001769D02*
X019908Y001769D01*
X019906Y001767D02*
X019612Y001767D01*
X019615Y001764D02*
X019903Y001764D01*
X019901Y001762D02*
X019617Y001762D01*
X019620Y001759D02*
X019898Y001759D01*
X019896Y001757D02*
X019622Y001757D01*
X019625Y001754D02*
X019893Y001754D01*
X019891Y001752D02*
X019627Y001752D01*
X019629Y001750D02*
X019889Y001750D01*
X019886Y001747D02*
X019632Y001747D01*
X019634Y001745D02*
X019884Y001745D01*
X019881Y001742D02*
X019637Y001742D01*
X019641Y001740D02*
X019877Y001740D01*
X019873Y001737D02*
X019645Y001737D01*
X019649Y001735D02*
X019869Y001735D01*
X019865Y001733D02*
X019653Y001733D01*
X019656Y001730D02*
X019862Y001730D01*
X019858Y001728D02*
X019660Y001728D01*
X019664Y001725D02*
X019854Y001725D01*
X019850Y001723D02*
X019668Y001723D01*
X019672Y001720D02*
X019846Y001720D01*
X019840Y001718D02*
X019678Y001718D01*
X019685Y001715D02*
X019833Y001715D01*
X019826Y001713D02*
X019692Y001713D01*
X019698Y001711D02*
X019819Y001711D01*
X019812Y001708D02*
X019705Y001708D01*
X019712Y001706D02*
X019806Y001706D01*
X019790Y001703D02*
X019728Y001703D01*
X019750Y001701D02*
X019768Y001701D01*
X019742Y002525D02*
X019776Y002525D01*
X016326Y002330D02*
X016326Y001897D01*
X016321Y001853D01*
X016306Y001811D01*
X016283Y001774D01*
X015975Y001774D01*
X015952Y001811D01*
X015937Y001853D01*
X015932Y001897D01*
X015932Y002330D01*
X015937Y002374D01*
X015952Y002415D01*
X015975Y002452D01*
X016006Y002484D01*
X016044Y002507D01*
X016085Y002522D01*
X016129Y002527D01*
X016173Y002522D01*
X016214Y002507D01*
X016252Y002484D01*
X016283Y002452D01*
X016306Y002415D01*
X016321Y002374D01*
X016326Y002330D01*
X015932Y002330D01*
X015932Y002332D02*
X016326Y002332D01*
X016325Y002335D02*
X015933Y002335D01*
X015933Y002337D02*
X016325Y002337D01*
X016325Y002339D02*
X015933Y002339D01*
X015934Y002342D02*
X016325Y002342D01*
X016324Y002344D02*
X015934Y002344D01*
X015934Y002347D02*
X016324Y002347D01*
X016324Y002349D02*
X015934Y002349D01*
X015935Y002352D02*
X016323Y002352D01*
X016323Y002354D02*
X015935Y002354D01*
X015935Y002356D02*
X016323Y002356D01*
X016323Y002359D02*
X015935Y002359D01*
X015936Y002361D02*
X016322Y002361D01*
X016322Y002364D02*
X015936Y002364D01*
X015936Y002366D02*
X016322Y002366D01*
X016321Y002369D02*
X015937Y002369D01*
X015937Y002371D02*
X016321Y002371D01*
X016321Y002374D02*
X015937Y002374D01*
X015938Y002376D02*
X016320Y002376D01*
X016319Y002378D02*
X015939Y002378D01*
X015940Y002381D02*
X016318Y002381D01*
X016318Y002383D02*
X015941Y002383D01*
X015941Y002386D02*
X016317Y002386D01*
X016316Y002388D02*
X015942Y002388D01*
X015943Y002391D02*
X016315Y002391D01*
X016314Y002393D02*
X015944Y002393D01*
X015945Y002395D02*
X016313Y002395D01*
X016312Y002398D02*
X015946Y002398D01*
X015946Y002400D02*
X016312Y002400D01*
X016311Y002403D02*
X015947Y002403D01*
X015948Y002405D02*
X016310Y002405D01*
X016309Y002408D02*
X015949Y002408D01*
X015950Y002410D02*
X016308Y002410D01*
X016307Y002413D02*
X015951Y002413D01*
X015952Y002415D02*
X016306Y002415D01*
X016305Y002417D02*
X015953Y002417D01*
X015955Y002420D02*
X016303Y002420D01*
X016302Y002422D02*
X015956Y002422D01*
X015958Y002425D02*
X016300Y002425D01*
X016299Y002427D02*
X015959Y002427D01*
X015961Y002430D02*
X016297Y002430D01*
X016296Y002432D02*
X015962Y002432D01*
X015964Y002434D02*
X016294Y002434D01*
X016293Y002437D02*
X015965Y002437D01*
X015967Y002439D02*
X016291Y002439D01*
X016290Y002442D02*
X015968Y002442D01*
X015970Y002444D02*
X016288Y002444D01*
X016287Y002447D02*
X015971Y002447D01*
X015973Y002449D02*
X016285Y002449D01*
X016284Y002452D02*
X015975Y002452D01*
X015977Y002454D02*
X016281Y002454D01*
X016279Y002456D02*
X015979Y002456D01*
X015981Y002459D02*
X016277Y002459D01*
X016274Y002461D02*
X015984Y002461D01*
X015986Y002464D02*
X016272Y002464D01*
X016269Y002466D02*
X015989Y002466D01*
X015991Y002469D02*
X016267Y002469D01*
X016264Y002471D02*
X015994Y002471D01*
X015996Y002473D02*
X016262Y002473D01*
X016260Y002476D02*
X015999Y002476D01*
X016001Y002478D02*
X016257Y002478D01*
X016255Y002481D02*
X016003Y002481D01*
X016006Y002483D02*
X016252Y002483D01*
X016249Y002486D02*
X016009Y002486D01*
X016013Y002488D02*
X016245Y002488D01*
X016241Y002490D02*
X016017Y002490D01*
X016021Y002493D02*
X016237Y002493D01*
X016233Y002495D02*
X016025Y002495D01*
X016029Y002498D02*
X016229Y002498D01*
X016225Y002500D02*
X016033Y002500D01*
X016037Y002503D02*
X016221Y002503D01*
X016218Y002505D02*
X016041Y002505D01*
X016045Y002508D02*
X016213Y002508D01*
X016206Y002510D02*
X016052Y002510D01*
X016059Y002512D02*
X016199Y002512D01*
X016192Y002515D02*
X016066Y002515D01*
X016073Y002517D02*
X016185Y002517D01*
X016178Y002520D02*
X016080Y002520D01*
X016090Y002522D02*
X016168Y002522D01*
X016146Y002525D02*
X016112Y002525D01*
X015932Y002327D02*
X016326Y002327D01*
X016326Y002325D02*
X015932Y002325D01*
X015932Y002322D02*
X016326Y002322D01*
X016326Y002320D02*
X015932Y002320D01*
X015932Y002317D02*
X016326Y002317D01*
X016326Y002315D02*
X015932Y002315D01*
X015932Y002313D02*
X016326Y002313D01*
X016326Y002310D02*
X015932Y002310D01*
X015932Y002308D02*
X016326Y002308D01*
X016326Y002305D02*
X015932Y002305D01*
X015932Y002303D02*
X016326Y002303D01*
X016326Y002300D02*
X015932Y002300D01*
X015932Y002298D02*
X016326Y002298D01*
X016326Y002296D02*
X015932Y002296D01*
X015932Y002293D02*
X016326Y002293D01*
X016326Y002291D02*
X015932Y002291D01*
X015932Y002288D02*
X016326Y002288D01*
X016326Y002286D02*
X015932Y002286D01*
X015932Y002283D02*
X016326Y002283D01*
X016326Y002281D02*
X015932Y002281D01*
X015932Y002278D02*
X016326Y002278D01*
X016326Y002276D02*
X015932Y002276D01*
X015932Y002274D02*
X016326Y002274D01*
X016326Y002271D02*
X015932Y002271D01*
X015932Y002269D02*
X016326Y002269D01*
X016326Y002266D02*
X015932Y002266D01*
X015932Y002264D02*
X016326Y002264D01*
X016326Y002261D02*
X015932Y002261D01*
X015932Y002259D02*
X016326Y002259D01*
X016326Y002257D02*
X015932Y002257D01*
X015932Y002254D02*
X016326Y002254D01*
X016326Y002252D02*
X015932Y002252D01*
X015932Y002249D02*
X016326Y002249D01*
X016326Y002247D02*
X015932Y002247D01*
X015932Y002244D02*
X016326Y002244D01*
X016326Y002242D02*
X015932Y002242D01*
X015932Y002239D02*
X016326Y002239D01*
X016326Y002237D02*
X015932Y002237D01*
X015932Y002235D02*
X016326Y002235D01*
X016326Y002232D02*
X015932Y002232D01*
X015932Y002230D02*
X016326Y002230D01*
X016326Y002227D02*
X015932Y002227D01*
X015932Y002225D02*
X016326Y002225D01*
X016326Y002222D02*
X015932Y002222D01*
X015932Y002220D02*
X016326Y002220D01*
X016326Y002218D02*
X015932Y002218D01*
X015932Y002215D02*
X016326Y002215D01*
X016326Y002213D02*
X015932Y002213D01*
X015932Y002210D02*
X016326Y002210D01*
X016326Y002208D02*
X015932Y002208D01*
X015932Y002205D02*
X016326Y002205D01*
X016326Y002203D02*
X015932Y002203D01*
X015932Y002200D02*
X016326Y002200D01*
X016326Y002198D02*
X015932Y002198D01*
X015932Y002196D02*
X016326Y002196D01*
X016326Y002193D02*
X015932Y002193D01*
X015932Y002191D02*
X016326Y002191D01*
X016326Y002188D02*
X015932Y002188D01*
X015932Y002186D02*
X016326Y002186D01*
X016326Y002183D02*
X015932Y002183D01*
X015932Y002181D02*
X016326Y002181D01*
X016326Y002179D02*
X015932Y002179D01*
X015932Y002176D02*
X016326Y002176D01*
X016326Y002174D02*
X015932Y002174D01*
X015932Y002171D02*
X016326Y002171D01*
X016326Y002169D02*
X015932Y002169D01*
X015932Y002166D02*
X016326Y002166D01*
X016326Y002164D02*
X015932Y002164D01*
X015932Y002161D02*
X016326Y002161D01*
X016326Y002159D02*
X015932Y002159D01*
X015932Y002157D02*
X016326Y002157D01*
X016326Y002154D02*
X015932Y002154D01*
X015932Y002152D02*
X016326Y002152D01*
X016326Y002149D02*
X015932Y002149D01*
X015932Y002147D02*
X016326Y002147D01*
X016326Y002144D02*
X015932Y002144D01*
X015932Y002142D02*
X016326Y002142D01*
X016326Y002140D02*
X015932Y002140D01*
X015932Y002137D02*
X016326Y002137D01*
X016326Y002135D02*
X015932Y002135D01*
X015932Y002132D02*
X016326Y002132D01*
X016326Y002130D02*
X015932Y002130D01*
X015932Y002127D02*
X016326Y002127D01*
X016326Y002125D02*
X015932Y002125D01*
X015932Y002122D02*
X016326Y002122D01*
X016326Y002120D02*
X015932Y002120D01*
X015932Y002118D02*
X016326Y002118D01*
X016326Y002115D02*
X015932Y002115D01*
X015932Y002113D02*
X016326Y002113D01*
X016326Y002110D02*
X015932Y002110D01*
X015932Y002108D02*
X016326Y002108D01*
X016326Y002105D02*
X015932Y002105D01*
X015932Y002103D02*
X016326Y002103D01*
X016326Y002101D02*
X015932Y002101D01*
X015932Y002098D02*
X016326Y002098D01*
X016326Y002096D02*
X015932Y002096D01*
X015932Y002093D02*
X016326Y002093D01*
X016326Y002091D02*
X015932Y002091D01*
X015932Y002088D02*
X016326Y002088D01*
X016326Y002086D02*
X015932Y002086D01*
X015932Y002083D02*
X016326Y002083D01*
X016326Y002081D02*
X015932Y002081D01*
X015932Y002079D02*
X016326Y002079D01*
X016326Y002076D02*
X015932Y002076D01*
X015932Y002074D02*
X016326Y002074D01*
X016326Y002071D02*
X015932Y002071D01*
X015932Y002069D02*
X016326Y002069D01*
X016326Y002066D02*
X015932Y002066D01*
X015932Y002064D02*
X016326Y002064D01*
X016326Y002062D02*
X015932Y002062D01*
X015932Y002059D02*
X016326Y002059D01*
X016326Y002057D02*
X015932Y002057D01*
X015932Y002054D02*
X016326Y002054D01*
X016326Y002052D02*
X015932Y002052D01*
X015932Y002049D02*
X016326Y002049D01*
X016326Y002047D02*
X015932Y002047D01*
X015932Y002044D02*
X016326Y002044D01*
X016326Y002042D02*
X015932Y002042D01*
X015932Y002040D02*
X016326Y002040D01*
X016326Y002037D02*
X015932Y002037D01*
X015932Y002035D02*
X016326Y002035D01*
X016326Y002032D02*
X015932Y002032D01*
X015932Y002030D02*
X016326Y002030D01*
X016326Y002027D02*
X015932Y002027D01*
X015932Y002025D02*
X016326Y002025D01*
X016326Y002023D02*
X015932Y002023D01*
X015932Y002020D02*
X016326Y002020D01*
X016326Y002018D02*
X015932Y002018D01*
X015932Y002015D02*
X016326Y002015D01*
X016326Y002013D02*
X015932Y002013D01*
X015932Y002010D02*
X016326Y002010D01*
X016326Y002008D02*
X015932Y002008D01*
X015932Y002005D02*
X016326Y002005D01*
X016326Y002003D02*
X015932Y002003D01*
X015932Y002001D02*
X016326Y002001D01*
X016326Y001998D02*
X015932Y001998D01*
X015932Y001996D02*
X016326Y001996D01*
X016326Y001993D02*
X015932Y001993D01*
X015932Y001991D02*
X016326Y001991D01*
X016326Y001988D02*
X015932Y001988D01*
X015932Y001986D02*
X016326Y001986D01*
X016326Y001984D02*
X015932Y001984D01*
X015932Y001981D02*
X016326Y001981D01*
X016326Y001979D02*
X015932Y001979D01*
X015932Y001976D02*
X016326Y001976D01*
X016326Y001974D02*
X015932Y001974D01*
X015932Y001971D02*
X016326Y001971D01*
X016326Y001969D02*
X015932Y001969D01*
X015932Y001966D02*
X016326Y001966D01*
X016326Y001964D02*
X015932Y001964D01*
X015932Y001962D02*
X016326Y001962D01*
X016326Y001959D02*
X015932Y001959D01*
X015932Y001957D02*
X016326Y001957D01*
X016326Y001954D02*
X015932Y001954D01*
X015932Y001952D02*
X016326Y001952D01*
X016326Y001949D02*
X015932Y001949D01*
X015932Y001947D02*
X016326Y001947D01*
X016326Y001945D02*
X015932Y001945D01*
X015932Y001942D02*
X016326Y001942D01*
X016326Y001940D02*
X015932Y001940D01*
X015932Y001937D02*
X016326Y001937D01*
X016326Y001935D02*
X015932Y001935D01*
X015932Y001932D02*
X016326Y001932D01*
X016326Y001930D02*
X015932Y001930D01*
X015932Y001927D02*
X016326Y001927D01*
X016326Y001925D02*
X015932Y001925D01*
X015932Y001923D02*
X016326Y001923D01*
X016326Y001920D02*
X015932Y001920D01*
X015932Y001918D02*
X016326Y001918D01*
X016326Y001915D02*
X015932Y001915D01*
X015932Y001913D02*
X016326Y001913D01*
X016326Y001910D02*
X015932Y001910D01*
X015932Y001908D02*
X016326Y001908D01*
X016326Y001906D02*
X015932Y001906D01*
X015932Y001903D02*
X016326Y001903D01*
X016326Y001901D02*
X015932Y001901D01*
X015932Y001898D02*
X016326Y001898D01*
X016326Y001896D02*
X015932Y001896D01*
X015933Y001893D02*
X016326Y001893D01*
X016325Y001891D02*
X015933Y001891D01*
X015933Y001888D02*
X016325Y001888D01*
X016325Y001886D02*
X015933Y001886D01*
X015934Y001884D02*
X016324Y001884D01*
X016324Y001881D02*
X015934Y001881D01*
X015934Y001879D02*
X016324Y001879D01*
X016324Y001876D02*
X015934Y001876D01*
X015935Y001874D02*
X016323Y001874D01*
X016323Y001871D02*
X015935Y001871D01*
X015935Y001869D02*
X016323Y001869D01*
X016322Y001867D02*
X015936Y001867D01*
X015936Y001864D02*
X016322Y001864D01*
X016322Y001862D02*
X015936Y001862D01*
X015936Y001859D02*
X016322Y001859D01*
X016321Y001857D02*
X015937Y001857D01*
X015937Y001854D02*
X016321Y001854D01*
X016321Y001852D02*
X015937Y001852D01*
X015938Y001850D02*
X016320Y001850D01*
X016319Y001847D02*
X015939Y001847D01*
X015940Y001845D02*
X016318Y001845D01*
X016317Y001842D02*
X015941Y001842D01*
X015942Y001840D02*
X016316Y001840D01*
X016316Y001837D02*
X015943Y001837D01*
X015943Y001835D02*
X016315Y001835D01*
X016314Y001832D02*
X015944Y001832D01*
X015945Y001830D02*
X016313Y001830D01*
X016312Y001828D02*
X015946Y001828D01*
X015947Y001825D02*
X016311Y001825D01*
X016310Y001823D02*
X015948Y001823D01*
X015949Y001820D02*
X016310Y001820D01*
X016309Y001818D02*
X015949Y001818D01*
X015950Y001815D02*
X016308Y001815D01*
X016307Y001813D02*
X015951Y001813D01*
X015952Y001811D02*
X016306Y001811D01*
X016304Y001808D02*
X015954Y001808D01*
X015955Y001806D02*
X016303Y001806D01*
X016301Y001803D02*
X015957Y001803D01*
X015958Y001801D02*
X016300Y001801D01*
X016298Y001798D02*
X015960Y001798D01*
X015961Y001796D02*
X016297Y001796D01*
X016295Y001793D02*
X015963Y001793D01*
X015964Y001791D02*
X016294Y001791D01*
X016292Y001789D02*
X015966Y001789D01*
X015967Y001786D02*
X016291Y001786D01*
X016289Y001784D02*
X015969Y001784D01*
X015971Y001781D02*
X016288Y001781D01*
X016286Y001779D02*
X015972Y001779D01*
X015974Y001776D02*
X016284Y001776D01*
X016283Y001774D02*
X016252Y001743D01*
X016214Y001719D01*
X016173Y001705D01*
X016129Y001700D01*
X016085Y001705D01*
X016044Y001719D01*
X016006Y001743D01*
X015975Y001774D01*
X015978Y001772D02*
X016281Y001772D01*
X016278Y001769D02*
X015980Y001769D01*
X015982Y001767D02*
X016276Y001767D01*
X016273Y001764D02*
X015985Y001764D01*
X015987Y001762D02*
X016271Y001762D01*
X016268Y001759D02*
X015990Y001759D01*
X015992Y001757D02*
X016266Y001757D01*
X016263Y001754D02*
X015995Y001754D01*
X015997Y001752D02*
X016261Y001752D01*
X016259Y001750D02*
X015999Y001750D01*
X016002Y001747D02*
X016256Y001747D01*
X016254Y001745D02*
X016004Y001745D01*
X016007Y001742D02*
X016251Y001742D01*
X016247Y001740D02*
X016011Y001740D01*
X016015Y001737D02*
X016243Y001737D01*
X016239Y001735D02*
X016019Y001735D01*
X016023Y001733D02*
X016235Y001733D01*
X016232Y001730D02*
X016026Y001730D01*
X016030Y001728D02*
X016228Y001728D01*
X016224Y001725D02*
X016034Y001725D01*
X016038Y001723D02*
X016220Y001723D01*
X016216Y001720D02*
X016042Y001720D01*
X016048Y001718D02*
X016210Y001718D01*
X016203Y001715D02*
X016055Y001715D01*
X016062Y001713D02*
X016196Y001713D01*
X016190Y001711D02*
X016069Y001711D01*
X016076Y001708D02*
X016183Y001708D01*
X016176Y001706D02*
X016082Y001706D01*
X016098Y001703D02*
X016160Y001703D01*
X016138Y001701D02*
X016120Y001701D01*
X016129Y003471D02*
X016085Y003476D01*
X016044Y003491D01*
X016006Y003514D01*
X015975Y003546D01*
X016283Y003546D01*
X016252Y003514D01*
X016214Y003491D01*
X016173Y003476D01*
X016129Y003471D01*
X016118Y003473D02*
X016140Y003473D01*
X016162Y003475D02*
X016096Y003475D01*
X016082Y003478D02*
X016176Y003478D01*
X016183Y003480D02*
X016075Y003480D01*
X016068Y003482D02*
X016190Y003482D01*
X016197Y003485D02*
X016061Y003485D01*
X016054Y003487D02*
X016204Y003487D01*
X016211Y003490D02*
X016047Y003490D01*
X016042Y003492D02*
X016216Y003492D01*
X016220Y003495D02*
X016038Y003495D01*
X016034Y003497D02*
X016224Y003497D01*
X016228Y003500D02*
X016030Y003500D01*
X016026Y003502D02*
X016232Y003502D01*
X016236Y003504D02*
X016022Y003504D01*
X016018Y003507D02*
X016240Y003507D01*
X016244Y003509D02*
X016014Y003509D01*
X016011Y003512D02*
X016247Y003512D01*
X016251Y003514D02*
X016007Y003514D01*
X016004Y003517D02*
X016254Y003517D01*
X016256Y003519D02*
X016002Y003519D01*
X015999Y003521D02*
X016259Y003521D01*
X016261Y003524D02*
X015997Y003524D01*
X015994Y003526D02*
X016264Y003526D01*
X016266Y003529D02*
X015992Y003529D01*
X015989Y003531D02*
X016269Y003531D01*
X016271Y003534D02*
X015987Y003534D01*
X015985Y003536D02*
X016273Y003536D01*
X016276Y003539D02*
X015982Y003539D01*
X015980Y003541D02*
X016278Y003541D01*
X016281Y003543D02*
X015977Y003543D01*
X015975Y003546D02*
X015952Y003583D01*
X015937Y003625D01*
X015932Y003668D01*
X015932Y004101D01*
X015937Y004145D01*
X015952Y004187D01*
X016306Y004187D01*
X016321Y004145D01*
X016326Y004101D01*
X016326Y003668D01*
X016321Y003625D01*
X016306Y003583D01*
X016283Y003546D01*
X016285Y003548D02*
X015973Y003548D01*
X015972Y003551D02*
X016286Y003551D01*
X016288Y003553D02*
X015970Y003553D01*
X015969Y003556D02*
X016289Y003556D01*
X016291Y003558D02*
X015967Y003558D01*
X015966Y003560D02*
X016292Y003560D01*
X016294Y003563D02*
X015964Y003563D01*
X015963Y003565D02*
X016295Y003565D01*
X016297Y003568D02*
X015961Y003568D01*
X015960Y003570D02*
X016298Y003570D01*
X016300Y003573D02*
X015958Y003573D01*
X015957Y003575D02*
X016301Y003575D01*
X016303Y003578D02*
X015955Y003578D01*
X015954Y003580D02*
X016305Y003580D01*
X016306Y003582D02*
X015952Y003582D01*
X015951Y003585D02*
X016307Y003585D01*
X016308Y003587D02*
X015950Y003587D01*
X015949Y003590D02*
X016309Y003590D01*
X016310Y003592D02*
X015948Y003592D01*
X015948Y003595D02*
X016310Y003595D01*
X016311Y003597D02*
X015947Y003597D01*
X015946Y003599D02*
X016312Y003599D01*
X016313Y003602D02*
X015945Y003602D01*
X015944Y003604D02*
X016314Y003604D01*
X016315Y003607D02*
X015943Y003607D01*
X015942Y003609D02*
X016316Y003609D01*
X016316Y003612D02*
X015942Y003612D01*
X015941Y003614D02*
X016317Y003614D01*
X016318Y003617D02*
X015940Y003617D01*
X015939Y003619D02*
X016319Y003619D01*
X016320Y003621D02*
X015938Y003621D01*
X015937Y003624D02*
X016321Y003624D01*
X016321Y003626D02*
X015937Y003626D01*
X015937Y003629D02*
X016321Y003629D01*
X016322Y003631D02*
X015936Y003631D01*
X015936Y003634D02*
X016322Y003634D01*
X016322Y003636D02*
X015936Y003636D01*
X015936Y003638D02*
X016323Y003638D01*
X016323Y003641D02*
X015935Y003641D01*
X015935Y003643D02*
X016323Y003643D01*
X016323Y003646D02*
X015935Y003646D01*
X015934Y003648D02*
X016324Y003648D01*
X016324Y003651D02*
X015934Y003651D01*
X015934Y003653D02*
X016324Y003653D01*
X016324Y003656D02*
X015934Y003656D01*
X015933Y003658D02*
X016325Y003658D01*
X016325Y003660D02*
X015933Y003660D01*
X015933Y003663D02*
X016325Y003663D01*
X016326Y003665D02*
X015933Y003665D01*
X015932Y003668D02*
X016326Y003668D01*
X016326Y003670D02*
X015932Y003670D01*
X015932Y003673D02*
X016326Y003673D01*
X016326Y003675D02*
X015932Y003675D01*
X015932Y003677D02*
X016326Y003677D01*
X016326Y003680D02*
X015932Y003680D01*
X015932Y003682D02*
X016326Y003682D01*
X016326Y003685D02*
X015932Y003685D01*
X015932Y003687D02*
X016326Y003687D01*
X016326Y003690D02*
X015932Y003690D01*
X015932Y003692D02*
X016326Y003692D01*
X016326Y003695D02*
X015932Y003695D01*
X015932Y003697D02*
X016326Y003697D01*
X016326Y003699D02*
X015932Y003699D01*
X015932Y003702D02*
X016326Y003702D01*
X016326Y003704D02*
X015932Y003704D01*
X015932Y003707D02*
X016326Y003707D01*
X016326Y003709D02*
X015932Y003709D01*
X015932Y003712D02*
X016326Y003712D01*
X016326Y003714D02*
X015932Y003714D01*
X015932Y003716D02*
X016326Y003716D01*
X016326Y003719D02*
X015932Y003719D01*
X015932Y003721D02*
X016326Y003721D01*
X016326Y003724D02*
X015932Y003724D01*
X015932Y003726D02*
X016326Y003726D01*
X016326Y003729D02*
X015932Y003729D01*
X015932Y003731D02*
X016326Y003731D01*
X016326Y003733D02*
X015932Y003733D01*
X015932Y003736D02*
X016326Y003736D01*
X016326Y003738D02*
X015932Y003738D01*
X015932Y003741D02*
X016326Y003741D01*
X016326Y003743D02*
X015932Y003743D01*
X015932Y003746D02*
X016326Y003746D01*
X016326Y003748D02*
X015932Y003748D01*
X015932Y003751D02*
X016326Y003751D01*
X016326Y003753D02*
X015932Y003753D01*
X015932Y003755D02*
X016326Y003755D01*
X016326Y003758D02*
X015932Y003758D01*
X015932Y003760D02*
X016326Y003760D01*
X016326Y003763D02*
X015932Y003763D01*
X015932Y003765D02*
X016326Y003765D01*
X016326Y003768D02*
X015932Y003768D01*
X015932Y003770D02*
X016326Y003770D01*
X016326Y003772D02*
X015932Y003772D01*
X015932Y003775D02*
X016326Y003775D01*
X016326Y003777D02*
X015932Y003777D01*
X015932Y003780D02*
X016326Y003780D01*
X016326Y003782D02*
X015932Y003782D01*
X015932Y003785D02*
X016326Y003785D01*
X016326Y003787D02*
X015932Y003787D01*
X015932Y003790D02*
X016326Y003790D01*
X016326Y003792D02*
X015932Y003792D01*
X015932Y003794D02*
X016326Y003794D01*
X016326Y003797D02*
X015932Y003797D01*
X015932Y003799D02*
X016326Y003799D01*
X016326Y003802D02*
X015932Y003802D01*
X015932Y003804D02*
X016326Y003804D01*
X016326Y003807D02*
X015932Y003807D01*
X015932Y003809D02*
X016326Y003809D01*
X016326Y003811D02*
X015932Y003811D01*
X015932Y003814D02*
X016326Y003814D01*
X016326Y003816D02*
X015932Y003816D01*
X015932Y003819D02*
X016326Y003819D01*
X016326Y003821D02*
X015932Y003821D01*
X015932Y003824D02*
X016326Y003824D01*
X016326Y003826D02*
X015932Y003826D01*
X015932Y003829D02*
X016326Y003829D01*
X016326Y003831D02*
X015932Y003831D01*
X015932Y003833D02*
X016326Y003833D01*
X016326Y003836D02*
X015932Y003836D01*
X015932Y003838D02*
X016326Y003838D01*
X016326Y003841D02*
X015932Y003841D01*
X015932Y003843D02*
X016326Y003843D01*
X016326Y003846D02*
X015932Y003846D01*
X015932Y003848D02*
X016326Y003848D01*
X016326Y003850D02*
X015932Y003850D01*
X015932Y003853D02*
X016326Y003853D01*
X016326Y003855D02*
X015932Y003855D01*
X015932Y003858D02*
X016326Y003858D01*
X016326Y003860D02*
X015932Y003860D01*
X015932Y003863D02*
X016326Y003863D01*
X016326Y003865D02*
X015932Y003865D01*
X015932Y003868D02*
X016326Y003868D01*
X016326Y003870D02*
X015932Y003870D01*
X015932Y003872D02*
X016326Y003872D01*
X016326Y003875D02*
X015932Y003875D01*
X015932Y003877D02*
X016326Y003877D01*
X016326Y003880D02*
X015932Y003880D01*
X015932Y003882D02*
X016326Y003882D01*
X016326Y003885D02*
X015932Y003885D01*
X015932Y003887D02*
X016326Y003887D01*
X016326Y003889D02*
X015932Y003889D01*
X015932Y003892D02*
X016326Y003892D01*
X016326Y003894D02*
X015932Y003894D01*
X015932Y003897D02*
X016326Y003897D01*
X016326Y003899D02*
X015932Y003899D01*
X015932Y003902D02*
X016326Y003902D01*
X016326Y003904D02*
X015932Y003904D01*
X015932Y003907D02*
X016326Y003907D01*
X016326Y003909D02*
X015932Y003909D01*
X015932Y003911D02*
X016326Y003911D01*
X016326Y003914D02*
X015932Y003914D01*
X015932Y003916D02*
X016326Y003916D01*
X016326Y003919D02*
X015932Y003919D01*
X015932Y003921D02*
X016326Y003921D01*
X016326Y003924D02*
X015932Y003924D01*
X015932Y003926D02*
X016326Y003926D01*
X016326Y003928D02*
X015932Y003928D01*
X015932Y003931D02*
X016326Y003931D01*
X016326Y003933D02*
X015932Y003933D01*
X015932Y003936D02*
X016326Y003936D01*
X016326Y003938D02*
X015932Y003938D01*
X015932Y003941D02*
X016326Y003941D01*
X016326Y003943D02*
X015932Y003943D01*
X015932Y003946D02*
X016326Y003946D01*
X016326Y003948D02*
X015932Y003948D01*
X015932Y003950D02*
X016326Y003950D01*
X016326Y003953D02*
X015932Y003953D01*
X015932Y003955D02*
X016326Y003955D01*
X016326Y003958D02*
X015932Y003958D01*
X015932Y003960D02*
X016326Y003960D01*
X016326Y003963D02*
X015932Y003963D01*
X015932Y003965D02*
X016326Y003965D01*
X016326Y003967D02*
X015932Y003967D01*
X015932Y003970D02*
X016326Y003970D01*
X016326Y003972D02*
X015932Y003972D01*
X015932Y003975D02*
X016326Y003975D01*
X016326Y003977D02*
X015932Y003977D01*
X015932Y003980D02*
X016326Y003980D01*
X016326Y003982D02*
X015932Y003982D01*
X015932Y003985D02*
X016326Y003985D01*
X016326Y003987D02*
X015932Y003987D01*
X015932Y003989D02*
X016326Y003989D01*
X016326Y003992D02*
X015932Y003992D01*
X015932Y003994D02*
X016326Y003994D01*
X016326Y003997D02*
X015932Y003997D01*
X015932Y003999D02*
X016326Y003999D01*
X016326Y004002D02*
X015932Y004002D01*
X015932Y004004D02*
X016326Y004004D01*
X016326Y004006D02*
X015932Y004006D01*
X015932Y004009D02*
X016326Y004009D01*
X016326Y004011D02*
X015932Y004011D01*
X015932Y004014D02*
X016326Y004014D01*
X016326Y004016D02*
X015932Y004016D01*
X015932Y004019D02*
X016326Y004019D01*
X016326Y004021D02*
X015932Y004021D01*
X015932Y004024D02*
X016326Y004024D01*
X016326Y004026D02*
X015932Y004026D01*
X015932Y004028D02*
X016326Y004028D01*
X016326Y004031D02*
X015932Y004031D01*
X015932Y004033D02*
X016326Y004033D01*
X016326Y004036D02*
X015932Y004036D01*
X015932Y004038D02*
X016326Y004038D01*
X016326Y004041D02*
X015932Y004041D01*
X015932Y004043D02*
X016326Y004043D01*
X016326Y004045D02*
X015932Y004045D01*
X015932Y004048D02*
X016326Y004048D01*
X016326Y004050D02*
X015932Y004050D01*
X015932Y004053D02*
X016326Y004053D01*
X016326Y004055D02*
X015932Y004055D01*
X015932Y004058D02*
X016326Y004058D01*
X016326Y004060D02*
X015932Y004060D01*
X015932Y004063D02*
X016326Y004063D01*
X016326Y004065D02*
X015932Y004065D01*
X015932Y004067D02*
X016326Y004067D01*
X016326Y004070D02*
X015932Y004070D01*
X015932Y004072D02*
X016326Y004072D01*
X016326Y004075D02*
X015932Y004075D01*
X015932Y004077D02*
X016326Y004077D01*
X016326Y004080D02*
X015932Y004080D01*
X015932Y004082D02*
X016326Y004082D01*
X016326Y004084D02*
X015932Y004084D01*
X015932Y004087D02*
X016326Y004087D01*
X016326Y004089D02*
X015932Y004089D01*
X015932Y004092D02*
X016326Y004092D01*
X016326Y004094D02*
X015932Y004094D01*
X015932Y004097D02*
X016326Y004097D01*
X016326Y004099D02*
X015932Y004099D01*
X015932Y004102D02*
X016326Y004102D01*
X016326Y004104D02*
X015932Y004104D01*
X015933Y004106D02*
X016325Y004106D01*
X016325Y004109D02*
X015933Y004109D01*
X015933Y004111D02*
X016325Y004111D01*
X016324Y004114D02*
X015934Y004114D01*
X015934Y004116D02*
X016324Y004116D01*
X016324Y004119D02*
X015934Y004119D01*
X015934Y004121D02*
X016324Y004121D01*
X016323Y004123D02*
X015935Y004123D01*
X015935Y004126D02*
X016323Y004126D01*
X016323Y004128D02*
X015935Y004128D01*
X015935Y004131D02*
X016323Y004131D01*
X016322Y004133D02*
X015936Y004133D01*
X015936Y004136D02*
X016322Y004136D01*
X016322Y004138D02*
X015936Y004138D01*
X015937Y004141D02*
X016321Y004141D01*
X016321Y004143D02*
X015937Y004143D01*
X015937Y004145D02*
X016321Y004145D01*
X016320Y004148D02*
X015938Y004148D01*
X015939Y004150D02*
X016319Y004150D01*
X016318Y004153D02*
X015940Y004153D01*
X015941Y004155D02*
X016317Y004155D01*
X016317Y004158D02*
X015941Y004158D01*
X015942Y004160D02*
X016316Y004160D01*
X016315Y004162D02*
X015943Y004162D01*
X015944Y004165D02*
X016314Y004165D01*
X016313Y004167D02*
X015945Y004167D01*
X015946Y004170D02*
X016312Y004170D01*
X016311Y004172D02*
X015947Y004172D01*
X015947Y004175D02*
X016311Y004175D01*
X016310Y004177D02*
X015948Y004177D01*
X015949Y004180D02*
X016309Y004180D01*
X016308Y004182D02*
X015950Y004182D01*
X015951Y004184D02*
X016307Y004184D01*
X016306Y004187D02*
X016283Y004224D01*
X016252Y004255D01*
X016006Y004255D01*
X016044Y004279D01*
X016085Y004293D01*
X016129Y004298D01*
X016173Y004293D01*
X016214Y004279D01*
X016252Y004255D01*
X016254Y004253D02*
X016004Y004253D01*
X016006Y004255D02*
X015975Y004224D01*
X015952Y004187D01*
X015953Y004189D02*
X016305Y004189D01*
X016303Y004192D02*
X015955Y004192D01*
X015956Y004194D02*
X016302Y004194D01*
X016300Y004197D02*
X015958Y004197D01*
X015959Y004199D02*
X016299Y004199D01*
X016297Y004201D02*
X015961Y004201D01*
X015962Y004204D02*
X016296Y004204D01*
X016294Y004206D02*
X015964Y004206D01*
X015965Y004209D02*
X016293Y004209D01*
X016291Y004211D02*
X015967Y004211D01*
X015969Y004214D02*
X016290Y004214D01*
X016288Y004216D02*
X015970Y004216D01*
X015972Y004219D02*
X016286Y004219D01*
X016285Y004221D02*
X015973Y004221D01*
X015975Y004223D02*
X016283Y004223D01*
X016281Y004226D02*
X015977Y004226D01*
X015979Y004228D02*
X016279Y004228D01*
X016276Y004231D02*
X015982Y004231D01*
X015984Y004233D02*
X016274Y004233D01*
X016271Y004236D02*
X015987Y004236D01*
X015989Y004238D02*
X016269Y004238D01*
X016267Y004240D02*
X015991Y004240D01*
X015994Y004243D02*
X016264Y004243D01*
X016262Y004245D02*
X015996Y004245D01*
X015999Y004248D02*
X016259Y004248D01*
X016257Y004250D02*
X016001Y004250D01*
X016010Y004258D02*
X016248Y004258D01*
X016244Y004260D02*
X016014Y004260D01*
X016018Y004262D02*
X016240Y004262D01*
X016237Y004265D02*
X016021Y004265D01*
X016025Y004267D02*
X016233Y004267D01*
X016229Y004270D02*
X016029Y004270D01*
X016033Y004272D02*
X016225Y004272D01*
X016221Y004275D02*
X016037Y004275D01*
X016041Y004277D02*
X016217Y004277D01*
X016212Y004279D02*
X016046Y004279D01*
X016053Y004282D02*
X016205Y004282D01*
X016198Y004284D02*
X016060Y004284D01*
X016067Y004287D02*
X016192Y004287D01*
X016185Y004289D02*
X016074Y004289D01*
X016080Y004292D02*
X016178Y004292D01*
X016166Y004294D02*
X016092Y004294D01*
X016114Y004297D02*
X016144Y004297D01*
X016758Y016051D02*
X016838Y016059D01*
X016916Y016082D01*
X016988Y016120D01*
X017051Y016172D01*
X017102Y016235D01*
X017141Y016307D01*
X016375Y016307D01*
X016376Y016305D02*
X017140Y016305D01*
X017141Y016307D02*
X017164Y016384D01*
X017172Y016465D01*
X017172Y017552D01*
X017166Y017624D01*
X017147Y017694D01*
X016368Y017694D01*
X016349Y017624D01*
X016343Y017552D01*
X016343Y016465D01*
X016349Y016393D01*
X016368Y016324D01*
X016398Y016258D01*
X016440Y016199D01*
X016491Y016148D01*
X016550Y016106D01*
X016616Y016076D01*
X016686Y016057D01*
X016758Y016051D01*
X016766Y016051D02*
X016748Y016051D01*
X016720Y016054D02*
X016791Y016054D01*
X016816Y016056D02*
X016692Y016056D01*
X016679Y016059D02*
X016839Y016059D01*
X016847Y016061D02*
X016670Y016061D01*
X016660Y016064D02*
X016855Y016064D01*
X016863Y016066D02*
X016651Y016066D01*
X016642Y016068D02*
X016871Y016068D01*
X016879Y016071D02*
X016633Y016071D01*
X016624Y016073D02*
X016887Y016073D01*
X016895Y016076D02*
X016615Y016076D01*
X016610Y016078D02*
X016903Y016078D01*
X016911Y016081D02*
X016605Y016081D01*
X016600Y016083D02*
X016918Y016083D01*
X016923Y016086D02*
X016594Y016086D01*
X016589Y016088D02*
X016927Y016088D01*
X016932Y016090D02*
X016584Y016090D01*
X016579Y016093D02*
X016936Y016093D01*
X016941Y016095D02*
X016573Y016095D01*
X016568Y016098D02*
X016945Y016098D01*
X016950Y016100D02*
X016563Y016100D01*
X016558Y016103D02*
X016955Y016103D01*
X016959Y016105D02*
X016553Y016105D01*
X016548Y016107D02*
X016964Y016107D01*
X016968Y016110D02*
X016545Y016110D01*
X016541Y016112D02*
X016973Y016112D01*
X016977Y016115D02*
X016538Y016115D01*
X016534Y016117D02*
X016982Y016117D01*
X016986Y016120D02*
X016531Y016120D01*
X016527Y016122D02*
X016990Y016122D01*
X016993Y016124D02*
X016524Y016124D01*
X016520Y016127D02*
X016996Y016127D01*
X016999Y016129D02*
X016517Y016129D01*
X016513Y016132D02*
X017002Y016132D01*
X017005Y016134D02*
X016510Y016134D01*
X016506Y016137D02*
X017008Y016137D01*
X017011Y016139D02*
X016503Y016139D01*
X016500Y016142D02*
X017014Y016142D01*
X017017Y016144D02*
X016496Y016144D01*
X016493Y016146D02*
X017020Y016146D01*
X017023Y016149D02*
X016490Y016149D01*
X016487Y016151D02*
X017026Y016151D01*
X017029Y016154D02*
X016485Y016154D01*
X016482Y016156D02*
X017032Y016156D01*
X017035Y016159D02*
X016480Y016159D01*
X016477Y016161D02*
X017037Y016161D01*
X017040Y016163D02*
X016475Y016163D01*
X016473Y016166D02*
X017043Y016166D01*
X017046Y016168D02*
X016470Y016168D01*
X016468Y016171D02*
X017049Y016171D01*
X017052Y016173D02*
X016465Y016173D01*
X016463Y016176D02*
X017054Y016176D01*
X017056Y016178D02*
X016460Y016178D01*
X016458Y016181D02*
X017058Y016181D01*
X017060Y016183D02*
X016455Y016183D01*
X016453Y016185D02*
X017062Y016185D01*
X017064Y016188D02*
X016451Y016188D01*
X016448Y016190D02*
X017066Y016190D01*
X017068Y016193D02*
X016446Y016193D01*
X016443Y016195D02*
X017070Y016195D01*
X017072Y016198D02*
X016441Y016198D01*
X016439Y016200D02*
X017074Y016200D01*
X017076Y016202D02*
X016437Y016202D01*
X016435Y016205D02*
X017078Y016205D01*
X017080Y016207D02*
X016434Y016207D01*
X016432Y016210D02*
X017082Y016210D01*
X017084Y016212D02*
X016430Y016212D01*
X016429Y016215D02*
X017086Y016215D01*
X017088Y016217D02*
X016427Y016217D01*
X016425Y016220D02*
X017090Y016220D01*
X017092Y016222D02*
X016423Y016222D01*
X016422Y016224D02*
X017094Y016224D01*
X017096Y016227D02*
X016420Y016227D01*
X016418Y016229D02*
X017098Y016229D01*
X017100Y016232D02*
X016417Y016232D01*
X016415Y016234D02*
X017102Y016234D01*
X017103Y016237D02*
X016413Y016237D01*
X016412Y016239D02*
X017105Y016239D01*
X017106Y016241D02*
X016410Y016241D01*
X016408Y016244D02*
X017107Y016244D01*
X017109Y016246D02*
X016406Y016246D01*
X016405Y016249D02*
X017110Y016249D01*
X017111Y016251D02*
X016403Y016251D01*
X016401Y016254D02*
X017113Y016254D01*
X017114Y016256D02*
X016400Y016256D01*
X016398Y016259D02*
X017115Y016259D01*
X017116Y016261D02*
X016397Y016261D01*
X016396Y016263D02*
X017118Y016263D01*
X017119Y016266D02*
X016395Y016266D01*
X016393Y016268D02*
X017120Y016268D01*
X017122Y016271D02*
X016392Y016271D01*
X016391Y016273D02*
X017123Y016273D01*
X017124Y016276D02*
X016390Y016276D01*
X016389Y016278D02*
X017126Y016278D01*
X017127Y016280D02*
X016388Y016280D01*
X016387Y016283D02*
X017128Y016283D01*
X017129Y016285D02*
X016385Y016285D01*
X016384Y016288D02*
X017131Y016288D01*
X017132Y016290D02*
X016383Y016290D01*
X016382Y016293D02*
X017133Y016293D01*
X017135Y016295D02*
X016381Y016295D01*
X016380Y016298D02*
X017136Y016298D01*
X017137Y016300D02*
X016379Y016300D01*
X016378Y016302D02*
X017139Y016302D01*
X017142Y016310D02*
X016374Y016310D01*
X016373Y016312D02*
X017142Y016312D01*
X017143Y016315D02*
X016372Y016315D01*
X016371Y016317D02*
X017144Y016317D01*
X017145Y016319D02*
X016370Y016319D01*
X016368Y016322D02*
X017145Y016322D01*
X017146Y016324D02*
X016367Y016324D01*
X016367Y016327D02*
X017147Y016327D01*
X017148Y016329D02*
X016366Y016329D01*
X016366Y016332D02*
X017148Y016332D01*
X017149Y016334D02*
X016365Y016334D01*
X016364Y016337D02*
X017150Y016337D01*
X017151Y016339D02*
X016364Y016339D01*
X016363Y016341D02*
X017151Y016341D01*
X017152Y016344D02*
X016362Y016344D01*
X016362Y016346D02*
X017153Y016346D01*
X017154Y016349D02*
X016361Y016349D01*
X016360Y016351D02*
X017154Y016351D01*
X017155Y016354D02*
X016360Y016354D01*
X016359Y016356D02*
X017156Y016356D01*
X017157Y016358D02*
X016358Y016358D01*
X016358Y016361D02*
X017157Y016361D01*
X017158Y016363D02*
X016357Y016363D01*
X016356Y016366D02*
X017159Y016366D01*
X017159Y016368D02*
X016356Y016368D01*
X016355Y016371D02*
X017160Y016371D01*
X017161Y016373D02*
X016354Y016373D01*
X016354Y016376D02*
X017162Y016376D01*
X017162Y016378D02*
X016353Y016378D01*
X016352Y016380D02*
X017163Y016380D01*
X017164Y016383D02*
X016352Y016383D01*
X016351Y016385D02*
X017164Y016385D01*
X017165Y016388D02*
X016351Y016388D01*
X016350Y016390D02*
X017165Y016390D01*
X017165Y016393D02*
X016349Y016393D01*
X016349Y016395D02*
X017165Y016395D01*
X017166Y016397D02*
X016349Y016397D01*
X016348Y016400D02*
X017166Y016400D01*
X017166Y016402D02*
X016348Y016402D01*
X016348Y016405D02*
X017166Y016405D01*
X017167Y016407D02*
X016348Y016407D01*
X016348Y016410D02*
X017167Y016410D01*
X017167Y016412D02*
X016347Y016412D01*
X016347Y016415D02*
X017167Y016415D01*
X017168Y016417D02*
X016347Y016417D01*
X016347Y016419D02*
X017168Y016419D01*
X017168Y016422D02*
X016346Y016422D01*
X016346Y016424D02*
X017168Y016424D01*
X017169Y016427D02*
X016346Y016427D01*
X016346Y016429D02*
X017169Y016429D01*
X017169Y016432D02*
X016346Y016432D01*
X016345Y016434D02*
X017169Y016434D01*
X017170Y016436D02*
X016345Y016436D01*
X016345Y016439D02*
X017170Y016439D01*
X017170Y016441D02*
X016345Y016441D01*
X016345Y016444D02*
X017170Y016444D01*
X017170Y016446D02*
X016344Y016446D01*
X016344Y016449D02*
X017171Y016449D01*
X017171Y016451D02*
X016344Y016451D01*
X016344Y016454D02*
X017171Y016454D01*
X017171Y016456D02*
X016344Y016456D01*
X016343Y016458D02*
X017172Y016458D01*
X017172Y016461D02*
X016343Y016461D01*
X016343Y016463D02*
X017172Y016463D01*
X017172Y016466D02*
X016343Y016466D01*
X016343Y016468D02*
X017172Y016468D01*
X017172Y016471D02*
X016343Y016471D01*
X016343Y016473D02*
X017172Y016473D01*
X017172Y016475D02*
X016343Y016475D01*
X016343Y016478D02*
X017172Y016478D01*
X017172Y016480D02*
X016343Y016480D01*
X016343Y016483D02*
X017172Y016483D01*
X017172Y016485D02*
X016343Y016485D01*
X016343Y016488D02*
X017172Y016488D01*
X017172Y016490D02*
X016343Y016490D01*
X016343Y016493D02*
X017172Y016493D01*
X017172Y016495D02*
X016343Y016495D01*
X016343Y016497D02*
X017172Y016497D01*
X017172Y016500D02*
X016343Y016500D01*
X016343Y016502D02*
X017172Y016502D01*
X017172Y016505D02*
X016343Y016505D01*
X016343Y016507D02*
X017172Y016507D01*
X017172Y016510D02*
X016343Y016510D01*
X016343Y016512D02*
X017172Y016512D01*
X017172Y016514D02*
X016343Y016514D01*
X016343Y016517D02*
X017172Y016517D01*
X017172Y016519D02*
X016343Y016519D01*
X016343Y016522D02*
X017172Y016522D01*
X017172Y016524D02*
X016343Y016524D01*
X016343Y016527D02*
X017172Y016527D01*
X017172Y016529D02*
X016343Y016529D01*
X016343Y016532D02*
X017172Y016532D01*
X017172Y016534D02*
X016343Y016534D01*
X016343Y016536D02*
X017172Y016536D01*
X017172Y016539D02*
X016343Y016539D01*
X016343Y016541D02*
X017172Y016541D01*
X017172Y016544D02*
X016343Y016544D01*
X016343Y016546D02*
X017172Y016546D01*
X017172Y016549D02*
X016343Y016549D01*
X016343Y016551D02*
X017172Y016551D01*
X017172Y016553D02*
X016343Y016553D01*
X016343Y016556D02*
X017172Y016556D01*
X017172Y016558D02*
X016343Y016558D01*
X016343Y016561D02*
X017172Y016561D01*
X017172Y016563D02*
X016343Y016563D01*
X016343Y016566D02*
X017172Y016566D01*
X017172Y016568D02*
X016343Y016568D01*
X016343Y016571D02*
X017172Y016571D01*
X017172Y016573D02*
X016343Y016573D01*
X016343Y016575D02*
X017172Y016575D01*
X017172Y016578D02*
X016343Y016578D01*
X016343Y016580D02*
X017172Y016580D01*
X017172Y016583D02*
X016343Y016583D01*
X016343Y016585D02*
X017172Y016585D01*
X017172Y016588D02*
X016343Y016588D01*
X016343Y016590D02*
X017172Y016590D01*
X017172Y016592D02*
X016343Y016592D01*
X016343Y016595D02*
X017172Y016595D01*
X017172Y016597D02*
X016343Y016597D01*
X016343Y016600D02*
X017172Y016600D01*
X017172Y016602D02*
X016343Y016602D01*
X016343Y016605D02*
X017172Y016605D01*
X017172Y016607D02*
X016343Y016607D01*
X016343Y016610D02*
X017172Y016610D01*
X017172Y016612D02*
X016343Y016612D01*
X016343Y016614D02*
X017172Y016614D01*
X017172Y016617D02*
X016343Y016617D01*
X016343Y016619D02*
X017172Y016619D01*
X017172Y016622D02*
X016343Y016622D01*
X016343Y016624D02*
X017172Y016624D01*
X017172Y016627D02*
X016343Y016627D01*
X016343Y016629D02*
X017172Y016629D01*
X017172Y016631D02*
X016343Y016631D01*
X016343Y016634D02*
X017172Y016634D01*
X017172Y016636D02*
X016343Y016636D01*
X016343Y016639D02*
X017172Y016639D01*
X017172Y016641D02*
X016343Y016641D01*
X016343Y016644D02*
X017172Y016644D01*
X017172Y016646D02*
X016343Y016646D01*
X016343Y016649D02*
X017172Y016649D01*
X017172Y016651D02*
X016343Y016651D01*
X016343Y016653D02*
X017172Y016653D01*
X017172Y016656D02*
X016343Y016656D01*
X016343Y016658D02*
X017172Y016658D01*
X017172Y016661D02*
X016343Y016661D01*
X016343Y016663D02*
X017172Y016663D01*
X017172Y016666D02*
X016343Y016666D01*
X016343Y016668D02*
X017172Y016668D01*
X017172Y016670D02*
X016343Y016670D01*
X016343Y016673D02*
X017172Y016673D01*
X017172Y016675D02*
X016343Y016675D01*
X016343Y016678D02*
X017172Y016678D01*
X017172Y016680D02*
X016343Y016680D01*
X016343Y016683D02*
X017172Y016683D01*
X017172Y016685D02*
X016343Y016685D01*
X016343Y016688D02*
X017172Y016688D01*
X017172Y016690D02*
X016343Y016690D01*
X016343Y016692D02*
X017172Y016692D01*
X017172Y016695D02*
X016343Y016695D01*
X016343Y016697D02*
X017172Y016697D01*
X017172Y016700D02*
X016343Y016700D01*
X016343Y016702D02*
X017172Y016702D01*
X017172Y016705D02*
X016343Y016705D01*
X016343Y016707D02*
X017172Y016707D01*
X017172Y016709D02*
X016343Y016709D01*
X016343Y016712D02*
X017172Y016712D01*
X017172Y016714D02*
X016343Y016714D01*
X016343Y016717D02*
X017172Y016717D01*
X017172Y016719D02*
X016343Y016719D01*
X016343Y016722D02*
X017172Y016722D01*
X017172Y016724D02*
X016343Y016724D01*
X016343Y016726D02*
X017172Y016726D01*
X017172Y016729D02*
X016343Y016729D01*
X016343Y016731D02*
X017172Y016731D01*
X017172Y016734D02*
X016343Y016734D01*
X016343Y016736D02*
X017172Y016736D01*
X017172Y016739D02*
X016343Y016739D01*
X016343Y016741D02*
X017172Y016741D01*
X017172Y016744D02*
X016343Y016744D01*
X016343Y016746D02*
X017172Y016746D01*
X017172Y016748D02*
X016343Y016748D01*
X016343Y016751D02*
X017172Y016751D01*
X017172Y016753D02*
X016343Y016753D01*
X016343Y016756D02*
X017172Y016756D01*
X017172Y016758D02*
X016343Y016758D01*
X016343Y016761D02*
X017172Y016761D01*
X017172Y016763D02*
X016343Y016763D01*
X016343Y016765D02*
X017172Y016765D01*
X017172Y016768D02*
X016343Y016768D01*
X016343Y016770D02*
X017172Y016770D01*
X017172Y016773D02*
X016343Y016773D01*
X016343Y016775D02*
X017172Y016775D01*
X017172Y016778D02*
X016343Y016778D01*
X016343Y016780D02*
X017172Y016780D01*
X017172Y016783D02*
X016343Y016783D01*
X016343Y016785D02*
X017172Y016785D01*
X017172Y016787D02*
X016343Y016787D01*
X016343Y016790D02*
X017172Y016790D01*
X017172Y016792D02*
X016343Y016792D01*
X016343Y016795D02*
X017172Y016795D01*
X017172Y016797D02*
X016343Y016797D01*
X016343Y016800D02*
X017172Y016800D01*
X017172Y016802D02*
X016343Y016802D01*
X016343Y016804D02*
X017172Y016804D01*
X017172Y016807D02*
X016343Y016807D01*
X016343Y016809D02*
X017172Y016809D01*
X017172Y016812D02*
X016343Y016812D01*
X016343Y016814D02*
X017172Y016814D01*
X017172Y016817D02*
X016343Y016817D01*
X016343Y016819D02*
X017172Y016819D01*
X017172Y016822D02*
X016343Y016822D01*
X016343Y016824D02*
X017172Y016824D01*
X017172Y016826D02*
X016343Y016826D01*
X016343Y016829D02*
X017172Y016829D01*
X017172Y016831D02*
X016343Y016831D01*
X016343Y016834D02*
X017172Y016834D01*
X017172Y016836D02*
X016343Y016836D01*
X016343Y016839D02*
X017172Y016839D01*
X017172Y016841D02*
X016343Y016841D01*
X016343Y016843D02*
X017172Y016843D01*
X017172Y016846D02*
X016343Y016846D01*
X016343Y016848D02*
X017172Y016848D01*
X017172Y016851D02*
X016343Y016851D01*
X016343Y016853D02*
X017172Y016853D01*
X017172Y016856D02*
X016343Y016856D01*
X016343Y016858D02*
X017172Y016858D01*
X017172Y016861D02*
X016343Y016861D01*
X016343Y016863D02*
X017172Y016863D01*
X017172Y016865D02*
X016343Y016865D01*
X016343Y016868D02*
X017172Y016868D01*
X017172Y016870D02*
X016343Y016870D01*
X016343Y016873D02*
X017172Y016873D01*
X017172Y016875D02*
X016343Y016875D01*
X016343Y016878D02*
X017172Y016878D01*
X017172Y016880D02*
X016343Y016880D01*
X016343Y016882D02*
X017172Y016882D01*
X017172Y016885D02*
X016343Y016885D01*
X016343Y016887D02*
X017172Y016887D01*
X017172Y016890D02*
X016343Y016890D01*
X016343Y016892D02*
X017172Y016892D01*
X017172Y016895D02*
X016343Y016895D01*
X016343Y016897D02*
X017172Y016897D01*
X017172Y016900D02*
X016343Y016900D01*
X016343Y016902D02*
X017172Y016902D01*
X017172Y016904D02*
X016343Y016904D01*
X016343Y016907D02*
X017172Y016907D01*
X017172Y016909D02*
X016343Y016909D01*
X016343Y016912D02*
X017172Y016912D01*
X017172Y016914D02*
X016343Y016914D01*
X016343Y016917D02*
X017172Y016917D01*
X017172Y016919D02*
X016343Y016919D01*
X016343Y016921D02*
X017172Y016921D01*
X017172Y016924D02*
X016343Y016924D01*
X016343Y016926D02*
X017172Y016926D01*
X017172Y016929D02*
X016343Y016929D01*
X016343Y016931D02*
X017172Y016931D01*
X017172Y016934D02*
X016343Y016934D01*
X016343Y016936D02*
X017172Y016936D01*
X017172Y016939D02*
X016343Y016939D01*
X016343Y016941D02*
X017172Y016941D01*
X017172Y016943D02*
X016343Y016943D01*
X016343Y016946D02*
X017172Y016946D01*
X017172Y016948D02*
X016343Y016948D01*
X016343Y016951D02*
X017172Y016951D01*
X017172Y016953D02*
X016343Y016953D01*
X016343Y016956D02*
X017172Y016956D01*
X017172Y016958D02*
X016343Y016958D01*
X016343Y016960D02*
X017172Y016960D01*
X017172Y016963D02*
X016343Y016963D01*
X016343Y016965D02*
X017172Y016965D01*
X017172Y016968D02*
X016343Y016968D01*
X016343Y016970D02*
X017172Y016970D01*
X017172Y016973D02*
X016343Y016973D01*
X016343Y016975D02*
X017172Y016975D01*
X017172Y016978D02*
X016343Y016978D01*
X016343Y016980D02*
X017172Y016980D01*
X017172Y016982D02*
X016343Y016982D01*
X016343Y016985D02*
X017172Y016985D01*
X017172Y016987D02*
X016343Y016987D01*
X016343Y016990D02*
X017172Y016990D01*
X017172Y016992D02*
X016343Y016992D01*
X016343Y016995D02*
X017172Y016995D01*
X017172Y016997D02*
X016343Y016997D01*
X016343Y016999D02*
X017172Y016999D01*
X017172Y017002D02*
X016343Y017002D01*
X016343Y017004D02*
X017172Y017004D01*
X017172Y017007D02*
X016343Y017007D01*
X016343Y017009D02*
X017172Y017009D01*
X017172Y017012D02*
X016343Y017012D01*
X016343Y017014D02*
X017172Y017014D01*
X017172Y017017D02*
X016343Y017017D01*
X016343Y017019D02*
X017172Y017019D01*
X017172Y017021D02*
X016343Y017021D01*
X016343Y017024D02*
X017172Y017024D01*
X017172Y017026D02*
X016343Y017026D01*
X016343Y017029D02*
X017172Y017029D01*
X017172Y017031D02*
X016343Y017031D01*
X016343Y017034D02*
X017172Y017034D01*
X017172Y017036D02*
X016343Y017036D01*
X016343Y017038D02*
X017172Y017038D01*
X017172Y017041D02*
X016343Y017041D01*
X016343Y017043D02*
X017172Y017043D01*
X017172Y017046D02*
X016343Y017046D01*
X016343Y017048D02*
X017172Y017048D01*
X017172Y017051D02*
X016343Y017051D01*
X016343Y017053D02*
X017172Y017053D01*
X017172Y017056D02*
X016343Y017056D01*
X016343Y017058D02*
X017172Y017058D01*
X017172Y017060D02*
X016343Y017060D01*
X016343Y017063D02*
X017172Y017063D01*
X017172Y017065D02*
X016343Y017065D01*
X016343Y017068D02*
X017172Y017068D01*
X017172Y017070D02*
X016343Y017070D01*
X016343Y017073D02*
X017172Y017073D01*
X017172Y017075D02*
X016343Y017075D01*
X016343Y017077D02*
X017172Y017077D01*
X017172Y017080D02*
X016343Y017080D01*
X016343Y017082D02*
X017172Y017082D01*
X017172Y017085D02*
X016343Y017085D01*
X016343Y017087D02*
X017172Y017087D01*
X017172Y017090D02*
X016343Y017090D01*
X016343Y017092D02*
X017172Y017092D01*
X017172Y017095D02*
X016343Y017095D01*
X016343Y017097D02*
X017172Y017097D01*
X017172Y017099D02*
X016343Y017099D01*
X016343Y017102D02*
X017172Y017102D01*
X017172Y017104D02*
X016343Y017104D01*
X016343Y017107D02*
X017172Y017107D01*
X017172Y017109D02*
X016343Y017109D01*
X016343Y017112D02*
X017172Y017112D01*
X017172Y017114D02*
X016343Y017114D01*
X016343Y017116D02*
X017172Y017116D01*
X017172Y017119D02*
X016343Y017119D01*
X016343Y017121D02*
X017172Y017121D01*
X017172Y017124D02*
X016343Y017124D01*
X016343Y017126D02*
X017172Y017126D01*
X017172Y017129D02*
X016343Y017129D01*
X016343Y017131D02*
X017172Y017131D01*
X017172Y017134D02*
X016343Y017134D01*
X016343Y017136D02*
X017172Y017136D01*
X017172Y017138D02*
X016343Y017138D01*
X016343Y017141D02*
X017172Y017141D01*
X017172Y017143D02*
X016343Y017143D01*
X016343Y017146D02*
X017172Y017146D01*
X017172Y017148D02*
X016343Y017148D01*
X016343Y017151D02*
X017172Y017151D01*
X017172Y017153D02*
X016343Y017153D01*
X016343Y017155D02*
X017172Y017155D01*
X017172Y017158D02*
X016343Y017158D01*
X016343Y017160D02*
X017172Y017160D01*
X017172Y017163D02*
X016343Y017163D01*
X016343Y017165D02*
X017172Y017165D01*
X017172Y017168D02*
X016343Y017168D01*
X016343Y017170D02*
X017172Y017170D01*
X017172Y017173D02*
X016343Y017173D01*
X016343Y017175D02*
X017172Y017175D01*
X017172Y017177D02*
X016343Y017177D01*
X016343Y017180D02*
X017172Y017180D01*
X017172Y017182D02*
X016343Y017182D01*
X016343Y017185D02*
X017172Y017185D01*
X017172Y017187D02*
X016343Y017187D01*
X016343Y017190D02*
X017172Y017190D01*
X017172Y017192D02*
X016343Y017192D01*
X016343Y017194D02*
X017172Y017194D01*
X017172Y017197D02*
X016343Y017197D01*
X016343Y017199D02*
X017172Y017199D01*
X017172Y017202D02*
X016343Y017202D01*
X016343Y017204D02*
X017172Y017204D01*
X017172Y017207D02*
X016343Y017207D01*
X016343Y017209D02*
X017172Y017209D01*
X017172Y017212D02*
X016343Y017212D01*
X016343Y017214D02*
X017172Y017214D01*
X017172Y017216D02*
X016343Y017216D01*
X016343Y017219D02*
X017172Y017219D01*
X017172Y017221D02*
X016343Y017221D01*
X016343Y017224D02*
X017172Y017224D01*
X017172Y017226D02*
X016343Y017226D01*
X016343Y017229D02*
X017172Y017229D01*
X017172Y017231D02*
X016343Y017231D01*
X016343Y017233D02*
X017172Y017233D01*
X017172Y017236D02*
X016343Y017236D01*
X016343Y017238D02*
X017172Y017238D01*
X017172Y017241D02*
X016343Y017241D01*
X016343Y017243D02*
X017172Y017243D01*
X017172Y017246D02*
X016343Y017246D01*
X016343Y017248D02*
X017172Y017248D01*
X017172Y017251D02*
X016343Y017251D01*
X016343Y017253D02*
X017172Y017253D01*
X017172Y017255D02*
X016343Y017255D01*
X016343Y017258D02*
X017172Y017258D01*
X017172Y017260D02*
X016343Y017260D01*
X016343Y017263D02*
X017172Y017263D01*
X017172Y017265D02*
X016343Y017265D01*
X016343Y017268D02*
X017172Y017268D01*
X017172Y017270D02*
X016343Y017270D01*
X016343Y017272D02*
X017172Y017272D01*
X017172Y017275D02*
X016343Y017275D01*
X016343Y017277D02*
X017172Y017277D01*
X017172Y017280D02*
X016343Y017280D01*
X016343Y017282D02*
X017172Y017282D01*
X017172Y017285D02*
X016343Y017285D01*
X016343Y017287D02*
X017172Y017287D01*
X017172Y017290D02*
X016343Y017290D01*
X016343Y017292D02*
X017172Y017292D01*
X017172Y017294D02*
X016343Y017294D01*
X016343Y017297D02*
X017172Y017297D01*
X017172Y017299D02*
X016343Y017299D01*
X016343Y017302D02*
X017172Y017302D01*
X017172Y017304D02*
X016343Y017304D01*
X016343Y017307D02*
X017172Y017307D01*
X017172Y017309D02*
X016343Y017309D01*
X016343Y017311D02*
X017172Y017311D01*
X017172Y017314D02*
X016343Y017314D01*
X016343Y017316D02*
X017172Y017316D01*
X017172Y017319D02*
X016343Y017319D01*
X016343Y017321D02*
X017172Y017321D01*
X017172Y017324D02*
X016343Y017324D01*
X016343Y017326D02*
X017172Y017326D01*
X017172Y017329D02*
X016343Y017329D01*
X016343Y017331D02*
X017172Y017331D01*
X017172Y017333D02*
X016343Y017333D01*
X016343Y017336D02*
X017172Y017336D01*
X017172Y017338D02*
X016343Y017338D01*
X016343Y017341D02*
X017172Y017341D01*
X017172Y017343D02*
X016343Y017343D01*
X016343Y017346D02*
X017172Y017346D01*
X017172Y017348D02*
X016343Y017348D01*
X016343Y017350D02*
X017172Y017350D01*
X017172Y017353D02*
X016343Y017353D01*
X016343Y017355D02*
X017172Y017355D01*
X017172Y017358D02*
X016343Y017358D01*
X016343Y017360D02*
X017172Y017360D01*
X017172Y017363D02*
X016343Y017363D01*
X016343Y017365D02*
X017172Y017365D01*
X017172Y017367D02*
X016343Y017367D01*
X016343Y017370D02*
X017172Y017370D01*
X017172Y017372D02*
X016343Y017372D01*
X016343Y017375D02*
X017172Y017375D01*
X017172Y017377D02*
X016343Y017377D01*
X016343Y017380D02*
X017172Y017380D01*
X017172Y017382D02*
X016343Y017382D01*
X016343Y017385D02*
X017172Y017385D01*
X017172Y017387D02*
X016343Y017387D01*
X016343Y017389D02*
X017172Y017389D01*
X017172Y017392D02*
X016343Y017392D01*
X016343Y017394D02*
X017172Y017394D01*
X017172Y017397D02*
X016343Y017397D01*
X016343Y017399D02*
X017172Y017399D01*
X017172Y017402D02*
X016343Y017402D01*
X016343Y017404D02*
X017172Y017404D01*
X017172Y017406D02*
X016343Y017406D01*
X016343Y017409D02*
X017172Y017409D01*
X017172Y017411D02*
X016343Y017411D01*
X016343Y017414D02*
X017172Y017414D01*
X017172Y017416D02*
X016343Y017416D01*
X016343Y017419D02*
X017172Y017419D01*
X017172Y017421D02*
X016343Y017421D01*
X016343Y017424D02*
X017172Y017424D01*
X017172Y017426D02*
X016343Y017426D01*
X016343Y017428D02*
X017172Y017428D01*
X017172Y017431D02*
X016343Y017431D01*
X016343Y017433D02*
X017172Y017433D01*
X017172Y017436D02*
X016343Y017436D01*
X016343Y017438D02*
X017172Y017438D01*
X017172Y017441D02*
X016343Y017441D01*
X016343Y017443D02*
X017172Y017443D01*
X017172Y017445D02*
X016343Y017445D01*
X016343Y017448D02*
X017172Y017448D01*
X017172Y017450D02*
X016343Y017450D01*
X016343Y017453D02*
X017172Y017453D01*
X017172Y017455D02*
X016343Y017455D01*
X016343Y017458D02*
X017172Y017458D01*
X017172Y017460D02*
X016343Y017460D01*
X016343Y017463D02*
X017172Y017463D01*
X017172Y017465D02*
X016343Y017465D01*
X016343Y017467D02*
X017172Y017467D01*
X017172Y017470D02*
X016343Y017470D01*
X016343Y017472D02*
X017172Y017472D01*
X017172Y017475D02*
X016343Y017475D01*
X016343Y017477D02*
X017172Y017477D01*
X017172Y017480D02*
X016343Y017480D01*
X016343Y017482D02*
X017172Y017482D01*
X017172Y017484D02*
X016343Y017484D01*
X016343Y017487D02*
X017172Y017487D01*
X017172Y017489D02*
X016343Y017489D01*
X016343Y017492D02*
X017172Y017492D01*
X017172Y017494D02*
X016343Y017494D01*
X016343Y017497D02*
X017172Y017497D01*
X017172Y017499D02*
X016343Y017499D01*
X016343Y017502D02*
X017172Y017502D01*
X017172Y017504D02*
X016343Y017504D01*
X016343Y017506D02*
X017172Y017506D01*
X017172Y017509D02*
X016343Y017509D01*
X016343Y017511D02*
X017172Y017511D01*
X017172Y017514D02*
X016343Y017514D01*
X016343Y017516D02*
X017172Y017516D01*
X017172Y017519D02*
X016343Y017519D01*
X016343Y017521D02*
X017172Y017521D01*
X017172Y017523D02*
X016343Y017523D01*
X016343Y017526D02*
X017172Y017526D01*
X017172Y017528D02*
X016343Y017528D01*
X016343Y017531D02*
X017172Y017531D01*
X017172Y017533D02*
X016343Y017533D01*
X016343Y017536D02*
X017172Y017536D01*
X017172Y017538D02*
X016343Y017538D01*
X016343Y017541D02*
X017172Y017541D01*
X017172Y017543D02*
X016343Y017543D01*
X016343Y017545D02*
X017172Y017545D01*
X017172Y017548D02*
X016343Y017548D01*
X016343Y017550D02*
X017172Y017550D01*
X017172Y017553D02*
X016343Y017553D01*
X016343Y017555D02*
X017172Y017555D01*
X017172Y017558D02*
X016343Y017558D01*
X016343Y017560D02*
X017172Y017560D01*
X017171Y017562D02*
X016344Y017562D01*
X016344Y017565D02*
X017171Y017565D01*
X017171Y017567D02*
X016344Y017567D01*
X016344Y017570D02*
X017171Y017570D01*
X017171Y017572D02*
X016344Y017572D01*
X016345Y017575D02*
X017170Y017575D01*
X017170Y017577D02*
X016345Y017577D01*
X016345Y017580D02*
X017170Y017580D01*
X017170Y017582D02*
X016345Y017582D01*
X016346Y017584D02*
X017170Y017584D01*
X017169Y017587D02*
X016346Y017587D01*
X016346Y017589D02*
X017169Y017589D01*
X017169Y017592D02*
X016346Y017592D01*
X016346Y017594D02*
X017169Y017594D01*
X017168Y017597D02*
X016347Y017597D01*
X016347Y017599D02*
X017168Y017599D01*
X017168Y017601D02*
X016347Y017601D01*
X016347Y017604D02*
X017168Y017604D01*
X017168Y017606D02*
X016347Y017606D01*
X016348Y017609D02*
X017167Y017609D01*
X017167Y017611D02*
X016348Y017611D01*
X016348Y017614D02*
X017167Y017614D01*
X017167Y017616D02*
X016348Y017616D01*
X016349Y017619D02*
X017167Y017619D01*
X017166Y017621D02*
X016349Y017621D01*
X016349Y017623D02*
X017166Y017623D01*
X017165Y017626D02*
X016350Y017626D01*
X016350Y017628D02*
X017165Y017628D01*
X017164Y017631D02*
X016351Y017631D01*
X016352Y017633D02*
X017164Y017633D01*
X017163Y017636D02*
X016352Y017636D01*
X016353Y017638D02*
X017162Y017638D01*
X017162Y017640D02*
X016353Y017640D01*
X016354Y017643D02*
X017161Y017643D01*
X017160Y017645D02*
X016355Y017645D01*
X016355Y017648D02*
X017160Y017648D01*
X017159Y017650D02*
X016356Y017650D01*
X016357Y017653D02*
X017158Y017653D01*
X017158Y017655D02*
X016357Y017655D01*
X016358Y017658D02*
X017157Y017658D01*
X017156Y017660D02*
X016359Y017660D01*
X016359Y017662D02*
X017156Y017662D01*
X017155Y017665D02*
X016360Y017665D01*
X016361Y017667D02*
X017154Y017667D01*
X017154Y017670D02*
X016361Y017670D01*
X016362Y017672D02*
X017153Y017672D01*
X017152Y017675D02*
X016363Y017675D01*
X016363Y017677D02*
X017152Y017677D01*
X017151Y017679D02*
X016364Y017679D01*
X016365Y017682D02*
X017150Y017682D01*
X017150Y017684D02*
X016365Y017684D01*
X016366Y017687D02*
X017149Y017687D01*
X017149Y017689D02*
X016367Y017689D01*
X016367Y017692D02*
X017148Y017692D01*
X017147Y017694D02*
X017117Y017759D01*
X017075Y017818D01*
X017024Y017869D01*
X016965Y017911D01*
X016899Y017941D01*
X016830Y017960D01*
X016758Y017966D01*
X016686Y017960D01*
X016616Y017941D01*
X016550Y017911D01*
X016491Y017869D01*
X016440Y017818D01*
X016398Y017759D01*
X016368Y017694D01*
X016369Y017697D02*
X017146Y017697D01*
X017145Y017699D02*
X016370Y017699D01*
X016371Y017701D02*
X017144Y017701D01*
X017143Y017704D02*
X016373Y017704D01*
X016374Y017706D02*
X017141Y017706D01*
X017140Y017709D02*
X016375Y017709D01*
X016376Y017711D02*
X017139Y017711D01*
X017138Y017714D02*
X016377Y017714D01*
X016378Y017716D02*
X017137Y017716D01*
X017136Y017718D02*
X016379Y017718D01*
X016380Y017721D02*
X017135Y017721D01*
X017133Y017723D02*
X016382Y017723D01*
X016383Y017726D02*
X017132Y017726D01*
X017131Y017728D02*
X016384Y017728D01*
X016385Y017731D02*
X017130Y017731D01*
X017129Y017733D02*
X016386Y017733D01*
X016387Y017736D02*
X017128Y017736D01*
X017127Y017738D02*
X016388Y017738D01*
X016390Y017740D02*
X017126Y017740D01*
X017124Y017743D02*
X016391Y017743D01*
X016392Y017745D02*
X017123Y017745D01*
X017122Y017748D02*
X016393Y017748D01*
X016394Y017750D02*
X017121Y017750D01*
X017120Y017753D02*
X016395Y017753D01*
X016396Y017755D02*
X017119Y017755D01*
X017118Y017757D02*
X016398Y017757D01*
X016399Y017760D02*
X017116Y017760D01*
X017115Y017762D02*
X016401Y017762D01*
X016402Y017765D02*
X017113Y017765D01*
X017111Y017767D02*
X016404Y017767D01*
X016406Y017770D02*
X017109Y017770D01*
X017108Y017772D02*
X016407Y017772D01*
X016409Y017775D02*
X017106Y017775D01*
X017104Y017777D02*
X016411Y017777D01*
X016413Y017779D02*
X017103Y017779D01*
X017101Y017782D02*
X016414Y017782D01*
X016416Y017784D02*
X017099Y017784D01*
X017097Y017787D02*
X016418Y017787D01*
X016419Y017789D02*
X017096Y017789D01*
X017094Y017792D02*
X016421Y017792D01*
X016423Y017794D02*
X017092Y017794D01*
X017091Y017796D02*
X016424Y017796D01*
X016426Y017799D02*
X017089Y017799D01*
X017087Y017801D02*
X016428Y017801D01*
X016430Y017804D02*
X017085Y017804D01*
X017084Y017806D02*
X016431Y017806D01*
X016433Y017809D02*
X017082Y017809D01*
X017080Y017811D02*
X016435Y017811D01*
X016436Y017814D02*
X017079Y017814D01*
X017077Y017816D02*
X016438Y017816D01*
X016440Y017818D02*
X017075Y017818D01*
X017073Y017821D02*
X016442Y017821D01*
X016445Y017823D02*
X017070Y017823D01*
X017068Y017826D02*
X016447Y017826D01*
X016450Y017828D02*
X017065Y017828D01*
X017063Y017831D02*
X016452Y017831D01*
X016454Y017833D02*
X017061Y017833D01*
X017058Y017835D02*
X016457Y017835D01*
X016459Y017838D02*
X017056Y017838D01*
X017053Y017840D02*
X016462Y017840D01*
X016464Y017843D02*
X017051Y017843D01*
X017048Y017845D02*
X016467Y017845D01*
X016469Y017848D02*
X017046Y017848D01*
X017044Y017850D02*
X016472Y017850D01*
X016474Y017853D02*
X017041Y017853D01*
X017039Y017855D02*
X016476Y017855D01*
X016479Y017857D02*
X017036Y017857D01*
X017034Y017860D02*
X016481Y017860D01*
X016484Y017862D02*
X017031Y017862D01*
X017029Y017865D02*
X016486Y017865D01*
X016489Y017867D02*
X017026Y017867D01*
X017024Y017870D02*
X016491Y017870D01*
X016495Y017872D02*
X017020Y017872D01*
X017017Y017874D02*
X016498Y017874D01*
X016502Y017877D02*
X017014Y017877D01*
X017010Y017879D02*
X016505Y017879D01*
X016509Y017882D02*
X017007Y017882D01*
X017003Y017884D02*
X016512Y017884D01*
X016515Y017887D02*
X017000Y017887D01*
X016996Y017889D02*
X016519Y017889D01*
X016522Y017892D02*
X016993Y017892D01*
X016989Y017894D02*
X016526Y017894D01*
X016529Y017896D02*
X016986Y017896D01*
X016982Y017899D02*
X016533Y017899D01*
X016536Y017901D02*
X016979Y017901D01*
X016975Y017904D02*
X016540Y017904D01*
X016543Y017906D02*
X016972Y017906D01*
X016968Y017909D02*
X016547Y017909D01*
X016550Y017911D02*
X016965Y017911D01*
X016959Y017913D02*
X016556Y017913D01*
X016561Y017916D02*
X016954Y017916D01*
X016949Y017918D02*
X016566Y017918D01*
X016571Y017921D02*
X016944Y017921D01*
X016939Y017923D02*
X016577Y017923D01*
X016582Y017926D02*
X016933Y017926D01*
X016928Y017928D02*
X016587Y017928D01*
X016592Y017931D02*
X016923Y017931D01*
X016918Y017933D02*
X016597Y017933D01*
X016603Y017935D02*
X016912Y017935D01*
X016907Y017938D02*
X016608Y017938D01*
X016613Y017940D02*
X016902Y017940D01*
X016895Y017943D02*
X016620Y017943D01*
X016629Y017945D02*
X016886Y017945D01*
X016877Y017948D02*
X016638Y017948D01*
X016648Y017950D02*
X016867Y017950D01*
X016858Y017952D02*
X016657Y017952D01*
X016666Y017955D02*
X016849Y017955D01*
X016840Y017957D02*
X016675Y017957D01*
X016684Y017960D02*
X016831Y017960D01*
X016806Y017962D02*
X016709Y017962D01*
X016737Y017965D02*
X016779Y017965D01*
X012042Y017552D02*
X012042Y016465D01*
X012034Y016384D01*
X012010Y016307D01*
X011972Y016235D01*
X011920Y016172D01*
X011858Y016120D01*
X011786Y016082D01*
X011708Y016059D01*
X011627Y016051D01*
X011555Y016057D01*
X011485Y016076D01*
X011765Y016076D01*
X011773Y016078D02*
X011479Y016078D01*
X011474Y016081D02*
X011781Y016081D01*
X011788Y016083D02*
X011469Y016083D01*
X011464Y016086D02*
X011792Y016086D01*
X011797Y016088D02*
X011459Y016088D01*
X011453Y016090D02*
X011801Y016090D01*
X011806Y016093D02*
X011448Y016093D01*
X011443Y016095D02*
X011810Y016095D01*
X011815Y016098D02*
X011438Y016098D01*
X011432Y016100D02*
X011819Y016100D01*
X011824Y016103D02*
X011427Y016103D01*
X011422Y016105D02*
X011829Y016105D01*
X011833Y016107D02*
X011418Y016107D01*
X011420Y016106D02*
X011485Y016076D01*
X011494Y016073D02*
X011757Y016073D01*
X011749Y016071D02*
X011503Y016071D01*
X011512Y016068D02*
X011741Y016068D01*
X011733Y016066D02*
X011521Y016066D01*
X011530Y016064D02*
X011725Y016064D01*
X011717Y016061D02*
X011539Y016061D01*
X011548Y016059D02*
X011709Y016059D01*
X011685Y016056D02*
X011562Y016056D01*
X011590Y016054D02*
X011660Y016054D01*
X011636Y016051D02*
X011617Y016051D01*
X011420Y016106D02*
X011360Y016148D01*
X011309Y016199D01*
X011268Y016258D01*
X011237Y016324D01*
X012016Y016324D01*
X012015Y016322D02*
X011238Y016322D01*
X011237Y016324D02*
X011218Y016393D01*
X011212Y016465D01*
X011212Y017552D01*
X011218Y017624D01*
X011237Y017694D01*
X012017Y017694D01*
X011986Y017759D01*
X011945Y017818D01*
X011894Y017869D01*
X011834Y017911D01*
X011420Y017911D01*
X011360Y017869D01*
X011309Y017818D01*
X011268Y017759D01*
X011237Y017694D01*
X011237Y017692D02*
X012017Y017692D01*
X012017Y017694D02*
X012036Y017624D01*
X012042Y017552D01*
X012042Y017553D02*
X011212Y017553D01*
X011212Y017555D02*
X012042Y017555D01*
X012041Y017558D02*
X011213Y017558D01*
X011213Y017560D02*
X012041Y017560D01*
X012041Y017562D02*
X011213Y017562D01*
X011213Y017565D02*
X012041Y017565D01*
X012041Y017567D02*
X011214Y017567D01*
X011214Y017570D02*
X012040Y017570D01*
X012040Y017572D02*
X011214Y017572D01*
X011214Y017575D02*
X012040Y017575D01*
X012040Y017577D02*
X011214Y017577D01*
X011215Y017580D02*
X012039Y017580D01*
X012039Y017582D02*
X011215Y017582D01*
X011215Y017584D02*
X012039Y017584D01*
X012039Y017587D02*
X011215Y017587D01*
X011215Y017589D02*
X012039Y017589D01*
X012038Y017592D02*
X011216Y017592D01*
X011216Y017594D02*
X012038Y017594D01*
X012038Y017597D02*
X011216Y017597D01*
X011216Y017599D02*
X012038Y017599D01*
X012038Y017601D02*
X011217Y017601D01*
X011217Y017604D02*
X012037Y017604D01*
X012037Y017606D02*
X011217Y017606D01*
X011217Y017609D02*
X012037Y017609D01*
X012037Y017611D02*
X011217Y017611D01*
X011218Y017614D02*
X012036Y017614D01*
X012036Y017616D02*
X011218Y017616D01*
X011218Y017619D02*
X012036Y017619D01*
X012036Y017621D02*
X011218Y017621D01*
X011218Y017623D02*
X012036Y017623D01*
X012035Y017626D02*
X011219Y017626D01*
X011220Y017628D02*
X012034Y017628D01*
X012034Y017631D02*
X011220Y017631D01*
X011221Y017633D02*
X012033Y017633D01*
X012032Y017636D02*
X011222Y017636D01*
X011222Y017638D02*
X012032Y017638D01*
X012031Y017640D02*
X011223Y017640D01*
X011224Y017643D02*
X012030Y017643D01*
X012030Y017645D02*
X011224Y017645D01*
X011225Y017648D02*
X012029Y017648D01*
X012028Y017650D02*
X011226Y017650D01*
X011226Y017653D02*
X012028Y017653D01*
X012027Y017655D02*
X011227Y017655D01*
X011228Y017658D02*
X012026Y017658D01*
X012026Y017660D02*
X011228Y017660D01*
X011229Y017662D02*
X012025Y017662D01*
X012025Y017665D02*
X011230Y017665D01*
X011230Y017667D02*
X012024Y017667D01*
X012023Y017670D02*
X011231Y017670D01*
X011231Y017672D02*
X012023Y017672D01*
X012022Y017675D02*
X011232Y017675D01*
X011233Y017677D02*
X012021Y017677D01*
X012021Y017679D02*
X011233Y017679D01*
X011234Y017682D02*
X012020Y017682D01*
X012019Y017684D02*
X011235Y017684D01*
X011235Y017687D02*
X012019Y017687D01*
X012018Y017689D02*
X011236Y017689D01*
X011239Y017697D02*
X012015Y017697D01*
X012014Y017699D02*
X011240Y017699D01*
X011241Y017701D02*
X012013Y017701D01*
X012012Y017704D02*
X011242Y017704D01*
X011243Y017706D02*
X012011Y017706D01*
X012010Y017709D02*
X011244Y017709D01*
X011245Y017711D02*
X012009Y017711D01*
X012007Y017714D02*
X011247Y017714D01*
X011248Y017716D02*
X012006Y017716D01*
X012005Y017718D02*
X011249Y017718D01*
X011250Y017721D02*
X012004Y017721D01*
X012003Y017723D02*
X011251Y017723D01*
X011252Y017726D02*
X012002Y017726D01*
X012001Y017728D02*
X011253Y017728D01*
X011255Y017731D02*
X012000Y017731D01*
X011998Y017733D02*
X011256Y017733D01*
X011257Y017736D02*
X011997Y017736D01*
X011996Y017738D02*
X011258Y017738D01*
X011259Y017740D02*
X011995Y017740D01*
X011994Y017743D02*
X011260Y017743D01*
X011261Y017745D02*
X011993Y017745D01*
X011992Y017748D02*
X011262Y017748D01*
X011264Y017750D02*
X011990Y017750D01*
X011989Y017753D02*
X011265Y017753D01*
X011266Y017755D02*
X011988Y017755D01*
X011987Y017757D02*
X011267Y017757D01*
X011268Y017760D02*
X011986Y017760D01*
X011984Y017762D02*
X011270Y017762D01*
X011272Y017765D02*
X011982Y017765D01*
X011981Y017767D02*
X011273Y017767D01*
X011275Y017770D02*
X011979Y017770D01*
X011977Y017772D02*
X011277Y017772D01*
X011279Y017775D02*
X011975Y017775D01*
X011974Y017777D02*
X011280Y017777D01*
X011282Y017779D02*
X011972Y017779D01*
X011970Y017782D02*
X011284Y017782D01*
X011285Y017784D02*
X011969Y017784D01*
X011967Y017787D02*
X011287Y017787D01*
X011289Y017789D02*
X011965Y017789D01*
X011964Y017792D02*
X011291Y017792D01*
X011292Y017794D02*
X011962Y017794D01*
X011960Y017796D02*
X011294Y017796D01*
X011296Y017799D02*
X011958Y017799D01*
X011957Y017801D02*
X011297Y017801D01*
X011299Y017804D02*
X011955Y017804D01*
X011953Y017806D02*
X011301Y017806D01*
X011302Y017809D02*
X011952Y017809D01*
X011950Y017811D02*
X011304Y017811D01*
X011306Y017814D02*
X011948Y017814D01*
X011946Y017816D02*
X011308Y017816D01*
X011309Y017818D02*
X011945Y017818D01*
X011942Y017821D02*
X011312Y017821D01*
X011314Y017823D02*
X011940Y017823D01*
X011937Y017826D02*
X011317Y017826D01*
X011319Y017828D02*
X011935Y017828D01*
X011933Y017831D02*
X011322Y017831D01*
X011324Y017833D02*
X011930Y017833D01*
X011928Y017835D02*
X011326Y017835D01*
X011329Y017838D02*
X011925Y017838D01*
X011923Y017840D02*
X011331Y017840D01*
X011334Y017843D02*
X011920Y017843D01*
X011918Y017845D02*
X011336Y017845D01*
X011339Y017848D02*
X011915Y017848D01*
X011913Y017850D02*
X011341Y017850D01*
X011343Y017853D02*
X011911Y017853D01*
X011908Y017855D02*
X011346Y017855D01*
X011348Y017857D02*
X011906Y017857D01*
X011903Y017860D02*
X011351Y017860D01*
X011353Y017862D02*
X011901Y017862D01*
X011898Y017865D02*
X011356Y017865D01*
X011358Y017867D02*
X011896Y017867D01*
X011893Y017870D02*
X011361Y017870D01*
X011364Y017872D02*
X011890Y017872D01*
X011886Y017874D02*
X011368Y017874D01*
X011371Y017877D02*
X011883Y017877D01*
X011880Y017879D02*
X011375Y017879D01*
X011378Y017882D02*
X011876Y017882D01*
X011873Y017884D02*
X011381Y017884D01*
X011385Y017887D02*
X011869Y017887D01*
X011866Y017889D02*
X011388Y017889D01*
X011392Y017892D02*
X011862Y017892D01*
X011859Y017894D02*
X011395Y017894D01*
X011399Y017896D02*
X011855Y017896D01*
X011852Y017899D02*
X011402Y017899D01*
X011406Y017901D02*
X011848Y017901D01*
X011845Y017904D02*
X011409Y017904D01*
X011413Y017906D02*
X011841Y017906D01*
X011838Y017909D02*
X011416Y017909D01*
X011420Y017911D02*
X011485Y017941D01*
X011555Y017960D01*
X011627Y017966D01*
X011699Y017960D01*
X011769Y017941D01*
X011834Y017911D01*
X011829Y017913D02*
X011425Y017913D01*
X011430Y017916D02*
X011824Y017916D01*
X011819Y017918D02*
X011436Y017918D01*
X011441Y017921D02*
X011813Y017921D01*
X011808Y017923D02*
X011446Y017923D01*
X011451Y017926D02*
X011803Y017926D01*
X011798Y017928D02*
X011456Y017928D01*
X011462Y017931D02*
X011792Y017931D01*
X011787Y017933D02*
X011467Y017933D01*
X011472Y017935D02*
X011782Y017935D01*
X011777Y017938D02*
X011477Y017938D01*
X011483Y017940D02*
X011771Y017940D01*
X011764Y017943D02*
X011490Y017943D01*
X011499Y017945D02*
X011755Y017945D01*
X011746Y017948D02*
X011508Y017948D01*
X011517Y017950D02*
X011737Y017950D01*
X011728Y017952D02*
X011526Y017952D01*
X011535Y017955D02*
X011719Y017955D01*
X011710Y017957D02*
X011544Y017957D01*
X011553Y017960D02*
X011701Y017960D01*
X011676Y017962D02*
X011578Y017962D01*
X011606Y017965D02*
X011648Y017965D01*
X012042Y017550D02*
X011212Y017550D01*
X011212Y017548D02*
X012042Y017548D01*
X012042Y017545D02*
X011212Y017545D01*
X011212Y017543D02*
X012042Y017543D01*
X012042Y017541D02*
X011212Y017541D01*
X011212Y017538D02*
X012042Y017538D01*
X012042Y017536D02*
X011212Y017536D01*
X011212Y017533D02*
X012042Y017533D01*
X012042Y017531D02*
X011212Y017531D01*
X011212Y017528D02*
X012042Y017528D01*
X012042Y017526D02*
X011212Y017526D01*
X011212Y017523D02*
X012042Y017523D01*
X012042Y017521D02*
X011212Y017521D01*
X011212Y017519D02*
X012042Y017519D01*
X012042Y017516D02*
X011212Y017516D01*
X011212Y017514D02*
X012042Y017514D01*
X012042Y017511D02*
X011212Y017511D01*
X011212Y017509D02*
X012042Y017509D01*
X012042Y017506D02*
X011212Y017506D01*
X011212Y017504D02*
X012042Y017504D01*
X012042Y017502D02*
X011212Y017502D01*
X011212Y017499D02*
X012042Y017499D01*
X012042Y017497D02*
X011212Y017497D01*
X011212Y017494D02*
X012042Y017494D01*
X012042Y017492D02*
X011212Y017492D01*
X011212Y017489D02*
X012042Y017489D01*
X012042Y017487D02*
X011212Y017487D01*
X011212Y017484D02*
X012042Y017484D01*
X012042Y017482D02*
X011212Y017482D01*
X011212Y017480D02*
X012042Y017480D01*
X012042Y017477D02*
X011212Y017477D01*
X011212Y017475D02*
X012042Y017475D01*
X012042Y017472D02*
X011212Y017472D01*
X011212Y017470D02*
X012042Y017470D01*
X012042Y017467D02*
X011212Y017467D01*
X011212Y017465D02*
X012042Y017465D01*
X012042Y017463D02*
X011212Y017463D01*
X011212Y017460D02*
X012042Y017460D01*
X012042Y017458D02*
X011212Y017458D01*
X011212Y017455D02*
X012042Y017455D01*
X012042Y017453D02*
X011212Y017453D01*
X011212Y017450D02*
X012042Y017450D01*
X012042Y017448D02*
X011212Y017448D01*
X011212Y017445D02*
X012042Y017445D01*
X012042Y017443D02*
X011212Y017443D01*
X011212Y017441D02*
X012042Y017441D01*
X012042Y017438D02*
X011212Y017438D01*
X011212Y017436D02*
X012042Y017436D01*
X012042Y017433D02*
X011212Y017433D01*
X011212Y017431D02*
X012042Y017431D01*
X012042Y017428D02*
X011212Y017428D01*
X011212Y017426D02*
X012042Y017426D01*
X012042Y017424D02*
X011212Y017424D01*
X011212Y017421D02*
X012042Y017421D01*
X012042Y017419D02*
X011212Y017419D01*
X011212Y017416D02*
X012042Y017416D01*
X012042Y017414D02*
X011212Y017414D01*
X011212Y017411D02*
X012042Y017411D01*
X012042Y017409D02*
X011212Y017409D01*
X011212Y017406D02*
X012042Y017406D01*
X012042Y017404D02*
X011212Y017404D01*
X011212Y017402D02*
X012042Y017402D01*
X012042Y017399D02*
X011212Y017399D01*
X011212Y017397D02*
X012042Y017397D01*
X012042Y017394D02*
X011212Y017394D01*
X011212Y017392D02*
X012042Y017392D01*
X012042Y017389D02*
X011212Y017389D01*
X011212Y017387D02*
X012042Y017387D01*
X012042Y017385D02*
X011212Y017385D01*
X011212Y017382D02*
X012042Y017382D01*
X012042Y017380D02*
X011212Y017380D01*
X011212Y017377D02*
X012042Y017377D01*
X012042Y017375D02*
X011212Y017375D01*
X011212Y017372D02*
X012042Y017372D01*
X012042Y017370D02*
X011212Y017370D01*
X011212Y017367D02*
X012042Y017367D01*
X012042Y017365D02*
X011212Y017365D01*
X011212Y017363D02*
X012042Y017363D01*
X012042Y017360D02*
X011212Y017360D01*
X011212Y017358D02*
X012042Y017358D01*
X012042Y017355D02*
X011212Y017355D01*
X011212Y017353D02*
X012042Y017353D01*
X012042Y017350D02*
X011212Y017350D01*
X011212Y017348D02*
X012042Y017348D01*
X012042Y017346D02*
X011212Y017346D01*
X011212Y017343D02*
X012042Y017343D01*
X012042Y017341D02*
X011212Y017341D01*
X011212Y017338D02*
X012042Y017338D01*
X012042Y017336D02*
X011212Y017336D01*
X011212Y017333D02*
X012042Y017333D01*
X012042Y017331D02*
X011212Y017331D01*
X011212Y017329D02*
X012042Y017329D01*
X012042Y017326D02*
X011212Y017326D01*
X011212Y017324D02*
X012042Y017324D01*
X012042Y017321D02*
X011212Y017321D01*
X011212Y017319D02*
X012042Y017319D01*
X012042Y017316D02*
X011212Y017316D01*
X011212Y017314D02*
X012042Y017314D01*
X012042Y017311D02*
X011212Y017311D01*
X011212Y017309D02*
X012042Y017309D01*
X012042Y017307D02*
X011212Y017307D01*
X011212Y017304D02*
X012042Y017304D01*
X012042Y017302D02*
X011212Y017302D01*
X011212Y017299D02*
X012042Y017299D01*
X012042Y017297D02*
X011212Y017297D01*
X011212Y017294D02*
X012042Y017294D01*
X012042Y017292D02*
X011212Y017292D01*
X011212Y017290D02*
X012042Y017290D01*
X012042Y017287D02*
X011212Y017287D01*
X011212Y017285D02*
X012042Y017285D01*
X012042Y017282D02*
X011212Y017282D01*
X011212Y017280D02*
X012042Y017280D01*
X012042Y017277D02*
X011212Y017277D01*
X011212Y017275D02*
X012042Y017275D01*
X012042Y017272D02*
X011212Y017272D01*
X011212Y017270D02*
X012042Y017270D01*
X012042Y017268D02*
X011212Y017268D01*
X011212Y017265D02*
X012042Y017265D01*
X012042Y017263D02*
X011212Y017263D01*
X011212Y017260D02*
X012042Y017260D01*
X012042Y017258D02*
X011212Y017258D01*
X011212Y017255D02*
X012042Y017255D01*
X012042Y017253D02*
X011212Y017253D01*
X011212Y017251D02*
X012042Y017251D01*
X012042Y017248D02*
X011212Y017248D01*
X011212Y017246D02*
X012042Y017246D01*
X012042Y017243D02*
X011212Y017243D01*
X011212Y017241D02*
X012042Y017241D01*
X012042Y017238D02*
X011212Y017238D01*
X011212Y017236D02*
X012042Y017236D01*
X012042Y017233D02*
X011212Y017233D01*
X011212Y017231D02*
X012042Y017231D01*
X012042Y017229D02*
X011212Y017229D01*
X011212Y017226D02*
X012042Y017226D01*
X012042Y017224D02*
X011212Y017224D01*
X011212Y017221D02*
X012042Y017221D01*
X012042Y017219D02*
X011212Y017219D01*
X011212Y017216D02*
X012042Y017216D01*
X012042Y017214D02*
X011212Y017214D01*
X011212Y017212D02*
X012042Y017212D01*
X012042Y017209D02*
X011212Y017209D01*
X011212Y017207D02*
X012042Y017207D01*
X012042Y017204D02*
X011212Y017204D01*
X011212Y017202D02*
X012042Y017202D01*
X012042Y017199D02*
X011212Y017199D01*
X011212Y017197D02*
X012042Y017197D01*
X012042Y017194D02*
X011212Y017194D01*
X011212Y017192D02*
X012042Y017192D01*
X012042Y017190D02*
X011212Y017190D01*
X011212Y017187D02*
X012042Y017187D01*
X012042Y017185D02*
X011212Y017185D01*
X011212Y017182D02*
X012042Y017182D01*
X012042Y017180D02*
X011212Y017180D01*
X011212Y017177D02*
X012042Y017177D01*
X012042Y017175D02*
X011212Y017175D01*
X011212Y017173D02*
X012042Y017173D01*
X012042Y017170D02*
X011212Y017170D01*
X011212Y017168D02*
X012042Y017168D01*
X012042Y017165D02*
X011212Y017165D01*
X011212Y017163D02*
X012042Y017163D01*
X012042Y017160D02*
X011212Y017160D01*
X011212Y017158D02*
X012042Y017158D01*
X012042Y017155D02*
X011212Y017155D01*
X011212Y017153D02*
X012042Y017153D01*
X012042Y017151D02*
X011212Y017151D01*
X011212Y017148D02*
X012042Y017148D01*
X012042Y017146D02*
X011212Y017146D01*
X011212Y017143D02*
X012042Y017143D01*
X012042Y017141D02*
X011212Y017141D01*
X011212Y017138D02*
X012042Y017138D01*
X012042Y017136D02*
X011212Y017136D01*
X011212Y017134D02*
X012042Y017134D01*
X012042Y017131D02*
X011212Y017131D01*
X011212Y017129D02*
X012042Y017129D01*
X012042Y017126D02*
X011212Y017126D01*
X011212Y017124D02*
X012042Y017124D01*
X012042Y017121D02*
X011212Y017121D01*
X011212Y017119D02*
X012042Y017119D01*
X012042Y017116D02*
X011212Y017116D01*
X011212Y017114D02*
X012042Y017114D01*
X012042Y017112D02*
X011212Y017112D01*
X011212Y017109D02*
X012042Y017109D01*
X012042Y017107D02*
X011212Y017107D01*
X011212Y017104D02*
X012042Y017104D01*
X012042Y017102D02*
X011212Y017102D01*
X011212Y017099D02*
X012042Y017099D01*
X012042Y017097D02*
X011212Y017097D01*
X011212Y017095D02*
X012042Y017095D01*
X012042Y017092D02*
X011212Y017092D01*
X011212Y017090D02*
X012042Y017090D01*
X012042Y017087D02*
X011212Y017087D01*
X011212Y017085D02*
X012042Y017085D01*
X012042Y017082D02*
X011212Y017082D01*
X011212Y017080D02*
X012042Y017080D01*
X012042Y017077D02*
X011212Y017077D01*
X011212Y017075D02*
X012042Y017075D01*
X012042Y017073D02*
X011212Y017073D01*
X011212Y017070D02*
X012042Y017070D01*
X012042Y017068D02*
X011212Y017068D01*
X011212Y017065D02*
X012042Y017065D01*
X012042Y017063D02*
X011212Y017063D01*
X011212Y017060D02*
X012042Y017060D01*
X012042Y017058D02*
X011212Y017058D01*
X011212Y017056D02*
X012042Y017056D01*
X012042Y017053D02*
X011212Y017053D01*
X011212Y017051D02*
X012042Y017051D01*
X012042Y017048D02*
X011212Y017048D01*
X011212Y017046D02*
X012042Y017046D01*
X012042Y017043D02*
X011212Y017043D01*
X011212Y017041D02*
X012042Y017041D01*
X012042Y017038D02*
X011212Y017038D01*
X011212Y017036D02*
X012042Y017036D01*
X012042Y017034D02*
X011212Y017034D01*
X011212Y017031D02*
X012042Y017031D01*
X012042Y017029D02*
X011212Y017029D01*
X011212Y017026D02*
X012042Y017026D01*
X012042Y017024D02*
X011212Y017024D01*
X011212Y017021D02*
X012042Y017021D01*
X012042Y017019D02*
X011212Y017019D01*
X011212Y017017D02*
X012042Y017017D01*
X012042Y017014D02*
X011212Y017014D01*
X011212Y017012D02*
X012042Y017012D01*
X012042Y017009D02*
X011212Y017009D01*
X011212Y017007D02*
X012042Y017007D01*
X012042Y017004D02*
X011212Y017004D01*
X011212Y017002D02*
X012042Y017002D01*
X012042Y016999D02*
X011212Y016999D01*
X011212Y016997D02*
X012042Y016997D01*
X012042Y016995D02*
X011212Y016995D01*
X011212Y016992D02*
X012042Y016992D01*
X012042Y016990D02*
X011212Y016990D01*
X011212Y016987D02*
X012042Y016987D01*
X012042Y016985D02*
X011212Y016985D01*
X011212Y016982D02*
X012042Y016982D01*
X012042Y016980D02*
X011212Y016980D01*
X011212Y016978D02*
X012042Y016978D01*
X012042Y016975D02*
X011212Y016975D01*
X011212Y016973D02*
X012042Y016973D01*
X012042Y016970D02*
X011212Y016970D01*
X011212Y016968D02*
X012042Y016968D01*
X012042Y016965D02*
X011212Y016965D01*
X011212Y016963D02*
X012042Y016963D01*
X012042Y016960D02*
X011212Y016960D01*
X011212Y016958D02*
X012042Y016958D01*
X012042Y016956D02*
X011212Y016956D01*
X011212Y016953D02*
X012042Y016953D01*
X012042Y016951D02*
X011212Y016951D01*
X011212Y016948D02*
X012042Y016948D01*
X012042Y016946D02*
X011212Y016946D01*
X011212Y016943D02*
X012042Y016943D01*
X012042Y016941D02*
X011212Y016941D01*
X011212Y016939D02*
X012042Y016939D01*
X012042Y016936D02*
X011212Y016936D01*
X011212Y016934D02*
X012042Y016934D01*
X012042Y016931D02*
X011212Y016931D01*
X011212Y016929D02*
X012042Y016929D01*
X012042Y016926D02*
X011212Y016926D01*
X011212Y016924D02*
X012042Y016924D01*
X012042Y016921D02*
X011212Y016921D01*
X011212Y016919D02*
X012042Y016919D01*
X012042Y016917D02*
X011212Y016917D01*
X011212Y016914D02*
X012042Y016914D01*
X012042Y016912D02*
X011212Y016912D01*
X011212Y016909D02*
X012042Y016909D01*
X012042Y016907D02*
X011212Y016907D01*
X011212Y016904D02*
X012042Y016904D01*
X012042Y016902D02*
X011212Y016902D01*
X011212Y016900D02*
X012042Y016900D01*
X012042Y016897D02*
X011212Y016897D01*
X011212Y016895D02*
X012042Y016895D01*
X012042Y016892D02*
X011212Y016892D01*
X011212Y016890D02*
X012042Y016890D01*
X012042Y016887D02*
X011212Y016887D01*
X011212Y016885D02*
X012042Y016885D01*
X012042Y016882D02*
X011212Y016882D01*
X011212Y016880D02*
X012042Y016880D01*
X012042Y016878D02*
X011212Y016878D01*
X011212Y016875D02*
X012042Y016875D01*
X012042Y016873D02*
X011212Y016873D01*
X011212Y016870D02*
X012042Y016870D01*
X012042Y016868D02*
X011212Y016868D01*
X011212Y016865D02*
X012042Y016865D01*
X012042Y016863D02*
X011212Y016863D01*
X011212Y016861D02*
X012042Y016861D01*
X012042Y016858D02*
X011212Y016858D01*
X011212Y016856D02*
X012042Y016856D01*
X012042Y016853D02*
X011212Y016853D01*
X011212Y016851D02*
X012042Y016851D01*
X012042Y016848D02*
X011212Y016848D01*
X011212Y016846D02*
X012042Y016846D01*
X012042Y016843D02*
X011212Y016843D01*
X011212Y016841D02*
X012042Y016841D01*
X012042Y016839D02*
X011212Y016839D01*
X011212Y016836D02*
X012042Y016836D01*
X012042Y016834D02*
X011212Y016834D01*
X011212Y016831D02*
X012042Y016831D01*
X012042Y016829D02*
X011212Y016829D01*
X011212Y016826D02*
X012042Y016826D01*
X012042Y016824D02*
X011212Y016824D01*
X011212Y016822D02*
X012042Y016822D01*
X012042Y016819D02*
X011212Y016819D01*
X011212Y016817D02*
X012042Y016817D01*
X012042Y016814D02*
X011212Y016814D01*
X011212Y016812D02*
X012042Y016812D01*
X012042Y016809D02*
X011212Y016809D01*
X011212Y016807D02*
X012042Y016807D01*
X012042Y016804D02*
X011212Y016804D01*
X011212Y016802D02*
X012042Y016802D01*
X012042Y016800D02*
X011212Y016800D01*
X011212Y016797D02*
X012042Y016797D01*
X012042Y016795D02*
X011212Y016795D01*
X011212Y016792D02*
X012042Y016792D01*
X012042Y016790D02*
X011212Y016790D01*
X011212Y016787D02*
X012042Y016787D01*
X012042Y016785D02*
X011212Y016785D01*
X011212Y016783D02*
X012042Y016783D01*
X012042Y016780D02*
X011212Y016780D01*
X011212Y016778D02*
X012042Y016778D01*
X012042Y016775D02*
X011212Y016775D01*
X011212Y016773D02*
X012042Y016773D01*
X012042Y016770D02*
X011212Y016770D01*
X011212Y016768D02*
X012042Y016768D01*
X012042Y016765D02*
X011212Y016765D01*
X011212Y016763D02*
X012042Y016763D01*
X012042Y016761D02*
X011212Y016761D01*
X011212Y016758D02*
X012042Y016758D01*
X012042Y016756D02*
X011212Y016756D01*
X011212Y016753D02*
X012042Y016753D01*
X012042Y016751D02*
X011212Y016751D01*
X011212Y016748D02*
X012042Y016748D01*
X012042Y016746D02*
X011212Y016746D01*
X011212Y016744D02*
X012042Y016744D01*
X012042Y016741D02*
X011212Y016741D01*
X011212Y016739D02*
X012042Y016739D01*
X012042Y016736D02*
X011212Y016736D01*
X011212Y016734D02*
X012042Y016734D01*
X012042Y016731D02*
X011212Y016731D01*
X011212Y016729D02*
X012042Y016729D01*
X012042Y016726D02*
X011212Y016726D01*
X011212Y016724D02*
X012042Y016724D01*
X012042Y016722D02*
X011212Y016722D01*
X011212Y016719D02*
X012042Y016719D01*
X012042Y016717D02*
X011212Y016717D01*
X011212Y016714D02*
X012042Y016714D01*
X012042Y016712D02*
X011212Y016712D01*
X011212Y016709D02*
X012042Y016709D01*
X012042Y016707D02*
X011212Y016707D01*
X011212Y016705D02*
X012042Y016705D01*
X012042Y016702D02*
X011212Y016702D01*
X011212Y016700D02*
X012042Y016700D01*
X012042Y016697D02*
X011212Y016697D01*
X011212Y016695D02*
X012042Y016695D01*
X012042Y016692D02*
X011212Y016692D01*
X011212Y016690D02*
X012042Y016690D01*
X012042Y016688D02*
X011212Y016688D01*
X011212Y016685D02*
X012042Y016685D01*
X012042Y016683D02*
X011212Y016683D01*
X011212Y016680D02*
X012042Y016680D01*
X012042Y016678D02*
X011212Y016678D01*
X011212Y016675D02*
X012042Y016675D01*
X012042Y016673D02*
X011212Y016673D01*
X011212Y016670D02*
X012042Y016670D01*
X012042Y016668D02*
X011212Y016668D01*
X011212Y016666D02*
X012042Y016666D01*
X012042Y016663D02*
X011212Y016663D01*
X011212Y016661D02*
X012042Y016661D01*
X012042Y016658D02*
X011212Y016658D01*
X011212Y016656D02*
X012042Y016656D01*
X012042Y016653D02*
X011212Y016653D01*
X011212Y016651D02*
X012042Y016651D01*
X012042Y016649D02*
X011212Y016649D01*
X011212Y016646D02*
X012042Y016646D01*
X012042Y016644D02*
X011212Y016644D01*
X011212Y016641D02*
X012042Y016641D01*
X012042Y016639D02*
X011212Y016639D01*
X011212Y016636D02*
X012042Y016636D01*
X012042Y016634D02*
X011212Y016634D01*
X011212Y016631D02*
X012042Y016631D01*
X012042Y016629D02*
X011212Y016629D01*
X011212Y016627D02*
X012042Y016627D01*
X012042Y016624D02*
X011212Y016624D01*
X011212Y016622D02*
X012042Y016622D01*
X012042Y016619D02*
X011212Y016619D01*
X011212Y016617D02*
X012042Y016617D01*
X012042Y016614D02*
X011212Y016614D01*
X011212Y016612D02*
X012042Y016612D01*
X012042Y016610D02*
X011212Y016610D01*
X011212Y016607D02*
X012042Y016607D01*
X012042Y016605D02*
X011212Y016605D01*
X011212Y016602D02*
X012042Y016602D01*
X012042Y016600D02*
X011212Y016600D01*
X011212Y016597D02*
X012042Y016597D01*
X012042Y016595D02*
X011212Y016595D01*
X011212Y016592D02*
X012042Y016592D01*
X012042Y016590D02*
X011212Y016590D01*
X011212Y016588D02*
X012042Y016588D01*
X012042Y016585D02*
X011212Y016585D01*
X011212Y016583D02*
X012042Y016583D01*
X012042Y016580D02*
X011212Y016580D01*
X011212Y016578D02*
X012042Y016578D01*
X012042Y016575D02*
X011212Y016575D01*
X011212Y016573D02*
X012042Y016573D01*
X012042Y016571D02*
X011212Y016571D01*
X011212Y016568D02*
X012042Y016568D01*
X012042Y016566D02*
X011212Y016566D01*
X011212Y016563D02*
X012042Y016563D01*
X012042Y016561D02*
X011212Y016561D01*
X011212Y016558D02*
X012042Y016558D01*
X012042Y016556D02*
X011212Y016556D01*
X011212Y016553D02*
X012042Y016553D01*
X012042Y016551D02*
X011212Y016551D01*
X011212Y016549D02*
X012042Y016549D01*
X012042Y016546D02*
X011212Y016546D01*
X011212Y016544D02*
X012042Y016544D01*
X012042Y016541D02*
X011212Y016541D01*
X011212Y016539D02*
X012042Y016539D01*
X012042Y016536D02*
X011212Y016536D01*
X011212Y016534D02*
X012042Y016534D01*
X012042Y016532D02*
X011212Y016532D01*
X011212Y016529D02*
X012042Y016529D01*
X012042Y016527D02*
X011212Y016527D01*
X011212Y016524D02*
X012042Y016524D01*
X012042Y016522D02*
X011212Y016522D01*
X011212Y016519D02*
X012042Y016519D01*
X012042Y016517D02*
X011212Y016517D01*
X011212Y016514D02*
X012042Y016514D01*
X012042Y016512D02*
X011212Y016512D01*
X011212Y016510D02*
X012042Y016510D01*
X012042Y016507D02*
X011212Y016507D01*
X011212Y016505D02*
X012042Y016505D01*
X012042Y016502D02*
X011212Y016502D01*
X011212Y016500D02*
X012042Y016500D01*
X012042Y016497D02*
X011212Y016497D01*
X011212Y016495D02*
X012042Y016495D01*
X012042Y016493D02*
X011212Y016493D01*
X011212Y016490D02*
X012042Y016490D01*
X012042Y016488D02*
X011212Y016488D01*
X011212Y016485D02*
X012042Y016485D01*
X012042Y016483D02*
X011212Y016483D01*
X011212Y016480D02*
X012042Y016480D01*
X012042Y016478D02*
X011212Y016478D01*
X011212Y016475D02*
X012042Y016475D01*
X012042Y016473D02*
X011212Y016473D01*
X011212Y016471D02*
X012042Y016471D01*
X012042Y016468D02*
X011212Y016468D01*
X011212Y016466D02*
X012042Y016466D01*
X012042Y016463D02*
X011212Y016463D01*
X011213Y016461D02*
X012041Y016461D01*
X012041Y016458D02*
X011213Y016458D01*
X011213Y016456D02*
X012041Y016456D01*
X012041Y016454D02*
X011213Y016454D01*
X011213Y016451D02*
X012040Y016451D01*
X012040Y016449D02*
X011214Y016449D01*
X011214Y016446D02*
X012040Y016446D01*
X012040Y016444D02*
X011214Y016444D01*
X011214Y016441D02*
X012040Y016441D01*
X012039Y016439D02*
X011214Y016439D01*
X011215Y016436D02*
X012039Y016436D01*
X012039Y016434D02*
X011215Y016434D01*
X011215Y016432D02*
X012039Y016432D01*
X012038Y016429D02*
X011215Y016429D01*
X011216Y016427D02*
X012038Y016427D01*
X012038Y016424D02*
X011216Y016424D01*
X011216Y016422D02*
X012038Y016422D01*
X012037Y016419D02*
X011216Y016419D01*
X011216Y016417D02*
X012037Y016417D01*
X012037Y016415D02*
X011217Y016415D01*
X011217Y016412D02*
X012037Y016412D01*
X012036Y016410D02*
X011217Y016410D01*
X011217Y016407D02*
X012036Y016407D01*
X012036Y016405D02*
X011217Y016405D01*
X011218Y016402D02*
X012036Y016402D01*
X012035Y016400D02*
X011218Y016400D01*
X011218Y016397D02*
X012035Y016397D01*
X012035Y016395D02*
X011218Y016395D01*
X011219Y016393D02*
X012035Y016393D01*
X012034Y016390D02*
X011219Y016390D01*
X011220Y016388D02*
X012034Y016388D01*
X012034Y016385D02*
X011221Y016385D01*
X011221Y016383D02*
X012033Y016383D01*
X012033Y016380D02*
X011222Y016380D01*
X011223Y016378D02*
X012032Y016378D01*
X012031Y016376D02*
X011223Y016376D01*
X011224Y016373D02*
X012030Y016373D01*
X012030Y016371D02*
X011225Y016371D01*
X011225Y016368D02*
X012029Y016368D01*
X012028Y016366D02*
X011226Y016366D01*
X011227Y016363D02*
X012028Y016363D01*
X012027Y016361D02*
X011227Y016361D01*
X011228Y016358D02*
X012026Y016358D01*
X012025Y016356D02*
X011228Y016356D01*
X011229Y016354D02*
X012025Y016354D01*
X012024Y016351D02*
X011230Y016351D01*
X011230Y016349D02*
X012023Y016349D01*
X012022Y016346D02*
X011231Y016346D01*
X011232Y016344D02*
X012022Y016344D01*
X012021Y016341D02*
X011232Y016341D01*
X011233Y016339D02*
X012020Y016339D01*
X012019Y016337D02*
X011234Y016337D01*
X011234Y016334D02*
X012019Y016334D01*
X012018Y016332D02*
X011235Y016332D01*
X011236Y016329D02*
X012017Y016329D01*
X012016Y016327D02*
X011236Y016327D01*
X011239Y016319D02*
X012014Y016319D01*
X012013Y016317D02*
X011240Y016317D01*
X011241Y016315D02*
X012013Y016315D01*
X012012Y016312D02*
X011242Y016312D01*
X011244Y016310D02*
X012011Y016310D01*
X012010Y016307D02*
X011245Y016307D01*
X011246Y016305D02*
X012009Y016305D01*
X012008Y016302D02*
X011247Y016302D01*
X011248Y016300D02*
X012007Y016300D01*
X012005Y016298D02*
X011249Y016298D01*
X011250Y016295D02*
X012004Y016295D01*
X012003Y016293D02*
X011252Y016293D01*
X011253Y016290D02*
X012002Y016290D01*
X012000Y016288D02*
X011254Y016288D01*
X011255Y016285D02*
X011999Y016285D01*
X011998Y016283D02*
X011256Y016283D01*
X011257Y016280D02*
X011996Y016280D01*
X011995Y016278D02*
X011258Y016278D01*
X011260Y016276D02*
X011994Y016276D01*
X011992Y016273D02*
X011261Y016273D01*
X011262Y016271D02*
X011991Y016271D01*
X011990Y016268D02*
X011263Y016268D01*
X011264Y016266D02*
X011989Y016266D01*
X011987Y016263D02*
X011265Y016263D01*
X011266Y016261D02*
X011986Y016261D01*
X011985Y016259D02*
X011267Y016259D01*
X011269Y016256D02*
X011983Y016256D01*
X011982Y016254D02*
X011271Y016254D01*
X011272Y016251D02*
X011981Y016251D01*
X011979Y016249D02*
X011274Y016249D01*
X011276Y016246D02*
X011978Y016246D01*
X011977Y016244D02*
X011278Y016244D01*
X011279Y016241D02*
X011975Y016241D01*
X011974Y016239D02*
X011281Y016239D01*
X011283Y016237D02*
X011973Y016237D01*
X011971Y016234D02*
X011284Y016234D01*
X011286Y016232D02*
X011969Y016232D01*
X011967Y016229D02*
X011288Y016229D01*
X011290Y016227D02*
X011965Y016227D01*
X011963Y016224D02*
X011291Y016224D01*
X011293Y016222D02*
X011961Y016222D01*
X011959Y016220D02*
X011295Y016220D01*
X011296Y016217D02*
X011957Y016217D01*
X011955Y016215D02*
X011298Y016215D01*
X011300Y016212D02*
X011953Y016212D01*
X011951Y016210D02*
X011301Y016210D01*
X011303Y016207D02*
X011949Y016207D01*
X011947Y016205D02*
X011305Y016205D01*
X011307Y016202D02*
X011945Y016202D01*
X011943Y016200D02*
X011308Y016200D01*
X011310Y016198D02*
X011941Y016198D01*
X011939Y016195D02*
X011313Y016195D01*
X011315Y016193D02*
X011937Y016193D01*
X011935Y016190D02*
X011318Y016190D01*
X011320Y016188D02*
X011933Y016188D01*
X011931Y016185D02*
X011323Y016185D01*
X011325Y016183D02*
X011929Y016183D01*
X011927Y016181D02*
X011327Y016181D01*
X011330Y016178D02*
X011925Y016178D01*
X011923Y016176D02*
X011332Y016176D01*
X011335Y016173D02*
X011921Y016173D01*
X011919Y016171D02*
X011337Y016171D01*
X011340Y016168D02*
X011916Y016168D01*
X011913Y016166D02*
X011342Y016166D01*
X011344Y016163D02*
X011910Y016163D01*
X011907Y016161D02*
X011347Y016161D01*
X011349Y016159D02*
X011904Y016159D01*
X011901Y016156D02*
X011352Y016156D01*
X011354Y016154D02*
X011898Y016154D01*
X011895Y016151D02*
X011357Y016151D01*
X011359Y016149D02*
X011892Y016149D01*
X011889Y016146D02*
X011362Y016146D01*
X011366Y016144D02*
X011886Y016144D01*
X011883Y016142D02*
X011369Y016142D01*
X011372Y016139D02*
X011880Y016139D01*
X011877Y016137D02*
X011376Y016137D01*
X011379Y016134D02*
X011874Y016134D01*
X011871Y016132D02*
X011383Y016132D01*
X011386Y016129D02*
X011868Y016129D01*
X011865Y016127D02*
X011390Y016127D01*
X011393Y016124D02*
X011862Y016124D01*
X011859Y016122D02*
X011397Y016122D01*
X011400Y016120D02*
X011856Y016120D01*
X011851Y016117D02*
X011404Y016117D01*
X011407Y016115D02*
X011847Y016115D01*
X011842Y016112D02*
X011411Y016112D01*
X011414Y016110D02*
X011838Y016110D01*
D16*
X017621Y007032D03*
X017621Y006638D03*
X017621Y006244D03*
X017621Y005851D03*
X017621Y005457D03*
X019642Y005457D03*
X019642Y005851D03*
X019642Y006244D03*
X019642Y006638D03*
X019642Y007032D03*
D17*
X018631Y006244D03*
D18*
X016555Y006432D03*
X016555Y006832D03*
X016108Y006832D03*
X016108Y006432D03*
X016108Y006032D03*
X016108Y005632D03*
X016555Y005632D03*
X016555Y006032D03*
D19*
X015495Y017252D03*
X012925Y017262D03*
D20*
X011626Y017010D03*
X016757Y017010D03*
D21*
X018691Y013670D03*
X018691Y012670D03*
X018691Y011670D03*
X014571Y012100D03*
X014571Y013100D03*
D22*
X016461Y012699D03*
X016461Y011912D03*
D23*
X016421Y011883D02*
X014993Y011883D01*
X014977Y011852D02*
X015011Y011918D01*
X015034Y011989D01*
X015046Y012060D01*
X014612Y012060D01*
X014612Y012140D01*
X015046Y012140D01*
X015034Y012212D01*
X015011Y012283D01*
X014977Y012349D01*
X014934Y012410D01*
X014881Y012463D01*
X014820Y012506D01*
X014754Y012540D01*
X014743Y012544D01*
X014900Y012609D01*
X015082Y012790D01*
X015981Y012790D01*
X015981Y012604D01*
X016055Y012427D01*
X016190Y012292D01*
X016247Y012269D01*
X016244Y012267D01*
X016191Y012229D01*
X016145Y012183D01*
X016106Y012130D01*
X016076Y012071D01*
X016056Y012009D01*
X016047Y011952D01*
X016421Y011952D01*
X016421Y011872D01*
X016047Y011872D01*
X016056Y011814D01*
X016076Y011752D01*
X016106Y011694D01*
X016145Y011641D01*
X016191Y011595D01*
X016244Y011556D01*
X016302Y011527D01*
X016364Y011506D01*
X016421Y011497D01*
X016421Y011872D01*
X016501Y011872D01*
X016501Y011497D01*
X016559Y011506D01*
X016621Y011527D01*
X016679Y011556D01*
X016732Y011595D01*
X016778Y011641D01*
X016817Y011694D01*
X016847Y011752D01*
X016867Y011814D01*
X016876Y011872D01*
X016502Y011872D01*
X016502Y011952D01*
X016876Y011952D01*
X016867Y012009D01*
X016847Y012071D01*
X016817Y012130D01*
X016778Y012183D01*
X016732Y012229D01*
X016679Y012267D01*
X016676Y012269D01*
X016733Y012292D01*
X016868Y012427D01*
X016941Y012604D01*
X016941Y012790D01*
X017191Y012790D01*
X017803Y012179D01*
X018016Y012090D01*
X018470Y012090D01*
X018443Y012076D01*
X018382Y012033D01*
X018329Y011980D01*
X018286Y011919D01*
X018252Y011853D01*
X018229Y011782D01*
X018217Y011710D01*
X018651Y011710D01*
X018651Y011630D01*
X018731Y011630D01*
X018731Y011196D01*
X018803Y011208D01*
X018874Y011231D01*
X018940Y011265D01*
X019001Y011308D01*
X019054Y011361D01*
X019097Y011422D01*
X019131Y011488D01*
X019154Y011559D01*
X019166Y011630D01*
X018732Y011630D01*
X018732Y011710D01*
X019166Y011710D01*
X019154Y011782D01*
X019131Y011853D01*
X019097Y011919D01*
X019054Y011980D01*
X019001Y012033D01*
X018940Y012076D01*
X018874Y012110D01*
X018863Y012114D01*
X019020Y012179D01*
X019183Y012342D01*
X019271Y012555D01*
X019271Y012786D01*
X019183Y012999D01*
X019020Y013162D01*
X018915Y013206D01*
X018983Y013234D01*
X019128Y013379D01*
X019206Y013568D01*
X019206Y013773D01*
X019128Y013962D01*
X018983Y014107D01*
X018794Y014185D01*
X018589Y014185D01*
X018400Y014107D01*
X018255Y013962D01*
X018177Y013773D01*
X018177Y013568D01*
X018255Y013379D01*
X018384Y013250D01*
X018372Y013250D01*
X017760Y013862D01*
X017547Y013950D01*
X015624Y013950D01*
X015532Y014021D01*
X015448Y014130D01*
X015421Y014184D01*
X015421Y016357D01*
X016170Y016357D01*
X016169Y016362D02*
X016173Y016320D01*
X016171Y016315D01*
X016174Y016309D01*
X016174Y016302D01*
X016178Y016299D01*
X016196Y016261D01*
X016207Y016221D01*
X016206Y016215D01*
X016210Y016210D01*
X016211Y016204D01*
X016216Y016201D01*
X016240Y016167D01*
X016258Y016129D01*
X016258Y016123D01*
X016262Y016119D01*
X016265Y016113D01*
X016270Y016111D01*
X016300Y016081D01*
X016324Y016047D01*
X016325Y016042D01*
X016330Y016038D01*
X016334Y016033D01*
X016339Y016032D01*
X016373Y016008D01*
X016403Y015978D01*
X016405Y015973D01*
X016411Y015970D01*
X016416Y015966D01*
X016421Y015966D01*
X016459Y015948D01*
X016493Y015924D01*
X016496Y015919D01*
X016502Y015918D01*
X016507Y015914D01*
X016513Y015915D01*
X016553Y015904D01*
X016591Y015886D01*
X016595Y015882D01*
X016601Y015882D01*
X016607Y015879D01*
X016612Y015881D01*
X016654Y015877D01*
X016696Y015866D01*
X016700Y015862D01*
X016707Y015863D01*
X016711Y015862D01*
X016714Y015863D01*
X016759Y015868D01*
X016817Y015863D01*
X016818Y015863D01*
X016819Y015863D01*
X016874Y015879D01*
X016931Y015885D01*
X016933Y015887D01*
X016936Y015886D01*
X016986Y015913D01*
X017041Y015930D01*
X017043Y015932D01*
X017045Y015932D01*
X017090Y015968D01*
X017140Y015996D01*
X017141Y015998D01*
X017144Y015998D01*
X017180Y016043D01*
X017225Y016079D01*
X017225Y016082D01*
X017227Y016083D01*
X017255Y016133D01*
X017291Y016178D01*
X017291Y016180D01*
X017293Y016182D01*
X017310Y016237D01*
X017337Y016287D01*
X017336Y016290D01*
X017338Y016292D01*
X017344Y016349D01*
X017360Y016404D01*
X017354Y016415D01*
X017354Y016456D01*
X017361Y016523D01*
X017354Y016531D01*
X017354Y017485D01*
X017360Y017492D01*
X017354Y017560D01*
X017354Y017586D01*
X017361Y017598D01*
X017354Y017624D01*
X017354Y017627D01*
X017353Y017628D01*
X017346Y017655D01*
X017342Y017697D01*
X017344Y017702D01*
X017341Y017708D01*
X017341Y017715D01*
X017337Y017718D01*
X017319Y017756D01*
X017308Y017796D01*
X017309Y017802D01*
X017305Y017807D01*
X017304Y017813D01*
X017299Y017816D01*
X017275Y017850D01*
X017257Y017888D01*
X017257Y017894D01*
X017253Y017898D01*
X017250Y017904D01*
X017245Y017906D01*
X017215Y017936D01*
X017191Y017970D01*
X017190Y017975D01*
X017185Y017979D01*
X017181Y017984D01*
X017176Y017985D01*
X017142Y018009D01*
X017112Y018039D01*
X017110Y018044D01*
X017104Y018047D01*
X017100Y018051D01*
X017094Y018051D01*
X017056Y018069D01*
X017022Y018093D01*
X017019Y018098D01*
X017013Y018099D01*
X017008Y018103D01*
X017002Y018102D01*
X016962Y018113D01*
X016924Y018131D01*
X016921Y018135D01*
X016914Y018135D01*
X016908Y018138D01*
X016903Y018136D01*
X016861Y018140D01*
X016821Y018151D01*
X016817Y018154D01*
X016810Y018154D01*
X016804Y018155D01*
X016799Y018153D01*
X016758Y018149D01*
X016716Y018153D01*
X016711Y018155D01*
X016705Y018154D01*
X016698Y018154D01*
X016694Y018151D01*
X016654Y018140D01*
X016612Y018136D01*
X016607Y018138D01*
X016601Y018135D01*
X016595Y018135D01*
X016591Y018131D01*
X016553Y018113D01*
X016513Y018102D01*
X016507Y018103D01*
X016502Y018099D01*
X016496Y018098D01*
X016493Y018093D01*
X016459Y018069D01*
X016421Y018051D01*
X016416Y018051D01*
X016411Y018047D01*
X016405Y018044D01*
X016403Y018039D01*
X016373Y018009D01*
X016339Y017985D01*
X016334Y017984D01*
X016330Y017979D01*
X016325Y017975D01*
X016324Y017970D01*
X016300Y017936D01*
X016270Y017906D01*
X016265Y017904D01*
X016262Y017898D01*
X016258Y017894D01*
X016258Y017888D01*
X016240Y017850D01*
X016216Y017816D01*
X016211Y017813D01*
X016210Y017807D01*
X016206Y017802D01*
X016207Y017796D01*
X016196Y017756D01*
X016178Y017718D01*
X016174Y017715D01*
X016174Y017708D01*
X016171Y017702D01*
X016173Y017697D01*
X016169Y017655D01*
X016162Y017628D01*
X016161Y017627D01*
X016161Y017624D01*
X016154Y017598D01*
X016161Y017586D01*
X016161Y017560D01*
X016155Y017492D01*
X016161Y017485D01*
X016161Y016532D01*
X016155Y016525D01*
X016161Y016457D01*
X016161Y016431D01*
X016154Y016419D01*
X016161Y016393D01*
X016161Y016390D01*
X016162Y016389D01*
X016169Y016362D01*
X016161Y016436D02*
X015500Y016436D01*
X015578Y016514D02*
X016156Y016514D01*
X016161Y016593D02*
X015657Y016593D01*
X015735Y016671D02*
X016161Y016671D01*
X016161Y016750D02*
X015849Y016750D01*
X015838Y016739D02*
X016008Y016909D01*
X016100Y017131D01*
X016100Y017372D01*
X016008Y017594D01*
X015838Y017764D01*
X015616Y017857D01*
X015375Y017857D01*
X015153Y017764D01*
X014983Y017594D01*
X014958Y017534D01*
X014350Y016926D01*
X014261Y016713D01*
X014261Y013611D01*
X014080Y013429D01*
X014061Y013385D01*
X014061Y016836D01*
X013973Y017049D01*
X013453Y017569D01*
X013438Y017604D01*
X013268Y017774D01*
X013046Y017867D01*
X012805Y017867D01*
X012583Y017774D01*
X012413Y017604D01*
X012320Y017382D01*
X012320Y017141D01*
X012413Y016919D01*
X012583Y016749D01*
X012669Y016713D01*
X012901Y016480D01*
X012901Y014330D01*
X012813Y014461D01*
X012469Y014729D01*
X012059Y014878D01*
X012059Y014878D01*
X011888Y014884D01*
X011884Y014885D01*
X011836Y014885D01*
X011788Y014887D01*
X011783Y014885D01*
X011031Y014885D01*
X010893Y014896D01*
X010630Y014982D01*
X010406Y015145D01*
X010243Y015369D01*
X010157Y015632D01*
X010146Y015770D01*
X010146Y019545D01*
X010150Y019582D01*
X010178Y019648D01*
X010229Y019699D01*
X010295Y019727D01*
X010331Y019730D01*
X013241Y019730D01*
X013241Y019396D01*
X013366Y019180D01*
X013366Y019180D01*
X013366Y019180D01*
X013582Y019055D01*
X014081Y019055D01*
X014297Y019180D01*
X014421Y019396D01*
X014421Y019730D01*
X017556Y019730D01*
X017593Y019727D01*
X017659Y019699D01*
X017710Y019648D01*
X017738Y019582D01*
X017741Y019545D01*
X017741Y016296D01*
X017741Y016244D01*
X017741Y016243D01*
X017761Y016195D01*
X017781Y016146D01*
X017782Y016146D01*
X017782Y016145D01*
X017819Y016108D01*
X020891Y013011D01*
X020891Y001995D01*
X020888Y001959D01*
X020860Y001893D01*
X020809Y001842D01*
X020743Y001814D01*
X020706Y001810D01*
X020129Y001810D01*
X020129Y001812D01*
X020130Y001813D01*
X020138Y001821D01*
X020138Y001836D01*
X020148Y001864D01*
X020138Y001884D01*
X020138Y001886D01*
X020145Y001951D01*
X020138Y001960D01*
X020138Y002266D01*
X020145Y002275D01*
X020138Y002340D01*
X020138Y002342D01*
X020148Y002362D01*
X020138Y002390D01*
X020138Y002405D01*
X020130Y002413D01*
X020129Y002414D01*
X020127Y002434D01*
X020130Y002448D01*
X020125Y002458D01*
X020123Y002469D01*
X020112Y002478D01*
X020101Y002495D01*
X020095Y002513D01*
X020095Y002528D01*
X020087Y002536D01*
X020083Y002546D01*
X020070Y002553D01*
X020056Y002567D01*
X020046Y002583D01*
X020042Y002598D01*
X020033Y002604D01*
X020027Y002613D01*
X020012Y002616D01*
X019996Y002627D01*
X019982Y002641D01*
X019976Y002654D01*
X019965Y002658D01*
X019957Y002666D01*
X019942Y002666D01*
X019924Y002672D01*
X019907Y002682D01*
X019898Y002694D01*
X019887Y002695D01*
X019877Y002701D01*
X019863Y002698D01*
X019863Y002698D01*
X019844Y002700D01*
X019825Y002707D01*
X019813Y002716D01*
X019802Y002715D01*
X019792Y002718D01*
X019778Y002712D01*
X019759Y002710D01*
X019739Y002712D01*
X019726Y002718D01*
X019716Y002715D01*
X019704Y002716D01*
X019693Y002707D01*
X019674Y002700D01*
X019655Y002698D01*
X019655Y002698D01*
X019641Y002701D01*
X019631Y002695D01*
X019620Y002694D01*
X019611Y002682D01*
X019594Y002672D01*
X019576Y002666D01*
X019561Y002666D01*
X019553Y002658D01*
X019542Y002654D01*
X019536Y002641D01*
X019522Y002627D01*
X019505Y002616D01*
X019491Y002613D01*
X019485Y002604D01*
X019476Y002598D01*
X019472Y002583D01*
X019462Y002567D01*
X019448Y002553D01*
X019435Y002546D01*
X019431Y002536D01*
X019423Y002528D01*
X019423Y002513D01*
X019417Y002495D01*
X019406Y002478D01*
X019395Y002469D01*
X019393Y002458D01*
X019387Y002448D01*
X019391Y002434D01*
X019389Y002414D01*
X019388Y002413D01*
X019380Y002405D01*
X019380Y002390D01*
X019370Y002362D01*
X019380Y002342D01*
X019380Y002340D01*
X019373Y002275D01*
X019380Y002266D01*
X019380Y001960D01*
X019373Y001951D01*
X019380Y001886D01*
X019380Y001884D01*
X019370Y001864D01*
X019380Y001836D01*
X019380Y001821D01*
X019388Y001813D01*
X019389Y001812D01*
X019389Y001810D01*
X016499Y001810D01*
X016499Y001812D01*
X016500Y001813D01*
X016508Y001821D01*
X016508Y001836D01*
X016518Y001864D01*
X016508Y001884D01*
X016508Y001886D01*
X016515Y001951D01*
X016508Y001960D01*
X016508Y002266D01*
X016515Y002275D01*
X016508Y002340D01*
X016508Y002342D01*
X016518Y002362D01*
X016508Y002390D01*
X016508Y002405D01*
X016500Y002413D01*
X016499Y002414D01*
X016497Y002434D01*
X016501Y002448D01*
X016495Y002458D01*
X016494Y002465D01*
X018689Y002465D01*
X018846Y002464D01*
X018847Y002464D01*
X018905Y002464D01*
X018964Y002464D01*
X018965Y002464D01*
X018966Y002464D01*
X019020Y002486D01*
X019075Y002508D01*
X019075Y002509D01*
X019076Y002510D01*
X019118Y002551D01*
X019160Y002592D01*
X019160Y002593D01*
X019161Y002594D01*
X019183Y002648D01*
X019206Y002702D01*
X019206Y002703D01*
X019206Y002704D01*
X019206Y002733D01*
X019209Y002738D01*
X019209Y002857D01*
X019206Y002863D01*
X019206Y003266D01*
X019222Y003259D01*
X019383Y003259D01*
X019532Y003321D01*
X019552Y003341D01*
X019553Y003340D01*
X019561Y003332D01*
X019576Y003332D01*
X019594Y003326D01*
X019537Y003326D01*
X019594Y003326D02*
X019611Y003316D01*
X019620Y003304D01*
X019631Y003303D01*
X019641Y003297D01*
X019655Y003300D01*
X019674Y003298D01*
X019693Y003291D01*
X019704Y003282D01*
X019716Y003283D01*
X019726Y003280D01*
X019739Y003286D01*
X019759Y003288D01*
X019778Y003286D01*
X019792Y003280D01*
X019802Y003283D01*
X019813Y003282D01*
X019825Y003291D01*
X019844Y003298D01*
X019863Y003300D01*
X019877Y003297D01*
X019887Y003303D01*
X019898Y003304D01*
X019907Y003316D01*
X019924Y003326D01*
X020891Y003326D01*
X020891Y003404D02*
X020043Y003404D01*
X020042Y003400D02*
X020046Y003415D01*
X020056Y003431D01*
X020070Y003445D01*
X020083Y003452D01*
X020087Y003462D01*
X020095Y003470D01*
X020095Y003485D01*
X020101Y003503D01*
X020112Y003520D01*
X020123Y003529D01*
X020125Y003540D01*
X020130Y003550D01*
X020127Y003564D01*
X020129Y003584D01*
X020130Y003585D01*
X020138Y003593D01*
X020138Y003608D01*
X020148Y003636D01*
X020138Y003656D01*
X020138Y003658D01*
X020145Y003723D01*
X020138Y003732D01*
X020138Y004038D01*
X020145Y004047D01*
X020138Y004112D01*
X020138Y004114D01*
X020148Y004134D01*
X020138Y004162D01*
X020138Y004177D01*
X020130Y004185D01*
X020129Y004186D01*
X020127Y004205D01*
X020130Y004220D01*
X020125Y004229D01*
X020123Y004240D01*
X020112Y004250D01*
X020101Y004266D01*
X020095Y004285D01*
X020095Y004299D01*
X020087Y004307D01*
X020083Y004318D01*
X020070Y004324D01*
X020056Y004338D01*
X020046Y004355D01*
X020042Y004369D01*
X020033Y004375D01*
X020027Y004385D01*
X020012Y004388D01*
X019996Y004398D01*
X019982Y004412D01*
X019976Y004426D01*
X019965Y004429D01*
X019957Y004437D01*
X019942Y004437D01*
X019924Y004444D01*
X019907Y004454D01*
X019898Y004466D01*
X019887Y004467D01*
X019877Y004473D01*
X019863Y004470D01*
X019844Y004472D01*
X019825Y004478D01*
X019813Y004487D01*
X019802Y004486D01*
X019792Y004490D01*
X019778Y004484D01*
X019759Y004481D01*
X019739Y004484D01*
X019726Y004490D01*
X019716Y004486D01*
X019704Y004487D01*
X019693Y004478D01*
X019674Y004472D01*
X019655Y004470D01*
X019641Y004473D01*
X019631Y004467D01*
X019620Y004466D01*
X019611Y004454D01*
X019594Y004444D01*
X019576Y004437D01*
X019561Y004437D01*
X019553Y004429D01*
X019542Y004426D01*
X019536Y004412D01*
X019522Y004398D01*
X019505Y004388D01*
X019491Y004385D01*
X019485Y004375D01*
X019476Y004369D01*
X019472Y004355D01*
X019472Y004354D01*
X019462Y004389D01*
X019444Y004421D01*
X019418Y004447D01*
X019386Y004466D01*
X019350Y004475D01*
X019233Y004475D01*
X019233Y004129D01*
X019207Y004129D01*
X019207Y004410D01*
X019195Y004422D01*
X019195Y004475D01*
X019141Y004475D01*
X019101Y004515D01*
X018469Y004515D01*
X018469Y004558D01*
X018411Y004616D01*
X018277Y004750D01*
X018226Y004750D01*
X018226Y005475D01*
X018591Y005475D01*
X018591Y006204D01*
X018039Y006204D01*
X018039Y005938D01*
X018031Y005946D01*
X018008Y005969D01*
X018008Y006010D01*
X017970Y006048D01*
X018008Y006085D01*
X018008Y006404D01*
X017970Y006441D01*
X018008Y006479D01*
X018008Y006797D01*
X017970Y006835D01*
X018008Y006873D01*
X018008Y007191D01*
X017902Y007297D01*
X017881Y007297D01*
X017881Y007330D01*
X017836Y007440D01*
X017751Y007525D01*
X017641Y007570D01*
X017522Y007570D01*
X017412Y007525D01*
X017327Y007440D01*
X017281Y007330D01*
X017281Y007238D01*
X017234Y007191D01*
X017234Y006873D01*
X017272Y006835D01*
X017234Y006797D01*
X017234Y006479D01*
X017272Y006441D01*
X017234Y006404D01*
X017234Y006085D01*
X017272Y006048D01*
X017234Y006010D01*
X017234Y005692D01*
X017272Y005654D01*
X017234Y005616D01*
X017234Y005355D01*
X017162Y005325D01*
X017077Y005240D01*
X017031Y005130D01*
X017031Y005011D01*
X017077Y004901D01*
X017162Y004816D01*
X017222Y004791D01*
X017222Y004515D01*
X016787Y004515D01*
X016747Y004475D01*
X016693Y004475D01*
X016693Y004422D01*
X016681Y004410D01*
X016681Y004129D01*
X016655Y004129D01*
X016655Y004475D01*
X016538Y004475D01*
X016502Y004466D01*
X016470Y004447D01*
X016444Y004421D01*
X016426Y004389D01*
X016416Y004354D01*
X016416Y004355D01*
X016412Y004369D01*
X016403Y004375D01*
X016397Y004385D01*
X016383Y004388D01*
X016366Y004398D01*
X016352Y004412D01*
X016346Y004426D01*
X016335Y004429D01*
X016327Y004437D01*
X016312Y004437D01*
X016294Y004444D01*
X016277Y004454D01*
X016268Y004466D01*
X016257Y004467D01*
X016247Y004473D01*
X016233Y004470D01*
X016214Y004472D01*
X016195Y004478D01*
X016184Y004487D01*
X016172Y004486D01*
X016162Y004490D01*
X016149Y004484D01*
X016129Y004481D01*
X016110Y004484D01*
X016096Y004490D01*
X016086Y004486D01*
X016075Y004487D01*
X016063Y004478D01*
X016044Y004472D01*
X016025Y004470D01*
X016011Y004473D01*
X016001Y004467D01*
X015990Y004466D01*
X015981Y004454D01*
X015964Y004444D01*
X015946Y004437D01*
X015931Y004437D01*
X015923Y004429D01*
X015912Y004426D01*
X015906Y004412D01*
X015892Y004398D01*
X015876Y004388D01*
X015861Y004385D01*
X015861Y005502D01*
X015868Y005479D01*
X015886Y005447D01*
X015912Y005421D01*
X015944Y005403D01*
X015980Y005393D01*
X016099Y005393D01*
X016099Y005623D01*
X016117Y005623D01*
X016117Y005393D01*
X016237Y005393D01*
X016272Y005403D01*
X016303Y005421D01*
X016370Y005353D01*
X016670Y005353D01*
X016722Y005332D01*
X016841Y005332D01*
X016951Y005378D01*
X017036Y005462D01*
X017081Y005572D01*
X017081Y005692D01*
X017036Y005802D01*
X017006Y005832D01*
X017036Y005862D01*
X017081Y005972D01*
X017081Y006092D01*
X017036Y006202D01*
X016951Y006286D01*
X016845Y006330D01*
X016845Y006605D01*
X016818Y006632D01*
X016845Y006659D01*
X016845Y007005D01*
X016821Y007029D01*
X016855Y007111D01*
X016855Y007230D01*
X016809Y007340D01*
X016725Y007425D01*
X016615Y007470D01*
X016495Y007470D01*
X016385Y007425D01*
X016301Y007340D01*
X016255Y007230D01*
X016255Y007111D01*
X016277Y007058D01*
X016272Y007061D01*
X016237Y007070D01*
X016117Y007070D01*
X016117Y006841D01*
X016099Y006841D01*
X016099Y007070D01*
X015980Y007070D01*
X015944Y007061D01*
X015912Y007042D01*
X015886Y007016D01*
X015868Y006984D01*
X015861Y006961D01*
X015861Y009278D01*
X015754Y009680D01*
X015754Y009680D01*
X015546Y010041D01*
X015252Y010335D01*
X015252Y010335D01*
X014891Y010543D01*
X014490Y010650D01*
X014174Y010650D01*
X014168Y010652D01*
X014126Y010670D01*
X014091Y010702D01*
X014068Y010742D01*
X014061Y010770D01*
X014061Y010841D01*
X014070Y010926D01*
X014061Y010955D01*
X014061Y012816D01*
X014080Y012772D01*
X014243Y012609D01*
X014400Y012544D01*
X014389Y012540D01*
X014323Y012506D01*
X014262Y012463D01*
X014209Y012410D01*
X014166Y012349D01*
X014132Y012283D01*
X014109Y012212D01*
X014097Y012140D01*
X014531Y012140D01*
X014531Y012060D01*
X014611Y012060D01*
X014611Y011626D01*
X014683Y011638D01*
X014754Y011661D01*
X014820Y011695D01*
X014881Y011738D01*
X014934Y011791D01*
X014977Y011852D01*
X014943Y011804D02*
X016060Y011804D01*
X016090Y011726D02*
X014863Y011726D01*
X014712Y011647D02*
X016140Y011647D01*
X016227Y011569D02*
X014061Y011569D01*
X014061Y011647D02*
X014431Y011647D01*
X014460Y011638D02*
X014531Y011626D01*
X014531Y012060D01*
X014097Y012060D01*
X014109Y011989D01*
X014132Y011918D01*
X014166Y011852D01*
X014209Y011791D01*
X014262Y011738D01*
X014323Y011695D01*
X014389Y011661D01*
X014460Y011638D01*
X014531Y011647D02*
X014611Y011647D01*
X014611Y011726D02*
X014531Y011726D01*
X014531Y011804D02*
X014611Y011804D01*
X014611Y011883D02*
X014531Y011883D01*
X014531Y011961D02*
X014611Y011961D01*
X014611Y012040D02*
X014531Y012040D01*
X014531Y012118D02*
X014061Y012118D01*
X014061Y012040D02*
X014101Y012040D01*
X014118Y011961D02*
X014061Y011961D01*
X014061Y011883D02*
X014150Y011883D01*
X014200Y011804D02*
X014061Y011804D01*
X014061Y011726D02*
X014280Y011726D01*
X014061Y011490D02*
X018251Y011490D01*
X018252Y011488D02*
X018286Y011422D01*
X018329Y011361D01*
X018382Y011308D01*
X018443Y011265D01*
X018509Y011231D01*
X018580Y011208D01*
X018651Y011196D01*
X018651Y011630D01*
X018217Y011630D01*
X018229Y011559D01*
X018252Y011488D01*
X018227Y011569D02*
X016696Y011569D01*
X016783Y011647D02*
X018651Y011647D01*
X018651Y011569D02*
X018731Y011569D01*
X018732Y011647D02*
X020891Y011647D01*
X020891Y011569D02*
X019156Y011569D01*
X019132Y011490D02*
X020891Y011490D01*
X020891Y011412D02*
X019090Y011412D01*
X019025Y011333D02*
X020891Y011333D01*
X020891Y011255D02*
X018921Y011255D01*
X018731Y011255D02*
X018651Y011255D01*
X018651Y011333D02*
X018731Y011333D01*
X018731Y011412D02*
X018651Y011412D01*
X018651Y011490D02*
X018731Y011490D01*
X018462Y011255D02*
X014061Y011255D01*
X014061Y011333D02*
X018358Y011333D01*
X018293Y011412D02*
X014061Y011412D01*
X014061Y011176D02*
X020891Y011176D01*
X020891Y011098D02*
X014061Y011098D01*
X014061Y011019D02*
X020891Y011019D01*
X020891Y010941D02*
X014066Y010941D01*
X014064Y010862D02*
X020891Y010862D01*
X020891Y010784D02*
X014061Y010784D01*
X014089Y010705D02*
X020891Y010705D01*
X020891Y010627D02*
X014579Y010627D01*
X014872Y010548D02*
X020891Y010548D01*
X020891Y010470D02*
X015018Y010470D01*
X014891Y010543D02*
X014891Y010543D01*
X015154Y010391D02*
X020891Y010391D01*
X020891Y010313D02*
X015274Y010313D01*
X015352Y010234D02*
X020891Y010234D01*
X020891Y010155D02*
X015431Y010155D01*
X015509Y010077D02*
X020891Y010077D01*
X020891Y009998D02*
X017432Y009998D01*
X017388Y010017D02*
X017093Y010017D01*
X016821Y009904D01*
X016613Y009696D01*
X016500Y009424D01*
X016500Y009130D01*
X016613Y008858D01*
X016821Y008650D01*
X017093Y008537D01*
X017388Y008537D01*
X017659Y008650D01*
X017868Y008858D01*
X017980Y009130D01*
X017980Y009424D01*
X017868Y009696D01*
X017659Y009904D01*
X017388Y010017D01*
X017622Y009920D02*
X020891Y009920D01*
X020891Y009841D02*
X017722Y009841D01*
X017801Y009763D02*
X020891Y009763D01*
X020891Y009684D02*
X017873Y009684D01*
X017905Y009606D02*
X020891Y009606D01*
X020891Y009527D02*
X017938Y009527D01*
X017970Y009449D02*
X020891Y009449D01*
X020891Y009370D02*
X017980Y009370D01*
X017980Y009292D02*
X020891Y009292D01*
X020891Y009213D02*
X017980Y009213D01*
X017980Y009135D02*
X020891Y009135D01*
X020891Y009056D02*
X017950Y009056D01*
X017917Y008978D02*
X020891Y008978D01*
X020891Y008899D02*
X017885Y008899D01*
X017831Y008821D02*
X020891Y008821D01*
X020891Y008742D02*
X017752Y008742D01*
X017674Y008664D02*
X020891Y008664D01*
X020891Y008585D02*
X017504Y008585D01*
X016976Y008585D02*
X015861Y008585D01*
X015861Y008507D02*
X020891Y008507D01*
X020891Y008428D02*
X015861Y008428D01*
X015861Y008350D02*
X020891Y008350D01*
X020891Y008271D02*
X015861Y008271D01*
X015861Y008193D02*
X020891Y008193D01*
X020891Y008114D02*
X015861Y008114D01*
X015861Y008036D02*
X020891Y008036D01*
X020891Y007957D02*
X015861Y007957D01*
X015861Y007879D02*
X020891Y007879D01*
X020891Y007800D02*
X015861Y007800D01*
X015861Y007722D02*
X020891Y007722D01*
X020891Y007643D02*
X015861Y007643D01*
X015861Y007565D02*
X017509Y007565D01*
X017654Y007565D02*
X020891Y007565D01*
X020891Y007486D02*
X017790Y007486D01*
X017849Y007408D02*
X020891Y007408D01*
X020891Y007329D02*
X017881Y007329D01*
X017948Y007251D02*
X019315Y007251D01*
X019361Y007297D02*
X019255Y007191D01*
X019255Y006873D01*
X019293Y006835D01*
X019255Y006797D01*
X019255Y006479D01*
X019293Y006441D01*
X019255Y006404D01*
X019255Y006085D01*
X019293Y006048D01*
X019255Y006010D01*
X019255Y005692D01*
X019293Y005654D01*
X019255Y005616D01*
X019255Y005298D01*
X019361Y005192D01*
X019886Y005192D01*
X019972Y005157D01*
X020091Y005157D01*
X020201Y005203D01*
X020286Y005287D01*
X020331Y005397D01*
X020331Y005517D01*
X020286Y005627D01*
X020259Y005654D01*
X020286Y005681D01*
X020891Y005681D01*
X020891Y005759D02*
X020318Y005759D01*
X020331Y005791D02*
X020331Y005910D01*
X020286Y006021D01*
X020259Y006048D01*
X020286Y006075D01*
X020331Y006185D01*
X020331Y006304D01*
X020286Y006414D01*
X020259Y006441D01*
X020286Y006468D01*
X020331Y006579D01*
X020331Y006698D01*
X020286Y006808D01*
X020201Y006893D01*
X020091Y006938D01*
X020029Y006938D01*
X020029Y007191D01*
X019923Y007297D01*
X019361Y007297D01*
X019255Y007172D02*
X018008Y007172D01*
X018008Y007094D02*
X019255Y007094D01*
X019255Y007015D02*
X018008Y007015D01*
X018008Y006937D02*
X018053Y006937D01*
X018048Y006928D02*
X018039Y006893D01*
X018039Y006284D01*
X018591Y006284D01*
X018591Y006204D01*
X018671Y006204D01*
X018671Y005475D01*
X019103Y005475D01*
X019138Y005484D01*
X019170Y005503D01*
X019196Y005529D01*
X019215Y005561D01*
X019224Y005596D01*
X019224Y006204D01*
X018671Y006204D01*
X018671Y006284D01*
X018591Y006284D01*
X018591Y007014D01*
X018160Y007014D01*
X018125Y007005D01*
X018093Y006986D01*
X018067Y006960D01*
X018048Y006928D01*
X018039Y006858D02*
X017994Y006858D01*
X018008Y006780D02*
X018039Y006780D01*
X018039Y006701D02*
X018008Y006701D01*
X018008Y006623D02*
X018039Y006623D01*
X018039Y006544D02*
X018008Y006544D01*
X017995Y006466D02*
X018039Y006466D01*
X018039Y006387D02*
X018008Y006387D01*
X018008Y006309D02*
X018039Y006309D01*
X018008Y006230D02*
X018591Y006230D01*
X018591Y006152D02*
X018671Y006152D01*
X018671Y006230D02*
X019255Y006230D01*
X019224Y006284D02*
X019224Y006893D01*
X019215Y006928D01*
X019196Y006960D01*
X019170Y006986D01*
X019138Y007005D01*
X019103Y007014D01*
X018671Y007014D01*
X018671Y006284D01*
X019224Y006284D01*
X019224Y006309D02*
X019255Y006309D01*
X019255Y006387D02*
X019224Y006387D01*
X019224Y006466D02*
X019268Y006466D01*
X019255Y006544D02*
X019224Y006544D01*
X019224Y006623D02*
X019255Y006623D01*
X019255Y006701D02*
X019224Y006701D01*
X019224Y006780D02*
X019255Y006780D01*
X019269Y006858D02*
X019224Y006858D01*
X019210Y006937D02*
X019255Y006937D01*
X018671Y006937D02*
X018591Y006937D01*
X018591Y006858D02*
X018671Y006858D01*
X018671Y006780D02*
X018591Y006780D01*
X018591Y006701D02*
X018671Y006701D01*
X018671Y006623D02*
X018591Y006623D01*
X018591Y006544D02*
X018671Y006544D01*
X018671Y006466D02*
X018591Y006466D01*
X018591Y006387D02*
X018671Y006387D01*
X018671Y006309D02*
X018591Y006309D01*
X018591Y006073D02*
X018671Y006073D01*
X018671Y005995D02*
X018591Y005995D01*
X018591Y005916D02*
X018671Y005916D01*
X018671Y005838D02*
X018591Y005838D01*
X018591Y005759D02*
X018671Y005759D01*
X018671Y005681D02*
X018591Y005681D01*
X018591Y005602D02*
X018671Y005602D01*
X018671Y005524D02*
X018591Y005524D01*
X018226Y005445D02*
X019255Y005445D01*
X019255Y005367D02*
X018226Y005367D01*
X018226Y005288D02*
X019265Y005288D01*
X019343Y005210D02*
X018226Y005210D01*
X018226Y005131D02*
X020891Y005131D01*
X020891Y005053D02*
X018226Y005053D01*
X018226Y004974D02*
X020891Y004974D01*
X020891Y004896D02*
X018226Y004896D01*
X018226Y004817D02*
X020891Y004817D01*
X020891Y004739D02*
X018288Y004739D01*
X018367Y004660D02*
X020891Y004660D01*
X020891Y004582D02*
X018445Y004582D01*
X019113Y004503D02*
X020891Y004503D01*
X020891Y004425D02*
X019976Y004425D01*
X020051Y004346D02*
X020891Y004346D01*
X020891Y004268D02*
X020101Y004268D01*
X020129Y004189D02*
X020891Y004189D01*
X020891Y004111D02*
X020138Y004111D01*
X020138Y004032D02*
X020891Y004032D01*
X020891Y003954D02*
X020138Y003954D01*
X020138Y003875D02*
X020891Y003875D01*
X020891Y003797D02*
X020138Y003797D01*
X020145Y003718D02*
X020891Y003718D01*
X020891Y003640D02*
X020145Y003640D01*
X020128Y003561D02*
X020891Y003561D01*
X020891Y003483D02*
X020095Y003483D01*
X020042Y003400D02*
X020033Y003394D01*
X020027Y003385D01*
X020012Y003382D01*
X019996Y003371D01*
X019982Y003357D01*
X019976Y003344D01*
X019965Y003340D01*
X019957Y003332D01*
X019942Y003332D01*
X019924Y003326D01*
X019883Y002698D02*
X020891Y002698D01*
X020891Y002776D02*
X019209Y002776D01*
X019204Y002698D02*
X019635Y002698D01*
X019510Y002619D02*
X019171Y002619D01*
X019108Y002541D02*
X019433Y002541D01*
X019394Y002462D02*
X016494Y002462D01*
X016510Y002384D02*
X019378Y002384D01*
X019376Y002305D02*
X016512Y002305D01*
X016508Y002227D02*
X019380Y002227D01*
X019380Y002148D02*
X016508Y002148D01*
X016508Y002070D02*
X019380Y002070D01*
X019380Y001991D02*
X016508Y001991D01*
X016511Y001913D02*
X019377Y001913D01*
X019380Y001834D02*
X016508Y001834D01*
X016655Y004189D02*
X016681Y004189D01*
X016681Y004268D02*
X016655Y004268D01*
X016655Y004346D02*
X016681Y004346D01*
X016693Y004425D02*
X016655Y004425D01*
X016775Y004503D02*
X015861Y004503D01*
X015861Y004425D02*
X015912Y004425D01*
X015861Y004582D02*
X017222Y004582D01*
X017222Y004660D02*
X015861Y004660D01*
X015861Y004739D02*
X017222Y004739D01*
X017160Y004817D02*
X015861Y004817D01*
X015861Y004896D02*
X017082Y004896D01*
X017047Y004974D02*
X015861Y004974D01*
X015861Y005053D02*
X017031Y005053D01*
X017032Y005131D02*
X015861Y005131D01*
X015861Y005210D02*
X017065Y005210D01*
X017125Y005288D02*
X015861Y005288D01*
X015861Y005367D02*
X016357Y005367D01*
X016117Y005445D02*
X016099Y005445D01*
X016099Y005524D02*
X016117Y005524D01*
X016117Y005602D02*
X016099Y005602D01*
X015888Y005445D02*
X015861Y005445D01*
X016346Y004425D02*
X016448Y004425D01*
X016926Y005367D02*
X017234Y005367D01*
X017234Y005445D02*
X017019Y005445D01*
X017062Y005524D02*
X017234Y005524D01*
X017234Y005602D02*
X017081Y005602D01*
X017081Y005681D02*
X017245Y005681D01*
X017234Y005759D02*
X017053Y005759D01*
X017012Y005838D02*
X017234Y005838D01*
X017234Y005916D02*
X017058Y005916D01*
X017081Y005995D02*
X017234Y005995D01*
X017246Y006073D02*
X017081Y006073D01*
X017056Y006152D02*
X017234Y006152D01*
X017234Y006230D02*
X017007Y006230D01*
X016896Y006309D02*
X017234Y006309D01*
X017234Y006387D02*
X016845Y006387D01*
X016845Y006466D02*
X017247Y006466D01*
X017234Y006544D02*
X016845Y006544D01*
X016827Y006623D02*
X017234Y006623D01*
X017234Y006701D02*
X016845Y006701D01*
X016845Y006780D02*
X017234Y006780D01*
X017249Y006858D02*
X016845Y006858D01*
X016845Y006937D02*
X017234Y006937D01*
X017234Y007015D02*
X016834Y007015D01*
X016848Y007094D02*
X017234Y007094D01*
X017234Y007172D02*
X016855Y007172D01*
X016846Y007251D02*
X017281Y007251D01*
X017281Y007329D02*
X016814Y007329D01*
X016742Y007408D02*
X017314Y007408D01*
X017373Y007486D02*
X015861Y007486D01*
X015861Y007408D02*
X016368Y007408D01*
X016296Y007329D02*
X015861Y007329D01*
X015861Y007251D02*
X016263Y007251D01*
X016255Y007172D02*
X015861Y007172D01*
X015861Y007094D02*
X016262Y007094D01*
X016117Y007015D02*
X016099Y007015D01*
X016099Y006937D02*
X016117Y006937D01*
X016117Y006858D02*
X016099Y006858D01*
X015886Y007015D02*
X015861Y007015D01*
X015861Y008664D02*
X016807Y008664D01*
X016728Y008742D02*
X015861Y008742D01*
X015861Y008821D02*
X016650Y008821D01*
X016596Y008899D02*
X015861Y008899D01*
X015861Y008978D02*
X016563Y008978D01*
X016531Y009056D02*
X015861Y009056D01*
X015861Y009135D02*
X016500Y009135D01*
X016500Y009213D02*
X015861Y009213D01*
X015858Y009292D02*
X016500Y009292D01*
X016500Y009370D02*
X015837Y009370D01*
X015816Y009449D02*
X016511Y009449D01*
X016543Y009527D02*
X015795Y009527D01*
X015774Y009606D02*
X016576Y009606D01*
X016608Y009684D02*
X015751Y009684D01*
X015706Y009763D02*
X016680Y009763D01*
X016758Y009841D02*
X015661Y009841D01*
X015615Y009920D02*
X016859Y009920D01*
X017048Y009998D02*
X015570Y009998D01*
X015546Y010041D02*
X015546Y010041D01*
X016421Y011569D02*
X016501Y011569D01*
X016501Y011647D02*
X016421Y011647D01*
X016421Y011726D02*
X016501Y011726D01*
X016501Y011804D02*
X016421Y011804D01*
X016502Y011883D02*
X018267Y011883D01*
X018236Y011804D02*
X016863Y011804D01*
X016833Y011726D02*
X018220Y011726D01*
X018316Y011961D02*
X016874Y011961D01*
X016857Y012040D02*
X018392Y012040D01*
X017950Y012118D02*
X016823Y012118D01*
X016764Y012197D02*
X017785Y012197D01*
X017707Y012275D02*
X016692Y012275D01*
X016795Y012354D02*
X017628Y012354D01*
X017550Y012432D02*
X016870Y012432D01*
X016903Y012511D02*
X017471Y012511D01*
X017393Y012589D02*
X016935Y012589D01*
X016941Y012668D02*
X017314Y012668D01*
X017236Y012746D02*
X016941Y012746D01*
X016231Y012275D02*
X015014Y012275D01*
X015037Y012197D02*
X016158Y012197D01*
X016100Y012118D02*
X014612Y012118D01*
X014974Y012354D02*
X016128Y012354D01*
X016053Y012432D02*
X014911Y012432D01*
X014812Y012511D02*
X016020Y012511D01*
X015988Y012589D02*
X014852Y012589D01*
X014959Y012668D02*
X015981Y012668D01*
X015981Y012746D02*
X015037Y012746D01*
X015042Y012040D02*
X016066Y012040D01*
X016049Y011961D02*
X015025Y011961D01*
X014331Y012511D02*
X014061Y012511D01*
X014061Y012589D02*
X014291Y012589D01*
X014184Y012668D02*
X014061Y012668D01*
X014061Y012746D02*
X014106Y012746D01*
X014061Y012432D02*
X014232Y012432D01*
X014169Y012354D02*
X014061Y012354D01*
X014061Y012275D02*
X014129Y012275D01*
X014106Y012197D02*
X014061Y012197D01*
X014061Y013453D02*
X014103Y013453D01*
X014061Y013531D02*
X014182Y013531D01*
X014260Y013610D02*
X014061Y013610D01*
X014061Y013688D02*
X014261Y013688D01*
X014261Y013767D02*
X014061Y013767D01*
X014061Y013845D02*
X014261Y013845D01*
X014261Y013924D02*
X014061Y013924D01*
X014061Y014002D02*
X014261Y014002D01*
X014261Y014081D02*
X014061Y014081D01*
X014061Y014159D02*
X014261Y014159D01*
X014261Y014238D02*
X014061Y014238D01*
X014061Y014316D02*
X014261Y014316D01*
X014261Y014395D02*
X014061Y014395D01*
X014061Y014473D02*
X014261Y014473D01*
X014261Y014552D02*
X014061Y014552D01*
X014061Y014630D02*
X014261Y014630D01*
X014261Y014709D02*
X014061Y014709D01*
X014061Y014787D02*
X014261Y014787D01*
X014261Y014866D02*
X014061Y014866D01*
X014061Y014944D02*
X014261Y014944D01*
X014261Y015023D02*
X014061Y015023D01*
X014061Y015101D02*
X014261Y015101D01*
X014261Y015180D02*
X014061Y015180D01*
X014061Y015258D02*
X014261Y015258D01*
X014261Y015337D02*
X014061Y015337D01*
X014061Y015415D02*
X014261Y015415D01*
X014261Y015494D02*
X014061Y015494D01*
X014061Y015572D02*
X014261Y015572D01*
X014261Y015651D02*
X014061Y015651D01*
X014061Y015729D02*
X014261Y015729D01*
X014261Y015808D02*
X014061Y015808D01*
X014061Y015886D02*
X014261Y015886D01*
X014261Y015965D02*
X014061Y015965D01*
X014061Y016043D02*
X014261Y016043D01*
X014261Y016122D02*
X014061Y016122D01*
X014061Y016200D02*
X014261Y016200D01*
X014261Y016279D02*
X014061Y016279D01*
X014061Y016357D02*
X014261Y016357D01*
X014261Y016436D02*
X014061Y016436D01*
X014061Y016514D02*
X014261Y016514D01*
X014261Y016593D02*
X014061Y016593D01*
X014061Y016671D02*
X014261Y016671D01*
X014277Y016750D02*
X014061Y016750D01*
X014061Y016828D02*
X014309Y016828D01*
X014342Y016907D02*
X014032Y016907D01*
X014000Y016985D02*
X014409Y016985D01*
X014487Y017064D02*
X013959Y017064D01*
X013880Y017142D02*
X014566Y017142D01*
X014644Y017221D02*
X013802Y017221D01*
X013723Y017299D02*
X014723Y017299D01*
X014801Y017378D02*
X013645Y017378D01*
X013566Y017456D02*
X014880Y017456D01*
X014958Y017535D02*
X013488Y017535D01*
X013430Y017613D02*
X015001Y017613D01*
X015080Y017692D02*
X013351Y017692D01*
X013273Y017770D02*
X015166Y017770D01*
X015356Y017849D02*
X013089Y017849D01*
X012762Y017849D02*
X012146Y017849D01*
X012144Y017850D02*
X012127Y017888D01*
X012127Y017894D01*
X012122Y017898D01*
X012119Y017904D01*
X012114Y017906D01*
X012085Y017936D01*
X012061Y017970D01*
X012060Y017975D01*
X012054Y017979D01*
X012051Y017984D01*
X012045Y017985D01*
X012011Y018009D01*
X011981Y018039D01*
X011980Y018044D01*
X011974Y018047D01*
X011969Y018051D01*
X011964Y018051D01*
X011926Y018069D01*
X011891Y018093D01*
X011889Y018098D01*
X011882Y018099D01*
X011877Y018103D01*
X011872Y018102D01*
X011831Y018113D01*
X011793Y018131D01*
X011790Y018135D01*
X011783Y018135D01*
X011778Y018138D01*
X011773Y018136D01*
X011731Y018140D01*
X011690Y018151D01*
X011686Y018154D01*
X011680Y018154D01*
X011673Y018155D01*
X011669Y018153D01*
X011627Y018149D01*
X011585Y018153D01*
X011581Y018155D01*
X011574Y018154D01*
X011568Y018154D01*
X011564Y018151D01*
X011523Y018140D01*
X011482Y018136D01*
X011477Y018138D01*
X011471Y018135D01*
X011464Y018135D01*
X011461Y018131D01*
X011423Y018113D01*
X011382Y018102D01*
X011377Y018103D01*
X011372Y018099D01*
X011365Y018098D01*
X011363Y018093D01*
X011328Y018069D01*
X011290Y018051D01*
X011285Y018051D01*
X011280Y018047D01*
X011274Y018044D01*
X011273Y018039D01*
X011243Y018009D01*
X011209Y017985D01*
X011203Y017984D01*
X011200Y017979D01*
X011194Y017975D01*
X011193Y017970D01*
X011169Y017936D01*
X011140Y017906D01*
X011135Y017904D01*
X011132Y017898D01*
X011127Y017894D01*
X011127Y017888D01*
X011110Y017850D01*
X011086Y017816D01*
X011081Y017813D01*
X011079Y017807D01*
X011075Y017802D01*
X011076Y017796D01*
X011066Y017756D01*
X011048Y017718D01*
X011044Y017715D01*
X011043Y017708D01*
X011040Y017702D01*
X011042Y017697D01*
X011039Y017655D01*
X011031Y017628D01*
X011030Y017627D01*
X011030Y017624D01*
X011023Y017598D01*
X011030Y017586D01*
X011030Y017560D01*
X011024Y017492D01*
X011030Y017485D01*
X011030Y016532D01*
X011024Y016525D01*
X011030Y016457D01*
X011030Y016431D01*
X011023Y016419D01*
X011030Y016393D01*
X011030Y016390D01*
X011031Y016389D01*
X011039Y016362D01*
X011042Y016320D01*
X011040Y016315D01*
X011043Y016309D01*
X011044Y016302D01*
X011048Y016299D01*
X011066Y016261D01*
X011076Y016221D01*
X011075Y016215D01*
X011079Y016210D01*
X011081Y016204D01*
X011086Y016201D01*
X011110Y016167D01*
X011127Y016129D01*
X011127Y016123D01*
X011132Y016119D01*
X011135Y016113D01*
X011140Y016111D01*
X011169Y016081D01*
X011193Y016047D01*
X011194Y016042D01*
X011200Y016038D01*
X011203Y016033D01*
X011209Y016032D01*
X011243Y016008D01*
X011273Y015978D01*
X011274Y015973D01*
X011280Y015970D01*
X011285Y015966D01*
X011290Y015966D01*
X011328Y015948D01*
X011363Y015924D01*
X011365Y015919D01*
X011372Y015918D01*
X011377Y015914D01*
X011382Y015915D01*
X011423Y015904D01*
X011461Y015886D01*
X010146Y015886D01*
X010146Y015808D02*
X012901Y015808D01*
X012901Y015886D02*
X011802Y015886D01*
X011803Y015887D02*
X011805Y015886D01*
X011856Y015913D01*
X011911Y015930D01*
X011912Y015932D01*
X011915Y015932D01*
X011959Y015968D01*
X012010Y015996D01*
X012011Y015998D01*
X012013Y015998D01*
X012050Y016043D01*
X012901Y016043D01*
X012901Y015965D02*
X011954Y015965D01*
X012050Y016043D02*
X012094Y016079D01*
X012094Y016082D01*
X012097Y016083D01*
X012124Y016133D01*
X012160Y016178D01*
X012160Y016180D01*
X012163Y016182D01*
X012179Y016237D01*
X012206Y016287D01*
X012206Y016290D01*
X012208Y016292D01*
X012213Y016349D01*
X012230Y016404D01*
X012224Y016415D01*
X012224Y016456D01*
X012230Y016523D01*
X012224Y016531D01*
X012224Y017485D01*
X012230Y017492D01*
X012224Y017560D01*
X012224Y017586D01*
X012231Y017598D01*
X012224Y017624D01*
X012224Y017627D01*
X012223Y017628D01*
X012215Y017655D01*
X012212Y017697D01*
X012214Y017702D01*
X012211Y017708D01*
X012210Y017715D01*
X012206Y017718D01*
X012189Y017756D01*
X012178Y017796D01*
X012179Y017802D01*
X012175Y017807D01*
X012173Y017813D01*
X012169Y017816D01*
X012144Y017850D01*
X012185Y017770D02*
X012578Y017770D01*
X012500Y017692D02*
X012212Y017692D01*
X012227Y017613D02*
X012421Y017613D01*
X012384Y017535D02*
X012226Y017535D01*
X012224Y017456D02*
X012351Y017456D01*
X012320Y017378D02*
X012224Y017378D01*
X012224Y017299D02*
X012320Y017299D01*
X012320Y017221D02*
X012224Y017221D01*
X012224Y017142D02*
X012320Y017142D01*
X012353Y017064D02*
X012224Y017064D01*
X012224Y016985D02*
X012385Y016985D01*
X012425Y016907D02*
X012224Y016907D01*
X012224Y016828D02*
X012503Y016828D01*
X012582Y016750D02*
X012224Y016750D01*
X012224Y016671D02*
X012711Y016671D01*
X012789Y016593D02*
X012224Y016593D01*
X012230Y016514D02*
X012868Y016514D01*
X012901Y016436D02*
X012224Y016436D01*
X012216Y016357D02*
X012901Y016357D01*
X012901Y016279D02*
X012202Y016279D01*
X012168Y016200D02*
X012901Y016200D01*
X012901Y016122D02*
X012118Y016122D01*
X011803Y015887D02*
X011801Y015885D01*
X011744Y015879D01*
X011689Y015863D01*
X011687Y015863D01*
X011686Y015863D01*
X011628Y015868D01*
X011584Y015863D01*
X011581Y015862D01*
X011576Y015863D01*
X011570Y015862D01*
X011565Y015866D01*
X011523Y015877D01*
X011482Y015881D01*
X011477Y015879D01*
X011471Y015882D01*
X011464Y015882D01*
X011461Y015886D01*
X011293Y015965D02*
X010146Y015965D01*
X010146Y016043D02*
X011194Y016043D01*
X011129Y016122D02*
X010146Y016122D01*
X010146Y016200D02*
X011086Y016200D01*
X011057Y016279D02*
X010146Y016279D01*
X010146Y016357D02*
X011039Y016357D01*
X011030Y016436D02*
X010146Y016436D01*
X010146Y016514D02*
X011025Y016514D01*
X011030Y016593D02*
X010146Y016593D01*
X010146Y016671D02*
X011030Y016671D01*
X011030Y016750D02*
X010146Y016750D01*
X010146Y016828D02*
X011030Y016828D01*
X011030Y016907D02*
X010146Y016907D01*
X010146Y016985D02*
X011030Y016985D01*
X011030Y017064D02*
X010146Y017064D01*
X010146Y017142D02*
X011030Y017142D01*
X011030Y017221D02*
X010146Y017221D01*
X010146Y017299D02*
X011030Y017299D01*
X011030Y017378D02*
X010146Y017378D01*
X010146Y017456D02*
X011030Y017456D01*
X011028Y017535D02*
X010146Y017535D01*
X010146Y017613D02*
X011027Y017613D01*
X011042Y017692D02*
X010146Y017692D01*
X010146Y017770D02*
X011069Y017770D01*
X011108Y017849D02*
X010146Y017849D01*
X010146Y017927D02*
X011161Y017927D01*
X011238Y018006D02*
X010146Y018006D01*
X010146Y018084D02*
X011350Y018084D01*
X011904Y018084D02*
X016480Y018084D01*
X016368Y018006D02*
X012017Y018006D01*
X012093Y017927D02*
X016291Y017927D01*
X016239Y017849D02*
X015635Y017849D01*
X015825Y017770D02*
X016200Y017770D01*
X016172Y017692D02*
X015911Y017692D01*
X015990Y017613D02*
X016158Y017613D01*
X016159Y017535D02*
X016033Y017535D01*
X016066Y017456D02*
X016161Y017456D01*
X016161Y017378D02*
X016098Y017378D01*
X016100Y017299D02*
X016161Y017299D01*
X016161Y017221D02*
X016100Y017221D01*
X016100Y017142D02*
X016161Y017142D01*
X016161Y017064D02*
X016072Y017064D01*
X016040Y016985D02*
X016161Y016985D01*
X016161Y016907D02*
X016006Y016907D01*
X015928Y016828D02*
X016161Y016828D01*
X015838Y016739D02*
X015778Y016714D01*
X015421Y016357D01*
X015421Y016279D02*
X016188Y016279D01*
X016217Y016200D02*
X015421Y016200D01*
X015421Y016122D02*
X016260Y016122D01*
X016325Y016043D02*
X015421Y016043D01*
X015421Y015965D02*
X016423Y015965D01*
X016591Y015886D02*
X015421Y015886D01*
X015421Y015808D02*
X018117Y015808D01*
X018039Y015886D02*
X016932Y015886D01*
X017085Y015965D02*
X017962Y015965D01*
X017884Y016043D02*
X017180Y016043D01*
X017248Y016122D02*
X017806Y016122D01*
X017759Y016200D02*
X017299Y016200D01*
X017332Y016279D02*
X017741Y016279D01*
X017741Y016243D02*
X017741Y016243D01*
X017741Y016357D02*
X017346Y016357D01*
X017354Y016436D02*
X017741Y016436D01*
X017741Y016514D02*
X017360Y016514D01*
X017354Y016593D02*
X017741Y016593D01*
X017741Y016671D02*
X017354Y016671D01*
X017354Y016750D02*
X017741Y016750D01*
X017741Y016828D02*
X017354Y016828D01*
X017354Y016907D02*
X017741Y016907D01*
X017741Y016985D02*
X017354Y016985D01*
X017354Y017064D02*
X017741Y017064D01*
X017741Y017142D02*
X017354Y017142D01*
X017354Y017221D02*
X017741Y017221D01*
X017741Y017299D02*
X017354Y017299D01*
X017354Y017378D02*
X017741Y017378D01*
X017741Y017456D02*
X017354Y017456D01*
X017357Y017535D02*
X017741Y017535D01*
X017741Y017613D02*
X017357Y017613D01*
X017343Y017692D02*
X017741Y017692D01*
X017741Y017770D02*
X017315Y017770D01*
X017276Y017849D02*
X017741Y017849D01*
X017741Y017927D02*
X017224Y017927D01*
X017147Y018006D02*
X017741Y018006D01*
X017741Y018084D02*
X017035Y018084D01*
X017741Y018163D02*
X010146Y018163D01*
X010146Y018241D02*
X017741Y018241D01*
X017741Y018320D02*
X010146Y018320D01*
X010146Y018398D02*
X017741Y018398D01*
X017741Y018477D02*
X010146Y018477D01*
X010146Y018555D02*
X017741Y018555D01*
X017741Y018634D02*
X010146Y018634D01*
X010146Y018712D02*
X017741Y018712D01*
X017741Y018791D02*
X010146Y018791D01*
X010146Y018869D02*
X017741Y018869D01*
X017741Y018948D02*
X010146Y018948D01*
X010146Y019026D02*
X017741Y019026D01*
X017741Y019105D02*
X014166Y019105D01*
X014297Y019180D02*
X014297Y019180D01*
X014297Y019180D01*
X014299Y019183D02*
X017741Y019183D01*
X017741Y019262D02*
X014344Y019262D01*
X014389Y019340D02*
X017741Y019340D01*
X017741Y019419D02*
X014421Y019419D01*
X014421Y019497D02*
X017741Y019497D01*
X017739Y019576D02*
X014421Y019576D01*
X014421Y019654D02*
X017705Y019654D01*
X018195Y015729D02*
X015421Y015729D01*
X015421Y015651D02*
X018273Y015651D01*
X018351Y015572D02*
X015421Y015572D01*
X015421Y015494D02*
X018429Y015494D01*
X018507Y015415D02*
X015421Y015415D01*
X015421Y015337D02*
X018585Y015337D01*
X018662Y015258D02*
X015421Y015258D01*
X015421Y015180D02*
X018740Y015180D01*
X018818Y015101D02*
X015421Y015101D01*
X015421Y015023D02*
X018896Y015023D01*
X018974Y014944D02*
X015421Y014944D01*
X015421Y014866D02*
X019052Y014866D01*
X019130Y014787D02*
X015421Y014787D01*
X015421Y014709D02*
X019208Y014709D01*
X019286Y014630D02*
X015421Y014630D01*
X015421Y014552D02*
X019363Y014552D01*
X019441Y014473D02*
X015421Y014473D01*
X015421Y014395D02*
X019519Y014395D01*
X019597Y014316D02*
X015421Y014316D01*
X015421Y014238D02*
X019675Y014238D01*
X019753Y014159D02*
X018857Y014159D01*
X019009Y014081D02*
X019831Y014081D01*
X019909Y014002D02*
X019088Y014002D01*
X019144Y013924D02*
X019986Y013924D01*
X020064Y013845D02*
X019176Y013845D01*
X019206Y013767D02*
X020142Y013767D01*
X020220Y013688D02*
X019206Y013688D01*
X019206Y013610D02*
X020298Y013610D01*
X020376Y013531D02*
X019191Y013531D01*
X019158Y013453D02*
X020454Y013453D01*
X020532Y013374D02*
X019123Y013374D01*
X019044Y013296D02*
X020610Y013296D01*
X020687Y013217D02*
X018942Y013217D01*
X019044Y013139D02*
X020765Y013139D01*
X020843Y013060D02*
X019122Y013060D01*
X019190Y012982D02*
X020891Y012982D01*
X020891Y012903D02*
X019223Y012903D01*
X019255Y012825D02*
X020891Y012825D01*
X020891Y012746D02*
X019271Y012746D01*
X019271Y012668D02*
X020891Y012668D01*
X020891Y012589D02*
X019271Y012589D01*
X019253Y012511D02*
X020891Y012511D01*
X020891Y012432D02*
X019221Y012432D01*
X019188Y012354D02*
X020891Y012354D01*
X020891Y012275D02*
X019116Y012275D01*
X019038Y012197D02*
X020891Y012197D01*
X020891Y012118D02*
X018873Y012118D01*
X018991Y012040D02*
X020891Y012040D01*
X020891Y011961D02*
X019067Y011961D01*
X019116Y011883D02*
X020891Y011883D01*
X020891Y011804D02*
X019147Y011804D01*
X019163Y011726D02*
X020891Y011726D01*
X018339Y013296D02*
X018327Y013296D01*
X018260Y013374D02*
X018248Y013374D01*
X018225Y013453D02*
X018170Y013453D01*
X018192Y013531D02*
X018091Y013531D01*
X018013Y013610D02*
X018177Y013610D01*
X018177Y013688D02*
X017934Y013688D01*
X017856Y013767D02*
X018177Y013767D01*
X018207Y013845D02*
X017777Y013845D01*
X017612Y013924D02*
X018239Y013924D01*
X018295Y014002D02*
X015557Y014002D01*
X015486Y014081D02*
X018374Y014081D01*
X018526Y014159D02*
X015434Y014159D01*
X012901Y014395D02*
X012858Y014395D01*
X012813Y014461D02*
X012813Y014461D01*
X012813Y014461D01*
X012798Y014473D02*
X012901Y014473D01*
X012901Y014552D02*
X012697Y014552D01*
X012596Y014630D02*
X012901Y014630D01*
X012901Y014709D02*
X012495Y014709D01*
X012469Y014729D02*
X012469Y014729D01*
X012309Y014787D02*
X012901Y014787D01*
X012901Y014866D02*
X012093Y014866D01*
X012901Y014944D02*
X010746Y014944D01*
X010574Y015023D02*
X012901Y015023D01*
X012901Y015101D02*
X010466Y015101D01*
X010380Y015180D02*
X012901Y015180D01*
X012901Y015258D02*
X010323Y015258D01*
X010266Y015337D02*
X012901Y015337D01*
X012901Y015415D02*
X010228Y015415D01*
X010202Y015494D02*
X012901Y015494D01*
X012901Y015572D02*
X010177Y015572D01*
X010156Y015651D02*
X012901Y015651D01*
X012901Y015729D02*
X010150Y015729D01*
X010146Y019105D02*
X013497Y019105D01*
X013364Y019183D02*
X010146Y019183D01*
X010146Y019262D02*
X013319Y019262D01*
X013274Y019340D02*
X010146Y019340D01*
X010146Y019419D02*
X013241Y019419D01*
X013241Y019497D02*
X010146Y019497D01*
X010149Y019576D02*
X013241Y019576D01*
X013241Y019654D02*
X010183Y019654D01*
X019969Y007251D02*
X020891Y007251D01*
X020891Y007172D02*
X020029Y007172D01*
X020029Y007094D02*
X020891Y007094D01*
X020891Y007015D02*
X020029Y007015D01*
X020094Y006937D02*
X020891Y006937D01*
X020891Y006858D02*
X020235Y006858D01*
X020297Y006780D02*
X020891Y006780D01*
X020891Y006701D02*
X020330Y006701D01*
X020331Y006623D02*
X020891Y006623D01*
X020891Y006544D02*
X020317Y006544D01*
X020284Y006466D02*
X020891Y006466D01*
X020891Y006387D02*
X020297Y006387D01*
X020329Y006309D02*
X020891Y006309D01*
X020891Y006230D02*
X020331Y006230D01*
X020318Y006152D02*
X020891Y006152D01*
X020891Y006073D02*
X020285Y006073D01*
X020296Y005995D02*
X020891Y005995D01*
X020891Y005916D02*
X020329Y005916D01*
X020331Y005838D02*
X020891Y005838D01*
X020891Y005602D02*
X020296Y005602D01*
X020286Y005681D02*
X020331Y005791D01*
X020329Y005524D02*
X020891Y005524D01*
X020891Y005445D02*
X020331Y005445D01*
X020319Y005367D02*
X020891Y005367D01*
X020891Y005288D02*
X020286Y005288D01*
X020209Y005210D02*
X020891Y005210D01*
X019542Y004425D02*
X019440Y004425D01*
X019233Y004425D02*
X019195Y004425D01*
X019207Y004346D02*
X019233Y004346D01*
X019233Y004268D02*
X019207Y004268D01*
X019207Y004189D02*
X019233Y004189D01*
X019206Y003247D02*
X020891Y003247D01*
X020891Y003169D02*
X019206Y003169D01*
X019206Y003090D02*
X020891Y003090D01*
X020891Y003012D02*
X019206Y003012D01*
X019206Y002933D02*
X020891Y002933D01*
X020891Y002855D02*
X019209Y002855D01*
X020008Y002619D02*
X020891Y002619D01*
X020891Y002541D02*
X020085Y002541D01*
X020124Y002462D02*
X020891Y002462D01*
X020891Y002384D02*
X020140Y002384D01*
X020142Y002305D02*
X020891Y002305D01*
X020891Y002227D02*
X020138Y002227D01*
X020138Y002148D02*
X020891Y002148D01*
X020891Y002070D02*
X020138Y002070D01*
X020138Y001991D02*
X020891Y001991D01*
X020869Y001913D02*
X020141Y001913D01*
X020138Y001834D02*
X020792Y001834D01*
X019255Y005524D02*
X019192Y005524D01*
X019224Y005602D02*
X019255Y005602D01*
X019266Y005681D02*
X019224Y005681D01*
X019224Y005759D02*
X019255Y005759D01*
X019255Y005838D02*
X019224Y005838D01*
X019224Y005916D02*
X019255Y005916D01*
X019255Y005995D02*
X019224Y005995D01*
X019224Y006073D02*
X019267Y006073D01*
X019255Y006152D02*
X019224Y006152D01*
X018039Y006152D02*
X018008Y006152D01*
X017996Y006073D02*
X018039Y006073D01*
X018039Y005995D02*
X018008Y005995D01*
D24*
X019214Y004520D02*
X019214Y004110D01*
X018909Y004110D02*
X018909Y002798D01*
X016979Y003098D02*
X016979Y004110D01*
X016674Y004110D02*
X016674Y004520D01*
D25*
X016831Y004920D03*
X016481Y004920D03*
X016131Y004920D03*
X016781Y005632D03*
X016781Y006032D03*
X017331Y005070D03*
X018531Y003620D03*
X020031Y005457D03*
X020031Y005851D03*
X020031Y006244D03*
X020031Y006638D03*
X020731Y006570D03*
X020731Y007320D03*
X020731Y005820D03*
X020731Y005070D03*
X020731Y004320D03*
X020731Y003570D03*
X020731Y002820D03*
X020731Y002070D03*
X017581Y007270D03*
X016555Y007170D03*
D26*
X016631Y011670D02*
X018691Y011670D01*
D27*
X016631Y011670D02*
X015001Y011670D01*
X014571Y012100D01*
X015331Y003420D02*
X015731Y002995D01*
X017031Y002995D01*
X018606Y002995D01*
X015731Y002995D02*
X015531Y002995D01*
X015231Y003320D01*
X015281Y003345D01*
D28*
X016631Y011670D02*
X016461Y011840D01*
X016461Y011912D01*
X016461Y012699D02*
X016461Y013350D01*
X016981Y013370D01*
D29*
X017581Y007270D02*
X017581Y007072D01*
X017621Y007032D01*
X016555Y007170D02*
X016555Y006832D01*
X016555Y006432D01*
X016555Y006032D02*
X016781Y006032D01*
X016781Y005632D02*
X016555Y005632D01*
X016108Y006032D02*
X015281Y006032D01*
X015281Y006070D01*
X015281Y006370D02*
X015281Y006432D01*
X016108Y006432D01*
X017331Y005070D02*
X017452Y004950D01*
X017452Y004110D01*
X017649Y004110D02*
X017649Y003770D01*
X017699Y003720D01*
X017992Y003720D01*
X018042Y003770D01*
X018042Y004110D01*
X017846Y004110D02*
X017846Y004460D01*
X017906Y004520D01*
X017981Y004520D01*
X017996Y004535D01*
X017996Y005656D01*
X017801Y005851D01*
X017621Y005851D01*
X017651Y005851D01*
X017621Y005457D02*
X017745Y005457D01*
X017649Y005403D01*
X017649Y004110D01*
X017981Y004520D02*
X018181Y004520D01*
X018239Y004463D01*
X018239Y004110D01*
X018633Y004110D02*
X018633Y003722D01*
X018531Y003620D01*
X019642Y005457D02*
X020031Y005457D01*
X020031Y005851D02*
X019642Y005851D01*
X019642Y006244D02*
X020031Y006244D01*
X020031Y006638D02*
X019642Y006638D01*
D30*
X015281Y006370D02*
X015281Y006070D01*
X015281Y003345D01*
X015281Y006370D02*
X015281Y009070D01*
X015279Y009130D01*
X015274Y009191D01*
X015265Y009250D01*
X015252Y009309D01*
X015236Y009368D01*
X015216Y009425D01*
X015193Y009480D01*
X015166Y009535D01*
X015137Y009587D01*
X015104Y009638D01*
X015068Y009687D01*
X015030Y009733D01*
X014988Y009777D01*
X014944Y009819D01*
X014898Y009857D01*
X014849Y009893D01*
X014798Y009926D01*
X014746Y009955D01*
X014691Y009982D01*
X014636Y010005D01*
X014579Y010025D01*
X014520Y010041D01*
X014461Y010054D01*
X014402Y010063D01*
X014341Y010068D01*
X014281Y010070D01*
X014131Y010070D01*
X013781Y010070D01*
X013747Y010072D01*
X013714Y010078D01*
X013682Y010087D01*
X013651Y010100D01*
X013621Y010116D01*
X013594Y010135D01*
X013569Y010158D01*
X013546Y010183D01*
X013527Y010210D01*
X013511Y010240D01*
X013498Y010271D01*
X013489Y010303D01*
X013483Y010336D01*
X013481Y010370D01*
X013481Y010870D01*
X013481Y016720D01*
X012940Y017262D01*
X014841Y016598D02*
X015495Y017252D01*
X014841Y016598D02*
X014841Y013370D01*
X014571Y013100D01*
X014841Y013370D02*
X015481Y013370D01*
X016981Y013370D01*
X017431Y013370D01*
X018131Y012670D01*
X018691Y012670D01*
X015482Y013370D02*
X015425Y013396D01*
X015370Y013424D01*
X015316Y013456D01*
X015264Y013491D01*
X015215Y013528D01*
X015167Y013568D01*
X015122Y013611D01*
X015079Y013656D01*
X015039Y013704D01*
X015002Y013753D01*
X014967Y013805D01*
X014935Y013859D01*
X014907Y013914D01*
X014881Y013971D01*
X013481Y010870D02*
X013477Y010818D01*
X013478Y010766D01*
X013481Y010714D01*
X013489Y010663D01*
X013500Y010612D01*
X013515Y010562D01*
X013534Y010513D01*
X013555Y010466D01*
X013581Y010420D01*
X013609Y010377D01*
X013640Y010335D01*
X013674Y010296D01*
X013711Y010259D01*
X013751Y010226D01*
X013793Y010195D01*
X013837Y010167D01*
X013882Y010142D01*
X013930Y010120D01*
X013979Y010102D01*
X014029Y010088D01*
X014079Y010077D01*
X014131Y010070D01*
D31*
X018589Y003226D02*
X018606Y003208D01*
X018606Y002995D01*
X018609Y002766D02*
X018906Y002764D01*
X018906Y002795D01*
X018909Y002798D01*
X018886Y003224D02*
X018589Y003226D01*
X017031Y002995D02*
X016979Y003098D01*
D32*
X018606Y002995D02*
X018909Y002798D01*
M02*
